<svg width="94" height="94" viewBox="0 0 94 94" fill="none" xmlns="http://www.w3.org/2000/svg">
<path d="M26.2012 30.2297C35.3493 26.6297 44.7925 23.83 54.4245 21.8623L59.0671 20.9096C60.5562 20.6056 62.0979 20.6824 63.5494 21.133C65.0008 21.5835 66.3151 22.3932 67.3703 23.487C67.4961 23.6232 67.566 23.8019 67.566 23.9873C67.566 24.1728 67.4961 24.3514 67.3703 24.4876L52.0432 41.6784C50.43 43.4874 48.3525 44.8206 46.0358 45.5333C43.719 46.246 41.2514 46.3111 38.9004 45.7215L16.6925 40.1543C16.5186 40.1143 16.3651 40.0125 16.2605 39.8679C16.1559 39.7233 16.1073 39.5457 16.1237 39.3679C16.3053 37.7346 16.9293 36.1817 17.9284 34.8769C18.9276 33.5721 20.264 32.5647 21.7935 31.9634L26.2012 30.2297Z" fill="#F1CD7C"/>
<path d="M17.8603 45.2804C17.7345 45.2487 17.6027 45.2491 17.477 45.2816C17.3514 45.3141 17.2359 45.3777 17.1412 45.4664C17.0465 45.5552 16.9756 45.6663 16.935 45.7896C16.8944 45.9128 16.8854 46.0443 16.9089 46.172C18.3841 53.9413 20.8252 61.4956 24.1754 68.6591C25.0351 70.4941 26.4874 71.9865 28.2983 72.8958C30.1093 73.8051 32.1737 74.0784 34.1589 73.6718L38.7994 72.723C48.4347 70.7563 57.8784 67.9565 67.0286 64.3539L71.4373 62.6231C73.3238 61.8807 74.9054 60.5247 75.9272 58.7736C76.949 57.0226 77.3515 54.9785 77.0698 52.9708C75.9423 44.9109 73.7821 37.0296 70.6424 29.5212C70.591 29.4012 70.5102 29.2962 70.4075 29.2158C70.3047 29.1354 70.1833 29.0823 70.0546 29.0613C69.9258 29.0403 69.7938 29.0522 69.6709 29.0958C69.5479 29.1394 69.4379 29.2133 69.3512 29.3107L55.5418 44.7933C53.3596 47.2397 50.5498 49.0424 47.4165 50.0063C44.2833 50.9703 40.9461 51.0588 37.7662 50.2621L17.8624 45.2765L17.8603 45.2804Z" fill="#F1CD7C"/>
</svg>
