<svg width="14" height="18" viewBox="0 0 14 18" fill="none" xmlns="http://www.w3.org/2000/svg">
<path d="M6.85059 0.760742C5.08485 0.762825 3.39202 1.46519 2.14345 2.71376C0.894881 3.96233 0.19252 5.65515 0.190437 7.4209C0.188322 8.86386 0.659663 10.2677 1.53216 11.417C1.53216 11.417 1.7138 11.6561 1.74346 11.6907L6.85059 17.7139L11.9601 11.6876C11.9868 11.6555 12.169 11.417 12.169 11.417L12.1696 11.4152C13.0417 10.2664 13.5128 8.8632 13.5107 7.4209C13.5087 5.65515 12.8063 3.96233 11.5577 2.71376C10.3092 1.46519 8.61633 0.762825 6.85059 0.760742ZM6.85059 9.84277C6.37159 9.84277 5.90335 9.70073 5.50507 9.43461C5.10679 9.16849 4.79638 8.79025 4.61307 8.34771C4.42976 7.90517 4.3818 7.41821 4.47525 6.94841C4.5687 6.47862 4.79936 6.04708 5.13807 5.70837C5.47677 5.36967 5.90831 5.13901 6.37811 5.04556C6.8479 4.95211 7.33486 5.00007 7.7774 5.18338C8.21994 5.36668 8.59819 5.6771 8.86431 6.07538C9.13042 6.47365 9.27246 6.9419 9.27246 7.4209C9.27166 8.06297 9.01625 8.67852 8.56223 9.13254C8.10821 9.58655 7.49267 9.84197 6.85059 9.84277Z" fill="#F1CD7C"/>
</svg>
