<svg width="13" height="13" viewBox="0 0 13 13" fill="none" xmlns="http://www.w3.org/2000/svg">
<g clip-path="url(#clip0_1582_44)">
<path d="M3.0609 11.5994H9.18269V2.03407C9.18269 1.40037 8.66856 0.88623 8.03486 0.88623H4.20873C3.57503 0.88623 3.0609 1.40037 3.0609 2.03407V11.5994ZM4.59135 2.41668H7.65224V3.1819H4.59135V2.41668ZM12.2436 4.32974V10.4515C12.2436 11.0852 11.7295 11.5994 11.0958 11.5994H9.94792V3.1819H11.0958C11.7295 3.1819 12.2436 3.69604 12.2436 4.32974ZM2.29567 11.5994H1.14784C0.514135 11.5994 0 11.0852 0 10.4515V4.32974C0 3.69604 0.514135 3.1819 1.14784 3.1819H2.29567V11.5994Z" fill="#F1CD7C"/>
</g>
<defs>
<clipPath id="clip0_1582_44">
<rect width="12.2436" height="12.2436" fill="white" transform="translate(0 0.121094)"/>
</clipPath>
</defs>
</svg>
