<svg width="17" height="21" viewBox="0 0 17 21" fill="none" xmlns="http://www.w3.org/2000/svg">
<path d="M4.62598 10.0811H12.626V8.08105H4.62598V10.0811ZM4.62598 6.08105H12.626V4.08105H4.62598V6.08105ZM16.576 18.5561L12.526 13.2811C12.2426 12.8977 11.8926 12.6019 11.476 12.3936C11.0593 12.1852 10.6093 12.0811 10.126 12.0811H0.625977V2.08105C0.625977 1.53105 0.82181 1.06022 1.21348 0.668555C1.60514 0.276888 2.07598 0.0810547 2.62598 0.0810547H14.626C15.176 0.0810547 15.6468 0.276888 16.0385 0.668555C16.4301 1.06022 16.626 1.53105 16.626 2.08105V18.0811C16.626 18.1644 16.6218 18.2436 16.6135 18.3186C16.6051 18.3936 16.5926 18.4727 16.576 18.5561ZM2.62598 20.0811C2.07598 20.0811 1.60514 19.8852 1.21348 19.4936C0.82181 19.1019 0.625977 18.6311 0.625977 18.0811V14.0811H10.126C10.2926 14.0811 10.4468 14.1186 10.5885 14.1936C10.7301 14.2686 10.851 14.3727 10.951 14.5061L15.151 20.0061C15.0676 20.0394 14.9801 20.0602 14.8885 20.0686C14.7968 20.0769 14.7093 20.0811 14.626 20.0811H2.62598Z" fill="#22D1DC"/>
</svg>
