<svg width="41" height="24" viewBox="0 0 41 24" fill="none" xmlns="http://www.w3.org/2000/svg">
<path d="M6.50038 6.89361L17.8815 3.58284C18.2568 3.47457 18.578 3.22966 18.7816 2.89635C18.9853 2.56305 19.0568 2.16554 18.9819 1.78216C18.9071 1.39878 18.6914 1.05734 18.3773 0.82513C18.0632 0.59292 17.6735 0.486782 17.285 0.527633L17.0102 0.579941L1.87186 4.9929L1.62959 5.1094L1.47138 5.22216L1.30608 5.37381L1.26229 5.42107C1.18948 5.50528 1.12591 5.59707 1.07268 5.69485L1.19771 5.49969L1.14286 5.58008L1.01497 5.81289L0.926666 6.07101L0.886659 6.27366L0.881873 6.542L0.927199 6.81648L5.30644 21.8864C5.41471 22.2617 5.65963 22.5829 5.99294 22.7866C6.32624 22.9903 6.72375 23.0617 7.10713 22.9869C7.49051 22.912 7.83195 22.6963 8.06416 22.3822C8.29637 22.0681 8.40251 21.6784 8.36166 21.2899L8.30811 21.0109L4.99434 9.63532L16.7543 16.0916C26.4009 21.3905 35.8461 19.5336 40.3884 11.9849L40.7108 11.4239C40.9103 11.0607 40.9574 10.6331 40.8416 10.2352C40.7259 9.8373 40.4568 9.50167 40.0936 9.30216C39.7304 9.10264 39.3028 9.05558 38.9049 9.17134C38.507 9.28709 38.1714 9.55617 37.9718 9.91938C34.552 16.1451 27.1488 17.8936 18.9824 13.7358L18.2588 13.3526L6.50038 6.89361Z" fill="white"/>
</svg>
