<svg width="139" height="137" viewBox="0 0 139 137" fill="none" xmlns="http://www.w3.org/2000/svg">
<path d="M11.3408 84.31C11.9208 84.43 12.2108 84.88 12.2108 85.66C12.2108 86.08 12.1108 86.41 11.9108 86.65C11.7108 86.89 11.4508 87.01 11.1308 87.01C11.0308 87.01 10.8408 87 10.5608 86.98C10.2808 86.94 9.98078 86.91 9.66078 86.89C9.34078 86.85 9.03078 86.82 8.73078 86.8C8.43078 86.76 8.22078 86.74 8.10078 86.74C7.98078 86.74 7.87078 86.74 7.77078 86.74C7.67078 86.74 7.57078 86.75 7.47078 86.77C7.13078 86.75 6.73078 86.71 6.27078 86.65C5.83078 86.57 5.39078 86.49 4.95078 86.41C4.53078 86.31 4.15078 86.21 3.81078 86.11C3.49078 86.01 3.30078 85.92 3.24078 85.84C3.04078 85.24 2.94078 84.44 2.94078 83.44C2.94078 83.28 2.94078 83.12 2.94078 82.96C2.94078 82.78 2.95078 82.6 2.97078 82.42L3.15078 80.29C3.17078 80.13 3.18078 79.98 3.18078 79.84C3.18078 79.68 3.18078 79.54 3.18078 79.42C3.18078 79.26 3.18078 79.13 3.18078 79.03C3.18078 78.91 3.16078 78.8 3.12078 78.7C3.26078 77.94 3.36078 77.31 3.42078 76.81C3.48078 76.29 3.51078 75.89 3.51078 75.61V75.37C3.51078 75.09 3.63078 74.2 3.87078 72.7C4.17078 72.06 4.63078 71.74 5.25078 71.74C5.63078 71.74 5.95078 71.89 6.21078 72.19C6.47078 72.47 6.60078 72.86 6.60078 73.36C6.52078 73.64 6.44078 73.99 6.36078 74.41C6.30078 74.83 6.24078 75.33 6.18078 75.91V76.15C6.18078 76.33 6.16078 76.61 6.12078 76.99C6.10078 77.35 6.07078 77.73 6.03078 78.13C5.99078 78.51 5.95078 78.86 5.91078 79.18C5.89078 79.48 5.88078 79.65 5.88078 79.69C5.88078 79.91 5.89078 80.05 5.91078 80.11C5.83078 80.95 5.77078 81.65 5.73078 82.21C5.69078 82.77 5.67078 83.2 5.67078 83.5C5.67078 83.7 5.68078 83.83 5.70078 83.89C6.74078 84.01 7.43078 84.07 7.77078 84.07C7.93078 84.07 8.09078 84.07 8.25078 84.07C8.43078 84.05 8.61078 84.04 8.79078 84.04C9.55078 84.04 10.4008 84.13 11.3408 84.31ZM23.4388 87.25C23.1788 87.43 22.7588 87.61 22.1788 87.79C21.5988 87.95 20.9988 88.09 20.3788 88.21L19.1488 87.97C18.9688 87.91 18.6688 87.77 18.2488 87.55C17.8488 87.33 17.4388 87 17.0188 86.56C16.5988 86.1 16.2288 85.52 15.9088 84.82C15.5888 84.1 15.4288 83.23 15.4288 82.21C15.4288 81.85 15.5088 81.43 15.6688 80.95C15.8488 80.45 16.1088 79.99 16.4488 79.57C16.7888 79.13 17.2088 78.76 17.7088 78.46C18.2288 78.16 18.8288 78.01 19.5088 78.01C20.8688 78.01 22.0988 78.45 23.1988 79.33C24.1588 80.65 24.6388 82.11 24.6388 83.71C24.6388 84.89 24.2388 86.07 23.4388 87.25ZM21.9688 82.99C21.8688 82.21 21.6188 81.6 21.2188 81.16C20.8388 80.7 20.3488 80.47 19.7488 80.47C19.3488 80.47 18.9688 80.67 18.6088 81.07C18.2688 81.45 18.0988 82.01 18.0988 82.75C18.0988 83.05 18.1388 83.37 18.2188 83.71C18.2988 84.03 18.4288 84.33 18.6088 84.61C18.7888 84.87 19.0188 85.09 19.2988 85.27C19.5788 85.43 19.9188 85.51 20.3188 85.51C20.9588 85.51 21.3988 85.32 21.6387 84.94C21.8788 84.54 21.9988 84.05 21.9988 83.47C21.9988 83.39 21.9888 83.32 21.9688 83.26C21.9688 83.18 21.9688 83.09 21.9688 82.99ZM36.095 87.25C35.835 87.43 35.415 87.61 34.835 87.79C34.255 87.95 33.655 88.09 33.035 88.21L31.805 87.97C31.625 87.91 31.325 87.77 30.905 87.55C30.505 87.33 30.095 87 29.675 86.56C29.255 86.1 28.885 85.52 28.565 84.82C28.245 84.1 28.085 83.23 28.085 82.21C28.085 81.85 28.165 81.43 28.325 80.95C28.505 80.45 28.765 79.99 29.105 79.57C29.445 79.13 29.865 78.76 30.365 78.46C30.885 78.16 31.485 78.01 32.165 78.01C33.525 78.01 34.755 78.45 35.855 79.33C36.815 80.65 37.295 82.11 37.295 83.71C37.295 84.89 36.895 86.07 36.095 87.25ZM34.625 82.99C34.525 82.21 34.275 81.6 33.875 81.16C33.495 80.7 33.005 80.47 32.405 80.47C32.005 80.47 31.625 80.67 31.265 81.07C30.925 81.45 30.755 82.01 30.755 82.75C30.755 83.05 30.795 83.37 30.875 83.71C30.955 84.03 31.085 84.33 31.265 84.61C31.445 84.87 31.675 85.09 31.955 85.27C32.235 85.43 32.575 85.51 32.975 85.51C33.615 85.51 34.055 85.32 34.295 84.94C34.535 84.54 34.655 84.05 34.655 83.47C34.655 83.39 34.645 83.32 34.625 83.26C34.625 83.18 34.625 83.09 34.625 82.99ZM50.5813 85.39C50.6013 85.47 50.6113 85.54 50.6113 85.6C50.6313 85.66 50.6413 85.73 50.6413 85.81C50.6413 86.23 50.5113 86.57 50.2513 86.83C49.9913 87.09 49.6913 87.22 49.3513 87.22C49.0513 87.22 48.7813 87.09 48.5413 86.83C48.3013 86.57 48.0413 86.24 47.7613 85.84C47.5013 85.44 47.2013 85 46.8613 84.52C46.5213 84.04 46.1013 83.58 45.6013 83.14C45.5213 83.06 45.3713 82.95 45.1513 82.81C44.9313 82.65 44.6513 82.45 44.3113 82.21L44.1313 82.3C44.0913 82.44 44.0613 82.61 44.0413 82.81C43.9813 83.15 43.9513 83.6 43.9513 84.16C43.9513 84.32 43.9713 84.5 44.0113 84.7C44.0113 84.74 44.0013 84.78 43.9813 84.82C43.9813 84.86 43.9813 84.91 43.9813 84.97C43.9813 85.15 43.9813 85.39 43.9813 85.69C44.0013 85.97 44.0213 86.25 44.0413 86.53C44.0613 86.79 44.0713 87.02 44.0713 87.22C44.0913 87.42 44.1013 87.51 44.1013 87.49C44.1013 87.83 43.9513 88.09 43.6513 88.27C43.3513 88.45 43.0213 88.54 42.6613 88.54C42.1413 88.54 41.7913 88.29 41.6113 87.79C41.4513 87.29 41.3713 86.44 41.3713 85.24C41.3713 84.44 41.4013 83.72 41.4613 83.08C41.5213 82.42 41.5513 81.84 41.5513 81.34V80.83C41.5513 80.73 41.5613 80.56 41.5813 80.32C41.6213 80.08 41.6513 79.81 41.6713 79.51C41.7113 79.21 41.7413 78.91 41.7613 78.61C41.8013 78.29 41.8213 78.02 41.8213 77.8V77.47C41.8413 77.41 41.8713 77.14 41.9113 76.66C41.9513 76.18 42.0213 75.63 42.1213 75.01C42.2213 74.37 42.3413 73.72 42.4813 73.06C42.6413 72.38 42.8313 71.81 43.0513 71.35C43.1913 71.05 43.5013 70.9 43.9813 70.9C44.8813 70.9 45.3313 71.25 45.3313 71.95C45.3313 72.11 45.2913 72.41 45.2113 72.85C45.1313 73.29 45.0413 73.77 44.9413 74.29C44.8613 74.79 44.7813 75.28 44.7013 75.76C44.6413 76.24 44.6113 76.6 44.6113 76.84C44.5713 76.9 44.4813 77.65 44.3413 79.09C44.6413 78.89 44.9113 78.69 45.1513 78.49C45.4113 78.27 45.6813 78.05 45.9613 77.83C46.2413 77.61 46.5713 77.38 46.9512 77.14C47.3313 76.88 47.8013 76.59 48.3613 76.27C48.4013 76.27 48.4313 76.27 48.4513 76.27C48.4713 76.25 48.5013 76.24 48.5413 76.24C48.8413 76.24 49.1413 76.38 49.4413 76.66C49.7413 76.94 49.8913 77.26 49.8913 77.62C49.8913 77.84 49.8813 78 49.8613 78.1C49.8413 78.18 49.7513 78.28 49.5913 78.4C49.4513 78.52 49.2113 78.68 48.8713 78.88C48.5313 79.08 48.0513 79.39 47.4313 79.81C47.3913 79.91 47.0613 80.14 46.4413 80.5C46.6813 80.7 46.8313 80.83 46.8913 80.89C46.9713 80.95 47.0713 81.05 47.1913 81.19C47.3113 81.31 47.5113 81.53 47.7913 81.85C48.0913 82.15 48.5913 82.65 49.2913 83.35C49.6713 83.87 50.1013 84.55 50.5813 85.39ZM58.7333 73.87C58.7733 74.03 58.7933 74.18 58.7933 74.32C58.7933 74.96 58.6033 75.5 58.2233 75.94C57.6233 76.18 57.0233 76.3 56.4233 76.3C56.0433 76.06 55.7233 75.79 55.4633 75.49C55.2233 75.17 55.1033 74.86 55.1033 74.56C55.1033 74.3 55.4033 73.66 56.0033 72.64C56.2633 72.68 56.5333 72.71 56.8133 72.73C57.1133 72.75 57.3833 72.8 57.6233 72.88C57.8833 72.96 58.1033 73.08 58.2833 73.24C58.4833 73.38 58.6333 73.59 58.7333 73.87ZM57.7733 78.88V79.27C57.7733 79.37 57.7733 79.48 57.7733 79.6C57.7733 79.72 57.7533 79.83 57.7133 79.93L57.4733 81.28V81.55C57.4733 81.67 57.4633 81.83 57.4433 82.03C57.4233 82.23 57.3933 82.43 57.3533 82.63C57.3333 82.83 57.3133 83.02 57.2933 83.2C57.2733 83.38 57.2633 83.53 57.2633 83.65C57.2633 83.75 57.2633 83.83 57.2633 83.89C57.2833 83.95 57.2933 84.03 57.2933 84.13C57.2933 84.31 57.2733 84.51 57.2333 84.73C57.1933 84.93 57.1733 85.16 57.1733 85.42C57.1733 85.66 57.2033 85.91 57.2633 86.17C57.0433 87.07 56.5833 87.52 55.8833 87.52C54.9033 87.52 54.4133 86.6 54.4133 84.76C54.4133 84.14 54.4433 83.53 54.5033 82.93C54.5633 82.31 54.6333 81.74 54.7133 81.22C54.7933 80.7 54.8733 80.25 54.9533 79.87C55.0533 79.47 55.1333 79.16 55.1933 78.94C55.4933 78.5 55.9133 78.28 56.4533 78.28C56.9733 78.28 57.4133 78.48 57.7733 78.88ZM72.9411 84.67V84.91C72.9411 85.03 72.9411 85.25 72.9411 85.57C72.9611 85.87 72.9311 86.18 72.8511 86.5C72.7911 86.82 72.6611 87.11 72.4611 87.37C72.2611 87.61 71.9611 87.73 71.5611 87.73C70.7811 87.73 70.3211 87.42 70.1811 86.8C70.2011 86.68 70.2111 86.55 70.2111 86.41C70.2111 86.25 70.2111 86.08 70.2111 85.9C70.2111 85.82 70.2111 85.53 70.2111 85.03C70.2111 84.51 70.1911 83.95 70.1511 83.35C70.1311 82.75 70.0711 82.19 69.9711 81.67C69.8711 81.13 69.7211 80.79 69.5211 80.65C69.0611 80.33 68.6511 80.17 68.2911 80.17C67.8111 80.17 67.4011 80.32 67.0611 80.62C66.7411 80.9 66.4711 81.46 66.2511 82.3C66.2311 82.58 66.2111 82.9 66.1911 83.26C66.1711 83.6 66.1411 83.99 66.1011 84.43C66.1011 84.77 66.1111 85.15 66.1311 85.57C66.1511 85.97 66.1811 86.43 66.2211 86.95C66.2211 87.33 66.0711 87.65 65.7711 87.91C65.4711 88.15 65.1311 88.27 64.7511 88.27C64.4511 88.27 64.2111 88.19 64.0311 88.03C63.8511 87.87 63.7111 87.66 63.6111 87.4C63.5311 87.14 63.4711 86.86 63.4311 86.56C63.4111 86.26 63.4011 85.96 63.4011 85.66C63.4011 85.44 63.4111 85.22 63.4311 85C63.4511 84.76 63.4811 84.52 63.5211 84.28L63.7611 81.4L64.0011 79.96C63.9611 79.72 63.8811 79.46 63.7611 79.18C63.6411 78.9 63.5811 78.68 63.5811 78.52C63.5811 78.18 63.7111 77.87 63.9711 77.59C64.2511 77.31 64.5911 77.17 64.9911 77.17C65.2711 77.17 65.4811 77.23 65.6211 77.35C65.7611 77.45 65.9911 77.71 66.3111 78.13C66.7111 77.95 67.0311 77.84 67.2711 77.8C67.5111 77.74 67.7911 77.71 68.1111 77.71C69.1511 77.71 70.0611 77.96 70.8411 78.46C71.6411 78.94 72.1411 79.75 72.3411 80.89C72.4011 81.31 72.4511 81.66 72.4911 81.94C72.5511 82.22 72.6011 82.49 72.6411 82.75C72.6811 83.01 72.7211 83.29 72.7611 83.59C72.8011 83.87 72.8611 84.23 72.9411 84.67ZM88.0501 78.04C88.1101 78.32 88.1401 78.67 88.1401 79.09C88.1401 79.43 88.1201 79.83 88.0801 80.29C88.0401 80.73 87.9801 81.22 87.9001 81.76C87.9201 81.82 87.9301 81.89 87.9301 81.97C87.9301 82.05 87.9301 82.14 87.9301 82.24C87.9301 82.46 87.9101 82.72 87.8701 83.02C87.8501 83.3 87.8201 83.63 87.7801 84.01C87.8001 84.11 87.8101 84.21 87.8101 84.31C87.8101 84.41 87.8101 84.53 87.8101 84.67C87.8101 85.13 87.7801 85.7 87.7201 86.38C87.6601 87.06 87.5801 87.87 87.4801 88.81C87.2001 91.13 86.2501 92.82 84.6301 93.88C84.0501 94.1 83.4701 94.26 82.8901 94.36C82.3301 94.48 81.7601 94.54 81.1801 94.54C80.4201 94.54 79.2301 94.21 77.6101 93.55L76.1101 92.29C75.8101 92.05 75.6001 91.86 75.4801 91.72C75.3801 91.58 75.3301 91.41 75.3301 91.21C75.3301 90.79 75.4501 90.42 75.6901 90.1C75.9301 89.8 76.2501 89.65 76.6501 89.65C76.9101 89.65 77.2001 89.73 77.5201 89.89L79.0201 91.15C79.7401 91.63 80.5501 91.88 81.4501 91.9C81.5501 91.92 81.6801 91.9 81.8401 91.84C82.0001 91.8 82.1901 91.75 82.4101 91.69L83.4001 91.42C84.1201 90.96 84.5901 90.11 84.8101 88.87C84.8301 88.69 84.8501 88.47 84.8701 88.21C84.9101 87.73 84.9701 87.05 85.0501 86.17C84.9701 86.21 84.7901 86.29 84.5101 86.41C84.2301 86.51 83.8801 86.63 83.4601 86.77C83.0601 86.89 82.5901 87 82.0501 87.1C81.5301 87.2 80.9801 87.25 80.4001 87.25C80.3001 87.25 80.1901 87.23 80.0701 87.19C79.9701 87.13 79.8301 87.04 79.6501 86.92C79.4701 86.8 79.2501 86.64 78.9901 86.44C78.7501 86.24 78.4501 85.98 78.0901 85.66L77.3701 84.31C77.1901 83.97 77.0601 83.63 76.9801 83.29C76.9201 82.93 76.8901 82.58 76.8901 82.24C76.8901 81.68 77.1001 81.12 77.5201 80.56C77.9601 79.98 78.5001 79.46 79.1401 79C79.8001 78.54 80.5101 78.17 81.2701 77.89C82.0301 77.59 82.7301 77.44 83.3701 77.44C83.6701 77.44 83.9601 77.46 84.2401 77.5C84.5401 77.54 84.9901 77.65 85.5901 77.83L85.7401 77.47C86.0001 77.29 86.3201 77.2 86.7001 77.2C87.4601 77.2 87.9101 77.48 88.0501 78.04ZM85.2001 80.56C85.0001 80.42 84.7701 80.32 84.5101 80.26C84.2701 80.2 84.0301 80.14 83.7901 80.08C83.5301 80.12 83.2301 80.18 82.8901 80.26C82.5501 80.32 82.1701 80.4 81.7501 80.5C80.4301 81.26 79.7701 81.95 79.7701 82.57C79.7701 82.91 79.8901 83.25 80.1301 83.59C80.3701 83.91 80.7101 84.24 81.1501 84.58C81.4501 84.56 81.7701 84.53 82.1101 84.49C82.4501 84.43 82.7901 84.34 83.1301 84.22C83.4701 84.1 83.8001 83.93 84.1201 83.71C84.4401 83.47 84.7501 83.15 85.0501 82.75C85.0901 82.41 85.1201 82.09 85.1401 81.79C85.1801 81.49 85.2001 81.2 85.2001 80.92V80.56ZM112.495 76.69C112.715 76.87 112.825 77.2 112.825 77.68C112.825 78.56 112.495 79 111.835 79H111.715C111.415 79.02 111.065 79.05 110.665 79.09C110.265 79.11 109.815 79.15 109.315 79.21C109.275 79.53 109.235 79.96 109.195 80.5C109.155 81.02 109.135 81.65 109.135 82.39C109.135 82.45 109.135 82.51 109.135 82.57C109.155 82.63 109.165 82.7 109.165 82.78V84.16C109.165 84.48 109.215 84.74 109.315 84.94C109.435 85.12 109.575 85.25 109.735 85.33L110.575 85.6C111.235 85.82 111.565 86.22 111.565 86.8C111.565 87.14 111.425 87.44 111.145 87.7C110.885 87.96 110.545 88.09 110.125 88.09C110.005 88.09 109.795 88.06 109.495 88C109.215 87.92 108.915 87.82 108.595 87.7C108.295 87.58 108.005 87.43 107.725 87.25C107.465 87.07 107.285 86.87 107.185 86.65C106.965 86.19 106.785 85.71 106.645 85.21C106.505 84.69 106.435 84.15 106.435 83.59C106.435 82.97 106.445 82.53 106.465 82.27C106.485 82.01 106.505 81.78 106.525 81.58C106.545 81.38 106.565 81.14 106.585 80.86C106.605 80.58 106.615 80.12 106.615 79.48C106.235 79.52 105.675 79.64 104.935 79.84C104.495 79.84 104.115 79.73 103.795 79.51C103.495 79.27 103.345 78.96 103.345 78.58C103.345 78.3 103.425 78.04 103.585 77.8C103.765 77.56 104.125 77.35 104.665 77.17C104.845 77.11 105.005 77.07 105.145 77.05C105.305 77.03 105.455 77.01 105.595 76.99C105.755 76.97 105.925 76.96 106.105 76.96C106.285 76.94 106.505 76.91 106.765 76.87C106.785 76.37 106.815 75.81 106.855 75.19C106.915 74.55 107.005 73.96 107.125 73.42C107.265 72.88 107.455 72.43 107.695 72.07C107.955 71.69 108.295 71.5 108.715 71.5C109.435 71.5 109.875 71.83 110.035 72.49C110.035 72.51 110.005 72.65 109.945 72.91C109.905 73.15 109.855 73.42 109.795 73.72C109.735 74.02 109.675 74.31 109.615 74.59C109.575 74.87 109.555 75.05 109.555 75.13L109.465 76.6C109.605 76.58 109.735 76.57 109.855 76.57C109.975 76.55 110.105 76.54 110.245 76.54H110.515C110.655 76.54 110.785 76.54 110.905 76.54C111.025 76.52 111.135 76.51 111.235 76.51C111.835 76.51 112.255 76.57 112.495 76.69ZM123.165 87.25C122.905 87.43 122.485 87.61 121.905 87.79C121.325 87.95 120.725 88.09 120.105 88.21L118.875 87.97C118.695 87.91 118.395 87.77 117.975 87.55C117.575 87.33 117.165 87 116.745 86.56C116.325 86.1 115.955 85.52 115.635 84.82C115.315 84.1 115.155 83.23 115.155 82.21C115.155 81.85 115.235 81.43 115.395 80.95C115.575 80.45 115.835 79.99 116.175 79.57C116.515 79.13 116.935 78.76 117.435 78.46C117.955 78.16 118.555 78.01 119.235 78.01C120.595 78.01 121.825 78.45 122.925 79.33C123.885 80.65 124.365 82.11 124.365 83.71C124.365 84.89 123.965 86.07 123.165 87.25ZM121.695 82.99C121.595 82.21 121.345 81.6 120.945 81.16C120.565 80.7 120.075 80.47 119.475 80.47C119.075 80.47 118.695 80.67 118.335 81.07C117.995 81.45 117.825 82.01 117.825 82.75C117.825 83.05 117.865 83.37 117.945 83.71C118.025 84.03 118.155 84.33 118.335 84.61C118.515 84.87 118.745 85.09 119.025 85.27C119.305 85.43 119.645 85.51 120.045 85.51C120.685 85.51 121.125 85.32 121.365 84.94C121.605 84.54 121.725 84.05 121.725 83.47C121.725 83.39 121.715 83.32 121.695 83.26C121.695 83.18 121.695 83.09 121.695 82.99ZM48.7217 124.71C48.6217 124.99 48.4217 125.27 48.1217 125.55C47.8217 125.83 47.5317 125.97 47.2517 125.97C46.6717 125.97 46.2917 125.56 46.1117 124.74C45.9317 123.92 45.8417 122.76 45.8417 121.26V120.99C45.8417 120.23 45.7817 119.68 45.6617 119.34C45.5617 118.98 45.4917 118.75 45.4517 118.65C45.2317 118.17 44.8917 117.93 44.4317 117.93C44.1517 117.93 43.8617 117.99 43.5617 118.11C43.2617 118.21 42.9917 118.34 42.7517 118.5C42.5117 118.64 42.3017 118.78 42.1217 118.92C41.9617 119.06 41.8617 119.16 41.8217 119.22C41.7817 119.36 41.7417 119.6 41.7017 119.94C41.6817 120.28 41.6617 120.67 41.6417 121.11C41.6217 121.55 41.6017 122 41.5817 122.46C41.5617 122.92 41.5417 123.34 41.5217 123.72C41.5217 124.1 41.5217 124.4 41.5217 124.62C41.5217 124.84 41.5317 124.93 41.5517 124.89C41.4917 125.43 41.0617 125.7 40.2617 125.7C39.6617 125.7 39.2717 125.51 39.0917 125.13C38.9317 124.75 38.8517 124.1 38.8517 123.18C38.8517 122.94 38.8517 122.8 38.8517 122.76C38.8717 122.72 38.8917 122.63 38.9117 122.49C38.9317 122.33 38.9617 122.05 39.0017 121.65C39.0417 121.25 39.0917 120.57 39.1517 119.61C39.1717 119.21 39.1917 118.85 39.2117 118.53C39.2317 118.19 39.2317 117.9 39.2117 117.66C39.2117 117.44 39.2117 117.26 39.2117 117.12C39.2117 116.96 39.2017 116.83 39.1817 116.73C39.2017 116.67 39.2217 116.48 39.2417 116.16C39.2817 115.84 39.3117 115.49 39.3317 115.11C39.3717 114.73 39.4117 114.37 39.4517 114.03C39.4917 113.69 39.5317 113.46 39.5717 113.34C39.5717 112.92 39.5817 112.44 39.6017 111.9C39.6217 111.34 39.6917 110.82 39.8117 110.34C39.9317 109.86 40.1117 109.46 40.3517 109.14C40.6117 108.8 40.9717 108.63 41.4317 108.63C42.2117 108.63 42.6017 109.13 42.6017 110.13C42.6017 110.69 42.4917 111.49 42.2717 112.53C42.2317 113.07 42.1817 113.49 42.1217 113.79C42.0817 114.09 42.0417 114.35 42.0017 114.57C41.9617 114.79 41.9317 115 41.9117 115.2C41.8917 115.4 41.8817 115.68 41.8817 116.04C42.3817 115.62 42.8617 115.38 43.3217 115.32C43.7817 115.24 44.2117 115.2 44.6117 115.2C45.6117 115.2 46.4117 115.49 47.0117 116.07C47.6117 116.65 48.0617 117.61 48.3617 118.95C48.3817 119.43 48.3917 119.81 48.3917 120.09C48.4117 120.35 48.4317 120.65 48.4517 120.99C48.4917 121.31 48.5317 121.75 48.5717 122.31C48.6117 122.87 48.6617 123.67 48.7217 124.71ZM58.0009 111.87C58.0409 112.03 58.0609 112.18 58.0609 112.32C58.0609 112.96 57.8709 113.5 57.4909 113.94C56.8909 114.18 56.2909 114.3 55.6909 114.3C55.3109 114.06 54.9909 113.79 54.7309 113.49C54.4909 113.17 54.3709 112.86 54.3709 112.56C54.3709 112.3 54.6709 111.66 55.2709 110.64C55.5309 110.68 55.8009 110.71 56.0809 110.73C56.3809 110.75 56.6509 110.8 56.8909 110.88C57.1509 110.96 57.3709 111.08 57.5509 111.24C57.7509 111.38 57.9009 111.59 58.0009 111.87ZM57.0409 116.88V117.27C57.0409 117.37 57.0409 117.48 57.0409 117.6C57.0409 117.72 57.0209 117.83 56.9809 117.93L56.7409 119.28V119.55C56.7409 119.67 56.7309 119.83 56.7109 120.03C56.6909 120.23 56.6609 120.43 56.6209 120.63C56.6009 120.83 56.5809 121.02 56.5609 121.2C56.5409 121.38 56.5309 121.53 56.5309 121.65C56.5309 121.75 56.5309 121.83 56.5309 121.89C56.5509 121.95 56.5609 122.03 56.5609 122.13C56.5609 122.31 56.5409 122.51 56.5009 122.73C56.4609 122.93 56.4409 123.16 56.4409 123.42C56.4409 123.66 56.4709 123.91 56.5309 124.17C56.3109 125.07 55.8509 125.52 55.1509 125.52C54.1709 125.52 53.6809 124.6 53.6809 122.76C53.6809 122.14 53.7109 121.53 53.7709 120.93C53.8309 120.31 53.9009 119.74 53.9809 119.22C54.0609 118.7 54.1409 118.25 54.2209 117.87C54.3209 117.47 54.4009 117.16 54.4609 116.94C54.7609 116.5 55.1809 116.28 55.7209 116.28C56.2409 116.28 56.6809 116.48 57.0409 116.88ZM70.5587 115.8C70.8787 116 71.0387 116.38 71.0387 116.94C71.0387 117.36 70.9287 117.72 70.7087 118.02C70.4887 118.32 70.1887 118.47 69.8087 118.47C69.5687 118.47 69.3187 118.41 69.0587 118.29C68.8187 118.15 68.5587 118.08 68.2787 118.08C68.0387 118.08 67.7987 118.13 67.5587 118.23C67.3387 118.31 67.0787 118.5 66.7787 118.8L65.8787 119.7C65.8787 119.84 65.8787 119.98 65.8787 120.12C65.8987 120.26 65.9087 120.41 65.9087 120.57C65.9087 120.81 65.8987 121.06 65.8787 121.32C65.8787 121.58 65.8687 121.86 65.8487 122.16L66.1187 124.89C66.0587 125.81 65.5887 126.27 64.7087 126.27C64.2487 126.27 63.9087 126.13 63.6887 125.85C63.4687 125.55 63.3187 125.14 63.2387 124.62C63.1587 124.1 63.1187 123.49 63.1187 122.79C63.1387 122.09 63.1387 121.32 63.1187 120.48C63.0787 119.22 63.0487 118.59 63.0287 118.59V118.62C62.9487 118.32 62.8887 118.06 62.8487 117.84C62.8087 117.6 62.7887 117.39 62.7887 117.21C62.7887 116.85 62.9187 116.56 63.1787 116.34C63.4387 116.1 63.8187 115.98 64.3187 115.98C64.6387 115.98 65.0187 116.23 65.4587 116.73C65.9187 116.37 66.2687 116.1 66.5087 115.92C66.7687 115.74 66.9787 115.61 67.1387 115.53C67.3187 115.45 67.4887 115.41 67.6487 115.41C67.8087 115.39 68.0187 115.38 68.2787 115.38C68.4987 115.36 68.6987 115.37 68.8787 115.41C69.0787 115.45 69.2887 115.49 69.5087 115.53L70.5587 115.8ZM84.2938 124.8C83.6538 125.44 82.9338 125.98 82.1338 126.42C81.3338 126.88 80.5238 127.11 79.7038 127.11C78.9638 127.11 78.0138 126.99 76.8538 126.75C76.4538 126.49 76.0538 126.18 75.6538 125.82C75.2538 125.44 74.8938 125.03 74.5738 124.59C74.2538 124.13 73.9938 123.64 73.7938 123.12C73.5938 122.58 73.4938 122.03 73.4938 121.47C73.4938 121.31 73.5038 121.1 73.5238 120.84C73.5438 120.56 73.5638 120.29 73.5838 120.03C73.6238 119.75 73.6538 119.51 73.6738 119.31C73.6938 119.11 73.7038 119.01 73.7038 119.01C74.1038 118.37 74.5238 117.74 74.9638 117.12C75.4238 116.48 76.0638 115.92 76.8838 115.44C78.1838 115.16 79.1238 115.02 79.7038 115.02C80.0038 115.02 80.2638 115.04 80.4838 115.08C80.7038 115.1 80.9138 115.16 81.1138 115.26C81.3338 115.34 81.5438 115.47 81.7438 115.65C81.9638 115.83 82.2138 116.06 82.4938 116.34C82.8138 116.68 83.0638 116.91 83.2438 117.03C83.4438 117.15 83.5438 117.26 83.5438 117.36C83.5438 119.2 82.9738 120.45 81.8338 121.11C81.3338 121.29 80.6838 121.49 79.8838 121.71C79.0838 121.91 77.9938 122.1 76.6138 122.28C76.8938 123.04 77.2638 123.61 77.7238 123.99C78.1838 124.37 78.7038 124.56 79.2838 124.56C80.1438 124.56 81.2238 124.05 82.5238 123.03C82.7238 122.85 82.9738 122.76 83.2738 122.76C83.5938 122.76 83.8738 122.88 84.1138 123.12C84.3738 123.36 84.5038 123.66 84.5038 124.02C84.5038 124.28 84.4338 124.54 84.2938 124.8ZM80.9038 118.38C80.5238 117.76 80.0738 117.45 79.5537 117.45C79.3338 117.45 79.0938 117.48 78.8338 117.54C78.5738 117.6 78.3038 117.69 78.0238 117.81C77.7638 117.91 77.5138 118.04 77.2738 118.2C77.0538 118.36 76.8738 118.55 76.7338 118.77L76.4338 119.67C77.1138 119.61 77.7138 119.56 78.2338 119.52C78.7538 119.48 79.2038 119.42 79.5838 119.34C79.9638 119.26 80.2638 119.15 80.4838 119.01C80.7038 118.87 80.8438 118.66 80.9038 118.38ZM99.4899 112.53C99.3499 113.07 99.2099 113.56 99.0699 114C98.9499 114.42 98.7899 114.81 98.5899 115.17C98.3899 115.51 98.1399 115.84 97.8399 116.16C97.5599 116.46 97.1999 116.76 96.7599 117.06C96.1599 117.46 95.7099 117.8 95.4099 118.08C95.1299 118.36 94.9299 118.61 94.8099 118.83C94.7099 119.05 94.6599 119.26 94.6599 119.46C94.6799 119.64 94.6799 119.83 94.6599 120.03C94.4799 120.69 94.0099 121.02 93.2499 121.02C92.7299 121.02 92.3899 120.85 92.2299 120.51C92.0899 120.15 92.0199 119.78 92.0199 119.4C92.0199 119.12 92.0599 118.81 92.1399 118.47C92.2199 118.13 92.3499 117.8 92.5299 117.48C92.7099 117.14 92.9499 116.81 93.2499 116.49C93.5499 116.17 93.9199 115.89 94.3599 115.65C95.0599 115.25 95.5699 114.85 95.8899 114.45C95.9699 114.37 96.2699 113.72 96.7899 112.5C96.7499 112.08 96.6399 111.74 96.4599 111.48C96.2799 111.2 96.0699 110.99 95.8299 110.85C95.5899 110.69 95.3399 110.58 95.0799 110.52C94.8399 110.46 94.6499 110.43 94.5099 110.43C94.2299 110.43 93.9699 110.46 93.7299 110.52C93.4899 110.56 93.2499 110.67 93.0099 110.85C92.7899 111.01 92.5599 111.26 92.3199 111.6C92.0999 111.92 91.8599 112.35 91.5999 112.89C91.3799 113.19 91.0599 113.34 90.6399 113.34C90.2599 113.34 89.9199 113.21 89.6199 112.95C89.3199 112.69 89.1699 112.33 89.1699 111.87C89.5099 110.91 89.9199 110.16 90.3999 109.62C90.8999 109.08 91.3999 108.67 91.8999 108.39C92.4199 108.11 92.9199 107.94 93.3999 107.88C93.8799 107.8 94.2699 107.76 94.5699 107.76C95.4699 107.76 96.1999 107.89 96.7599 108.15C97.3199 108.41 97.7799 108.76 98.1399 109.2C98.4999 109.62 98.7699 110.12 98.9499 110.7C99.1499 111.28 99.3299 111.89 99.4899 112.53ZM94.9599 125.4C94.9599 125.58 94.8999 125.76 94.7799 125.94C94.6799 126.12 94.5399 126.27 94.3599 126.39C94.1999 126.53 94.0099 126.64 93.7899 126.72C93.5899 126.82 93.3999 126.87 93.2199 126.87C92.7399 126.87 92.3499 126.8 92.0499 126.66C91.7499 126.54 91.5199 126.38 91.3599 126.18C91.2199 125.98 91.1199 125.77 91.0599 125.55C91.0199 125.31 90.9999 125.09 90.9999 124.89C90.9999 124.39 91.1699 123.92 91.5099 123.48C91.8499 123.02 92.2899 122.79 92.8299 122.79C93.0099 122.79 93.2199 122.81 93.4599 122.85C93.7199 122.89 93.9599 123 94.1799 123.18C94.3999 123.36 94.5799 123.63 94.7199 123.99C94.8799 124.33 94.9599 124.8 94.9599 125.4Z" fill="white"/>
<path d="M43.9359 15.1462L48.8373 25.9382C48.9996 26.2935 49.023 26.6967 48.9028 27.0683C48.7826 27.44 48.5275 27.7532 48.1879 27.9461C47.8482 28.139 47.4486 28.1977 47.0678 28.1107C46.6871 28.0236 46.3527 27.7971 46.1306 27.4757L45.9914 27.2332L39.4788 12.8724L39.4094 12.6127L39.3919 12.4192L39.3993 12.195L39.4066 12.131C39.4231 12.0209 39.4513 11.9129 39.4909 11.8088L39.4242 12.0308L39.4495 11.9368L39.5428 11.6881L39.6812 11.453L39.8089 11.2906L40.0094 11.1122L40.2471 10.9678L54.534 4.47424C54.8893 4.31192 55.2925 4.28857 55.6642 4.40878C56.0359 4.52899 56.349 4.78405 56.5419 5.1237C56.7349 5.46334 56.7936 5.86294 56.7065 6.24373C56.6195 6.62452 56.3929 6.95888 56.0716 7.18093L55.825 7.32204L45.0352 12.2176L57.5941 16.935C67.8983 20.8027 72.6418 29.1789 69.873 37.5424L69.6573 38.1524C69.5117 38.5404 69.2179 38.8546 68.8406 39.026C68.4633 39.1973 68.0334 39.2118 67.6454 39.0662C67.2574 38.9206 66.9432 38.6268 66.7718 38.2495C66.6005 37.8722 66.586 37.4422 66.7316 37.0543C69.2278 30.4042 65.7322 23.648 57.258 20.1601L56.4959 19.8606L43.9359 15.1462Z" fill="white"/>
</svg>
