<svg width="25" height="24" viewBox="0 0 25 24" fill="none" xmlns="http://www.w3.org/2000/svg">
<mask id="mask0_1_2" style="mask-type:alpha" maskUnits="userSpaceOnUse" x="0" y="0" width="25" height="24">
<rect x="0.301758" width="24" height="24" fill="#D9D9D9"/>
</mask>
<g mask="url(#mask0_1_2)">
<path d="M12.3018 22C10.9184 22 9.61842 21.7375 8.40176 21.2125C7.18509 20.6875 6.12676 19.975 5.22676 19.075C4.32676 18.175 3.61426 17.1167 3.08926 15.9C2.56426 14.6833 2.30176 13.3833 2.30176 12C2.30176 10.6167 2.56426 9.31667 3.08926 8.1C3.61426 6.88333 4.32676 5.825 5.22676 4.925C6.12676 4.025 7.18509 3.3125 8.40176 2.7875C9.61842 2.2625 10.9184 2 12.3018 2C13.6851 2 14.9851 2.2625 16.2018 2.7875C17.4184 3.3125 18.4768 4.025 19.3768 4.925C20.2768 5.825 20.9893 6.88333 21.5143 8.1C22.0393 9.31667 22.3018 10.6167 22.3018 12C22.3018 13.3833 22.0393 14.6833 21.5143 15.9C20.9893 17.1167 20.2768 18.175 19.3768 19.075C18.4768 19.975 17.4184 20.6875 16.2018 21.2125C14.9851 21.7375 13.6851 22 12.3018 22ZM12.3018 20C14.5351 20 16.4268 19.225 17.9768 17.675C19.5268 16.125 20.3018 14.2333 20.3018 12C20.3018 11.8833 20.2976 11.7625 20.2893 11.6375C20.2809 11.5125 20.2768 11.4083 20.2768 11.325C20.1934 11.8083 19.9684 12.2083 19.6018 12.525C19.2351 12.8417 18.8018 13 18.3018 13H16.3018C15.7518 13 15.2809 12.8042 14.8893 12.4125C14.4976 12.0208 14.3018 11.55 14.3018 11V10H10.3018V8C10.3018 7.45 10.4976 6.97917 10.8893 6.5875C11.2809 6.19583 11.7518 6 12.3018 6H13.3018C13.3018 5.61667 13.4059 5.27917 13.6143 4.9875C13.8226 4.69583 14.0768 4.45833 14.3768 4.275C14.0434 4.19167 13.7059 4.125 13.3643 4.075C13.0226 4.025 12.6684 4 12.3018 4C10.0684 4 8.17676 4.775 6.62676 6.325C5.07676 7.875 4.30176 9.76667 4.30176 12H9.30176C10.4018 12 11.3434 12.3917 12.1268 13.175C12.9101 13.9583 13.3018 14.9 13.3018 16V17H10.3018V19.75C10.6351 19.8333 10.9643 19.8958 11.2893 19.9375C11.6143 19.9792 11.9518 20 12.3018 20Z" fill="black"/>
</g>
</svg>
