<svg width="73" height="73" viewBox="0 0 73 73" fill="none" xmlns="http://www.w3.org/2000/svg">
<g id="ion:people">
<path id="Vector" d="M47.9063 36.5C44.9749 36.5 42.1404 35.1911 39.9219 32.8158C37.7647 30.4989 36.4473 27.4092 36.2149 24.1185C35.9668 20.6082 37.0375 17.3803 39.229 15.0277C41.4204 12.6752 44.4844 11.4062 47.9063 11.4062C51.3039 11.4062 54.3765 12.698 56.5608 15.0448C58.7664 17.4145 59.8401 20.6368 59.592 24.1171C59.3539 27.4121 58.0379 30.5003 55.8849 32.8144C53.6721 35.1911 50.8391 36.5 47.9063 36.5ZM66.7023 61.5938H29.1116C28.5072 61.597 27.9102 61.4615 27.3664 61.1978C26.8226 60.934 26.3466 60.549 25.9749 60.0724C25.5807 59.5558 25.3084 58.9566 25.1786 58.3198C25.0487 57.6831 25.0645 57.0251 25.2249 56.3954C26.4254 51.5748 29.3996 47.5769 33.8253 44.8351C37.7533 42.4027 42.7535 41.0625 47.9063 41.0625C53.1603 41.0625 58.0293 42.3457 61.9802 44.7767C66.4158 47.5042 69.3942 51.5249 70.589 56.4039C70.7475 57.0342 70.7616 57.6921 70.6302 58.3285C70.4989 58.965 70.2255 59.5635 69.8305 60.0796C69.4592 60.554 68.9843 60.9371 68.4421 61.1995C67.8998 61.462 67.3047 61.5968 66.7023 61.5938ZM20.959 37.0703C15.9417 37.0703 11.5303 32.4052 11.1211 26.6721C10.9187 23.735 11.834 21.0189 13.6875 19.0271C15.5211 17.0552 18.1074 15.9688 20.959 15.9688C23.8106 15.9688 26.377 17.0609 28.2205 19.0442C30.0883 21.0517 31.0008 23.7621 30.7869 26.6749C30.3777 32.4066 25.9678 37.0703 20.959 37.0703ZM30.3207 41.5544C27.8127 40.3282 24.5577 39.7151 20.9604 39.7151C16.7601 39.7151 12.6809 40.8101 9.47291 42.7977C5.83574 45.0547 3.3891 48.3411 2.40104 52.3091C2.25644 52.8798 2.24276 53.4758 2.36103 54.0526C2.4793 54.6294 2.72644 55.1719 3.08399 55.6397C3.42325 56.0752 3.85788 56.4271 4.35445 56.6684C4.85103 56.9096 5.39631 57.0338 5.94838 57.0312H21.7746C22.0417 57.0312 22.3003 56.9374 22.5054 56.7662C22.7104 56.5951 22.8489 56.3573 22.8966 56.0945C22.9123 56.0047 22.9323 55.9149 22.9551 55.8265C24.1642 50.9703 26.9972 46.8669 31.1833 43.8756C31.3372 43.7646 31.4611 43.6169 31.5436 43.446C31.6261 43.2751 31.6646 43.0863 31.6557 42.8967C31.6467 42.7071 31.5907 42.5227 31.4925 42.3603C31.3943 42.1979 31.2572 42.0625 31.0935 41.9664C30.8696 41.8353 30.613 41.697 30.3207 41.5544Z" fill="#CCF5C6"/>
</g>
</svg>
