<svg width="35" height="35" viewBox="0 0 35 35" fill="none" xmlns="http://www.w3.org/2000/svg">
<g id="Frame 90">
<circle id="Ellipse 7" cx="17.1503" cy="17.5428" r="16.994" fill="#FC6977"/>
<path id="Vector" d="M16.7396 21.4342L20.7865 24.4967C21.0781 24.6912 21.3698 24.6975 21.6615 24.5157C21.9531 24.3339 22.0382 24.0724 21.9167 23.7311L20.3854 18.6634L24.3594 15.8197C24.651 15.6009 24.7361 15.3272 24.6146 14.9986C24.4931 14.67 24.2621 14.5062 23.9219 14.5072H19.0729L17.4323 9.18424C17.3108 8.84397 17.0799 8.67383 16.7396 8.67383C16.3993 8.67383 16.1684 8.84397 16.0469 9.18424L14.4062 14.5072H9.55729C9.21701 14.5072 8.98611 14.6715 8.86458 15.0001C8.74305 15.3287 8.82812 15.6019 9.11979 15.8197L13.0937 18.6634L11.5625 23.7311C11.441 24.0714 11.526 24.3329 11.8177 24.5157C12.1094 24.6985 12.401 24.6922 12.6927 24.4967L16.7396 21.4342ZM16.7396 31.7155C14.7222 31.7155 12.8264 31.3324 11.0521 30.5663C9.27778 29.8002 7.73438 28.7614 6.42188 27.4499C5.10938 26.1374 4.07056 24.594 3.30542 22.8197C2.54028 21.0454 2.15722 19.1495 2.15625 17.1322C2.15625 15.1148 2.53931 13.219 3.30542 11.4447C4.07153 9.67036 5.11035 8.12695 6.42188 6.81445C7.73438 5.50195 9.27778 4.46313 11.0521 3.69799C12.8264 2.93286 14.7222 2.5498 16.7396 2.54883C18.7569 2.54883 20.6528 2.93188 22.4271 3.69799C24.2014 4.46411 25.7448 5.50293 27.0573 6.81445C28.3698 8.12695 29.4091 9.67036 30.1752 11.4447C30.9413 13.219 31.3239 15.1148 31.3229 17.1322C31.3229 19.1495 30.9399 21.0454 30.1737 22.8197C29.4076 24.594 28.3688 26.1374 27.0573 27.4499C25.7448 28.7624 24.2014 29.8017 22.4271 30.5678C20.6528 31.3339 18.7569 31.7165 16.7396 31.7155ZM16.7396 28.7988C19.9722 28.7988 22.7251 27.6628 24.9981 25.3907C27.2712 23.1186 28.4072 20.3658 28.4062 17.1322C28.4062 13.8995 27.2702 11.1467 24.9981 8.87362C22.726 6.60056 19.9732 5.46452 16.7396 5.46549C13.5069 5.46549 10.7541 6.60154 8.48104 8.87362C6.20799 11.1457 5.07194 13.8986 5.07292 17.1322C5.07292 20.3648 6.20896 23.1176 8.48104 25.3907C10.7531 27.6638 13.506 28.7998 16.7396 28.7988Z" fill="black"/>
</g>
</svg>
