<svg width="434" height="34" viewBox="0 0 434 34" fill="none" xmlns="http://www.w3.org/2000/svg">
<path d="M21.1707 12.1276L19.0905 16.2901L13.5432 26.3712L8.11725 16.3335L5.95467 11.8458H5.83333V30.8242H0V2.33708H6.57007L13.5432 15.6831H13.6255L20.5206 2.33708H27.1297V30.8242H21.2964V12.132H21.1707V12.1276Z" fill="#FF761A"/>
<path d="M49.6439 30.8199L47.8497 23.9647H40.0575L38.3023 30.8199H32.1049L39.8148 2.33274H48.4608L56.1707 30.8199H49.6439ZM44.1356 8.25563H43.8106L41.037 19.0304H46.9093L44.1356 8.25563Z" fill="#FF761A"/>
<path d="M65.51 30.8199H59.473V2.33274H70.4853C73.2589 2.33274 75.4085 3.14356 76.9297 4.76086C78.4508 6.37817 79.2136 8.5895 79.2136 11.3905C79.2136 13.4024 78.7715 15.1368 77.8874 16.5936C77.0033 18.0505 75.7725 18.9957 74.195 19.4293L79.7813 30.8155H73.0942L68.3227 20.2445H65.5057V30.8199H65.51ZM69.0161 15.5183C70.4289 15.5183 71.4214 15.2452 71.9934 14.7032C72.5655 14.1612 72.8515 13.2593 72.8515 12.0106V10.7878C72.8515 9.53907 72.5655 8.63719 71.9934 8.0952C71.4214 7.54887 70.4289 7.2757 69.0161 7.2757H65.51V15.5183H69.0161Z" fill="#FF761A"/>
<path d="M92.2671 18.9481L89.7404 22.4948V30.8199H83.6211V2.33274H89.7404V14.2522H90.0655L93.1642 9.51739L98.1827 2.33274H105.034L96.5099 14.3736L105.442 30.8199H98.5511L92.2671 18.9481Z" fill="#FF761A"/>
<path d="M108.584 2.33274H126.777V7.35376H114.703V13.8837H126.37V18.9047H114.703V25.8032H126.777V30.8242H108.584V2.33274Z" fill="#FF761A"/>
<path d="M145.092 7.35376V30.8199H138.973V7.35376H130.773V2.33274H153.292V7.35376H145.092Z" fill="#FF761A"/>
<path d="M157.326 2.33274H163.446V30.8199H157.326V2.33274Z" fill="#FF761A"/>
<path d="M174.666 11.8848H174.215V30.8199H168.993V2.33274H176.335L182.822 21.2678H183.269V2.33274H188.491V30.8199H181.149L174.666 11.8848Z" fill="#FF761A"/>
<path d="M207.382 26.7788C206.866 28.1142 206.082 29.2025 205.037 30.0437C203.989 30.8849 202.65 31.3098 201.02 31.3098C198.246 31.3098 196.118 30.0394 194.636 27.4942C193.154 24.949 192.413 21.3935 192.413 16.8191C192.413 11.9238 193.31 8.2036 195.104 5.65841C196.899 3.11321 199.616 1.84277 203.265 1.84277C208.621 1.84277 211.941 4.57876 213.22 10.0464L207.508 11.4339C207.126 9.964 206.624 8.82363 206 8.00848C205.375 7.18899 204.422 6.78141 203.144 6.78141C201.648 6.78141 200.569 7.40146 199.902 8.64153C199.234 9.87728 198.901 11.694 198.901 14.0918V18.7443C198.901 21.1941 199.265 23.0759 200.002 24.394C200.734 25.7165 201.947 26.3755 203.633 26.3755C204.964 26.3755 205.987 25.9766 206.693 25.1701C207.399 24.3636 207.755 23.3143 207.755 22.0049V19.9236H202.901V15.5964H213.224V30.8199H207.759V26.7788H207.382Z" fill="#FF761A"/>
<path d="M240.423 2.33274V7.34508H249.806V22.252C249.806 23.6135 249.533 24.6238 248.952 25.3045C248.389 25.9853 247.574 26.3365 246.503 26.3365C244.35 26.3365 243.028 24.9577 242.503 22.2174L236.713 23.4011C237.181 25.8682 238.23 27.8107 239.86 29.2112C241.489 30.6117 243.704 31.3098 246.503 31.3098C249.398 31.3098 251.691 30.551 253.42 29.0378C255.149 27.5029 256.003 25.4433 256.003 22.8591V2.33274H240.423Z" fill="#FF761A"/>
<path d="M310.761 16.1687V15.9172C313.868 15.024 315.424 13.0208 315.424 9.93363C315.424 7.58356 314.666 5.73646 313.153 4.37497C311.658 3.01349 309.522 2.33274 306.783 2.33274H296.78V30.8242H307.714C310.375 30.8242 312.473 30.1261 314.007 28.7039C315.541 27.2861 316.317 25.3826 316.317 22.9891C316.317 19.3383 314.471 17.0619 310.761 16.1687ZM302.739 6.62531H305.049C306.527 6.62531 307.576 6.85946 308.217 7.3234C308.858 7.80903 309.171 8.6632 309.171 9.89027V11.113C309.171 12.3357 308.858 13.1943 308.217 13.6799C307.654 14.1091 306.761 14.3606 305.534 14.3997C305.378 14.417 305.222 14.417 305.049 14.417H302.739V6.62531ZM310.081 23.1062C310.081 24.3897 309.73 25.2829 309.071 25.7902C308.412 26.2975 307.324 26.5273 305.825 26.5273H302.735V18.5015H305.825C307.32 18.5015 308.408 18.7529 309.071 19.2776C309.73 19.7849 310.081 20.6781 310.081 21.9225V23.1062Z" fill="#FF761A"/>
<path d="M324.859 30.8199L317.314 2.33274H324.126L327.472 16.8191L329.145 25.0227H329.47L331.182 16.8191L334.567 2.33274H341.05L333.505 30.8199H324.859Z" fill="#FF761A"/>
<path d="M344.682 2.33274H362.875V7.35376H350.801V13.8837H362.468V18.9047H350.801V25.8032H362.875V30.8242H344.682V2.33274Z" fill="#FF761A"/>
<path d="M373.866 30.8199H367.829V2.33274H378.841C381.615 2.33274 383.764 3.14356 385.285 4.76086C386.807 6.37817 387.569 8.5895 387.569 11.3905C387.569 13.4024 387.127 15.1368 386.243 16.5936C385.359 18.0505 384.128 18.9957 382.551 19.4293L388.137 30.8155H381.45L376.678 20.2445H373.861V30.8199H373.866ZM377.372 15.5183C378.785 15.5183 379.777 15.2452 380.349 14.7032C380.921 14.1612 381.207 13.2593 381.207 12.0106V10.7878C381.207 9.53907 380.921 8.63719 380.349 8.0952C379.777 7.54887 378.785 7.2757 377.372 7.2757H373.866V15.5183H377.372Z" fill="#FF761A"/>
<path d="M394.828 30.1478C393.03 29.3716 391.578 28.292 390.464 26.9045L394.014 22.9848C395.019 24.0991 396.142 24.936 397.381 25.4953C398.616 26.0547 399.89 26.3322 401.195 26.3322C402.638 26.3322 403.743 26.007 404.519 25.3522C405.295 24.6975 405.68 23.7609 405.68 22.5339C405.68 21.5279 405.386 20.7648 404.801 20.2488C404.216 19.7329 403.232 19.3643 401.845 19.1475L398.868 18.6575C396.419 18.25 394.599 17.3308 393.403 15.9042C392.207 14.4734 391.608 12.674 391.608 10.4973C391.608 7.77868 392.506 5.65406 394.3 4.13215C396.094 2.61023 398.608 1.84711 401.845 1.84711C403.964 1.84711 405.858 2.18098 407.514 2.84871C409.173 3.51645 410.517 4.44868 411.553 5.6454L408.086 9.52173C407.323 8.65454 406.413 7.98246 405.355 7.52285C404.293 7.06324 403.136 6.8291 401.888 6.8291C399.141 6.8291 397.767 7.95644 397.767 10.2155C397.767 11.1694 398.066 11.8935 398.664 12.3965C399.262 12.8994 400.267 13.2767 401.68 13.5195L404.658 14.0484C406.967 14.456 408.749 15.3406 410.001 16.702C411.249 18.0635 411.878 19.8456 411.878 22.0482C411.878 23.8433 411.462 25.4433 410.634 26.8438C409.806 28.2443 408.567 29.3413 406.92 30.1304C405.277 30.9196 403.297 31.3141 400.987 31.3141C398.677 31.3098 396.627 30.9239 394.828 30.1478Z" fill="#FF761A"/>
<path d="M415.189 2.33274H433.382V7.35376H421.308V13.8837H432.975V18.9047H421.308V25.8032H433.382V30.8242H415.189V2.33274Z" fill="#FF761A"/>
<path d="M276.173 33.0398C285.292 33.0398 292.685 25.6436 292.685 16.5199C292.685 7.39622 285.292 0 276.173 0C267.053 0 259.661 7.39622 259.661 16.5199C259.661 25.6436 267.053 33.0398 276.173 33.0398Z" fill="#FF761A"/>
<path d="M290.106 12.4095C290.076 12.3444 290.076 12.2794 290.041 12.2143L290.071 12.3444L290.106 12.4095ZM289.556 11.2778V11.3428C289.621 11.4729 289.686 11.5683 289.716 11.6984L289.746 11.7287L289.777 11.7938L289.842 11.8892L289.872 11.9845L289.967 12.1797C289.998 12.21 289.998 12.275 290.032 12.3097L289.967 12.1493L289.937 12.0192V11.9889L289.967 12.0539C289.902 11.8935 289.872 11.7287 289.807 11.5986C289.712 11.4382 289.647 11.2734 289.547 11.113V11.1434L289.482 11.0783L289.512 11.1737H289.482L289.556 11.2778ZM290.691 15.7785C290.691 16.4592 290.626 17.1053 290.466 17.7557L290.401 17.9811C290.271 18.2413 290.175 18.5015 290.076 18.792L290.045 18.8873L290.015 18.9524L289.95 19.0478L289.92 19.1432L289.889 19.1735L289.859 19.334L289.829 19.4293L289.798 19.5898L289.733 19.6852L289.638 19.9757L289.608 20.1058L289.638 20.1708V20.2358L289.573 20.3963V20.4613L289.543 20.5567V20.6868L289.512 20.9122L289.543 20.9426V21.038C289.478 21.2981 289.382 21.5583 289.317 21.8141L289.252 21.9745C289.187 22.0699 289.157 22.2 289.092 22.2997L288.997 22.4602C288.901 22.5252 288.836 22.6206 288.736 22.6856L288.541 22.9458H288.476L288.346 23.1062L288.281 23.1713L288.216 23.3317L288.186 23.4921L288.156 23.5875L288.121 23.6526H288.151L288.056 23.8477L287.991 23.9431V23.9734L287.926 24.0688L287.861 24.1338C287.766 24.1989 287.666 24.2639 287.571 24.329L287.475 24.4243L287.445 24.5197H287.475C287.38 24.6498 287.28 24.7799 287.215 24.9403L287.15 25.0357C287.085 25.0661 287.055 25.1311 286.99 25.1658C286.86 25.2612 286.765 25.3913 286.665 25.5213C286.535 25.6167 286.405 25.7468 286.275 25.8465L286.145 25.9419L285.985 26.0373L285.855 26.0026L285.824 26.0677L285.759 26.0373L285.694 26.0677L285.599 26.0373L285.503 26.0677H285.473L285.278 26.1631L285.148 26.1934L285.018 26.2584H284.953V26.1934H284.923V26.1284L284.888 26.1934V26.1631L284.953 26.0677L284.983 25.9376L285.048 25.9072L285.113 25.7772C285.113 25.582 285.144 25.4216 285.144 25.2265L285.113 25.0964V24.9663L285.178 24.7712L285.209 24.6411L285.274 24.3506L285.369 24.1252L285.399 24.0298L285.369 23.9647L285.339 23.8043V23.4488L285.209 23.1582L285.239 22.9978L285.269 22.8677L285.334 22.6726L285.464 22.4775L285.495 22.3821L285.59 22.187L285.655 22.0916L285.785 21.9312L285.85 21.8358L285.915 21.6754L285.945 21.5453L285.915 21.4802C285.915 21.3849 285.885 21.2851 285.885 21.2201L285.915 21.155L285.98 21.0597C285.98 20.9296 285.95 20.7995 285.95 20.7041L285.885 20.574L285.915 20.5437C285.885 20.4786 285.885 20.3832 285.885 20.2835L285.755 20.0581L285.594 19.8326L285.499 19.6375L285.404 19.412V19.3166L285.469 19.2516C285.499 19.1215 285.534 19.0261 285.599 18.896L285.568 18.8657L285.664 18.5752L285.694 18.3801L285.534 18.1546L285.438 18.1242L285.408 18.0288L285.343 17.9985V17.9334L285.118 18.0288H285.053L284.988 18.0939H284.827L284.697 17.9334L284.632 17.773L284.472 17.6126C284.342 17.6126 284.212 17.6429 284.117 17.6429L283.922 17.6776L283.727 17.7427L283.371 17.9031L283.241 17.9985L283.016 18.0939L282.79 18.0288H282.695L282.535 17.9985H282.374L282.084 18.0635C281.954 18.1286 281.824 18.1936 281.664 18.2586H281.568L281.308 18.0982L281.083 17.9031L280.858 17.773L280.697 17.6429L280.632 17.6126L280.437 17.5172L280.307 17.3871L280.277 17.2917L280.242 17.1313L280.052 16.8711L279.922 16.8104L279.891 16.7151L279.861 16.65L279.796 16.6197L279.666 16.5243H279.57L279.505 16.4592V16.4289L279.44 16.3638C279.41 16.2988 279.41 16.2034 279.375 16.1384L279.406 16.043L279.31 15.8479L279.18 15.7525L279.276 15.6874L279.406 15.527L279.471 15.3969L279.44 15.2668L279.505 15.1368L279.536 14.9113L279.406 14.6511L279.375 14.5211L279.406 14.391L279.341 14.2956L279.211 14.2002V13.9747L279.306 13.9097L279.371 13.7796L279.341 13.7146L279.406 13.5541L279.536 13.3937L279.601 13.3634L279.666 13.2333V13.1032L279.731 12.9428L279.891 12.8474L280.021 12.6219L280.117 12.5265L280.342 12.4962L280.502 12.3358L280.598 12.2707L280.758 12.0756L280.693 11.7851L280.758 11.59V11.4599L280.888 11.2995L281.083 11.2041L281.243 11.1087L281.339 10.8832L281.369 10.7531H281.529L281.69 10.8485L281.885 10.8182L282.11 10.8485H282.205L282.366 10.7184L282.591 10.6534L282.686 10.558L282.882 10.493C283.107 10.4626 283.302 10.4279 283.527 10.3976L283.623 10.4279L283.783 10.3326H283.978L284.073 10.3629L284.203 10.3326L284.364 10.2372L284.494 10.2675L284.559 10.3629L284.689 10.2675L284.719 10.2979L284.654 10.3932L284.684 10.4886L284.749 10.5537L284.78 10.7488L284.684 10.8789L284.749 11.009H284.845L284.91 11.1043L284.975 11.1347L285.2 11.1997L285.265 11.1694L285.425 11.1997L285.685 11.2648L285.815 11.4599L285.976 11.4902L286.236 11.5553L286.496 11.6507L286.561 11.5856L286.591 11.4902L286.496 11.2951V11.1997L286.561 11.0697L286.656 11.0393L286.851 11.0697L286.947 11.165H287.012L287.077 11.1954H287.207L287.272 11.2604L287.432 11.2301C287.562 11.2604 287.657 11.2951 287.787 11.3602L287.852 11.2648L287.883 11.1997L287.978 11.1694H288.073L288.138 11.2648V11.1997L288.234 11.2301H288.329L288.359 11.165V11.0046L288.329 10.8442V10.7792L288.299 10.584L288.268 10.4236L288.173 10.2632L288.143 10.1678L288.078 10.0724V9.977L288.047 10.0074L287.952 9.977V10.1071L287.822 10.1721L287.597 10.042H287.467V10.1374L287.402 10.1678L287.241 10.0724L287.146 10.1071L286.986 9.91196L286.856 9.81657L286.825 9.65615L286.695 9.56075L286.726 9.33528L286.886 9.30494L286.856 9.14451H287.081L287.146 8.98407L287.211 8.91903L287.371 8.88868L287.597 9.01876L287.757 9.0838L287.822 9.01876H287.887L287.917 8.88868L287.887 8.79328L287.787 8.66321L287.692 8.59818H287.627L287.562 8.53314L287.367 8.40305L287.237 8.33802L287.107 8.24263L287.137 8.21227L287.107 8.05184L287.012 7.98681L287.077 7.89142L287.046 7.86106L287.016 7.89142L286.951 7.92177V7.98681L286.886 8.01716L286.821 8.0822L286.916 8.21227L286.981 8.24263L287.046 8.21227L287.077 8.27732L287.012 8.34236L286.947 8.47243L286.882 8.44207L286.851 8.34668L286.721 8.31634V8.28599L286.752 8.22095L286.687 8.1906L286.526 8.12556L286.461 8.06052L286.396 8.09087L286.427 8.18626V8.34668L286.457 8.41173V8.44641H286.427L286.522 8.67188V8.76727L286.552 8.92771L286.713 9.08814L286.843 9.15318V9.21821L286.713 9.24857V9.3136L286.648 9.40899L286.518 9.27892H286.388L286.258 9.34396L286.388 9.43935L286.323 9.4697H286.258L286.162 9.40465V9.43501L286.258 9.56508L286.353 9.66047L286.318 9.72552L286.448 9.82091L286.544 9.88595L286.609 10.016L286.448 9.98567L286.544 10.0811L286.448 10.0507L286.578 10.2458H286.483L286.323 10.1808L286.193 10.0204L286.097 9.89028C286.032 9.82524 285.937 9.76021 285.872 9.69517L285.841 9.63013H285.811L285.841 9.56508L285.746 9.50004L285.651 9.40465L285.586 9.27458V9.20954L285.555 9.17919H285.525L285.46 9.0838C285.365 9.05345 285.3 9.01876 285.2 8.98841L285.07 8.92337L284.91 8.89302L284.715 8.76294L284.745 8.73259L284.65 8.66755L284.619 8.60252L284.524 8.57216V8.66755L284.459 8.60252L284.429 8.53747L284.459 8.50712L284.329 8.47677L284.234 8.54181L284.299 8.6372V8.70223L284.394 8.79762L284.589 8.89302L284.749 9.05344L285.009 9.21387H285.139L285.204 9.24423L285.174 9.27458C285.269 9.30493 285.369 9.33961 285.464 9.40465L285.625 9.50004L285.655 9.5304V9.59544L285.525 9.50004L285.395 9.4697V9.59978L285.525 9.66481L285.555 9.7602L285.49 9.79056V9.98567L285.36 10.0507C285.36 10.0204 285.33 10.0204 285.33 9.98567V9.82524C285.265 9.7602 285.2 9.69517 285.135 9.59978L285.07 9.56942L284.975 9.47403H284.879L284.784 9.40899H284.654L284.494 9.3136C284.364 9.24856 284.234 9.15318 284.138 9.08814L284.008 8.89302L283.913 8.86266L283.753 8.79762L283.688 8.82798L283.592 8.92337L283.527 8.95373L283.397 9.0838L283.007 9.05344L282.747 9.14884L282.777 9.27892L282.842 9.40899L282.712 9.56942L282.487 9.63446V9.69951L282.392 9.82958L282.361 9.99001L282.491 10.1201L282.396 10.2155V10.3456L282.236 10.4106L282.14 10.571C281.98 10.571 281.815 10.571 281.655 10.6014L281.525 10.6968H281.395L281.3 10.6317L281.204 10.5016L281.009 10.4713L280.944 10.5363L280.814 10.506L280.684 10.5363V10.3759L280.654 10.2458H280.559L280.494 10.1808V10.0507L280.559 9.98567V9.89028L280.589 9.7602L280.559 9.66481L280.494 9.59978L280.463 9.53474L280.433 9.37431L280.338 9.27892L280.598 9.11848L280.858 9.14884H281.118L281.343 9.17919L281.503 9.14884H281.828L281.893 9.01876L281.798 8.62853L281.538 8.43341L281.343 8.27298L281.018 8.20794L280.953 8.07786L281.178 8.01282L281.503 8.04318L281.373 7.8177L281.568 7.88275L281.924 7.72231V7.56188C282.019 7.53153 282.084 7.49684 282.184 7.46649L282.249 7.40145V7.11095L282.409 7.01556H282.539V6.98521L282.669 6.95485L282.734 6.98521L282.799 6.88981L282.734 6.82478H282.669L282.539 6.72939L282.444 6.56896V6.47357L282.574 6.44321L282.604 6.37818L282.669 6.31313L282.734 6.40852V6.47357L282.764 6.50391L282.86 6.53427V6.5993H282.795L282.764 6.72939L282.86 6.82478L282.89 6.88981L283.051 6.92017L283.081 6.98521L283.211 6.95485L283.241 6.88981L283.436 6.95485L283.532 7.01989L283.597 6.95485C283.692 6.88981 283.757 6.82478 283.857 6.79442L283.987 6.82478L284.017 6.85512H284.147L284.117 6.79008L284.247 6.72505L284.151 6.49958L284.056 6.3695L284.026 6.27411L284.091 6.20907L284.286 6.33916H284.351C284.286 6.27412 284.255 6.17872 284.19 6.11368L284.16 6.14403L284.03 6.079L283.935 5.98361L284.03 5.91857L284.125 5.88821H284.255L284.351 5.85786V5.76247L284.19 5.69743L284.03 5.72779L283.935 5.79282L283.805 5.85786L283.675 5.76247L283.545 5.73211L283.415 5.57169L283.22 5.44161L283.189 5.34622V5.25083L283.22 5.05571L283.25 5.02537L283.185 4.96032L283.025 4.89528L282.929 4.96032V5.05571L283.025 5.1511L282.994 5.28119L282.929 5.44161L283.025 5.66708L283.185 5.76247L283.38 5.82751L283.41 6.02263L283.315 6.08766L283.475 6.37818L283.506 6.53861H283.345L283.376 6.66868L283.215 6.69903L283.055 6.53861C282.894 6.40853 282.699 6.27845 282.535 6.11802L282.374 6.02263L282.244 6.24809L282.084 6.31313L281.824 6.24809L281.664 6.08766L281.373 5.73211L281.438 5.63672L281.698 5.47629L281.828 5.31587L281.859 5.0904V4.79989L281.924 4.66982L281.989 4.47469L282.119 4.40966H282.249L282.218 4.27959H282.348L282.444 4.24923L282.769 4.31427L282.803 4.24923L282.999 4.31427V4.24923L283.194 4.31427H283.389L283.779 4.40966L283.909 4.47469L284.039 4.57009L284.069 4.66548L284.039 4.73051C283.909 4.70016 283.748 4.70016 283.649 4.66548L283.618 4.69583L283.844 4.79122L284.104 5.01669L284.234 5.04704L284.329 5.0774L284.264 4.98201L284.134 4.91697L284.104 4.85192L284.364 4.91697V4.88661L284.203 4.79122L284.138 4.6308H284.203L284.299 4.66114L284.203 4.56575L284.073 4.50071L283.978 4.40532L283.818 4.34028H283.978L284.108 4.40532L284.078 4.43567L284.173 4.50071L284.268 4.53106V4.50071L284.138 4.40532L284.108 4.34028C280.16 1.74739 274.946 1.26176 270.543 3.14356V3.20861L270.478 3.27364L270.413 3.304L270.383 3.2693V3.23895H270.352C269.962 3.39938 269.577 3.5945 269.187 3.81996L269.156 3.88501C269.061 3.95005 268.961 4.01509 268.866 4.11048L268.801 4.24055L268.706 4.3056H268.61L268.58 4.37064L268.485 4.40099L268.454 4.37064V4.3056L268.42 4.24055H268.389C268.359 4.2709 268.324 4.27091 268.324 4.3056H268.389L268.359 4.33594L268.294 4.43133H268.359V4.49638H268.454L268.519 4.52672L268.615 4.43133H268.68L268.71 4.49638L268.55 4.62646L268.745 4.53106H268.775L268.97 4.40099L269 4.3056V4.24055L269.195 4.11048L269.39 4.04544L269.421 4.0758L269.39 4.14083L269.26 4.30126L269.13 4.3663L269.226 4.39665L269.065 4.52672L269.291 4.43133L269.26 4.52672L269.1 4.62212L269.07 4.71751L269.46 4.5224L269.655 4.36196L269.85 4.42701L269.88 4.49204L269.815 4.55708L269.655 4.62212L269.624 4.71751L269.529 4.78254L269.369 4.87793H269.13L269.1 4.8129L269.005 4.87793L268.779 4.97333L268.684 5.03837L268.489 5.13377H268.359L268.229 5.1988L268.134 5.29419H268.038L267.813 5.38958L267.553 5.55001L267.392 5.68008L267.197 5.87521L267.293 5.90556L267.197 6.06599L267.067 6.19606H267.228L267.323 6.29145L267.353 6.35649V6.45188L267.449 6.51692L267.514 6.61231L267.674 6.64266L267.769 6.67302L267.674 6.80309L267.579 6.99821L267.514 7.22368L267.579 7.4188L267.709 7.35376L267.904 7.15864L268.034 6.86814V6.77275L268.294 6.7077L268.519 6.61231L268.68 6.48224L268.745 6.35216L268.775 6.19172L268.745 6.06165L269.005 5.90122L269.07 5.74079L269.23 5.48064L269.325 5.45028L269.486 5.51532L269.581 5.54567L269.711 5.51532L269.776 5.58037L269.841 5.67576V5.74079L270.066 5.77114L269.967 5.93158L269.871 6.15704L269.967 6.1874L269.997 6.28279L270.257 6.1874L270.517 6.02697L270.647 5.96192L270.677 6.12236C270.708 6.25244 270.742 6.41286 270.807 6.57763L270.677 6.67302L270.838 6.76841L270.933 6.8638L271.159 6.92884L271.224 6.99387V7.1543L271.354 7.18466L271.384 7.24969L271.319 7.44481C271.224 7.47517 271.124 7.5402 271.029 7.57489L270.738 7.63994L270.448 7.77001H270.157L269.832 7.70497H269.442L269.247 7.83505L269.022 7.90008C268.827 8.03016 268.632 8.19059 268.407 8.32067L268.567 8.29033L268.922 8.06485L269.343 7.93478H269.603L269.698 8.03017L269.473 8.16024L269.442 8.38572V8.54615L269.637 8.64154H269.928L270.188 8.41606L270.157 8.54615L270.253 8.61118L269.897 8.74126L269.477 8.83665L269.282 8.90168L269.022 9.03177L268.892 9.00141L268.957 8.84099L269.312 8.68056H268.857V8.7456L268.632 8.84099C268.502 8.87134 268.372 8.90603 268.242 8.93638C268.177 9.00142 268.112 9.03177 268.047 9.09681L268.012 9.22688V9.3006H268.077V9.23556L268.108 9.3006L268.077 9.36563L267.947 9.39599H267.882L267.752 9.42634H267.592L267.431 9.49138L267.691 9.46102L267.722 9.49138L267.462 9.52173H267.366V9.49138L267.301 9.55641H267.332L267.236 9.71684L267.041 9.87727V9.81223H267.011L266.981 9.7472V9.87727L267.011 9.90762L266.981 9.97266C266.885 10.0377 266.82 10.1331 266.755 10.1981L266.851 10.0681L266.786 9.97266L266.851 9.81223L266.786 9.90762L266.755 10.003L266.66 9.97266L266.725 10.0377L266.66 10.2328L266.69 10.2632V10.3282L266.625 10.5537L266.465 10.7141L266.27 10.7792L266.11 10.9092H266.014L265.954 11.0393L265.728 11.1694L265.598 11.2648L265.468 11.3948L265.403 11.5553L265.373 11.7157V11.9108L265.403 12.0713L265.373 12.1666V12.4268C265.343 12.5222 265.343 12.5872 265.308 12.687L265.243 12.817L265.178 12.8474L265.113 12.817V12.7217L265.082 12.6566C265.052 12.5265 265.052 12.3965 265.017 12.2664V12.171L265.082 12.0106V11.8805L265.017 11.6854L264.987 11.655L264.792 11.72H264.762V11.6247L264.697 11.5596H264.536L264.441 11.5293H264.346L264.281 11.5596V11.6247L264.25 11.72V11.7504L264.22 11.7808L264.155 11.7157L264.09 11.7461L263.995 11.7157L263.964 11.6203H263.869L263.804 11.5553H263.739L263.644 11.5856L263.483 11.7461L263.353 11.8111L263.258 11.9412L263.193 12.0366C263.163 12.132 263.128 12.197 263.128 12.2967V12.3921L263.033 12.5872L262.968 12.7477C262.937 12.8777 262.903 13.0382 262.838 13.1683V13.4284L262.807 13.6235L262.838 13.8186V13.9487L262.868 14.0788L262.963 14.1742L262.994 14.2696L263.059 14.2045H263.154C263.219 14.1742 263.284 14.1742 263.349 14.1395L263.444 14.0441L263.509 13.914L263.574 13.7189L263.605 13.6539L263.7 13.5888L263.83 13.5585L263.96 13.5888H264.055L264.086 13.6539L264.055 13.784L263.925 13.8793L263.86 14.0094L263.891 14.0398C263.86 14.1352 263.826 14.2349 263.795 14.3303L263.765 14.2652H263.735V14.2956H263.765V14.3606L263.735 14.456V14.4864L263.704 14.5818V14.6121L263.674 14.7422L263.644 14.8072H263.613L263.583 14.8723L263.613 14.9373L263.644 14.907C263.644 14.9373 263.674 14.9373 263.709 14.9373L263.739 14.907H263.769V14.9373H263.8L263.865 14.9677H263.93L263.995 14.9373L264.025 14.907L264.09 14.972H264.12L264.151 14.9417L264.216 14.972H264.246L264.311 15.1021L264.376 15.1324L264.406 15.1975V15.3926L264.376 15.4576L264.346 15.553V15.8132L264.315 15.8435L264.285 15.9389V16.004L264.255 16.069V16.134L264.285 16.1644L264.315 16.2945C264.38 16.3899 264.445 16.5199 264.51 16.6197V16.6847L264.575 16.7151V16.6847L264.606 16.7497H264.701L264.766 16.6847L264.861 16.6543L264.926 16.5893L265.022 16.6197V16.65L265.117 16.6804L265.312 16.8755H265.408L265.538 16.7151L265.603 16.6847V16.5893L265.633 16.3942L265.728 16.2988H265.858L265.889 16.2338L266.019 16.2641C266.084 16.1991 266.179 16.134 266.244 16.1037L266.339 16.0083L266.404 16.0386L266.435 16.1037L266.404 16.1991V16.2641L266.274 16.2945L266.339 16.4245V16.5546L266.244 16.6847L266.309 16.8798H266.404L266.435 16.6847L266.37 16.5893V16.3942L266.63 16.2988L266.599 16.1687L266.664 16.1037L266.729 16.2988H266.859L266.989 16.4592V16.5546H267.41L267.54 16.6847L267.7 16.7151L267.83 16.65V16.585H268.35L268.155 16.65L268.22 16.7801L268.381 16.8104L268.541 16.9405L268.571 17.1356H268.701C268.766 17.2007 268.862 17.231 268.927 17.2961L269.057 17.4565V17.5866H269.152C269.217 17.6516 269.282 17.747 269.347 17.812L269.607 17.8771L269.637 17.8467H269.832L270.092 17.9118C270.188 17.9421 270.253 17.9768 270.352 18.0072L270.612 18.2326L270.643 18.328H270.708L270.773 18.4581L270.903 18.8787L271.033 18.909V19.0695L270.872 19.2646L270.937 19.3296L271.358 19.3947L271.388 19.6201L271.549 19.4597C271.774 19.5247 272.034 19.6201 272.259 19.7199L272.389 19.8499L272.359 19.98L272.649 19.915L273.135 20.045H273.49L273.845 20.2402L274.171 20.5003L274.366 20.5654H274.591L274.686 20.6304C274.717 20.7908 274.782 20.9209 274.816 21.051L274.721 21.4412L274.591 21.6363L274.266 21.9615L274.136 22.2217L273.975 22.4168H273.91L273.845 22.5469L273.876 22.9675C273.845 23.1279 273.845 23.2927 273.811 23.4227L273.746 23.5181V23.8086L273.551 24.0688V24.2639L273.39 24.3593L273.36 24.4894H273.135L272.81 24.5544L272.68 24.6498L272.454 24.7148L272.229 24.8753L272.099 25.0704V25.2005L272.164 25.2959V25.491L272.099 25.5257L271.969 25.6211L271.839 25.9463L271.614 26.1717L271.583 26.3322L271.488 26.4275L271.458 26.5229L271.297 26.6183L271.167 26.588H271.072L270.877 26.5229H270.747L270.617 26.4275V26.4926L270.907 26.653L270.937 26.7831L271.068 26.8481L271.098 26.9435L271.003 27.1386L270.807 27.2037L270.482 27.234L270.287 27.2037L270.383 27.2991L270.413 27.4291L270.478 27.4942L270.413 27.5592H270.283L270.088 27.4942L270.058 27.5245L270.188 27.685L270.318 27.75L270.383 27.7197L270.478 27.7847L270.383 27.8151L270.318 27.9104L270.383 28.0709L270.413 28.1359L270.283 28.1012L270.218 28.1663L270.248 28.2617L270.443 28.357L270.604 28.3874L270.669 28.5175L270.604 28.6129L270.669 28.7733L270.604 28.8036V28.8687L270.764 28.9988L270.924 29.0638H270.764L270.734 29.0941L270.669 29.1245L270.764 29.2199H270.734L270.573 29.1895C270.443 29.1245 270.283 29.0595 270.153 29.0291L270.023 28.9337L269.958 28.8687L269.828 28.7733L269.603 28.5478L269.507 28.4177L269.538 28.3224L269.312 28.2573V28.1272L269.152 27.9018L269.347 27.9668L269.187 27.6763L269.057 27.6459L269.152 27.8411L269.057 27.776C268.961 27.6156 268.862 27.4508 268.766 27.2557V27.1603L268.606 26.9999L268.476 26.8048H268.541L268.346 26.0286L268.186 25.7685L268.155 25.6081L268.025 25.3826V25.1571L267.895 24.8016C267.83 24.5111 267.765 24.2206 267.67 23.9604C267.605 23.7349 267.509 23.5398 267.41 23.3144L267.184 23.1843L267.154 23.0889L266.734 22.8634L266.344 22.6032L266.183 22.4732L266.053 22.2781V22.213C265.763 21.8228 265.533 21.4369 265.308 21.0163L265.213 20.9209L265.117 20.7605L264.957 20.6L264.827 20.5047L264.857 20.4093L264.792 20.0841L264.822 19.9236L264.918 19.7936L264.983 19.6331L264.918 19.5377L264.853 19.6331L264.757 19.5031L264.788 19.438L264.723 19.2125L264.788 19.1822V19.0218L264.853 18.8613L264.822 18.7659L264.918 18.7356L265.013 18.6402L264.983 18.5752H265.048V18.4451L265.078 18.3497H265.173C265.204 18.2543 265.269 18.1546 265.304 18.0895L265.239 18.0245L265.269 17.8944L265.239 17.669L265.269 17.6039L265.239 17.3785L265.173 17.2484L265.108 17.1833L265.078 17.0533L265.108 16.9882L265.078 16.9579L265.048 16.8625L264.952 16.7974H264.887L264.857 16.8928L264.792 16.9579H264.762L264.731 17.0229L264.796 17.1183L264.731 17.1833H264.666L264.636 17.0229L264.606 17.0533L264.541 17.0229L264.51 16.9275L264.445 16.8972L264.415 16.8668H264.35V16.9318L264.32 16.9015L264.224 16.8365L264.194 16.7714L264.224 16.7411V16.676L264.194 16.611L264.129 16.5459L264.064 16.5156V16.4506L264.034 16.3855V16.4506L264.003 16.5156L263.969 16.4852L263.938 16.4549L263.908 16.3899V16.3248L263.938 16.2598L263.908 16.2294L263.938 16.1991C263.908 16.134 263.873 16.069 263.843 16.004L263.813 15.9086L263.748 15.8132L263.683 15.6831L263.713 15.6527L263.743 15.6831V15.6527L263.713 15.5877L263.683 15.5574L263.652 15.6224H263.557L263.522 15.5574L263.457 15.5227L263.392 15.4923L263.362 15.4273L263.297 15.3622H263.232L263.167 15.2972L263.102 15.2018L263.007 14.9113L262.942 14.8159L262.877 14.7509H262.812L262.716 14.8159H262.651L262.521 14.6858L262.456 14.5557L262.391 14.4907L262.326 14.3606L262.296 14.2306V14.1655H262.231L262.166 14.0701V13.9401L262.135 13.7796V13.4891L262.166 13.4588V13.3937L262.196 13.3287L262.227 13.2333V13.0729C262.257 12.8777 262.257 12.6826 262.257 12.4918L262.287 12.3314V12.171L262.352 12.0409V11.9455C262.287 12.171 262.222 12.4008 262.157 12.6263V12.7867L262.127 12.8517C260.606 18.6836 262.937 24.9663 267.826 28.4307C269.477 29.5971 271.388 30.4079 273.36 30.8285C273.33 30.8285 273.295 30.7982 273.23 30.7982L273.1 30.7635L273.005 30.6681C272.974 30.6377 272.909 30.6377 272.875 30.6031L272.844 30.5727V30.512L272.875 30.4817L272.844 30.4513V30.4209L272.875 30.3906H272.94L272.97 30.3602H273.065L273.13 30.2952H273.195L273.291 30.3256V30.3559L273.226 30.3863H273.031C273 30.3863 273 30.4166 272.966 30.4166V30.447L272.996 30.4773L273.126 30.5423H273.031V30.6377L273.061 30.6681L273.191 30.7331C273.256 30.7331 273.321 30.7635 273.386 30.7635C273.516 30.7938 273.611 30.8285 273.741 30.8936L273.871 30.9586C274.907 31.119 275.978 31.1537 277.044 31.0887H276.979L277.009 31.0583H277.074C277.204 31.0583 277.3 31.028 277.43 30.9933L277.56 30.9283H277.655V30.9586H277.75L277.781 30.9283L277.846 30.8979H277.911V30.9283H278.006C278.071 30.9283 278.136 30.8979 278.231 30.8979H278.296V30.9283C278.522 30.8632 278.751 30.8632 278.977 30.8329L279.072 30.8025H279.167C283.115 29.9613 286.453 27.4985 288.489 24.1642L288.394 24.2596V24.1642L288.424 24.0688L288.52 23.8737C288.55 23.7783 288.615 23.6786 288.65 23.5832L288.745 23.4227L288.776 23.3924L288.806 23.3274L288.901 23.1669L288.966 23.0368C288.997 22.9068 289.062 22.7463 289.127 22.6163L289.257 22.3561L289.387 22.226H289.417C289.482 22.1306 289.547 22.0309 289.577 21.9355L289.642 21.8054L289.673 21.71V21.7404C290.496 19.7632 290.786 17.7557 290.691 15.7785ZM285.022 10.0117C285.118 9.98134 285.217 9.98133 285.282 9.94665V10.1071L285.347 10.1721V10.2675L285.187 10.2025H285.092L284.866 10.1071L284.836 10.0117H285.022ZM280.169 6.25677H280.299L280.494 6.22642L280.398 6.42153L280.559 6.39118H280.754L280.784 6.52126L280.719 6.68169H280.914L281.174 6.90716L281.304 6.9375L281.564 7.19766L281.789 7.22802L281.82 7.35809L281.755 7.42314L281.85 7.51853L281.72 7.61391H281.495L281.204 7.67896L281.109 7.6486L281.014 7.744H280.853L280.758 7.80903L280.663 7.77868L280.858 7.58357L281.018 7.55321L280.663 7.48818L280.598 7.42314L280.758 7.35809L280.628 7.2627V7.13263H280.888L280.858 7.03724L280.697 6.94184L280.472 6.91149L280.407 6.88115L280.437 6.78576L280.372 6.7554L280.307 6.85079L280.242 6.69037L280.112 6.59497V6.39985L280.169 6.25677ZM279.878 6.96786L279.974 6.87247H280.104L280.329 6.96786L280.294 7.09794L280.359 7.22802L280.294 7.38845L280.004 7.51853L279.744 7.48818L279.839 7.29305L279.679 7.09794L279.878 6.96786ZM269.065 5.28551L268.935 5.22048V5.15544L268.775 5.22048L268.55 5.28551L268.615 5.19012H268.485L268.68 5.15978C268.775 5.06439 268.875 4.99935 269.005 4.89962L269.07 4.92998L269.005 4.99501L269.07 4.96466V4.99501L269.2 5.12509L269.135 5.19012H269.23L269.26 5.25517L269.065 5.28551ZM265.793 14.1569L265.663 14.1265H265.403L265.533 13.9964L265.468 13.9314L265.373 13.901L265.343 13.836V13.7059H265.247L265.117 13.6409L265.052 13.5758L264.857 13.5108L264.792 13.4804L264.857 13.4154L264.697 13.3851L264.567 13.4804H264.502L264.471 13.5455L264.406 13.5758L264.341 13.5455L264.437 13.4804L264.502 13.3851L264.567 13.3547L264.662 13.3243H264.792L264.822 13.294L264.952 13.3243H265.082L265.213 13.4197L265.243 13.5151H265.403C265.499 13.6105 265.564 13.7406 265.663 13.8403H265.728L265.824 13.9054L265.793 13.9704L265.923 14.0007L266.053 14.0961L266.023 14.1612L265.893 14.1915L265.793 14.1569ZM267.024 14.6772L266.929 14.6121H266.768L266.738 14.6425H266.673L266.643 14.5774L266.578 14.6078L266.482 14.7682L266.452 14.7379V14.6728L266.322 14.6078H266.227L266.131 14.5774L266.036 14.6078L265.971 14.5427L266.001 14.4777C266.097 14.5081 266.196 14.5427 266.292 14.5427L266.357 14.4777L266.292 14.3823V14.2869L266.196 14.2566L266.261 14.1915L266.357 14.2219L266.517 14.2869L266.547 14.2566H266.708L266.803 14.3216H266.868L266.898 14.417H266.994V14.482H267.089L267.184 14.5774L267.024 14.6772ZM271.458 29.4801L271.328 29.4497V29.4801L271.263 29.5104L271.133 29.4801L271.068 29.4497L270.937 29.4193C270.807 29.389 270.677 29.324 270.547 29.2893L270.257 29.1288L270.387 29.1592L270.612 29.2546L270.807 29.3196V29.2546L270.742 29.1895L270.807 29.1592L270.903 29.1895C270.998 29.2199 271.063 29.2849 271.163 29.35L271.388 29.415L271.583 29.4454V29.5104L271.458 29.4801ZM270.747 3.17825L270.812 3.1479L270.907 3.11754H270.812L270.907 3.02215C270.972 2.9918 271.037 2.9918 271.102 2.95712H271.167L271.198 2.92676H271.297L271.267 3.02215L271.297 3.05251L271.362 3.08286L271.297 3.14356V3.17391L271.167 3.20861L270.907 3.27364H270.812L270.716 3.24329L270.747 3.17825ZM270.456 3.24329L270.521 3.21294L270.617 3.18259H270.647L270.617 3.21294L270.521 3.24329H270.456ZM270.196 3.43841V3.40806L270.292 3.3777L270.387 3.40806V3.43841H270.482V3.46875L270.387 3.49911L270.417 3.52946V3.55982C270.482 3.55982 270.513 3.59016 270.578 3.59016H270.868L270.963 3.62051L270.994 3.68555L270.929 3.72025L270.833 3.7506H270.253L270.188 3.72025L270.092 3.65521L270.287 3.52512V3.46009L270.196 3.43841ZM269.776 3.46875L269.936 3.37336H269.967L270.097 3.34302L270.127 3.37336H270.157L270.092 3.43841L269.997 3.50345L269.837 3.56849H269.741V3.53813L269.871 3.47309L269.776 3.46875ZM269.256 3.98907L269.096 4.01943L269.065 3.98907L269.096 3.92404L269.161 3.79395L269.226 3.76361L269.291 3.79395L269.386 3.69856L269.516 3.66822V3.69856H269.611L269.581 3.72891L269.451 3.79395V3.859L269.256 3.98907ZM269.451 3.95439H269.386L269.516 3.8243L269.611 3.75927L269.806 3.69423L269.902 3.72459L269.967 3.75493L269.741 3.85032H269.646L269.451 3.95439ZM271.458 8.48978H271.362L271.267 8.45942L271.362 8.299L271.332 8.26864L271.072 8.42907H270.977L271.137 8.33368L270.977 8.26864H270.781L270.456 8.23829V8.17325L270.586 8.10821L270.456 8.07353L270.651 7.97814L270.942 7.68763L271.072 7.59223L271.232 7.5272H271.297C271.167 7.62259 271.072 7.75267 270.942 7.85239L271.072 7.78736L271.167 7.8177L271.072 7.88275L271.202 7.94778L271.297 7.91743L271.458 7.98247L271.362 8.11255L271.492 8.0822V8.17759L271.523 8.30766L271.458 8.48978ZM271.557 5.02537L271.232 5.18579L271.137 5.12075L271.072 4.96032H270.911L270.816 5.05571L270.881 5.1511L271.011 5.21614L271.042 5.24649L270.946 5.44161L270.816 5.537L270.721 5.47197L270.495 5.34188L270.56 5.47197L270.625 5.56736V5.6324L270.3 5.56736L270.105 5.47197L270.01 5.37658L270.075 5.34622C270.01 5.28118 269.945 5.21615 269.88 5.18579L269.85 5.21614H269.525L269.49 5.1511L269.65 5.05571H270.071V4.99067L270.166 4.92564L270.426 4.79555L270.456 4.73051V4.66548L270.361 4.60044L270.201 4.5354L270.296 4.50505V4.40966H270.231L270.201 4.34462L270.105 4.37498H269.91L269.65 4.30993L269.52 4.24489L269.425 4.21454V4.1495L269.585 4.08446H269.49L269.65 3.95439L269.876 3.859L270.006 3.82864H270.231L270.071 3.89368L270.006 3.98907L270.201 3.89368L270.461 3.86333L270.43 3.99341L270.3 4.0888L270.526 4.05845L270.656 4.02809L270.786 4.12349L270.851 4.18852L270.786 4.25356L270.981 4.22322V4.31861L271.176 4.38364L271.206 4.44868V4.57875L270.946 4.6438L271.141 4.73919L271.302 4.76954L271.367 4.89962L271.562 4.92998L271.557 5.02537ZM271.848 3.27364L271.817 3.33868L271.687 3.36904L271.527 3.39939L271.432 3.42973L271.271 3.46009L271.241 3.49044H271.371L271.401 3.52512L271.111 3.59016L270.951 3.52512H270.725L270.66 3.49477L270.565 3.46443L270.63 3.39939H270.79L270.885 3.304H270.916L271.011 3.36904L271.042 3.304L270.977 3.27364L271.107 3.24329H271.267L271.332 3.20861V3.14356L271.397 3.07852L271.557 3.10888H271.588L271.748 3.07852L271.653 3.04817L271.458 3.01783L271.427 2.98747L271.458 2.95712V2.92676L271.488 2.89208H271.778L271.908 2.8574H271.973V2.88774L272.103 2.8574H272.719C272.914 2.88775 273.109 2.88775 273.299 2.92244L273.395 2.95278L273.364 2.98313L273.139 3.01349H272.944L272.849 3.04384H273.009C272.879 3.07419 272.719 3.10888 272.589 3.10888L272.329 3.17391H272.168L272.103 3.20427H271.878L271.943 3.23462L271.848 3.27364ZM276.316 4.76521L275.895 4.83025H275.735L275.575 4.89528L275.349 5.05571L275.024 5.1511H274.929C274.799 5.18145 274.639 5.18145 274.509 5.21614L274.348 5.31153L274.318 5.40692L274.223 5.50231L273.932 5.6324L273.962 5.76247C273.897 5.85786 273.802 5.95759 273.737 6.05298H273.512L273.317 5.9229H272.992L272.862 5.82751L272.831 5.66708L272.766 5.47197L272.736 5.37658L272.766 5.24649L272.636 5.08606L272.732 4.99067L272.667 4.92564L272.892 4.76521L273.117 4.73485L273.278 4.57443C273.182 4.60478 273.117 4.60477 273.018 4.63946L272.888 4.66982L272.758 4.60478L272.823 4.50939L272.918 4.44434H273.013L273.239 4.47469C273.174 4.44434 273.078 4.37931 273.013 4.34462H272.883L272.818 4.31427L273.013 4.18419L272.983 4.11914C272.953 4.05411 272.953 3.95872 272.918 3.89368L272.883 3.82864L272.914 3.76361L272.719 3.66822C272.493 3.63787 272.264 3.63786 272.038 3.63786L271.973 3.60751L271.943 3.54247L272.203 3.51212H272.398L272.073 3.44708L271.943 3.38204L272.008 3.35169C272.233 3.32134 272.493 3.32134 272.719 3.28665L272.784 3.2563L272.623 3.22162L272.753 3.19126L273.109 3.12622H273.239L273.269 3.09587C273.494 3.06552 273.754 3.06552 273.98 3.09587L274.045 3.12622L274.305 3.06117L274.465 3.09153H274.561L274.721 3.12188L274.561 3.05685L274.591 3.02649L274.916 2.96146H275.206L275.336 2.9311H276.277C276.437 2.96145 276.667 2.99614 276.827 2.99614L276.667 3.02649C276.407 3.02649 276.116 3.0265 275.856 3.05685L275.887 3.0872H276.212L276.472 3.11754L276.632 3.0872L276.727 3.11754L276.632 3.18259L276.857 3.15224C276.987 3.15224 277.148 3.12188 277.278 3.12188H277.568L277.633 3.15224L277.308 3.24763L277.278 3.27797L276.988 3.30833H277.213L277.053 3.46875L277.083 3.59884L277.243 3.66388H277.083L276.922 3.69423L277.148 3.75927L277.213 3.85466H277.083L277.278 3.95005H277.018L277.178 4.01509L277.148 4.04544L276.988 4.0758H276.827L276.988 4.17119V4.23622L276.727 4.17119L276.662 4.20153L276.823 4.23188L277.018 4.29692L277.083 4.39231L276.857 4.42267C276.762 4.39231 276.662 4.32728 276.567 4.29259L276.632 4.38798L276.472 4.45302H277.022C276.766 4.63513 276.541 4.70017 276.316 4.76521ZM278.257 5.34622C278.062 5.41126 277.902 5.44161 277.707 5.50665C277.482 5.4763 277.287 5.4763 277.061 5.44161L277.191 5.37658L276.866 5.31153L277.126 5.28119V5.25083L276.801 5.22048L276.896 5.12509L277.122 5.09473L277.382 5.19012L277.577 5.09473L277.772 5.12509L277.997 5.02969H278.223V5.12509L278.418 5.22048L278.257 5.34622ZM287.679 7.77868L287.744 7.90876L287.714 7.9391L287.809 8.16458L287.969 8.32501L288.065 8.45508C288.195 8.61551 288.325 8.7456 288.455 8.91036H288.485L288.515 8.94072L288.485 8.97106C288.515 9.0361 288.58 9.1315 288.615 9.19654V9.26157C288.645 9.35696 288.711 9.42201 288.776 9.52173L288.84 9.55207L288.936 9.64746H288.966C288.741 9.22688 288.481 8.77162 288.19 8.38572H288.16L288.03 8.22528L287.965 8.19494L287.935 8.12989H287.965L287.87 7.99981C287.805 7.90442 287.709 7.8047 287.644 7.67462H287.614L287.644 7.77001L287.679 7.77868ZM288.81 11.9889L288.715 11.8284H288.65L288.619 11.6984L288.589 11.6333L288.559 11.5379V11.5076V11.603L288.589 11.7634V11.9238C288.559 11.8588 288.494 11.8284 288.459 11.7634L288.264 11.4382V11.4686L288.394 11.694C288.554 11.9542 288.719 12.2144 288.88 12.5049L289.04 12.7303V12.7607L289.07 12.9211L289.231 13.1162L289.261 13.1466L289.356 13.372V13.4024C289.387 13.5628 289.452 13.7579 289.517 13.9227C289.547 13.9531 289.582 14.0181 289.647 14.0528L289.742 14.3129L289.807 14.5384L289.872 14.6338L290.032 14.8289C290.097 14.9243 290.128 15.0544 290.193 15.1541L290.258 15.2842V15.3796L290.227 15.4446C290.258 15.475 290.258 15.5097 290.292 15.54L290.357 15.7351H290.388L290.453 15.6397L290.518 15.5747L290.548 15.4793L290.578 15.449V15.3839L290.674 15.2885V15.1931C290.643 14.933 290.643 14.6728 290.578 14.417L290.513 14.5774L290.483 14.7725L290.453 14.8029H290.422L290.392 14.933L290.362 14.998V15.3232H290.331L290.301 15.3536H290.236L290.206 15.2235V15.0934L290.175 15.0284L290.145 14.8679L290.08 14.6728V14.6078L290.045 14.4474V14.352L290.015 14.2869L289.985 14.1915L289.92 14.1265L289.79 13.7363L289.694 13.5758L289.664 13.5455L289.569 13.32L289.504 13.1596L289.473 13.0295L289.343 12.7693L289.278 12.674L289.213 12.6436L289.148 12.5135V12.4485L289.053 12.3531L288.958 12.1927L288.81 11.9889Z" fill="#121212"/>
</svg>
