<svg width="99" height="78" viewBox="0 0 99 78" fill="none" xmlns="http://www.w3.org/2000/svg">
<g clip-path="url(#clip0_1_2)">
<path d="M7.04378 56.285C7.51251 56.3832 7.74688 56.7513 7.74688 57.3893C7.74688 57.7328 7.66607 58.0028 7.50443 58.1991C7.3428 58.3954 7.13268 58.4936 6.87407 58.4936C6.79325 58.4936 6.6397 58.4854 6.41341 58.469C6.18713 58.4363 5.94468 58.4118 5.68607 58.3954C5.42745 58.3627 5.17692 58.3382 4.93447 58.3218C4.69202 58.2891 4.52231 58.2727 4.42533 58.2727C4.32835 58.2727 4.23945 58.2727 4.15864 58.2727C4.07782 58.2727 3.997 58.2809 3.91619 58.2973C3.64141 58.2809 3.31815 58.2482 2.94639 58.1991C2.5908 58.1337 2.23521 58.0682 1.87962 58.0028C1.54019 57.921 1.23309 57.8392 0.958305 57.7574C0.699693 57.6756 0.546142 57.602 0.497652 57.5365C0.33602 57.0457 0.255203 56.3914 0.255203 55.5734C0.255203 55.4425 0.255203 55.3116 0.255203 55.1808C0.255203 55.0335 0.263285 54.8863 0.279448 54.739L0.424918 52.9968C0.441081 52.8659 0.449162 52.7432 0.449162 52.6287C0.449162 52.4978 0.449162 52.3833 0.449162 52.2851C0.449162 52.1542 0.449162 52.0479 0.449162 51.9661C0.449162 51.868 0.432999 51.778 0.400673 51.6962C0.513816 51.0745 0.594632 50.5592 0.643122 50.1502C0.691611 49.7248 0.715856 49.3977 0.715856 49.1686V48.9723C0.715856 48.7433 0.812836 48.0153 1.0068 46.7883C1.24925 46.2648 1.621 46.0031 2.12207 46.0031C2.42917 46.0031 2.68778 46.1257 2.8979 46.3711C3.10802 46.6002 3.21309 46.9192 3.21309 47.3282C3.14843 47.5572 3.08378 47.8435 3.01913 48.187C2.97064 48.5306 2.92215 48.9396 2.87366 49.414V49.6103C2.87366 49.7576 2.85749 49.9866 2.82517 50.2974C2.809 50.5919 2.78476 50.9027 2.75243 51.2299C2.72011 51.5408 2.68778 51.8271 2.65545 52.0888C2.63929 52.3342 2.63121 52.4733 2.63121 52.506C2.63121 52.6859 2.63929 52.8004 2.65545 52.8495C2.5908 53.5366 2.54231 54.1092 2.50998 54.5673C2.47766 55.0253 2.46149 55.3771 2.46149 55.6225C2.46149 55.7861 2.46958 55.8924 2.48574 55.9415C3.32623 56.0396 3.88386 56.0887 4.15864 56.0887C4.28794 56.0887 4.41725 56.0887 4.54656 56.0887C4.69202 56.0724 4.83749 56.0642 4.98296 56.0642C5.59717 56.0642 6.28411 56.1378 7.04378 56.285ZM16.8209 58.6899C16.6108 58.8371 16.2714 58.9844 15.8026 59.1316C15.3339 59.2625 14.849 59.377 14.3479 59.4751L13.3539 59.2788C13.2084 59.2297 12.966 59.1152 12.6265 58.9353C12.3033 58.7553 11.9719 58.4854 11.6325 58.1255C11.2931 57.7492 10.9941 57.2748 10.7354 56.7022C10.4768 56.1133 10.3475 55.4016 10.3475 54.5673C10.3475 54.2728 10.4122 53.9293 10.5415 53.5366C10.6869 53.1276 10.8971 52.7514 11.1718 52.4078C11.4466 52.0479 11.7861 51.7453 12.1901 51.4999C12.6104 51.2545 13.0953 51.1318 13.6448 51.1318C14.7439 51.1318 15.738 51.4917 16.6269 52.2115C17.4028 53.2912 17.7907 54.4855 17.7907 55.7942C17.7907 56.7595 17.4674 57.7247 16.8209 58.6899ZM15.6329 55.2053C15.5521 54.5673 15.3501 54.0683 15.0268 53.7084C14.7197 53.3321 14.3237 53.144 13.8388 53.144C13.5155 53.144 13.2084 53.3076 12.9175 53.6348C12.6427 53.9456 12.5053 54.4037 12.5053 55.009C12.5053 55.2544 12.5376 55.5161 12.6023 55.7942C12.667 56.056 12.772 56.3014 12.9175 56.5304C13.0629 56.7431 13.2488 56.9231 13.4751 57.0703C13.7014 57.2012 13.9762 57.2666 14.2994 57.2666C14.8167 57.2666 15.1723 57.1112 15.3662 56.8004C15.5602 56.4732 15.6572 56.0724 15.6572 55.5979C15.6572 55.5325 15.6491 55.4752 15.6329 55.4262C15.6329 55.3607 15.6329 55.2871 15.6329 55.2053ZM27.0492 58.6899C26.8391 58.8371 26.4997 58.9844 26.0309 59.1316C25.5622 59.2625 25.0773 59.377 24.5762 59.4751L23.5822 59.2788C23.4367 59.2297 23.1943 59.1152 22.8549 58.9353C22.5316 58.7553 22.2002 58.4854 21.8608 58.1255C21.5214 57.7492 21.2224 57.2748 20.9638 56.7022C20.7051 56.1133 20.5758 55.4016 20.5758 54.5673C20.5758 54.2728 20.6405 53.9293 20.7698 53.5366C20.9153 53.1276 21.1254 52.7514 21.4002 52.4078C21.6749 52.0479 22.0144 51.7453 22.4184 51.4999C22.8387 51.2545 23.3236 51.1318 23.8731 51.1318C24.9722 51.1318 25.9663 51.4917 26.8553 52.2115C27.6311 53.2912 28.019 54.4855 28.019 55.7942C28.019 56.7595 27.6958 57.7247 27.0492 58.6899ZM25.8612 55.2053C25.7804 54.5673 25.5784 54.0683 25.2551 53.7084C24.948 53.3321 24.552 53.144 24.0671 53.144C23.7438 53.144 23.4367 53.3076 23.1458 53.6348C22.871 53.9456 22.7336 54.4037 22.7336 55.009C22.7336 55.2544 22.766 55.5161 22.8306 55.7942C22.8953 56.056 23.0003 56.3014 23.1458 56.5304C23.2913 56.7431 23.4771 56.9231 23.7034 57.0703C23.9297 57.2012 24.2045 57.2666 24.5278 57.2666C25.045 57.2666 25.4006 57.1112 25.5945 56.8004C25.7885 56.4732 25.8855 56.0724 25.8855 55.5979C25.8855 55.5325 25.8774 55.4752 25.8612 55.4262C25.8612 55.3607 25.8612 55.2871 25.8612 55.2053ZM38.7565 57.1684C38.7726 57.2339 38.7807 57.2911 38.7807 57.3402C38.7969 57.3893 38.805 57.4466 38.805 57.512C38.805 57.8555 38.6999 58.1337 38.4898 58.3463C38.2797 58.559 38.0372 58.6653 37.7624 58.6653C37.52 58.6653 37.3018 58.559 37.1078 58.3463C36.9139 58.1337 36.7037 57.8637 36.4775 57.5365C36.2673 57.2093 36.0249 56.8494 35.7501 56.4568C35.4753 56.0642 35.1359 55.6879 34.7318 55.328C34.6672 55.2626 34.5459 55.1726 34.3682 55.0581C34.1904 54.9272 33.9641 54.7636 33.6893 54.5673L33.5438 54.6409C33.5115 54.7554 33.4873 54.8945 33.4711 55.0581C33.4226 55.3362 33.3984 55.7043 33.3984 56.1623C33.3984 56.2932 33.4145 56.4404 33.4468 56.604C33.4468 56.6368 33.4388 56.6695 33.4226 56.7022C33.4226 56.7349 33.4226 56.7758 33.4226 56.8249C33.4226 56.9721 33.4226 57.1684 33.4226 57.4138C33.4388 57.6429 33.4549 57.8719 33.4711 58.1009C33.4873 58.3136 33.4953 58.5017 33.4953 58.6653C33.5115 58.8289 33.5196 58.9026 33.5196 58.8862C33.5196 59.1643 33.3984 59.377 33.1559 59.5242C32.9135 59.6715 32.6468 59.7451 32.3558 59.7451C31.9356 59.7451 31.6527 59.5406 31.5073 59.1316C31.3779 58.7226 31.3133 58.0273 31.3133 57.0457C31.3133 56.3914 31.3375 55.8024 31.386 55.2789C31.4345 54.739 31.4588 54.2646 31.4588 53.8556V53.4385C31.4588 53.3567 31.4668 53.2176 31.483 53.0213C31.5153 52.825 31.5396 52.6041 31.5557 52.3587C31.5881 52.1133 31.6123 51.8679 31.6285 51.6226C31.6608 51.3608 31.677 51.1399 31.677 50.96V50.6901C31.6931 50.641 31.7174 50.4201 31.7497 50.0275C31.782 49.6349 31.8386 49.185 31.9194 48.6778C32.0002 48.1543 32.0972 47.6226 32.2104 47.0828C32.3397 46.5266 32.4932 46.0603 32.671 45.684C32.7842 45.4386 33.0347 45.3159 33.4226 45.3159C34.1499 45.3159 34.5136 45.6022 34.5136 46.1748C34.5136 46.3057 34.4813 46.5511 34.4166 46.911C34.352 47.2709 34.2793 47.6635 34.1984 48.0889C34.1338 48.4979 34.0691 48.8987 34.0045 49.2913C33.956 49.6839 33.9317 49.9784 33.9317 50.1747C33.8994 50.2238 33.8267 50.8373 33.7135 52.0152C33.956 51.8516 34.1742 51.688 34.3682 51.5244C34.5783 51.3444 34.7965 51.1645 35.0228 50.9845C35.2491 50.8046 35.5157 50.6164 35.8228 50.4201C36.1299 50.2075 36.5098 49.9702 36.9624 49.7085C36.9947 49.7085 37.0189 49.7085 37.0351 49.7085C37.0513 49.6921 37.0755 49.6839 37.1078 49.6839C37.3503 49.6839 37.5927 49.7985 37.8352 50.0275C38.0776 50.2565 38.1988 50.5183 38.1988 50.8128C38.1988 50.9927 38.1908 51.1236 38.1746 51.2054C38.1584 51.2708 38.0857 51.3526 37.9564 51.4508C37.8433 51.5489 37.6493 51.6798 37.3745 51.8434C37.0997 52.007 36.7118 52.2606 36.2108 52.6041C36.1784 52.6859 35.9117 52.8741 35.4107 53.1685C35.6046 53.3321 35.7259 53.4385 35.7744 53.4875C35.839 53.5366 35.9198 53.6184 36.0168 53.7329C36.1138 53.8311 36.2754 54.0111 36.5017 54.2728C36.7442 54.5182 37.1482 54.9272 37.7139 55.4998C38.0211 55.9251 38.3686 56.4813 38.7565 57.1684ZM45.3446 47.7453C45.377 47.8762 45.3931 47.9989 45.3931 48.1134C45.3931 48.6369 45.2396 49.0786 44.9325 49.4386C44.4476 49.6349 43.9627 49.733 43.4778 49.733C43.1707 49.5367 42.9121 49.3159 42.7019 49.0705C42.508 48.8087 42.411 48.5551 42.411 48.3097C42.411 48.0971 42.6534 47.5736 43.1383 46.7392C43.3485 46.772 43.5667 46.7965 43.793 46.8128C44.0354 46.8292 44.2536 46.8701 44.4476 46.9355C44.6577 47.001 44.8355 47.0991 44.981 47.23C45.1426 47.3445 45.2638 47.5163 45.3446 47.7453ZM44.5688 51.8434V52.1624C44.5688 52.2442 44.5688 52.3342 44.5688 52.4324C44.5688 52.5305 44.5526 52.6205 44.5203 52.7023L44.3263 53.8066V54.0274C44.3263 54.1256 44.3183 54.2564 44.3021 54.42C44.2859 54.5836 44.2617 54.7472 44.2294 54.9108C44.2132 55.0744 44.197 55.2298 44.1809 55.3771C44.1647 55.5243 44.1566 55.647 44.1566 55.7452C44.1566 55.827 44.1566 55.8924 44.1566 55.9415C44.1728 55.9906 44.1809 56.056 44.1809 56.1378C44.1809 56.285 44.1647 56.4486 44.1324 56.6286C44.1001 56.7922 44.0839 56.9803 44.0839 57.193C44.0839 57.3893 44.1081 57.5938 44.1566 57.8065C43.9788 58.5426 43.6071 58.9107 43.0414 58.9107C42.2494 58.9107 41.8534 58.1582 41.8534 56.6531C41.8534 56.146 41.8776 55.647 41.9261 55.1562C41.9746 54.6491 42.0312 54.1828 42.0958 53.7575C42.1605 53.3321 42.2251 52.964 42.2898 52.6532C42.3706 52.326 42.4352 52.0724 42.4837 51.8925C42.7262 51.5326 43.0656 51.3526 43.502 51.3526C43.9223 51.3526 44.2779 51.5162 44.5688 51.8434ZM56.8269 56.5795V56.7758C56.8269 56.874 56.8269 57.0539 56.8269 57.3157C56.8431 57.5611 56.8188 57.8146 56.7542 58.0764C56.7057 58.3382 56.6006 58.5754 56.439 58.788C56.2774 58.9844 56.0349 59.0825 55.7116 59.0825C55.0813 59.0825 54.7095 58.8289 54.5964 58.3218C54.6125 58.2236 54.6206 58.1173 54.6206 58.0028C54.6206 57.8719 54.6206 57.7328 54.6206 57.5856C54.6206 57.5202 54.6206 57.283 54.6206 56.874C54.6206 56.4486 54.6045 55.9906 54.5721 55.4998C54.556 55.009 54.5075 54.5509 54.4267 54.1256C54.3458 53.6839 54.2246 53.4057 54.063 53.2912C53.6912 53.0295 53.3599 52.8986 53.069 52.8986C52.681 52.8986 52.3497 53.0213 52.0749 53.2667C51.8163 53.4957 51.5981 53.9538 51.4203 54.6409C51.4041 54.8699 51.388 55.1317 51.3718 55.4262C51.3556 55.7043 51.3314 56.0233 51.2991 56.3832C51.2991 56.6613 51.3072 56.9721 51.3233 57.3157C51.3395 57.6429 51.3637 58.0191 51.3961 58.4445C51.3961 58.7553 51.2748 59.0171 51.0324 59.2297C50.7899 59.4261 50.5152 59.5242 50.2081 59.5242C49.9656 59.5242 49.7716 59.4588 49.6262 59.3279C49.4807 59.197 49.3676 59.0253 49.2867 58.8126C49.2221 58.5999 49.1736 58.3709 49.1413 58.1255C49.1251 57.8801 49.117 57.6347 49.117 57.3893C49.117 57.2093 49.1251 57.0294 49.1413 56.8494C49.1574 56.6531 49.1817 56.4568 49.214 56.2605L49.408 53.9047L49.6019 52.7268C49.5696 52.5305 49.505 52.3178 49.408 52.0888C49.311 51.8598 49.2625 51.6798 49.2625 51.5489C49.2625 51.2708 49.3676 51.0173 49.5777 50.7882C49.804 50.5592 50.0787 50.4447 50.402 50.4447C50.6283 50.4447 50.798 50.4937 50.9112 50.5919C51.0243 50.6737 51.2102 50.8864 51.4688 51.2299C51.7921 51.0827 52.0507 50.9927 52.2446 50.96C52.4386 50.9109 52.6649 50.8864 52.9235 50.8864C53.764 50.8864 54.4994 51.0909 55.1298 51.4999C55.7763 51.8925 56.1804 52.5551 56.342 53.4875C56.3905 53.8311 56.4309 54.1174 56.4632 54.3464C56.5117 54.5755 56.5521 54.7963 56.5845 55.009C56.6168 55.2217 56.6491 55.4507 56.6814 55.6961C56.7138 55.9251 56.7623 56.2196 56.8269 56.5795ZM69.0375 51.1563C69.0859 51.3853 69.1102 51.6716 69.1102 52.0152C69.1102 52.2933 69.094 52.6205 69.0617 52.9968C69.0294 53.3567 68.9809 53.7575 68.9162 54.1992C68.9324 54.2483 68.9405 54.3055 68.9405 54.371C68.9405 54.4364 68.9405 54.51 68.9405 54.5918C68.9405 54.7718 68.9243 54.9844 68.892 55.2298C68.8758 55.4589 68.8516 55.7288 68.8192 56.0396C68.8354 56.1214 68.8435 56.2032 68.8435 56.285C68.8435 56.3668 68.8435 56.465 68.8435 56.5795C68.8435 56.9558 68.8192 57.422 68.7708 57.9782C68.7223 58.5345 68.6576 59.197 68.5768 59.9659C68.3505 61.8636 67.5828 63.246 66.2735 64.1131C65.8048 64.293 65.3361 64.4239 64.8673 64.5057C64.4148 64.6039 63.9541 64.6529 63.4854 64.6529C62.8712 64.6529 61.9094 64.383 60.6002 63.8431L59.388 62.8125C59.1455 62.6162 58.9758 62.4608 58.8788 62.3462C58.798 62.2317 58.7576 62.0927 58.7576 61.9291C58.7576 61.5855 58.8546 61.2829 59.0485 61.0211C59.2425 60.7757 59.5011 60.653 59.8244 60.653C60.0345 60.653 60.2689 60.7185 60.5275 60.8493L61.7397 61.88C62.3216 62.2726 62.9762 62.4771 63.7036 62.4935C63.7844 62.5098 63.8894 62.4935 64.0188 62.4444C64.1481 62.4117 64.3016 62.3708 64.4794 62.3217L65.2795 62.1008C65.8614 61.7246 66.2412 61.0293 66.419 60.015C66.4352 59.8678 66.4513 59.6878 66.4675 59.4751C66.4998 59.0825 66.5483 58.5263 66.613 57.8065C66.5483 57.8392 66.4028 57.9046 66.1766 58.0028C65.9503 58.0846 65.6674 58.1827 65.328 58.2973C65.0047 58.3954 64.6249 58.4854 64.1885 58.5672C63.7682 58.649 63.3237 58.6899 62.855 58.6899C62.7742 58.6899 62.6853 58.6735 62.5883 58.6408C62.5075 58.5917 62.3943 58.5181 62.2489 58.42C62.1034 58.3218 61.9256 58.1909 61.7155 58.0273C61.5215 57.8637 61.2791 57.651 60.9881 57.3893L60.4063 56.285C60.2608 56.0069 60.1557 55.7288 60.0911 55.4507C60.0426 55.1562 60.0183 54.8699 60.0183 54.5918C60.0183 54.1337 60.1881 53.6757 60.5275 53.2176C60.8831 52.7432 61.3195 52.3178 61.8367 51.9416C62.3701 51.5653 62.9439 51.2626 63.5581 51.0336C64.1723 50.7882 64.738 50.6655 65.2552 50.6655C65.4977 50.6655 65.7321 50.6819 65.9583 50.7146C66.2008 50.7473 66.5645 50.8373 67.0494 50.9845L67.1706 50.6901C67.3807 50.5428 67.6393 50.4692 67.9464 50.4692C68.5606 50.4692 68.9243 50.6982 69.0375 51.1563ZM66.7342 53.2176C66.5725 53.1031 66.3867 53.0213 66.1766 52.9722C65.9826 52.9231 65.7886 52.8741 65.5947 52.825C65.3845 52.8577 65.1421 52.9068 64.8673 52.9722C64.5925 53.0213 64.2854 53.0867 63.946 53.1685C62.8792 53.7902 62.3459 54.3546 62.3459 54.8617C62.3459 55.1399 62.4428 55.418 62.6368 55.6961C62.8308 55.9578 63.1055 56.2278 63.4611 56.5059C63.7036 56.4895 63.9622 56.465 64.237 56.4323C64.5117 56.3832 64.7865 56.3096 65.0613 56.2114C65.3361 56.1133 65.6028 55.9742 65.8614 55.7942C66.12 55.5979 66.3705 55.3362 66.613 55.009C66.6453 54.7309 66.6695 54.4691 66.6857 54.2237C66.718 53.9783 66.7342 53.7411 66.7342 53.5121V53.2176ZM88.7928 50.052C88.9706 50.1993 89.0595 50.4692 89.0595 50.8618C89.0595 51.5817 88.7928 51.9416 88.2594 51.9416H88.1624C87.92 51.9579 87.6371 51.9825 87.3139 52.0152C86.9906 52.0315 86.6269 52.0643 86.2228 52.1133C86.1905 52.3751 86.1582 52.7268 86.1259 53.1685C86.0935 53.5939 86.0774 54.1092 86.0774 54.7145C86.0774 54.7636 86.0774 54.8127 86.0774 54.8617C86.0935 54.9108 86.1016 54.9681 86.1016 55.0335V56.1623C86.1016 56.4241 86.142 56.6368 86.2228 56.8004C86.3198 56.9476 86.433 57.0539 86.5623 57.1194L87.2411 57.3402C87.7745 57.5202 88.0412 57.8474 88.0412 58.3218C88.0412 58.5999 87.9281 58.8453 87.7018 59.058C87.4917 59.2706 87.2169 59.377 86.8775 59.377C86.7805 59.377 86.6108 59.3524 86.3683 59.3034C86.142 59.2379 85.8996 59.1561 85.641 59.058C85.3985 58.9598 85.1641 58.8371 84.9379 58.6899C84.7277 58.5426 84.5823 58.379 84.5015 58.1991C84.3237 57.8228 84.1782 57.4302 84.065 57.0212C83.9519 56.5959 83.8953 56.1542 83.8953 55.6961C83.8953 55.1889 83.9034 54.829 83.9196 54.6164C83.9357 54.4037 83.9519 54.2155 83.9681 54.0519C83.9842 53.8884 84.0004 53.692 84.0166 53.463C84.0327 53.234 84.0408 52.8577 84.0408 52.3342C83.7337 52.3669 83.2811 52.4651 82.6831 52.6287C82.3275 52.6287 82.0204 52.5387 81.7618 52.3587C81.5193 52.1624 81.3981 51.9088 81.3981 51.598C81.3981 51.369 81.4628 51.1563 81.5921 50.96C81.7375 50.7637 82.0285 50.5919 82.4649 50.4447C82.6103 50.3956 82.7397 50.3629 82.8528 50.3465C82.9821 50.3302 83.1033 50.3138 83.2165 50.2974C83.3458 50.2811 83.4832 50.2729 83.6286 50.2729C83.7741 50.2565 83.9519 50.232 84.162 50.1993C84.1782 49.7903 84.2024 49.3322 84.2348 48.8251C84.2832 48.3016 84.356 47.819 84.453 47.3773C84.5661 46.9355 84.7197 46.5675 84.9136 46.273C85.1237 45.9622 85.3985 45.8067 85.7379 45.8067C86.3198 45.8067 86.6754 46.0767 86.8047 46.6165C86.8047 46.6329 86.7805 46.7474 86.732 46.9601C86.6997 47.1564 86.6592 47.3773 86.6108 47.6226C86.5623 47.868 86.5138 48.1053 86.4653 48.3343C86.433 48.5633 86.4168 48.7106 86.4168 48.776L86.3441 49.9784C86.4572 49.9621 86.5623 49.9539 86.6592 49.9539C86.7562 49.9375 86.8613 49.9293 86.9744 49.9293H87.1926C87.3058 49.9293 87.4108 49.9293 87.5078 49.9293C87.6048 49.913 87.6937 49.9048 87.7745 49.9048C88.2594 49.9048 88.5988 49.9539 88.7928 50.052ZM97.4163 58.6899C97.2062 58.8371 96.8668 58.9844 96.398 59.1316C95.9293 59.2625 95.4444 59.377 94.9433 59.4751L93.9493 59.2788C93.8038 59.2297 93.5614 59.1152 93.2219 58.9353C92.8987 58.7553 92.5673 58.4854 92.2279 58.1255C91.8885 57.7492 91.5894 57.2748 91.3308 56.7022C91.0722 56.1133 90.9429 55.4016 90.9429 54.5673C90.9429 54.2728 91.0076 53.9293 91.1369 53.5366C91.2823 53.1276 91.4925 52.7514 91.7672 52.4078C92.042 52.0479 92.3814 51.7453 92.7855 51.4999C93.2058 51.2545 93.6907 51.1318 94.2402 51.1318C95.3393 51.1318 96.3334 51.4917 97.2223 52.2115C97.9982 53.2912 98.3861 54.4855 98.3861 55.7942C98.3861 56.7595 98.0628 57.7247 97.4163 58.6899ZM96.2283 55.2053C96.1475 54.5673 95.9454 54.0683 95.6221 53.7084C95.3151 53.3321 94.9191 53.144 94.4342 53.144C94.1109 53.144 93.8038 53.3076 93.5129 53.6348C93.2381 53.9456 93.1007 54.4037 93.1007 55.009C93.1007 55.2544 93.133 55.5161 93.1977 55.7942C93.2623 56.056 93.3674 56.3014 93.5129 56.5304C93.6583 56.7431 93.8442 56.9231 94.0705 57.0703C94.2968 57.2012 94.5716 57.2666 94.8948 57.2666C95.4121 57.2666 95.7677 57.1112 95.9615 56.8004C96.1556 56.4732 96.2525 56.0724 96.2525 55.5979C96.2525 55.5325 96.2445 55.4752 96.2283 55.4262C96.2283 55.3607 96.2283 55.2871 96.2283 55.2053ZM37.2537 88.9223C37.1729 89.1514 37.0113 89.3804 36.7688 89.6094C36.5264 89.8385 36.292 89.953 36.0657 89.953C35.597 89.953 35.2899 89.6176 35.1444 88.9469C34.9989 88.2761 34.9262 87.3273 34.9262 86.1003V85.8795C34.9262 85.2578 34.8777 84.8079 34.7807 84.5298C34.6999 84.2353 34.6433 84.0472 34.611 83.9654C34.4332 83.5728 34.1584 83.3764 33.7867 83.3764C33.5604 83.3764 33.326 83.4255 33.0836 83.5237C32.8411 83.6055 32.6229 83.7118 32.429 83.8427C32.235 83.9572 32.0653 84.0717 31.9198 84.1862C31.7905 84.3008 31.7097 84.3826 31.6774 84.4316C31.645 84.5461 31.6127 84.7425 31.5804 85.0206C31.5642 85.2987 31.5481 85.6177 31.5319 85.9776C31.5157 86.3375 31.4996 86.7056 31.4834 87.0819C31.4673 87.4582 31.4511 87.8017 31.4349 88.1125C31.4349 88.4234 31.4349 88.6688 31.4349 88.8487C31.4349 89.0287 31.443 89.1023 31.4592 89.0696C31.4107 89.5113 31.0632 89.7321 30.4166 89.7321C29.9317 89.7321 29.6166 89.5767 29.4711 89.2659C29.3418 88.9551 29.2771 88.4234 29.2771 87.6708C29.2771 87.4745 29.2771 87.36 29.2771 87.3273C29.2933 87.2946 29.3095 87.2209 29.3256 87.1064C29.3418 86.9755 29.366 86.7465 29.3984 86.4193C29.4307 86.0921 29.4711 85.5359 29.5196 84.7506C29.5357 84.4235 29.5519 84.129 29.5681 83.8672C29.5842 83.5891 29.5842 83.3519 29.5681 83.1556C29.5681 82.9756 29.5681 82.8284 29.5681 82.7139C29.5681 82.583 29.56 82.4767 29.5438 82.3949C29.56 82.3458 29.5761 82.1904 29.5923 81.9286C29.6246 81.6669 29.6489 81.3806 29.665 81.0697C29.6974 80.7589 29.7297 80.4644 29.762 80.1863C29.7944 79.9082 29.8267 79.7201 29.859 79.6219C29.859 79.2784 29.8671 78.8857 29.8833 78.444C29.8994 77.986 29.956 77.5606 30.053 77.168C30.1499 76.7754 30.2954 76.4482 30.4894 76.1864C30.6995 75.9083 30.9904 75.7692 31.3622 75.7692C31.9926 75.7692 32.3077 76.1782 32.3077 76.9962C32.3077 77.4543 32.2188 78.1087 32.041 78.9594C32.0087 79.4011 31.9683 79.7446 31.9198 79.99C31.8875 80.2354 31.8552 80.4481 31.8228 80.628C31.7905 80.808 31.7663 80.9798 31.7501 81.1434C31.7339 81.307 31.7259 81.536 31.7259 81.8305C32.1299 81.4869 32.5179 81.2906 32.8896 81.2415C33.2614 81.1761 33.6089 81.1434 33.9322 81.1434C34.7403 81.1434 35.3868 81.3806 35.8717 81.855C36.3566 82.3294 36.7203 83.1147 36.9628 84.2108C36.9789 84.6034 36.987 84.9142 36.987 85.1433C37.0032 85.356 37.0193 85.6013 37.0355 85.8795C37.0678 86.1412 37.1002 86.5011 37.1325 86.9592C37.1648 87.4172 37.2052 88.0716 37.2537 88.9223ZM44.7527 78.4195C44.7851 78.5504 44.8012 78.6731 44.8012 78.7876C44.8012 79.3111 44.6477 79.7528 44.3406 80.1127C43.8557 80.309 43.3708 80.4072 42.8859 80.4072C42.5788 80.2109 42.3202 79.99 42.1101 79.7446C41.9161 79.4829 41.8191 79.2293 41.8191 78.9839C41.8191 78.7712 42.0616 78.2477 42.5465 77.4134C42.7566 77.4461 42.9748 77.4706 43.2011 77.487C43.4435 77.5034 43.6617 77.5443 43.8557 77.6097C44.0658 77.6751 44.2436 77.7733 44.3891 77.9042C44.5507 78.0187 44.6719 78.1905 44.7527 78.4195ZM43.9769 82.5176V82.8366C43.9769 82.9184 43.9769 83.0084 43.9769 83.1065C43.9769 83.2047 43.9607 83.2946 43.9284 83.3764L43.7345 84.4807V84.7016C43.7345 84.7997 43.7264 84.9306 43.7102 85.0942C43.6941 85.2578 43.6698 85.4214 43.6375 85.585C43.6213 85.7486 43.6052 85.904 43.589 86.0512C43.5728 86.1985 43.5647 86.3212 43.5647 86.4193C43.5647 86.5011 43.5647 86.5666 43.5647 86.6156C43.5809 86.6647 43.589 86.7302 43.589 86.8119C43.589 86.9592 43.5728 87.1228 43.5405 87.3027C43.5082 87.4663 43.492 87.6545 43.492 87.8671C43.492 88.0635 43.5163 88.268 43.5647 88.4806C43.387 89.2168 43.0152 89.5849 42.4495 89.5849C41.6575 89.5849 41.2615 88.8324 41.2615 87.3273C41.2615 86.8201 41.2857 86.3212 41.3342 85.8304C41.3827 85.3232 41.4393 84.857 41.5039 84.4316C41.5686 84.0063 41.6332 83.6382 41.6979 83.3274C41.7787 83.0002 41.8434 82.7466 41.8919 82.5666C42.1343 82.2067 42.4737 82.0268 42.9101 82.0268C43.3304 82.0268 43.686 82.1904 43.9769 82.5176ZM54.9015 81.6341C55.1601 81.7977 55.2894 82.1086 55.2894 82.5666C55.2894 82.9102 55.2005 83.2047 55.0227 83.4501C54.8449 83.6955 54.6024 83.8181 54.2953 83.8181C54.1014 83.8181 53.8993 83.7691 53.6892 83.6709C53.4953 83.5564 53.2851 83.4991 53.0588 83.4991C52.8649 83.4991 52.6709 83.54 52.477 83.6218C52.2992 83.6873 52.0891 83.8427 51.8466 84.0881L51.1193 84.8243C51.1193 84.9388 51.1193 85.0533 51.1193 85.1678C51.1354 85.2823 51.1435 85.405 51.1435 85.5359C51.1435 85.7322 51.1354 85.9367 51.1193 86.1494C51.1193 86.3621 51.1112 86.5911 51.095 86.8365L51.3132 89.0696C51.2647 89.8221 50.8849 90.1984 50.1737 90.1984C49.802 90.1984 49.5272 90.0839 49.3494 89.8548C49.1716 89.6094 49.0504 89.2741 48.9857 88.8487C48.9211 88.4234 48.8887 87.9244 48.8887 87.3518C48.9049 86.7792 48.9049 86.1494 48.8887 85.4623C48.8564 84.4316 48.8322 83.9163 48.816 83.9163V83.9408C48.7513 83.6955 48.7029 83.4828 48.6705 83.3028C48.6382 83.1065 48.622 82.9347 48.622 82.7875C48.622 82.493 48.7271 82.2558 48.9372 82.0759C49.1473 81.8795 49.4544 81.7814 49.8585 81.7814C50.1171 81.7814 50.4242 81.9859 50.7798 82.3949C51.1516 82.1004 51.4344 81.8795 51.6284 81.7323C51.8385 81.5851 52.0082 81.4787 52.1375 81.4133C52.283 81.3479 52.4204 81.3151 52.5497 81.3151C52.679 81.2988 52.8487 81.2906 53.0588 81.2906C53.2366 81.2742 53.3983 81.2824 53.5437 81.3151C53.7054 81.3479 53.8751 81.3806 54.0529 81.4133L54.9015 81.6341ZM66.0017 88.9959C65.4845 89.5195 64.9026 89.9612 64.2561 90.3211C63.6095 90.6973 62.9549 90.8855 62.2922 90.8855C61.6942 90.8855 60.9264 90.7873 59.9889 90.591C59.6657 90.3783 59.3424 90.1248 59.0192 89.8303C58.6959 89.5195 58.4049 89.1841 58.1463 88.8242C57.8877 88.4479 57.6776 88.0471 57.516 87.6217C57.3543 87.18 57.2735 86.7302 57.2735 86.2721C57.2735 86.1412 57.2816 85.9694 57.2978 85.7568C57.3139 85.5277 57.3301 85.3069 57.3463 85.0942C57.3786 84.8652 57.4028 84.6689 57.419 84.5053C57.4352 84.3417 57.4432 84.2599 57.4432 84.2599C57.7665 83.7364 58.1059 83.221 58.4615 82.7139C58.8333 82.1904 59.3505 81.7323 60.0132 81.3397C61.0638 81.1106 61.8235 80.9961 62.2922 80.9961C62.5347 80.9961 62.7448 81.0125 62.9226 81.0452C63.1004 81.0616 63.2701 81.1106 63.4317 81.1924C63.6095 81.2579 63.7792 81.3642 63.9409 81.5115C64.1187 81.6587 64.3207 81.8468 64.547 82.0759C64.8056 82.354 65.0076 82.5421 65.1531 82.6403C65.3147 82.7384 65.3956 82.8284 65.3956 82.9102C65.3956 84.4153 64.9349 85.4377 64.0136 85.9776C63.6095 86.1248 63.0842 86.2884 62.4377 86.4684C61.7912 86.632 60.9103 86.7874 59.795 86.9346C60.0213 87.5563 60.3203 88.0226 60.6921 88.3334C61.0638 88.6442 61.4841 88.7996 61.9528 88.7996C62.6478 88.7996 63.5206 88.3825 64.5712 87.5481C64.7329 87.4009 64.9349 87.3273 65.1774 87.3273C65.436 87.3273 65.6623 87.4254 65.8562 87.6217C66.0663 87.8181 66.1714 88.0635 66.1714 88.3579C66.1714 88.5706 66.1148 88.7833 66.0017 88.9959ZM63.262 83.7445C62.9549 83.2374 62.5912 82.9838 62.171 82.9838C61.9932 82.9838 61.7992 83.0084 61.5891 83.0574C61.379 83.1065 61.1608 83.1801 60.9345 83.2783C60.7244 83.3601 60.5223 83.4664 60.3284 83.5973C60.1506 83.7282 60.0051 83.8836 59.892 84.0635L59.6495 84.7997C60.1991 84.7506 60.684 84.7097 61.1042 84.677C61.5245 84.6443 61.8881 84.5952 62.1952 84.5298C62.5023 84.4644 62.7448 84.3744 62.9226 84.2599C63.1004 84.1453 63.2135 83.9736 63.262 83.7445ZM78.2826 78.9594C78.1695 79.4011 78.0563 79.8019 77.9432 80.1618C77.8462 80.5053 77.7169 80.8244 77.5553 81.1188C77.3937 81.3969 77.1916 81.6669 76.9492 81.9286C76.7229 82.174 76.4319 82.4194 76.0763 82.6648C75.5915 82.992 75.2278 83.2701 74.9853 83.4991C74.759 83.7282 74.5974 83.9327 74.5004 84.1126C74.4196 84.2926 74.3792 84.4644 74.3792 84.6279C74.3954 84.7752 74.3954 84.9306 74.3792 85.0942C74.2337 85.6341 73.8539 85.904 73.2397 85.904C72.8195 85.904 72.5447 85.7649 72.4154 85.4868C72.3022 85.1924 72.2457 84.8897 72.2457 84.5789C72.2457 84.3498 72.278 84.0963 72.3426 83.8181C72.4073 83.54 72.5123 83.2701 72.6578 83.0084C72.8033 82.7302 72.9972 82.4603 73.2397 82.1986C73.4821 81.9368 73.7812 81.7078 74.1368 81.5115C74.7025 81.1843 75.1146 80.8571 75.3732 80.5299C75.4379 80.4644 75.6804 79.9328 76.1006 78.9348C76.0683 78.5913 75.9794 78.3132 75.8339 78.1005C75.6884 77.8715 75.5187 77.6997 75.3248 77.5852C75.1308 77.4543 74.9288 77.3643 74.7186 77.3152C74.5247 77.2661 74.3711 77.2416 74.258 77.2416C74.0317 77.2416 73.8216 77.2661 73.6276 77.3152C73.4337 77.3479 73.2397 77.4379 73.0457 77.5852C72.8679 77.716 72.6821 77.9205 72.4881 78.1986C72.3103 78.4604 72.1163 78.8121 71.9062 79.2538C71.7284 79.4992 71.4698 79.6219 71.1304 79.6219C70.8233 79.6219 70.5485 79.5156 70.3061 79.3029C70.0636 79.0902 69.9424 78.7958 69.9424 78.4195C70.2172 77.6342 70.5485 77.0208 70.9364 76.5791C71.3405 76.1373 71.7446 75.802 72.1487 75.5729C72.5689 75.3439 72.973 75.2048 73.3609 75.1558C73.7488 75.0903 74.064 75.0576 74.3065 75.0576C75.0338 75.0576 75.6238 75.1639 76.0763 75.3766C76.5289 75.5893 76.9007 75.8756 77.1916 76.2355C77.4826 76.579 77.7008 76.988 77.8462 77.4625C78.0079 77.9369 78.1533 78.4359 78.2826 78.9594ZM74.6217 89.4867C74.6217 89.634 74.5732 89.7812 74.4762 89.9284C74.3954 90.0757 74.2822 90.1984 74.1368 90.2965C74.0075 90.411 73.8539 90.501 73.6761 90.5665C73.5145 90.6483 73.3609 90.6892 73.2154 90.6892C72.8275 90.6892 72.5124 90.6319 72.2699 90.5174C72.0275 90.4192 71.8416 90.2884 71.7123 90.1248C71.5991 89.9612 71.5183 89.7894 71.4698 89.6094C71.4375 89.4131 71.4213 89.2332 71.4213 89.0696C71.4213 88.6606 71.5587 88.2761 71.8335 87.9162C72.1083 87.5399 72.4639 87.3518 72.9003 87.3518C73.0457 87.3518 73.2155 87.3682 73.4094 87.4009C73.6195 87.4336 73.8135 87.5236 73.9913 87.6708C74.1691 87.8181 74.3146 88.0389 74.4277 88.3334C74.557 88.6115 74.6217 88.9959 74.6217 89.4867Z" fill="white"/>
<path d="M35.3161 34.2106C34.8917 34.8321 35.0455 35.6844 35.6597 36.1139C36.2738 36.5434 37.1158 36.3878 37.5402 35.7662L35.3161 34.2106ZM16.6485 3.78059C15.9218 3.95367 15.4714 4.69024 15.6423 5.42575L18.429 17.4118C18.6001 18.1472 19.3278 18.6032 20.0545 18.4302C20.7812 18.257 21.2317 17.5205 21.0606 16.7849L18.5836 6.13074L29.1099 3.62358C29.8367 3.45049 30.2871 2.71392 30.1161 1.97841C29.9451 1.24288 29.2173 0.786943 28.4907 0.960026L16.6485 3.78059ZM37.5402 35.7662C39.8416 32.3956 40.9505 29.3019 40.8668 26.3451C40.7825 23.3719 39.4989 20.7583 37.4535 18.3461C35.4231 15.9516 32.5812 13.6823 29.2355 11.3671C25.8852 9.04868 21.9372 6.62278 17.6696 3.94905L16.2467 6.27567C20.5513 8.97262 24.4248 11.3528 27.7097 13.626C30.9993 15.9023 33.606 18.0101 35.402 20.1282C37.183 22.2286 38.1032 24.2631 38.1644 26.4236C38.2261 28.6006 37.4221 31.1262 35.3161 34.2106L37.5402 35.7662Z" fill="white"/>
</g>
<defs>
<clipPath id="clip0_1_2">
<rect width="99" height="78" fill="white"/>
</clipPath>
</defs>
</svg>
