<svg width="16" height="22" viewBox="0 0 16 22" fill="none" xmlns="http://www.w3.org/2000/svg">
    <rect x="0.749244" y="0.749244" width="13.9859" height="19.9798" rx="1.24874" fill="#CCF5C6" />
    <rect x="0.749244" y="0.749244" width="13.9859" height="19.9798" rx="1.24874" stroke="#CCF5C6"
        stroke-width="1.49849" />
    <path d="M2.99707 10.4894H12.987" stroke="#1E1E1E" stroke-width="0.998992" stroke-linecap="round" />
    <path d="M2.99707 11.988H7.49253" stroke="#1E1E1E" stroke-width="0.998992" stroke-linecap="round" />
    <path d="M2.99707 13.4866H12.987" stroke="#1E1E1E" stroke-width="0.998992" stroke-linecap="round" />
    <path d="M2.99707 14.985H7.49253" stroke="#1E1E1E" stroke-width="0.998992" stroke-linecap="round" />
    <path d="M2.99707 16.4835H12.987" stroke="#1E1E1E" stroke-width="0.998992" stroke-linecap="round" />
    <path d="M2.99707 17.9819H12.987" stroke="#1E1E1E" stroke-width="0.998992" stroke-linecap="round" />
    <g clip-path="url(#clip0_6_432)">
        <path fill-rule="evenodd" clip-rule="evenodd"
            d="M7.74197 2.74717C7.30515 2.74709 6.87595 2.86158 6.4972 3.07922C6.11846 3.29686 5.80342 3.61003 5.58353 3.98747C5.36364 4.36491 5.2466 4.79343 5.24407 5.23024C5.24155 5.66705 5.35365 6.09689 5.56916 6.47685C5.71483 6.28753 5.90209 6.13425 6.11645 6.02885C6.33081 5.92346 6.56654 5.86877 6.80542 5.86902H8.67853C8.9174 5.86877 9.15313 5.92346 9.36749 6.02885C9.58185 6.13425 9.76911 6.28753 9.91478 6.47685C10.1303 6.09689 10.2424 5.66705 10.2399 5.23024C10.2373 4.79343 10.1203 4.36491 9.90041 3.98747C9.68052 3.61003 9.36549 3.29686 8.98674 3.07922C8.608 2.86158 8.17879 2.74709 7.74197 2.74717ZM10.2217 7.14149C10.6391 6.59734 10.8648 5.93045 10.8638 5.24465C10.8638 3.52045 9.46617 2.1228 7.74197 2.1228C6.01777 2.1228 4.62012 3.52045 4.62012 5.24465C4.61909 5.93045 4.84486 6.59735 5.26229 7.14149L5.26072 7.14711L5.37155 7.27604C5.66434 7.61835 6.02788 7.89311 6.43711 8.08136C6.84634 8.26962 7.29152 8.3669 7.74197 8.3665C8.37487 8.36767 8.99302 8.17542 9.51362 7.8155C9.73556 7.66215 9.93681 7.48084 10.1124 7.27604L10.2232 7.14711L10.2217 7.14149ZM7.74197 3.37154C7.49358 3.37154 7.25536 3.47022 7.07973 3.64585C6.90409 3.82149 6.80542 4.05971 6.80542 4.3081C6.80542 4.55649 6.90409 4.7947 7.07973 4.97034C7.25536 5.14598 7.49358 5.24465 7.74197 5.24465C7.99036 5.24465 8.22858 5.14598 8.40422 4.97034C8.57985 4.7947 8.67853 4.55649 8.67853 4.3081C8.67853 4.05971 8.57985 3.82149 8.40422 3.64585C8.22858 3.47022 7.99036 3.37154 7.74197 3.37154Z"
            fill="#1E1E1E" />
    </g>
    <defs>
        <clipPath id="clip0_6_432">
            <rect width="7.49244" height="7.49244" fill="white" transform="translate(3.99585 1.49854)" />
        </clipPath>
    </defs>
</svg>