<svg width="24" height="30" viewBox="0 0 24 30" fill="none" xmlns="http://www.w3.org/2000/svg">
<path fill-rule="evenodd" clip-rule="evenodd" d="M12.0002 0.875V10.2594C12.0002 10.8337 12.2284 11.3846 12.6345 11.7907C13.0406 12.1968 13.5915 12.425 14.1658 12.425H23.5502V26.8625C23.5502 27.6283 23.246 28.3628 22.7045 28.9043C22.163 29.4458 21.4285 29.75 20.6627 29.75H3.3377C2.57188 29.75 1.83744 29.4458 1.29592 28.9043C0.754413 28.3628 0.450195 27.6283 0.450195 26.8625V3.7625C0.450195 2.99669 0.754413 2.26224 1.29592 1.72073C1.83744 1.17922 2.57188 0.875 3.3377 0.875H12.0002ZM16.3314 19.6437H7.66895C7.28604 19.6437 6.91882 19.7959 6.64806 20.0666C6.3773 20.3374 6.22519 20.7046 6.22519 21.0875C6.22519 21.4704 6.3773 21.8376 6.64806 22.1084C6.91882 22.3791 7.28604 22.5312 7.66895 22.5312H16.3314C16.7144 22.5312 17.0816 22.3791 17.3523 22.1084C17.6231 21.8376 17.7752 21.4704 17.7752 21.0875C17.7752 20.7046 17.6231 20.3374 17.3523 20.0666C17.0816 19.7959 16.7144 19.6437 16.3314 19.6437ZM9.11269 13.8687H7.66895C7.28604 13.8687 6.91882 14.0209 6.64806 14.2916C6.3773 14.5624 6.22519 14.9296 6.22519 15.3125C6.22519 15.6954 6.3773 16.0626 6.64806 16.3334C6.91882 16.6041 7.28604 16.7562 7.66895 16.7562H9.11269C9.4956 16.7562 9.86282 16.6041 10.1336 16.3334C10.4043 16.0626 10.5564 15.6954 10.5564 15.3125C10.5564 14.9296 10.4043 14.5624 10.1336 14.2916C9.86282 14.0209 9.4956 13.8687 9.11269 13.8687ZM14.8877 0.937081C15.4347 1.05309 15.9363 1.32544 16.3314 1.72104L22.7042 8.09375C23.0998 8.48894 23.3721 8.99049 23.4881 9.5375H14.8877V0.937081Z" fill="#061B2E"/>
</svg>
