<svg width="48" height="48" viewBox="0 0 48 48" fill="none" xmlns="http://www.w3.org/2000/svg">
<circle cx="24" cy="24" r="24" fill="#40A3FF" fill-opacity="0.15"/>
<path d="M27.8428 21.3702C28.1098 21.1033 28.4662 20.9449 28.8432 20.9255C29.2202 20.9062 29.591 21.0273 29.8838 21.2655L29.9998 21.3702L32.1577 23.5272C33.2919 24.6546 33.9381 26.1821 33.9573 27.7811C33.9766 29.3801 33.3673 30.9228 32.2607 32.0771C31.1541 33.2315 29.6385 33.9053 28.0401 33.9535C26.4417 34.0017 24.8882 33.4205 23.714 32.335L23.5279 32.157L21.371 29.999C21.0955 29.7223 20.9367 29.3505 20.9271 28.9602C20.9176 28.5699 21.058 28.1908 21.3196 27.9009C21.5812 27.6111 21.9439 27.4325 22.3332 27.4021C22.7224 27.3717 23.1085 27.4917 23.412 27.7374L23.5279 27.8421L25.6859 29.999C26.2464 30.5554 27.0009 30.8728 27.7906 30.8843C28.5803 30.8958 29.3437 30.6006 29.9202 30.0609C30.4968 29.5211 30.8415 28.7787 30.882 27.99C30.9224 27.2012 30.6554 26.4275 30.1371 25.8316L29.9998 25.6851L27.8428 23.5272C27.5569 23.2411 27.3962 22.8532 27.3962 22.4487C27.3962 22.0442 27.5569 21.6563 27.8428 21.3702ZM20.652 20.6512C20.9189 20.3843 21.2754 20.2259 21.6524 20.2065C22.0293 20.1872 22.4001 20.3083 22.693 20.5465L22.8089 20.6512L27.1238 24.9662C27.4012 25.2426 27.5617 25.615 27.572 26.0065C27.5824 26.3979 27.4418 26.7784 27.1794 27.069C26.917 27.3596 26.5528 27.5382 26.1623 27.5678C25.7719 27.5974 25.385 27.4757 25.0818 27.2279L24.9659 27.1231L20.652 22.8082C20.366 22.5221 20.2054 22.1342 20.2054 21.7297C20.2054 21.3252 20.366 20.9373 20.652 20.6512ZM15.6181 15.6174C16.7309 14.5048 18.2304 13.8651 19.8037 13.8319C21.3769 13.7988 22.9021 14.3747 24.0608 15.4394L24.2479 15.6174L26.4038 17.7753C26.6793 18.052 26.8381 18.4238 26.8477 18.8141C26.8572 19.2045 26.7168 19.5836 26.4552 19.8734C26.1936 20.1633 25.8309 20.3418 25.4416 20.3723C25.0524 20.4027 24.6663 20.2827 24.3628 20.037L24.2469 19.9323L22.091 17.7753C21.5311 17.2156 20.7757 16.8954 19.9841 16.8824C19.1926 16.8694 18.427 17.1645 17.8491 17.7055C17.2711 18.2465 16.9261 18.9909 16.8868 19.7816C16.8476 20.5723 17.1172 21.3472 17.6388 21.9428L17.776 22.0892L19.932 24.2472C20.2074 24.5239 20.3663 24.8957 20.3758 25.286C20.3854 25.6763 20.2449 26.0555 19.9833 26.3453C19.7218 26.6352 19.359 26.8137 18.9697 26.8441C18.5805 26.8745 18.1944 26.7546 17.891 26.5089L17.776 26.4041L15.6181 24.2472C15.0514 23.6806 14.6018 23.0079 14.2951 22.2675C13.9884 21.5272 13.8306 20.7336 13.8306 19.9323C13.8306 19.1309 13.9884 18.3374 14.2951 17.597C14.6018 16.8567 15.0514 16.184 15.6181 15.6174Z" fill="#40A3FF"/>
</svg>
