<svg width="26" height="26" viewBox="0 0 26 26" fill="none" xmlns="http://www.w3.org/2000/svg">
<path d="M12.9453 0.861328C19.8203 0.861328 25.4453 6.48633 25.4453 13.3613C25.4453 20.2363 19.8203 25.8613 12.9453 25.8613C6.07031 25.8613 0.445312 20.2363 0.445312 13.3613C0.445312 6.48633 6.07031 0.861328 12.9453 0.861328ZM12.9453 3.36133C10.5703 3.36133 8.44531 4.11133 6.82031 5.48633L20.8203 19.4863C22.0703 17.7363 22.9453 15.6113 22.9453 13.3613C22.9453 7.86133 18.4453 3.36133 12.9453 3.36133ZM19.0703 21.2363L5.07031 7.23633C3.69531 8.86133 2.94531 10.9863 2.94531 13.3613C2.94531 18.8613 7.44531 23.3613 12.9453 23.3613C15.3203 23.3613 17.4453 22.6113 19.0703 21.2363Z" fill="#CCF5C6"/>
</svg>
