<svg width="18" height="22" viewBox="0 0 18 22" fill="none" xmlns="http://www.w3.org/2000/svg">
<path fill-rule="evenodd" clip-rule="evenodd" d="M9 0V7.15C9 7.58761 9.17779 8.00729 9.49426 8.31673C9.81072 8.62616 10.2399 8.8 10.6875 8.8H18V19.8C18 20.3835 17.7629 20.9431 17.341 21.3556C16.919 21.7682 16.3467 22 15.75 22H2.25C1.65326 22 1.08097 21.7682 0.65901 21.3556C0.237053 20.9431 0 20.3835 0 19.8V2.2C0 1.61652 0.237053 1.05694 0.65901 0.644365C1.08097 0.231785 1.65326 0 2.25 0H9ZM12.375 14.3H5.625C5.32663 14.3 5.04048 14.4159 4.8295 14.6222C4.61853 14.8285 4.5 15.1083 4.5 15.4C4.5 15.6917 4.61853 15.9715 4.8295 16.1778C5.04048 16.3841 5.32663 16.5 5.625 16.5H12.375C12.6734 16.5 12.9595 16.3841 13.1705 16.1778C13.3815 15.9715 13.5 15.6917 13.5 15.4C13.5 15.1083 13.3815 14.8285 13.1705 14.6222C12.9595 14.4159 12.6734 14.3 12.375 14.3ZM6.75 9.9H5.625C5.32663 9.9 5.04048 10.0159 4.8295 10.2222C4.61853 10.4285 4.5 10.7083 4.5 11C4.5 11.2917 4.61853 11.5715 4.8295 11.7778C5.04048 11.9841 5.32663 12.1 5.625 12.1H6.75C7.04837 12.1 7.33452 11.9841 7.5455 11.7778C7.75647 11.5715 7.875 11.2917 7.875 11C7.875 10.7083 7.75647 10.4285 7.5455 10.2222C7.33452 10.0159 7.04837 9.9 6.75 9.9ZM11.25 0.0473C11.6762 0.135691 12.0671 0.343191 12.375 0.6446L17.3407 5.5C17.649 5.8011 17.8612 6.18323 17.9516 6.6H11.25V0.0473Z" fill="#22D1DC"/>
</svg>
