<svg width="20" height="20" viewBox="0 0 20 20" fill="none" xmlns="http://www.w3.org/2000/svg">
    <path
        d="M1.66528 15.8369C1.66528 17.2524 2.74767 18.3348 4.16311 18.3348H15.8196C17.235 18.3348 18.3174 17.2524 18.3174 15.8369V9.17608H1.66528V15.8369ZM15.8196 3.34783H14.1544V2.51522C14.1544 2.01566 13.8213 1.68262 13.3218 1.68262C12.8222 1.68262 12.4892 2.01566 12.4892 2.51522V3.34783H7.49353V2.51522C7.49353 2.01566 7.16049 1.68262 6.66093 1.68262C6.16136 1.68262 5.82832 2.01566 5.82832 2.51522V3.34783H4.16311C2.74767 3.34783 1.66528 4.43022 1.66528 5.84565V7.51087H18.3174V5.84565C18.3174 4.43022 17.235 3.34783 15.8196 3.34783Z"
        fill="#CCF5C6" />
    <rect x="5" y="11" width="2" height="2" fill="black" />
    <rect x="9" y="11" width="2" height="2" fill="black" />
    <rect x="13" y="11" width="2" height="2" fill="black" />
    <rect x="5" y="14" width="2" height="2" fill="black" />
    <rect x="9" y="14" width="2" height="2" fill="black" />
    <rect x="13" y="14" width="2" height="2" fill="black" />
</svg>