<svg width="27" height="27" viewBox="0 0 27 27" fill="none" xmlns="http://www.w3.org/2000/svg">
<path d="M18.6629 3.96136C20.3002 4.90675 21.6623 6.26339 22.6142 7.89697C23.5662 9.53055 24.0749 11.3844 24.0902 13.2751C24.1055 15.1657 23.6267 17.0275 22.7013 18.6763C21.7759 20.325 20.4359 21.7035 18.814 22.6752C17.1921 23.6469 15.3446 24.1782 13.4543 24.2165C11.564 24.2547 9.69642 23.7986 8.03655 22.8933C6.37668 21.988 4.98203 20.6649 3.99065 19.055C2.99928 17.445 2.44557 15.6041 2.38433 13.7144L2.37891 13.3626L2.38433 13.0109C2.44513 11.1361 2.99069 9.30896 3.96783 7.70774C4.94496 6.10652 6.32033 4.78582 7.95984 3.87438C9.59935 2.96295 11.4471 2.49189 13.3228 2.50713C15.1986 2.52238 17.0384 3.0234 18.6629 3.96136ZM13.2349 6.84904C12.969 6.84908 12.7123 6.9467 12.5136 7.12339C12.3149 7.30008 12.188 7.54355 12.1569 7.80762L12.1493 7.93464V13.3626L12.159 13.5048C12.1838 13.6932 12.2575 13.8717 12.3729 14.0227L12.4674 14.1312L15.7241 17.388L15.8262 17.477C16.0166 17.6247 16.2507 17.7049 16.4917 17.7049C16.7326 17.7049 16.9667 17.6247 17.1571 17.477L17.2592 17.3869L17.3493 17.2849C17.497 17.0945 17.5772 16.8604 17.5772 16.6194C17.5772 16.3784 17.497 16.1443 17.3493 15.9539L17.2592 15.8519L14.3205 12.9121V7.93464L14.3129 7.80762C14.2818 7.54355 14.1548 7.30008 13.9561 7.12339C13.7574 6.9467 13.5008 6.84908 13.2349 6.84904Z" fill="#22D1DC"/>
</svg>
