<svg width="78" height="78" viewBox="0 0 78 78" fill="none" xmlns="http://www.w3.org/2000/svg">
<path d="M42.9651 59.9855C45.4699 60.2873 46.436 63.412 44.5404 65.0755C43.3087 66.1593 41.8618 66.9706 40.2945 67.4561C38.7273 67.9416 37.0752 68.0904 35.4464 67.8928C33.8173 67.6979 32.2478 67.1609 30.8408 66.317C29.4338 65.473 28.221 64.3413 27.2819 62.9959C25.8984 61.0195 27.3754 58.3684 29.6974 58.4073L30.018 58.4283L42.9651 59.9855ZM42.4249 9.97838C46.3573 10.4522 49.3665 13.4676 50.003 17.1813L50.0766 17.6925L50.0847 17.8198C53.06 20.0053 55.4751 22.8645 57.1324 26.1633C58.7897 29.462 59.642 33.1064 59.6195 36.798L59.6004 37.6388L59.5546 38.4823L58.5319 46.9697L58.5453 47.3708C58.6847 49.5522 59.6355 51.6025 61.2106 53.118L61.6534 53.5151L62.0879 53.8583C64.4083 55.5686 63.0933 59.1676 60.3459 59.1244L60.0079 59.1013L13.6763 53.5185C10.6995 53.1598 10.1359 49.0848 12.9012 47.9315C14.0798 47.44 15.1366 46.6966 15.9973 45.7533C16.858 44.81 17.5018 43.6898 17.8836 42.4712L17.9943 42.0645L19.0335 33.4645C19.6658 29.7037 21.2103 26.1551 23.5318 23.1294C25.8533 20.1037 28.881 17.6932 32.35 16.1088L33.1191 15.7726L33.163 15.6515C33.7813 13.9693 34.9007 12.5173 36.3703 11.4913C37.8398 10.4654 39.5887 9.91494 41.3809 9.91428L41.9139 9.92855L42.4249 9.97838Z" fill="#F1CD7C"/>
</svg>
