<svg width="253" height="253" viewBox="0 0 253 253" fill="none" xmlns="http://www.w3.org/2000/svg">
<path d="M126.45 252.9C56.7255 252.9 0 196.175 0 126.45C0 56.7255 56.7255 0 126.45 0C196.175 0 252.9 56.7255 252.9 126.45C252.9 196.175 196.175 252.9 126.45 252.9Z" fill="#FC6977"/>
<path d="M81.2146 185.735C77.6178 185.735 74.0238 184.364 71.2785 181.619C65.7905 176.134 65.7905 167.237 71.2785 161.752L161.749 71.2813C167.232 65.7961 176.134 65.7961 181.616 71.2813C187.104 76.7692 187.104 85.6656 181.616 91.1508L91.1508 181.619C88.4054 184.361 84.8114 185.735 81.2146 185.735Z" fill="white"/>
<path d="M171.685 185.735C168.091 185.735 164.492 184.364 161.752 181.619L71.2813 91.1508C65.7933 85.6628 65.7933 76.7664 71.2813 71.2813C76.7692 65.7961 85.6628 65.7961 91.1508 71.2813L181.619 161.752C187.107 167.237 187.107 176.134 181.619 181.619C178.876 184.361 175.279 185.735 171.685 185.735Z" fill="white"/>
</svg>
