<svg width="31" height="36" viewBox="0 0 31 36" fill="none" xmlns="http://www.w3.org/2000/svg">
<path d="M26.1508 25.828L21.8557 14.7807C21.7134 14.4169 21.7124 14.013 21.8531 13.6486C21.9937 13.2842 22.2657 12.9857 22.6156 12.8119C22.9654 12.6381 23.3676 12.6016 23.743 12.7097C24.1184 12.8178 24.4397 13.0625 24.6435 13.3957L24.7691 13.6456L30.4749 28.3456L30.5298 28.6087L30.5365 28.8029L30.5167 29.0263L30.5058 29.0898C30.4833 29.1989 30.4491 29.3051 30.4039 29.4069L30.4827 29.1889L30.4523 29.2814L30.3453 29.5245L30.1941 29.7516L30.0576 29.9066L29.8475 30.0736L29.6021 30.2046L14.9769 35.8955C14.6132 36.0378 14.2093 36.0388 13.8449 35.8982C13.4805 35.7575 13.1819 35.4855 13.0081 35.1356C12.8344 34.7858 12.7979 34.3836 12.906 34.0082C13.014 33.6328 13.2588 33.3115 13.592 33.1077L13.846 32.9805L24.8907 28.6911L12.6129 23.2842C2.53913 18.8507 -1.73225 10.2243 1.4963 2.02723L1.74543 1.43013C1.91236 1.05083 2.22313 0.753384 2.60936 0.60322C2.9956 0.453055 3.42567 0.462472 3.80496 0.6294C4.18426 0.796328 4.4817 1.10709 4.63187 1.49333C4.78203 1.87956 4.77261 2.30963 4.60569 2.68893C1.74443 9.19028 4.8598 16.13 13.1274 20.0827L13.8717 20.4239L26.1508 25.828Z" fill="white"/>
</svg>
