<svg width="209" height="106" viewBox="0 0 209 106" fill="none" xmlns="http://www.w3.org/2000/svg">
<path d="M31.1083 22.3255L41.6409 27.7619C41.9876 27.9418 42.3892 27.9853 42.7664 27.8839C43.1436 27.7825 43.4692 27.5434 43.6789 27.2139C43.8886 26.8844 43.9673 26.4882 43.8994 26.1035C43.8316 25.7189 43.6221 25.3736 43.3122 25.1357L43.077 24.9844L29.0608 17.76L28.8049 17.6777L28.6125 17.6505L28.3882 17.6466L28.3239 17.6508C28.2132 17.6617 28.1039 17.6845 27.9979 17.7187L28.223 17.6633L28.1278 17.6838L27.8748 17.7646L27.633 17.891L27.4645 18.0103L27.2762 18.2016L27.1201 18.4319L19.9184 32.3752C19.7384 32.7219 19.6949 33.1235 19.7963 33.5007C19.8977 33.8779 20.1368 34.2035 20.4663 34.4132C20.7959 34.6229 21.192 34.7016 21.5767 34.6337C21.9614 34.5658 22.3067 34.3564 22.5446 34.0465L22.6979 33.8073L28.1282 23.2766L32.21 36.0562C35.5562 46.5414 43.684 51.6988 52.1759 49.3529L52.7959 49.1681C53.1907 49.0421 53.5193 48.7645 53.7093 48.3962C53.8994 48.028 53.9354 47.5993 53.8094 47.2045C53.6834 46.8097 53.4058 46.4812 53.0375 46.2911C52.6693 46.101 52.2406 46.065 51.8458 46.191C45.0789 48.3506 38.5065 44.5207 35.4479 35.8823L35.1871 35.1061L31.1083 22.3255Z" fill="white"/>
<path d="M80.5422 56.31C80.4822 56.43 80.4522 56.62 80.4522 56.88C80.4522 57.04 80.4622 57.24 80.4822 57.48C80.5022 57.72 80.5122 57.92 80.5122 58.08C80.5122 58.46 80.3922 58.73 80.1522 58.89C79.9122 59.05 79.6222 59.13 79.2822 59.13C78.7822 59.13 78.3222 58.95 77.9022 58.59C77.9022 58.53 77.9022 58.46 77.9022 58.38C77.9222 58.3 77.9322 58.21 77.9322 58.11C77.9322 57.77 77.9122 57.43 77.8722 57.09C77.8322 56.75 77.8122 56.59 77.8122 56.61L77.8722 55.47C76.7522 56.33 75.7822 56.79 74.9622 56.85C74.5422 56.89 74.1722 56.92 73.8522 56.94C73.5522 56.96 73.2922 56.98 73.0722 57C72.8322 57.02 72.6222 57.04 72.4422 57.06H72.4722C71.8122 57.06 71.1422 56.92 70.4622 56.64C69.8022 56.34 69.2022 55.94 68.6622 55.44C68.1222 54.92 67.6822 54.32 67.3422 53.64C67.0022 52.94 66.8322 52.2 66.8322 51.42C66.8322 51.04 66.8722 50.55 66.9522 49.95C67.0522 49.33 67.1722 48.7 67.3122 48.06C67.4722 47.42 67.6322 46.81 67.7922 46.23C67.9722 45.65 68.1522 45.2 68.3322 44.88C68.6322 44.32 69.1622 43.69 69.9222 42.99C70.4222 42.71 70.9822 42.41 71.6022 42.09C72.2422 41.75 72.9622 41.4 73.7622 41.04L76.9422 40.5C78.2022 40.64 79.1422 40.87 79.7622 41.19C80.3822 41.51 80.6922 42.03 80.6922 42.75C80.6922 43.49 80.3022 43.86 79.5222 43.86C79.2222 43.86 78.8922 43.8 78.5322 43.68C78.1722 43.54 77.7822 43.46 77.3622 43.44C77.1022 43.42 76.8522 43.41 76.6122 43.41C76.3722 43.41 76.1222 43.41 75.8622 43.41C74.6422 43.65 73.7022 43.98 73.0422 44.4C72.6022 44.48 72.1722 44.72 71.7522 45.12C71.3322 45.5 70.9622 45.99 70.6422 46.59C70.3222 47.19 70.0622 47.87 69.8622 48.63C69.6622 49.39 69.5622 50.17 69.5622 50.97C69.5622 51.81 69.7222 52.5 70.0422 53.04C70.3622 53.58 71.0122 54 71.9922 54.3C72.1322 54.36 72.3422 54.39 72.6222 54.39C73.3422 54.39 73.8922 54.35 74.2722 54.27C74.6722 54.19 75.0222 54.06 75.3222 53.88C75.6422 53.7 75.9622 53.47 76.2822 53.19C76.6222 52.91 77.0922 52.57 77.6922 52.17V51.72C77.6322 51.48 77.3922 51.3 76.9722 51.18C76.5522 51.04 76.1022 50.95 75.6222 50.91C75.0622 50.85 74.4222 50.82 73.7022 50.82C73.2222 50.38 72.9822 49.92 72.9822 49.44C72.9822 48.8 73.3122 48.39 73.9722 48.21H73.9422C73.9422 48.17 74.1122 48.19 74.4522 48.27C74.8122 48.35 75.3122 48.39 75.9522 48.39C76.1322 48.39 76.2822 48.37 76.4022 48.33C76.6622 48.35 76.9622 48.4 77.3022 48.48C77.6622 48.56 78.0222 48.66 78.3822 48.78C78.7422 48.9 79.0622 49.03 79.3422 49.17C79.6422 49.29 79.8622 49.4 80.0022 49.5C80.3622 49.78 80.5422 50.46 80.5422 51.54C80.5422 52.02 80.4822 52.45 80.3622 52.83C80.4022 52.99 80.4322 53.26 80.4522 53.64C80.4722 54 80.4922 54.38 80.5122 54.78C80.5322 55.18 80.5422 55.54 80.5422 55.86C80.5422 56.16 80.5422 56.31 80.5422 56.31ZM96.1443 55.8C95.5043 56.44 94.7843 56.98 93.9843 57.42C93.1843 57.88 92.3743 58.11 91.5543 58.11C90.8143 58.11 89.8643 57.99 88.7043 57.75C88.3043 57.49 87.9043 57.18 87.5043 56.82C87.1043 56.44 86.7443 56.03 86.4243 55.59C86.1043 55.13 85.8443 54.64 85.6443 54.12C85.4443 53.58 85.3443 53.03 85.3443 52.47C85.3443 52.31 85.3543 52.1 85.3743 51.84C85.3943 51.56 85.4143 51.29 85.4343 51.03C85.4743 50.75 85.5043 50.51 85.5243 50.31C85.5443 50.11 85.5543 50.01 85.5543 50.01C85.9543 49.37 86.3743 48.74 86.8143 48.12C87.2743 47.48 87.9143 46.92 88.7343 46.44C90.0343 46.16 90.9743 46.02 91.5543 46.02C91.8543 46.02 92.1143 46.04 92.3343 46.08C92.5543 46.1 92.7643 46.16 92.9643 46.26C93.1843 46.34 93.3943 46.47 93.5943 46.65C93.8143 46.83 94.0643 47.06 94.3443 47.34C94.6643 47.68 94.9143 47.91 95.0943 48.03C95.2943 48.15 95.3943 48.26 95.3943 48.36C95.3943 50.2 94.8243 51.45 93.6843 52.11C93.1843 52.29 92.5343 52.49 91.7343 52.71C90.9343 52.91 89.8443 53.1 88.4643 53.28C88.7443 54.04 89.1143 54.61 89.5743 54.99C90.0343 55.37 90.5543 55.56 91.1343 55.56C91.9943 55.56 93.0743 55.05 94.3743 54.03C94.5743 53.85 94.8243 53.76 95.1243 53.76C95.4443 53.76 95.7243 53.88 95.9643 54.12C96.2243 54.36 96.3543 54.66 96.3543 55.02C96.3543 55.28 96.2843 55.54 96.1443 55.8ZM92.7543 49.38C92.3743 48.76 91.9243 48.45 91.4043 48.45C91.1843 48.45 90.9443 48.48 90.6843 48.54C90.4243 48.6 90.1543 48.69 89.8743 48.81C89.6143 48.91 89.3643 49.04 89.1243 49.2C88.9043 49.36 88.7243 49.55 88.5843 49.77L88.2843 50.67C88.9643 50.61 89.5643 50.56 90.0843 50.52C90.6043 50.48 91.0543 50.42 91.4343 50.34C91.8143 50.26 92.1143 50.15 92.3343 50.01C92.5543 49.87 92.6943 49.66 92.7543 49.38ZM107.471 45.69C107.691 45.87 107.801 46.2 107.801 46.68C107.801 47.56 107.471 48 106.811 48H106.691C106.391 48.02 106.041 48.05 105.641 48.09C105.241 48.11 104.791 48.15 104.291 48.21C104.251 48.53 104.211 48.96 104.171 49.5C104.131 50.02 104.111 50.65 104.111 51.39C104.111 51.45 104.111 51.51 104.111 51.57C104.131 51.63 104.141 51.7 104.141 51.78V53.16C104.141 53.48 104.191 53.74 104.291 53.94C104.411 54.12 104.551 54.25 104.711 54.33L105.551 54.6C106.211 54.82 106.541 55.22 106.541 55.8C106.541 56.14 106.401 56.44 106.121 56.7C105.861 56.96 105.521 57.09 105.101 57.09C104.981 57.09 104.771 57.06 104.471 57C104.191 56.92 103.891 56.82 103.571 56.7C103.271 56.58 102.981 56.43 102.701 56.25C102.441 56.07 102.261 55.87 102.161 55.65C101.941 55.19 101.761 54.71 101.621 54.21C101.481 53.69 101.411 53.15 101.411 52.59C101.411 51.97 101.421 51.53 101.441 51.27C101.461 51.01 101.481 50.78 101.501 50.58C101.521 50.38 101.541 50.14 101.561 49.86C101.581 49.58 101.591 49.12 101.591 48.48C101.211 48.52 100.651 48.64 99.9105 48.84C99.4705 48.84 99.0905 48.73 98.7705 48.51C98.4705 48.27 98.3205 47.96 98.3205 47.58C98.3205 47.3 98.4005 47.04 98.5605 46.8C98.7405 46.56 99.1005 46.35 99.6405 46.17C99.8205 46.11 99.9805 46.07 100.121 46.05C100.281 46.03 100.431 46.01 100.571 45.99C100.731 45.97 100.901 45.96 101.081 45.96C101.261 45.94 101.481 45.91 101.741 45.87C101.761 45.37 101.791 44.81 101.831 44.19C101.891 43.55 101.981 42.96 102.101 42.42C102.241 41.88 102.431 41.43 102.671 41.07C102.931 40.69 103.271 40.5 103.691 40.5C104.411 40.5 104.851 40.83 105.011 41.49C105.011 41.51 104.981 41.65 104.921 41.91C104.881 42.15 104.831 42.42 104.771 42.72C104.711 43.02 104.651 43.31 104.591 43.59C104.551 43.87 104.531 44.05 104.531 44.13L104.441 45.6C104.581 45.58 104.711 45.57 104.831 45.57C104.951 45.55 105.081 45.54 105.221 45.54H105.491C105.631 45.54 105.761 45.54 105.881 45.54C106.001 45.52 106.111 45.51 106.211 45.51C106.811 45.51 107.231 45.57 107.471 45.69ZM132.839 53.67V53.91C132.839 54.03 132.839 54.25 132.839 54.57C132.859 54.87 132.829 55.18 132.749 55.5C132.689 55.82 132.559 56.11 132.359 56.37C132.159 56.61 131.859 56.73 131.459 56.73C130.679 56.73 130.219 56.42 130.079 55.8C130.099 55.68 130.109 55.55 130.109 55.41C130.109 55.25 130.109 55.08 130.109 54.9C130.109 54.82 130.109 54.53 130.109 54.03C130.109 53.51 130.089 52.95 130.049 52.35C130.029 51.75 129.969 51.19 129.869 50.67C129.769 50.13 129.619 49.79 129.419 49.65C128.959 49.33 128.549 49.17 128.189 49.17C127.709 49.17 127.299 49.32 126.959 49.62C126.639 49.9 126.369 50.46 126.149 51.3C126.129 51.58 126.109 51.9 126.089 52.26C126.069 52.6 126.039 52.99 125.999 53.43C125.999 53.77 126.009 54.15 126.029 54.57C126.049 54.97 126.079 55.43 126.119 55.95C126.119 56.33 125.969 56.65 125.669 56.91C125.369 57.15 125.029 57.27 124.649 57.27C124.349 57.27 124.109 57.19 123.929 57.03C123.749 56.87 123.609 56.66 123.509 56.4C123.429 56.14 123.369 55.86 123.329 55.56C123.309 55.26 123.299 54.96 123.299 54.66C123.299 54.44 123.309 54.22 123.329 54C123.349 53.76 123.379 53.52 123.419 53.28L123.659 50.4L123.899 48.96C123.859 48.72 123.779 48.46 123.659 48.18C123.539 47.9 123.479 47.68 123.479 47.52C123.479 47.18 123.609 46.87 123.869 46.59C124.149 46.31 124.489 46.17 124.889 46.17C125.169 46.17 125.379 46.23 125.519 46.35C125.659 46.45 125.889 46.71 126.209 47.13C126.609 46.95 126.929 46.84 127.169 46.8C127.409 46.74 127.689 46.71 128.009 46.71C129.049 46.71 129.959 46.96 130.739 47.46C131.539 47.94 132.039 48.75 132.239 49.89C132.299 50.31 132.349 50.66 132.389 50.94C132.449 51.22 132.499 51.49 132.539 51.75C132.579 52.01 132.619 52.29 132.659 52.59C132.699 52.87 132.759 53.23 132.839 53.67ZM144.948 56.25C144.688 56.43 144.268 56.61 143.688 56.79C143.108 56.95 142.508 57.09 141.888 57.21L140.658 56.97C140.478 56.91 140.178 56.77 139.758 56.55C139.358 56.33 138.948 56 138.528 55.56C138.108 55.1 137.738 54.52 137.418 53.82C137.098 53.1 136.938 52.23 136.938 51.21C136.938 50.85 137.018 50.43 137.178 49.95C137.358 49.45 137.618 48.99 137.958 48.57C138.298 48.13 138.718 47.76 139.218 47.46C139.738 47.16 140.338 47.01 141.018 47.01C142.378 47.01 143.608 47.45 144.708 48.33C145.668 49.65 146.148 51.11 146.148 52.71C146.148 53.89 145.748 55.07 144.948 56.25ZM143.478 51.99C143.378 51.21 143.128 50.6 142.728 50.16C142.348 49.7 141.858 49.47 141.258 49.47C140.858 49.47 140.478 49.67 140.118 50.07C139.778 50.45 139.608 51.01 139.608 51.75C139.608 52.05 139.648 52.37 139.728 52.71C139.808 53.03 139.938 53.33 140.118 53.61C140.298 53.87 140.528 54.09 140.808 54.27C141.088 54.43 141.428 54.51 141.828 54.51C142.468 54.51 142.908 54.32 143.148 53.94C143.388 53.54 143.508 53.05 143.508 52.47C143.508 52.39 143.498 52.32 143.478 52.26C143.478 52.18 143.478 52.09 143.478 51.99ZM157.334 45.69C157.554 45.87 157.664 46.2 157.664 46.68C157.664 47.56 157.334 48 156.674 48H156.554C156.254 48.02 155.904 48.05 155.504 48.09C155.104 48.11 154.654 48.15 154.154 48.21C154.114 48.53 154.074 48.96 154.034 49.5C153.994 50.02 153.974 50.65 153.974 51.39C153.974 51.45 153.974 51.51 153.974 51.57C153.994 51.63 154.004 51.7 154.004 51.78V53.16C154.004 53.48 154.054 53.74 154.154 53.94C154.274 54.12 154.414 54.25 154.574 54.33L155.414 54.6C156.074 54.82 156.404 55.22 156.404 55.8C156.404 56.14 156.264 56.44 155.984 56.7C155.724 56.96 155.384 57.09 154.964 57.09C154.844 57.09 154.634 57.06 154.334 57C154.054 56.92 153.754 56.82 153.434 56.7C153.134 56.58 152.844 56.43 152.564 56.25C152.304 56.07 152.124 55.87 152.024 55.65C151.804 55.19 151.624 54.71 151.484 54.21C151.344 53.69 151.274 53.15 151.274 52.59C151.274 51.97 151.284 51.53 151.304 51.27C151.324 51.01 151.344 50.78 151.364 50.58C151.384 50.38 151.404 50.14 151.424 49.86C151.444 49.58 151.454 49.12 151.454 48.48C151.074 48.52 150.514 48.64 149.774 48.84C149.334 48.84 148.954 48.73 148.634 48.51C148.334 48.27 148.184 47.96 148.184 47.58C148.184 47.3 148.264 47.04 148.424 46.8C148.604 46.56 148.964 46.35 149.504 46.17C149.684 46.11 149.844 46.07 149.984 46.05C150.144 46.03 150.294 46.01 150.434 45.99C150.594 45.97 150.764 45.96 150.944 45.96C151.124 45.94 151.344 45.91 151.604 45.87C151.624 45.37 151.654 44.81 151.694 44.19C151.754 43.55 151.844 42.96 151.964 42.42C152.104 41.88 152.294 41.43 152.534 41.07C152.794 40.69 153.134 40.5 153.554 40.5C154.274 40.5 154.714 40.83 154.874 41.49C154.874 41.51 154.844 41.65 154.784 41.91C154.744 42.15 154.694 42.42 154.634 42.72C154.574 43.02 154.514 43.31 154.454 43.59C154.414 43.87 154.394 44.05 154.394 44.13L154.304 45.6C154.444 45.58 154.574 45.57 154.694 45.57C154.814 45.55 154.944 45.54 155.084 45.54H155.354C155.494 45.54 155.624 45.54 155.744 45.54C155.864 45.52 155.974 45.51 156.074 45.51C156.674 45.51 157.094 45.57 157.334 45.69ZM165.154 42.87C165.194 43.03 165.214 43.18 165.214 43.32C165.214 43.96 165.024 44.5 164.644 44.94C164.044 45.18 163.444 45.3 162.844 45.3C162.464 45.06 162.144 44.79 161.884 44.49C161.644 44.17 161.524 43.86 161.524 43.56C161.524 43.3 161.824 42.66 162.424 41.64C162.684 41.68 162.954 41.71 163.234 41.73C163.534 41.75 163.804 41.8 164.044 41.88C164.304 41.96 164.524 42.08 164.704 42.24C164.904 42.38 165.054 42.59 165.154 42.87ZM164.194 47.88V48.27C164.194 48.37 164.194 48.48 164.194 48.6C164.194 48.72 164.174 48.83 164.134 48.93L163.894 50.28V50.55C163.894 50.67 163.884 50.83 163.864 51.03C163.844 51.23 163.814 51.43 163.774 51.63C163.754 51.83 163.734 52.02 163.714 52.2C163.694 52.38 163.684 52.53 163.684 52.65C163.684 52.75 163.684 52.83 163.684 52.89C163.704 52.95 163.714 53.03 163.714 53.13C163.714 53.31 163.694 53.51 163.654 53.73C163.614 53.93 163.594 54.16 163.594 54.42C163.594 54.66 163.624 54.91 163.684 55.17C163.464 56.07 163.004 56.52 162.304 56.52C161.324 56.52 160.834 55.6 160.834 53.76C160.834 53.14 160.864 52.53 160.924 51.93C160.984 51.31 161.054 50.74 161.134 50.22C161.214 49.7 161.294 49.25 161.374 48.87C161.474 48.47 161.554 48.16 161.614 47.94C161.914 47.5 162.334 47.28 162.874 47.28C163.394 47.28 163.834 47.48 164.194 47.88ZM179.182 54.12C178.802 54.92 178.182 55.56 177.322 56.04C176.462 56.5 175.502 56.73 174.442 56.73C174.302 56.73 174.072 56.71 173.752 56.67C173.432 56.63 173.072 56.55 172.672 56.43C172.292 56.31 171.892 56.15 171.472 55.95C171.072 55.73 170.702 55.45 170.362 55.11C170.022 54.75 169.742 54.32 169.522 53.82C169.302 53.32 169.192 52.73 169.192 52.05C169.172 51.15 169.292 50.33 169.552 49.59C169.832 48.85 170.272 48.1 170.872 47.34L171.832 46.11C172.952 45.35 174.212 44.97 175.612 44.97C176.372 44.97 176.972 45.11 177.412 45.39C177.872 45.67 178.102 46.07 178.102 46.59C178.102 46.99 177.952 47.32 177.652 47.58C177.372 47.82 177.002 47.94 176.542 47.94C176.522 47.94 176.442 47.93 176.302 47.91C176.182 47.87 176.042 47.83 175.882 47.79C175.722 47.75 175.562 47.72 175.402 47.7C175.242 47.66 175.112 47.64 175.012 47.64C174.552 47.64 174.022 47.88 173.422 48.36C172.842 48.84 172.382 49.6 172.042 50.64C171.902 51.08 171.832 51.44 171.832 51.72C171.832 52.28 171.982 52.72 172.282 53.04C172.602 53.36 172.952 53.61 173.332 53.79C173.712 53.95 174.062 54.06 174.382 54.12C174.702 54.16 174.872 54.18 174.892 54.18C175.172 54.18 175.452 54.1 175.732 53.94C176.012 53.78 176.262 53.6 176.482 53.4C176.722 53.2 176.912 53.03 177.052 52.89C177.192 52.73 177.252 52.65 177.232 52.65C177.432 52.47 177.662 52.38 177.922 52.38C178.242 52.38 178.532 52.55 178.792 52.89C179.072 53.21 179.212 53.54 179.212 53.88C179.212 53.98 179.202 54.06 179.182 54.12ZM192.795 55.8C192.155 56.44 191.435 56.98 190.635 57.42C189.835 57.88 189.025 58.11 188.205 58.11C187.465 58.11 186.515 57.99 185.355 57.75C184.955 57.49 184.555 57.18 184.155 56.82C183.755 56.44 183.395 56.03 183.075 55.59C182.755 55.13 182.495 54.64 182.295 54.12C182.095 53.58 181.995 53.03 181.995 52.47C181.995 52.31 182.005 52.1 182.025 51.84C182.045 51.56 182.065 51.29 182.085 51.03C182.125 50.75 182.155 50.51 182.175 50.31C182.195 50.11 182.205 50.01 182.205 50.01C182.605 49.37 183.025 48.74 183.465 48.12C183.925 47.48 184.565 46.92 185.385 46.44C186.685 46.16 187.625 46.02 188.205 46.02C188.505 46.02 188.765 46.04 188.985 46.08C189.205 46.1 189.415 46.16 189.615 46.26C189.835 46.34 190.045 46.47 190.245 46.65C190.465 46.83 190.715 47.06 190.995 47.34C191.315 47.68 191.565 47.91 191.745 48.03C191.945 48.15 192.045 48.26 192.045 48.36C192.045 50.2 191.475 51.45 190.335 52.11C189.835 52.29 189.185 52.49 188.385 52.71C187.585 52.91 186.495 53.1 185.115 53.28C185.395 54.04 185.765 54.61 186.225 54.99C186.685 55.37 187.205 55.56 187.785 55.56C188.645 55.56 189.725 55.05 191.025 54.03C191.225 53.85 191.475 53.76 191.775 53.76C192.095 53.76 192.375 53.88 192.615 54.12C192.875 54.36 193.005 54.66 193.005 55.02C193.005 55.28 192.935 55.54 192.795 55.8ZM189.405 49.38C189.025 48.76 188.575 48.45 188.055 48.45C187.835 48.45 187.595 48.48 187.335 48.54C187.075 48.6 186.805 48.69 186.525 48.81C186.265 48.91 186.015 49.04 185.775 49.2C185.555 49.36 185.375 49.55 185.235 49.77L184.935 50.67C185.615 50.61 186.215 50.56 186.735 50.52C187.255 50.48 187.705 50.42 188.085 50.34C188.465 50.26 188.765 50.15 188.985 50.01C189.205 49.87 189.345 49.66 189.405 49.38ZM206.581 42.33C206.521 42.51 206.491 42.86 206.491 43.38C206.491 43.68 206.491 44.06 206.491 44.52C206.511 44.98 206.521 45.36 206.521 45.66C206.521 45.94 206.521 46.19 206.521 46.41C206.521 46.63 206.501 46.81 206.461 46.95C206.481 47.03 206.491 47.12 206.491 47.22C206.491 47.32 206.491 47.43 206.491 47.55C206.491 47.83 206.471 48.19 206.431 48.63C206.391 49.05 206.371 49.34 206.371 49.5C206.371 49.54 206.371 49.58 206.371 49.62C206.391 49.64 206.401 49.67 206.401 49.71C206.221 50.79 206.101 51.77 206.041 52.65C206.001 53.51 205.931 54.25 205.831 54.87C205.751 55.49 205.601 55.97 205.381 56.31C205.181 56.63 204.831 56.79 204.331 56.79C203.911 56.79 203.541 56.69 203.221 56.49V56.28C202.621 56.54 201.821 56.67 200.821 56.67C200.161 56.67 199.551 56.55 198.991 56.31C198.451 56.07 197.981 55.74 197.581 55.32C197.181 54.88 196.871 54.37 196.651 53.79C196.431 53.21 196.321 52.58 196.321 51.9C196.321 51.52 196.361 51.15 196.441 50.79C196.541 50.41 196.661 50.06 196.801 49.74C196.941 49.4 197.091 49.1 197.251 48.84C197.431 48.56 197.601 48.33 197.761 48.15C198.161 47.71 198.741 47.31 199.501 46.95C200.261 46.59 201.071 46.41 201.931 46.41C202.511 46.41 203.101 46.52 203.701 46.74C203.701 46.44 203.711 46.08 203.731 45.66C203.771 45.24 203.811 44.75 203.851 44.19L203.731 42.15C203.731 42.05 203.721 41.97 203.701 41.91C203.701 41.83 203.701 41.75 203.701 41.67C203.701 41.01 203.781 40.51 203.941 40.17C204.121 39.83 204.471 39.66 204.991 39.66C205.311 39.66 205.561 39.7 205.741 39.78C205.941 39.86 206.091 40 206.191 40.2C206.311 40.38 206.391 40.65 206.431 41.01C206.471 41.35 206.521 41.79 206.581 42.33ZM203.491 49.5C203.091 49.22 202.601 49.08 202.021 49.08C201.601 49.08 201.241 49.11 200.941 49.17C200.661 49.23 200.421 49.34 200.221 49.5C200.021 49.64 199.851 49.84 199.711 50.1C199.571 50.34 199.431 50.64 199.291 51C199.171 51.34 199.111 51.66 199.111 51.96C199.111 52.6 199.331 53.1 199.771 53.46C200.231 53.82 200.781 54 201.421 54C201.981 54 202.521 53.8 203.041 53.4C203.221 52.58 203.341 52.01 203.401 51.69C203.481 51.35 203.521 51.06 203.521 50.82C203.521 50.6 203.511 50.4 203.491 50.22C203.471 50.02 203.461 49.85 203.461 49.71C203.461 49.67 203.461 49.64 203.461 49.62C203.481 49.58 203.491 49.54 203.491 49.5ZM109.655 85.67L108.035 85.82C107.955 85.82 107.865 85.83 107.765 85.85C107.665 85.87 107.545 85.89 107.405 85.91C107.285 85.93 107.145 85.95 106.985 85.97L107.225 88.7C107.245 88.96 107.265 89.28 107.285 89.66C107.325 90.04 107.385 90.49 107.465 91.01C107.445 91.17 107.425 91.33 107.405 91.49C107.405 91.65 107.405 91.83 107.405 92.03C107.405 92.33 107.415 92.66 107.435 93.02C107.455 93.38 107.485 93.77 107.525 94.19C107.165 94.79 106.655 95.09 105.995 95.09C105.395 95.09 104.975 94.8 104.735 94.22C104.735 94.06 104.735 93.87 104.735 93.65C104.755 93.41 104.765 93.15 104.765 92.87C104.765 92.59 104.755 92.29 104.735 91.97C104.735 91.63 104.735 91.26 104.735 90.86V90.71C104.735 90.39 104.715 90.15 104.675 89.99C104.655 89.83 104.625 89.63 104.585 89.39C104.545 89.13 104.495 88.77 104.435 88.31C104.375 87.85 104.315 87.15 104.255 86.21L103.145 86.42C103.085 86.42 103.025 86.42 102.965 86.42C102.925 86.4 102.885 86.39 102.845 86.39C102.745 86.39 102.655 86.4 102.575 86.42C102.495 86.42 102.425 86.42 102.365 86.42C102.285 86.44 102.215 86.45 102.155 86.45C101.515 86.29 101.195 85.83 101.195 85.07C101.195 84.77 101.225 84.54 101.285 84.38C101.345 84.22 101.475 84.1 101.675 84.02C101.875 83.94 102.165 83.88 102.545 83.84C102.945 83.78 103.465 83.7 104.105 83.6C104.085 83.26 104.045 82.87 103.985 82.43C103.945 81.97 103.925 81.48 103.925 80.96C103.925 80.16 104.285 79.11 105.005 77.81C105.205 77.71 105.395 77.61 105.575 77.51C105.775 77.41 106.005 77.32 106.265 77.24C106.545 77.14 106.865 77.05 107.225 76.97C107.605 76.87 108.075 76.78 108.635 76.7H108.755C109.095 76.7 109.355 76.83 109.535 77.09C109.735 77.35 109.835 77.65 109.835 77.99C109.835 78.37 109.745 78.66 109.565 78.86C109.405 79.04 109.195 79.19 108.935 79.31C108.675 79.41 108.385 79.5 108.065 79.58C107.765 79.64 107.485 79.73 107.225 79.85C106.985 79.93 106.835 80.08 106.775 80.3C106.735 80.52 106.705 80.74 106.685 80.96C106.685 81 106.695 81.17 106.715 81.47C106.735 81.75 106.745 82 106.745 82.22C106.745 82.28 106.735 82.34 106.715 82.4C106.715 82.44 106.715 82.48 106.715 82.52C106.715 82.6 106.715 82.71 106.715 82.85C106.735 82.97 106.755 83.14 106.775 83.36L108.155 83.18C108.295 83.16 108.425 83.15 108.545 83.15C108.685 83.15 108.805 83.15 108.905 83.15C109.405 83.15 109.765 83.24 109.985 83.42C110.225 83.6 110.345 83.91 110.345 84.35C110.345 85.05 110.115 85.49 109.655 85.67ZM124.102 91.46C124.462 91.7 124.642 91.99 124.642 92.33C124.642 92.51 124.592 92.7 124.492 92.9C124.392 93.08 124.262 93.25 124.102 93.41C123.942 93.55 123.772 93.67 123.592 93.77C123.412 93.87 123.232 93.92 123.052 93.92C122.892 93.86 122.702 93.76 122.482 93.62C122.262 93.46 122.042 93.29 121.822 93.11C121.602 92.91 121.392 92.69 121.192 92.45C121.012 92.21 120.872 91.97 120.772 91.73L120.562 92.24C120.182 92.96 119.582 93.64 118.762 94.28C117.762 94.46 117.182 94.55 117.022 94.55C116.642 94.55 116.182 94.49 115.642 94.37L113.992 93.2C113.272 92.52 112.912 91.59 112.912 90.41C112.912 89.99 112.972 89.53 113.092 89.03C113.232 88.51 113.422 87.99 113.662 87.47C113.922 86.95 114.232 86.44 114.592 85.94C114.952 85.44 115.372 84.99 115.852 84.59C116.432 84.37 116.992 84.19 117.532 84.05C118.072 83.89 118.482 83.79 118.762 83.75C119.142 83.33 119.592 83.12 120.112 83.12C120.412 83.12 120.672 83.27 120.892 83.57C121.132 83.85 121.332 84.21 121.492 84.65C121.672 85.09 121.812 85.58 121.912 86.12C122.012 86.64 122.082 87.14 122.122 87.62L122.512 89.21C122.632 89.71 122.822 90.14 123.082 90.5C123.362 90.86 123.702 91.18 124.102 91.46ZM119.542 88.13C119.502 88.11 119.352 87.48 119.092 86.24C118.992 86.24 118.842 86.24 118.642 86.24C118.442 86.24 118.202 86.3 117.922 86.42C117.662 86.52 117.372 86.71 117.052 86.99C116.752 87.25 116.462 87.65 116.182 88.19C115.762 88.97 115.552 89.75 115.552 90.53C115.892 91.19 116.422 91.71 117.142 92.09C117.362 92.03 117.542 91.96 117.682 91.88C117.842 91.8 117.982 91.69 118.102 91.55C118.222 91.41 118.332 91.24 118.432 91.04C118.552 90.82 118.682 90.55 118.822 90.23C119.082 89.77 119.262 89.37 119.362 89.03C119.482 88.67 119.542 88.37 119.542 88.13ZM135.287 91.55C135.227 92.17 135.017 92.74 134.657 93.26C134.317 93.76 133.967 94.27 133.607 94.79C133.387 94.97 133.067 95.12 132.647 95.24C132.247 95.38 131.847 95.49 131.447 95.57C131.047 95.65 130.697 95.71 130.397 95.75C130.117 95.79 129.997 95.81 130.037 95.81C129.837 95.81 129.577 95.77 129.257 95.69C128.957 95.63 128.657 95.56 128.357 95.48C128.077 95.42 127.837 95.35 127.637 95.27C127.457 95.21 127.377 95.18 127.397 95.18C127.217 95.16 126.987 95.1 126.707 95C126.427 94.88 126.157 94.75 125.897 94.61C125.657 94.45 125.447 94.29 125.267 94.13C125.067 93.95 124.967 93.78 124.967 93.62C124.967 93.46 125.007 93.3 125.087 93.14C125.167 92.96 125.277 92.8 125.417 92.66C125.557 92.5 125.697 92.38 125.837 92.3C125.997 92.2 126.157 92.15 126.317 92.15L128.387 92.93C128.767 93.05 129.137 93.14 129.497 93.2C129.877 93.24 130.247 93.26 130.607 93.26C130.947 93.26 131.247 93.2 131.507 93.08C131.787 92.94 131.997 92.78 132.137 92.6L132.587 91.7C132.547 91.34 132.397 91.06 132.137 90.86C131.897 90.66 131.587 90.49 131.207 90.35C130.847 90.21 130.457 90.08 130.037 89.96C129.617 89.84 129.227 89.68 128.867 89.48L127.577 88.67C127.157 88.13 126.937 87.3 126.917 86.18C127.037 85.48 127.337 84.92 127.817 84.5C127.837 84.48 127.967 84.39 128.207 84.23C128.447 84.05 128.817 83.8 129.317 83.48C129.397 83.48 129.647 83.46 130.067 83.42C130.507 83.38 131.107 83.32 131.867 83.24C132.207 83.24 133.037 83.48 134.357 83.96C134.617 84.22 134.747 84.58 134.747 85.04C134.747 85.4 134.657 85.71 134.477 85.97C134.317 86.21 134.077 86.33 133.757 86.33C133.417 86.33 133.037 86.25 132.617 86.09C132.217 85.91 131.837 85.82 131.477 85.82C130.977 85.82 130.517 85.87 130.097 85.97C129.697 86.05 129.497 86.25 129.497 86.57C129.497 87.03 129.697 87.31 130.097 87.41C133.157 88.09 134.887 89.47 135.287 91.55ZM146.523 83.69C146.743 83.87 146.853 84.2 146.853 84.68C146.853 85.56 146.523 86 145.863 86H145.743C145.443 86.02 145.093 86.05 144.693 86.09C144.293 86.11 143.843 86.15 143.343 86.21C143.303 86.53 143.263 86.96 143.223 87.5C143.183 88.02 143.163 88.65 143.163 89.39C143.163 89.45 143.163 89.51 143.163 89.57C143.183 89.63 143.193 89.7 143.193 89.78V91.16C143.193 91.48 143.243 91.74 143.343 91.94C143.463 92.12 143.603 92.25 143.763 92.33L144.603 92.6C145.263 92.82 145.593 93.22 145.593 93.8C145.593 94.14 145.453 94.44 145.173 94.7C144.913 94.96 144.573 95.09 144.153 95.09C144.033 95.09 143.823 95.06 143.523 95C143.243 94.92 142.943 94.82 142.623 94.7C142.323 94.58 142.033 94.43 141.753 94.25C141.493 94.07 141.313 93.87 141.213 93.65C140.993 93.19 140.813 92.71 140.673 92.21C140.533 91.69 140.463 91.15 140.463 90.59C140.463 89.97 140.473 89.53 140.493 89.27C140.513 89.01 140.533 88.78 140.553 88.58C140.573 88.38 140.593 88.14 140.613 87.86C140.633 87.58 140.643 87.12 140.643 86.48C140.263 86.52 139.703 86.64 138.963 86.84C138.523 86.84 138.143 86.73 137.823 86.51C137.523 86.27 137.373 85.96 137.373 85.58C137.373 85.3 137.453 85.04 137.613 84.8C137.793 84.56 138.153 84.35 138.693 84.17C138.873 84.11 139.033 84.07 139.173 84.05C139.333 84.03 139.483 84.01 139.623 83.99C139.783 83.97 139.953 83.96 140.133 83.96C140.313 83.94 140.533 83.91 140.793 83.87C140.813 83.37 140.843 82.81 140.883 82.19C140.943 81.55 141.033 80.96 141.153 80.42C141.293 79.88 141.483 79.43 141.723 79.07C141.983 78.69 142.323 78.5 142.743 78.5C143.463 78.5 143.903 78.83 144.063 79.49C144.063 79.51 144.033 79.65 143.973 79.91C143.933 80.15 143.883 80.42 143.823 80.72C143.763 81.02 143.703 81.31 143.643 81.59C143.603 81.87 143.583 82.05 143.583 82.13L143.493 83.6C143.633 83.58 143.763 83.57 143.883 83.57C144.003 83.55 144.133 83.54 144.273 83.54H144.543C144.683 83.54 144.813 83.54 144.933 83.54C145.053 83.52 145.163 83.51 145.263 83.51C145.863 83.51 146.283 83.57 146.523 83.69ZM159.924 93.8C159.284 94.44 158.564 94.98 157.764 95.42C156.964 95.88 156.154 96.11 155.334 96.11C154.594 96.11 153.644 95.99 152.484 95.75C152.084 95.49 151.684 95.18 151.284 94.82C150.884 94.44 150.524 94.03 150.204 93.59C149.884 93.13 149.624 92.64 149.424 92.12C149.224 91.58 149.124 91.03 149.124 90.47C149.124 90.31 149.134 90.1 149.154 89.84C149.174 89.56 149.194 89.29 149.214 89.03C149.254 88.75 149.284 88.51 149.304 88.31C149.324 88.11 149.334 88.01 149.334 88.01C149.734 87.37 150.154 86.74 150.594 86.12C151.054 85.48 151.694 84.92 152.514 84.44C153.814 84.16 154.754 84.02 155.334 84.02C155.634 84.02 155.894 84.04 156.114 84.08C156.334 84.1 156.544 84.16 156.744 84.26C156.964 84.34 157.174 84.47 157.374 84.65C157.594 84.83 157.844 85.06 158.124 85.34C158.444 85.68 158.694 85.91 158.874 86.03C159.074 86.15 159.174 86.26 159.174 86.36C159.174 88.2 158.604 89.45 157.464 90.11C156.964 90.29 156.314 90.49 155.514 90.71C154.714 90.91 153.624 91.1 152.244 91.28C152.524 92.04 152.894 92.61 153.354 92.99C153.814 93.37 154.334 93.56 154.914 93.56C155.774 93.56 156.854 93.05 158.154 92.03C158.354 91.85 158.604 91.76 158.904 91.76C159.224 91.76 159.504 91.88 159.744 92.12C160.004 92.36 160.134 92.66 160.134 93.02C160.134 93.28 160.064 93.54 159.924 93.8ZM156.534 87.38C156.154 86.76 155.704 86.45 155.184 86.45C154.964 86.45 154.724 86.48 154.464 86.54C154.204 86.6 153.934 86.69 153.654 86.81C153.394 86.91 153.144 87.04 152.904 87.2C152.684 87.36 152.504 87.55 152.364 87.77L152.064 88.67C152.744 88.61 153.344 88.56 153.864 88.52C154.384 88.48 154.834 88.42 155.214 88.34C155.594 88.26 155.894 88.15 156.114 88.01C156.334 87.87 156.474 87.66 156.534 87.38ZM171.97 84.8C172.29 85 172.45 85.38 172.45 85.94C172.45 86.36 172.34 86.72 172.12 87.02C171.9 87.32 171.6 87.47 171.22 87.47C170.98 87.47 170.73 87.41 170.47 87.29C170.23 87.15 169.97 87.08 169.69 87.08C169.45 87.08 169.21 87.13 168.97 87.23C168.75 87.31 168.49 87.5 168.19 87.8L167.29 88.7C167.29 88.84 167.29 88.98 167.29 89.12C167.31 89.26 167.32 89.41 167.32 89.57C167.32 89.81 167.31 90.06 167.29 90.32C167.29 90.58 167.28 90.86 167.26 91.16L167.53 93.89C167.47 94.81 167 95.27 166.12 95.27C165.66 95.27 165.32 95.13 165.1 94.85C164.88 94.55 164.73 94.14 164.65 93.62C164.57 93.1 164.53 92.49 164.53 91.79C164.55 91.09 164.55 90.32 164.53 89.48C164.49 88.22 164.46 87.59 164.44 87.59V87.62C164.36 87.32 164.3 87.06 164.26 86.84C164.22 86.6 164.2 86.39 164.2 86.21C164.2 85.85 164.33 85.56 164.59 85.34C164.85 85.1 165.23 84.98 165.73 84.98C166.05 84.98 166.43 85.23 166.87 85.73C167.33 85.37 167.68 85.1 167.92 84.92C168.18 84.74 168.39 84.61 168.55 84.53C168.73 84.45 168.9 84.41 169.06 84.41C169.22 84.39 169.43 84.38 169.69 84.38C169.91 84.36 170.11 84.37 170.29 84.41C170.49 84.45 170.7 84.49 170.92 84.53L171.97 84.8Z" fill="white"/>
</svg>
