<svg width="105" height="95" viewBox="0 0 105 95" fill="none" xmlns="http://www.w3.org/2000/svg">
<g clip-path="url(#clip0_1_3)">
<path d="M7.03111 59.143C7.48222 59.2314 7.70778 59.5628 7.70778 60.1372C7.70778 60.4465 7.63 60.6895 7.47445 60.8663C7.31889 61.043 7.11667 61.1314 6.86778 61.1314C6.79 61.1314 6.64222 61.124 6.42445 61.1093C6.20667 61.0798 5.97334 61.0578 5.72445 61.043C5.47556 61.0136 5.23445 60.9915 5.00111 60.9767C4.76778 60.9473 4.60445 60.9326 4.51111 60.9326C4.41778 60.9326 4.33222 60.9326 4.25445 60.9326C4.17667 60.9326 4.09889 60.9399 4.02111 60.9547C3.75667 60.9399 3.44556 60.9105 3.08778 60.8663C2.74556 60.8074 2.40334 60.7485 2.06111 60.6895C1.73445 60.6159 1.43889 60.5423 1.17445 60.4686C0.925558 60.395 0.77778 60.3287 0.731113 60.2698C0.575558 59.8279 0.49778 59.2388 0.49778 58.5023C0.49778 58.3845 0.49778 58.2667 0.49778 58.1488C0.49778 58.0163 0.505558 57.8837 0.521113 57.7512L0.661113 56.1826C0.676669 56.0647 0.684447 55.9543 0.684447 55.8512C0.684447 55.7333 0.684447 55.6302 0.684447 55.5419C0.684447 55.424 0.684447 55.3283 0.684447 55.2547C0.684447 55.1663 0.668891 55.0853 0.63778 55.0116C0.746669 54.4519 0.824447 53.988 0.871113 53.6198C0.91778 53.2368 0.941113 52.9423 0.941113 52.736V52.5593C0.941113 52.3531 1.03445 51.6977 1.22111 50.593C1.45445 50.1217 1.81222 49.886 2.29445 49.886C2.59 49.886 2.83889 49.9965 3.04111 50.2174C3.24334 50.4236 3.34445 50.7109 3.34445 51.0791C3.28222 51.2853 3.22 51.543 3.15778 51.8523C3.11111 52.1616 3.06445 52.5298 3.01778 52.957V53.1337C3.01778 53.2663 3.00222 53.4725 2.97111 53.7523C2.95556 54.0174 2.93222 54.2973 2.90111 54.5919C2.87 54.8717 2.83889 55.1295 2.80778 55.3651C2.79222 55.586 2.78445 55.7112 2.78445 55.7407C2.78445 55.9027 2.79222 56.0058 2.80778 56.05C2.74556 56.6686 2.69889 57.1841 2.66778 57.5965C2.63667 58.0089 2.62111 58.3256 2.62111 58.5465C2.62111 58.6938 2.62889 58.7895 2.64445 58.8337C3.45334 58.9221 3.99 58.9663 4.25445 58.9663C4.37889 58.9663 4.50334 58.9663 4.62778 58.9663C4.76778 58.9516 4.90778 58.9442 5.04778 58.9442C5.63889 58.9442 6.3 59.0105 7.03111 59.143ZM16.4407 61.3081C16.2384 61.4407 15.9118 61.5733 15.4607 61.7058C15.0096 61.8236 14.5429 61.9267 14.0607 62.0151L13.104 61.8384C12.964 61.7942 12.7307 61.6911 12.404 61.5291C12.0929 61.3671 11.774 61.124 11.4473 60.8C11.1207 60.4612 10.8329 60.0341 10.584 59.5186C10.3351 58.9884 10.2107 58.3477 10.2107 57.5965C10.2107 57.3314 10.2729 57.0221 10.3973 56.6686C10.5373 56.3004 10.7396 55.9616 11.004 55.6523C11.2684 55.3283 11.5951 55.0558 11.984 54.8349C12.3884 54.614 12.8551 54.5035 13.384 54.5035C14.4418 54.5035 15.3984 54.8275 16.254 55.4756C17.0007 56.4477 17.374 57.5229 17.374 58.7012C17.374 59.5702 17.0629 60.4391 16.4407 61.3081ZM15.2973 58.1709C15.2196 57.5965 15.0251 57.1473 14.714 56.8233C14.4184 56.4845 14.0373 56.3151 13.5707 56.3151C13.2596 56.3151 12.964 56.4624 12.684 56.757C12.4196 57.0368 12.2873 57.4492 12.2873 57.9942C12.2873 58.2151 12.3184 58.4508 12.3807 58.7012C12.4429 58.9368 12.544 59.1578 12.684 59.364C12.824 59.5554 13.0029 59.7174 13.2207 59.85C13.4384 59.9678 13.7029 60.0267 14.014 60.0267C14.5118 60.0267 14.854 59.8868 15.0407 59.607C15.2273 59.3124 15.3207 58.9516 15.3207 58.5244C15.3207 58.4655 15.3129 58.414 15.2973 58.3698C15.2973 58.3109 15.2973 58.2446 15.2973 58.1709ZM26.2844 61.3081C26.0822 61.4407 25.7555 61.5733 25.3044 61.7058C24.8533 61.8236 24.3866 61.9267 23.9044 62.0151L22.9477 61.8384C22.8077 61.7942 22.5744 61.6911 22.2477 61.5291C21.9366 61.3671 21.6177 61.124 21.291 60.8C20.9644 60.4612 20.6766 60.0341 20.4277 59.5186C20.1788 58.9884 20.0544 58.3477 20.0544 57.5965C20.0544 57.3314 20.1166 57.0221 20.241 56.6686C20.381 56.3004 20.5833 55.9616 20.8477 55.6523C21.1122 55.3283 21.4388 55.0558 21.8277 54.8349C22.2322 54.614 22.6988 54.5035 23.2277 54.5035C24.2855 54.5035 25.2422 54.8275 26.0977 55.4756C26.8444 56.4477 27.2177 57.5229 27.2177 58.7012C27.2177 59.5702 26.9066 60.4391 26.2844 61.3081ZM25.141 58.1709C25.0633 57.5965 24.8688 57.1473 24.5577 56.8233C24.2622 56.4845 23.881 56.3151 23.4144 56.3151C23.1033 56.3151 22.8077 56.4624 22.5277 56.757C22.2633 57.0368 22.131 57.4492 22.131 57.9942C22.131 58.2151 22.1622 58.4508 22.2244 58.7012C22.2866 58.9368 22.3877 59.1578 22.5277 59.364C22.6677 59.5554 22.8466 59.7174 23.0644 59.85C23.2822 59.9678 23.5466 60.0267 23.8577 60.0267C24.3555 60.0267 24.6977 59.8868 24.8844 59.607C25.071 59.3124 25.1644 58.9516 25.1644 58.5244C25.1644 58.4655 25.1566 58.414 25.141 58.3698C25.141 58.3109 25.141 58.2446 25.141 58.1709ZM37.5515 59.9384C37.5671 59.9973 37.5748 60.0488 37.5748 60.093C37.5904 60.1372 37.5982 60.1888 37.5982 60.2477C37.5982 60.557 37.4971 60.8074 37.2948 60.9988C37.0926 61.1903 36.8593 61.286 36.5948 61.286C36.3615 61.286 36.1515 61.1903 35.9648 60.9988C35.7782 60.8074 35.5759 60.5643 35.3582 60.2698C35.1559 59.9752 34.9226 59.6512 34.6582 59.2977C34.3937 58.9442 34.0671 58.6054 33.6782 58.2814C33.6159 58.2225 33.4993 58.1415 33.3282 58.0384C33.1571 57.9205 32.9393 57.7733 32.6748 57.5965L32.5348 57.6628C32.5037 57.7659 32.4804 57.8911 32.4648 58.0384C32.4182 58.2888 32.3948 58.6202 32.3948 59.0326C32.3948 59.1504 32.4104 59.2829 32.4415 59.4302C32.4415 59.4597 32.4337 59.4891 32.4182 59.5186C32.4182 59.5481 32.4182 59.5849 32.4182 59.6291C32.4182 59.7616 32.4182 59.9384 32.4182 60.1593C32.4337 60.3655 32.4493 60.5717 32.4648 60.7779C32.4804 60.9694 32.4882 61.1388 32.4882 61.286C32.5037 61.4333 32.5115 61.4996 32.5115 61.4849C32.5115 61.7353 32.3948 61.9267 32.1615 62.0593C31.9282 62.1919 31.6715 62.2581 31.3915 62.2581C30.9871 62.2581 30.7148 62.074 30.5748 61.7058C30.4504 61.3376 30.3882 60.7116 30.3882 59.8279C30.3882 59.2388 30.4115 58.7085 30.4582 58.2372C30.5048 57.7512 30.5282 57.324 30.5282 56.9558V56.5802C30.5282 56.5066 30.5359 56.3814 30.5515 56.2047C30.5826 56.0279 30.6059 55.8291 30.6215 55.6081C30.6526 55.3872 30.6759 55.1663 30.6915 54.9454C30.7226 54.7097 30.7382 54.5109 30.7382 54.3488V54.1058C30.7537 54.0616 30.7771 53.8628 30.8082 53.5093C30.8393 53.1558 30.8937 52.7508 30.9715 52.2942C31.0493 51.8229 31.1426 51.3442 31.2515 50.8581C31.3759 50.3574 31.5237 49.9376 31.6948 49.5988C31.8037 49.3779 32.0448 49.2674 32.4182 49.2674C33.1182 49.2674 33.4682 49.5252 33.4682 50.0407C33.4682 50.1585 33.4371 50.3795 33.3748 50.7035C33.3126 51.0275 33.2426 51.381 33.1648 51.764C33.1026 52.1322 33.0404 52.493 32.9782 52.8465C32.9315 53.2 32.9082 53.4651 32.9082 53.6419C32.8771 53.686 32.8071 54.2384 32.6982 55.2988C32.9315 55.1515 33.1415 55.0043 33.3282 54.857C33.5304 54.695 33.7404 54.5329 33.9582 54.3709C34.1759 54.2089 34.4326 54.0395 34.7282 53.8628C35.0237 53.6713 35.3893 53.4578 35.8248 53.2221C35.8559 53.2221 35.8793 53.2221 35.8948 53.2221C35.9104 53.2074 35.9337 53.2 35.9648 53.2C36.1982 53.2 36.4315 53.3031 36.6648 53.5093C36.8982 53.7155 37.0148 53.9512 37.0148 54.2163C37.0148 54.3783 37.0071 54.4961 36.9915 54.5698C36.9759 54.6287 36.9059 54.7023 36.7815 54.7907C36.6726 54.8791 36.4859 54.9969 36.2215 55.1442C35.9571 55.2915 35.5837 55.5198 35.1015 55.8291C35.0704 55.9027 34.8137 56.0721 34.3315 56.3372C34.5182 56.4845 34.6348 56.5802 34.6815 56.6244C34.7437 56.6686 34.8215 56.7423 34.9148 56.8454C35.0082 56.9337 35.1637 57.0957 35.3815 57.3314C35.6148 57.5523 36.0037 57.9205 36.5482 58.436C36.8437 58.819 37.1782 59.3198 37.5515 59.9384ZM43.8919 51.4547C43.9231 51.5725 43.9386 51.6829 43.9386 51.786C43.9386 52.2574 43.7908 52.655 43.4953 52.9791C43.0286 53.1558 42.5619 53.2442 42.0953 53.2442C41.7997 53.0674 41.5508 52.8686 41.3486 52.6477C41.1619 52.412 41.0686 52.1837 41.0686 51.9628C41.0686 51.7713 41.3019 51.3 41.7686 50.5488C41.9708 50.5783 42.1808 50.6004 42.3986 50.6151C42.6319 50.6298 42.8419 50.6667 43.0286 50.7256C43.2308 50.7845 43.4019 50.8729 43.5419 50.9907C43.6975 51.0938 43.8142 51.2485 43.8919 51.4547ZM43.1453 55.1442V55.4314C43.1453 55.505 43.1453 55.586 43.1453 55.6744C43.1453 55.7628 43.1297 55.8438 43.0986 55.9174L42.9119 56.9116V57.1105C42.9119 57.1988 42.9042 57.3167 42.8886 57.464C42.8731 57.6112 42.8497 57.7585 42.8186 57.9058C42.8031 58.0531 42.7875 58.193 42.7719 58.3256C42.7564 58.4581 42.7486 58.5686 42.7486 58.657C42.7486 58.7306 42.7486 58.7895 42.7486 58.8337C42.7642 58.8779 42.7719 58.9368 42.7719 59.0105C42.7719 59.143 42.7564 59.2903 42.7253 59.4523C42.6942 59.5996 42.6786 59.769 42.6786 59.9605C42.6786 60.1372 42.7019 60.3213 42.7486 60.5128C42.5775 61.1756 42.2197 61.507 41.6753 61.507C40.9131 61.507 40.5319 60.8295 40.5319 59.4744C40.5319 59.0178 40.5553 58.5686 40.6019 58.1267C40.6486 57.6702 40.7031 57.2504 40.7653 56.8674C40.8275 56.4845 40.8897 56.1531 40.9519 55.8733C41.0297 55.5787 41.0919 55.3504 41.1386 55.1884C41.3719 54.8643 41.6986 54.7023 42.1186 54.7023C42.5231 54.7023 42.8653 54.8496 43.1453 55.1442ZM54.9425 59.4081V59.5849C54.9425 59.6733 54.9425 59.8353 54.9425 60.0709C54.958 60.2919 54.9347 60.5202 54.8725 60.7558C54.8258 60.9915 54.7247 61.205 54.5691 61.3965C54.4136 61.5733 54.1802 61.6616 53.8691 61.6616C53.2625 61.6616 52.9047 61.4333 52.7958 60.9767C52.8113 60.8884 52.8191 60.7926 52.8191 60.6895C52.8191 60.5717 52.8191 60.4465 52.8191 60.314C52.8191 60.255 52.8191 60.0415 52.8191 59.6733C52.8191 59.2903 52.8036 58.8779 52.7725 58.436C52.7569 57.9942 52.7102 57.5818 52.6325 57.1988C52.5547 56.8012 52.438 56.5508 52.2825 56.4477C51.9247 56.212 51.6058 56.0942 51.3258 56.0942C50.9525 56.0942 50.6336 56.2047 50.3691 56.4256C50.1202 56.6318 49.9102 57.0442 49.7391 57.6628C49.7236 57.869 49.708 58.1047 49.6925 58.3698C49.6769 58.6202 49.6536 58.9074 49.6225 59.2314C49.6225 59.4818 49.6302 59.7616 49.6458 60.0709C49.6613 60.3655 49.6847 60.7043 49.7158 61.0872C49.7158 61.3671 49.5991 61.6027 49.3658 61.7942C49.1325 61.9709 48.868 62.0593 48.5725 62.0593C48.3391 62.0593 48.1525 62.0004 48.0125 61.8826C47.8725 61.7647 47.7636 61.6101 47.6858 61.4186C47.6236 61.2271 47.5769 61.0209 47.5458 60.8C47.5302 60.5791 47.5225 60.3581 47.5225 60.1372C47.5225 59.9752 47.5302 59.8132 47.5458 59.6512C47.5613 59.4744 47.5847 59.2977 47.6158 59.1209L47.8025 57L47.9891 55.9395C47.958 55.7628 47.8958 55.5713 47.8025 55.3651C47.7091 55.1589 47.6625 54.9969 47.6625 54.8791C47.6625 54.6287 47.7636 54.4004 47.9658 54.1942C48.1836 53.988 48.448 53.8849 48.7591 53.8849C48.9769 53.8849 49.1402 53.9291 49.2491 54.0174C49.358 54.0911 49.5369 54.2826 49.7858 54.5919C50.0969 54.4593 50.3458 54.3783 50.5325 54.3488C50.7191 54.3047 50.9369 54.2826 51.1858 54.2826C51.9947 54.2826 52.7025 54.4667 53.3091 54.8349C53.9313 55.1884 54.3202 55.7849 54.4758 56.6244C54.5225 56.9337 54.5613 57.1915 54.5925 57.3977C54.6391 57.6039 54.678 57.8027 54.7091 57.9942C54.7402 58.1857 54.7713 58.3919 54.8025 58.6128C54.8336 58.819 54.8802 59.0841 54.9425 59.4081ZM66.6939 54.5256C66.7406 54.7318 66.7639 54.9895 66.7639 55.2988C66.7639 55.5492 66.7483 55.8438 66.7172 56.1826C66.6861 56.5066 66.6395 56.8674 66.5772 57.2651C66.5928 57.3093 66.6006 57.3609 66.6006 57.4198C66.6006 57.4787 66.6006 57.545 66.6006 57.6186C66.6006 57.7806 66.585 57.9721 66.5539 58.193C66.5383 58.3992 66.515 58.6423 66.4839 58.9221C66.4995 58.9957 66.5072 59.0694 66.5072 59.143C66.5072 59.2167 66.5072 59.305 66.5072 59.4081C66.5072 59.7469 66.4839 60.1667 66.4372 60.6674C66.3906 61.1682 66.3283 61.7647 66.2506 62.457C66.0328 64.1655 65.2939 65.4101 64.0339 66.1907C63.5828 66.3527 63.1317 66.4705 62.6806 66.5442C62.245 66.6326 61.8017 66.6767 61.3506 66.6767C60.7595 66.6767 59.8339 66.4337 58.5739 65.9477L57.4072 65.0198C57.1739 64.843 57.0106 64.7031 56.9172 64.6C56.8395 64.4969 56.8006 64.3717 56.8006 64.2244C56.8006 63.9151 56.8939 63.6426 57.0806 63.407C57.2672 63.186 57.5161 63.0756 57.8272 63.0756C58.0295 63.0756 58.255 63.1345 58.5039 63.2523L59.6706 64.1802C60.2306 64.5337 60.8606 64.7178 61.5606 64.7326C61.6383 64.7473 61.7395 64.7326 61.8639 64.6884C61.9883 64.6589 62.1361 64.6221 62.3072 64.5779L63.0772 64.3791C63.6372 64.0403 64.0028 63.4143 64.1739 62.5012C64.1895 62.3686 64.205 62.2066 64.2206 62.0151C64.2517 61.6616 64.2983 61.1609 64.3606 60.5128C64.2983 60.5422 64.1583 60.6012 63.9406 60.6895C63.7228 60.7632 63.4506 60.8515 63.1239 60.9547C62.8128 61.043 62.4472 61.124 62.0272 61.1977C61.6228 61.2713 61.195 61.3081 60.7439 61.3081C60.6661 61.3081 60.5806 61.2934 60.4872 61.264C60.4095 61.2198 60.3006 61.1535 60.1606 61.0651C60.0206 60.9767 59.8495 60.8589 59.6472 60.7116C59.4606 60.5643 59.2272 60.3729 58.9472 60.1372L58.3872 59.143C58.2472 58.8926 58.1461 58.6423 58.0839 58.3919C58.0372 58.1267 58.0139 57.869 58.0139 57.6186C58.0139 57.2062 58.1772 56.7938 58.5039 56.3814C58.8461 55.9543 59.2661 55.5713 59.7639 55.2326C60.2772 54.8938 60.8295 54.6213 61.4206 54.4151C62.0117 54.1942 62.5561 54.0837 63.0539 54.0837C63.2872 54.0837 63.5128 54.0985 63.7306 54.1279C63.9639 54.1574 64.3139 54.2384 64.7806 54.3709L64.8972 54.1058C65.0995 53.9733 65.3483 53.907 65.6439 53.907C66.235 53.907 66.585 54.1132 66.6939 54.5256ZM64.4772 56.3814C64.3217 56.2783 64.1428 56.2047 63.9406 56.1605C63.7539 56.1163 63.5672 56.0721 63.3806 56.0279C63.1783 56.0574 62.945 56.1016 62.6806 56.1605C62.4161 56.2047 62.1206 56.2636 61.7939 56.3372C60.7672 56.8969 60.2539 57.405 60.2539 57.8616C60.2539 58.112 60.3472 58.3624 60.5339 58.6128C60.7206 58.8484 60.985 59.0915 61.3272 59.3419C61.5606 59.3271 61.8095 59.305 62.0739 59.2756C62.3383 59.2314 62.6028 59.1651 62.8672 59.0767C63.1317 58.9884 63.3883 58.8632 63.6372 58.7012C63.8861 58.5244 64.1272 58.2888 64.3606 57.9942C64.3917 57.7438 64.415 57.5081 64.4306 57.2872C64.4617 57.0663 64.4772 56.8527 64.4772 56.6465V56.3814ZM85.2864 54.9895L84.0264 55.1C83.9642 55.1 83.8942 55.1074 83.8164 55.1221C83.7387 55.1368 83.6453 55.1516 83.5364 55.1663C83.4431 55.181 83.3342 55.1957 83.2098 55.2105L83.3964 57.2209C83.412 57.4124 83.4276 57.6481 83.4431 57.9279C83.4742 58.2078 83.5209 58.5392 83.5831 58.9221C83.5676 59.0399 83.552 59.1578 83.5364 59.2756C83.5364 59.3934 83.5364 59.526 83.5364 59.6733C83.5364 59.8942 83.5442 60.1372 83.5598 60.4023C83.5753 60.6674 83.5987 60.9547 83.6298 61.264C83.3498 61.7058 82.9531 61.9267 82.4398 61.9267C81.9731 61.9267 81.6464 61.7132 81.4598 61.286C81.4598 61.1682 81.4598 61.0283 81.4598 60.8663C81.4753 60.6895 81.4831 60.4981 81.4831 60.2919C81.4831 60.0857 81.4753 59.8647 81.4598 59.6291C81.4598 59.3787 81.4598 59.1062 81.4598 58.8116V58.7012C81.4598 58.4655 81.4442 58.2888 81.4131 58.1709C81.3976 58.0531 81.3742 57.9058 81.3431 57.7291C81.312 57.5376 81.2731 57.2725 81.2264 56.9337C81.1798 56.595 81.1331 56.0795 81.0864 55.3872L80.2231 55.5419C80.1764 55.5419 80.1298 55.5419 80.0831 55.5419C80.052 55.5271 80.0209 55.5198 79.9898 55.5198C79.912 55.5198 79.842 55.5271 79.7798 55.5419C79.7176 55.5419 79.6631 55.5419 79.6164 55.5419C79.5542 55.5566 79.4998 55.564 79.4531 55.564C78.9553 55.4461 78.7064 55.1074 78.7064 54.5477C78.7064 54.3267 78.7298 54.1574 78.7764 54.0395C78.8231 53.9217 78.9242 53.8333 79.0798 53.7744C79.2353 53.7155 79.4609 53.6713 79.7564 53.6419C80.0676 53.5977 80.472 53.5388 80.9698 53.4651C80.9542 53.2147 80.9231 52.9275 80.8764 52.6035C80.8453 52.2647 80.8298 51.9039 80.8298 51.5209C80.8298 50.9318 81.1098 50.1585 81.6698 49.2012C81.8253 49.1275 81.9731 49.0539 82.1131 48.9802C82.2687 48.9066 82.4476 48.8403 82.6498 48.7814C82.8676 48.7078 83.1164 48.6415 83.3964 48.5826C83.692 48.5089 84.0576 48.4426 84.4931 48.3837H84.5864C84.8509 48.3837 85.0531 48.4795 85.1931 48.6709C85.3487 48.8624 85.4264 49.0833 85.4264 49.3337C85.4264 49.6136 85.3564 49.8271 85.2164 49.9744C85.092 50.107 84.9287 50.2174 84.7264 50.3058C84.5242 50.3795 84.2987 50.4457 84.0498 50.5047C83.8164 50.5488 83.5987 50.6151 83.3964 50.7035C83.2098 50.7624 83.0931 50.8729 83.0464 51.0349C83.0153 51.1969 82.992 51.3589 82.9764 51.5209C82.9764 51.5504 82.9842 51.6756 82.9998 51.8965C83.0153 52.1027 83.0231 52.2868 83.0231 52.4488C83.0231 52.493 83.0153 52.5372 82.9998 52.5814C82.9998 52.6109 82.9998 52.6403 82.9998 52.6698C82.9998 52.7287 82.9998 52.8097 82.9998 52.9128C83.0153 53.0012 83.0309 53.1264 83.0464 53.2884L84.1198 53.1558C84.2287 53.1411 84.3298 53.1337 84.4231 53.1337C84.532 53.1337 84.6253 53.1337 84.7031 53.1337C85.092 53.1337 85.372 53.2 85.5431 53.3326C85.7298 53.4651 85.8231 53.6934 85.8231 54.0174C85.8231 54.5329 85.6442 54.857 85.2864 54.9895ZM94.1197 61.3081C93.9174 61.4407 93.5908 61.5733 93.1397 61.7058C92.6886 61.8236 92.2219 61.9267 91.7397 62.0151L90.783 61.8384C90.643 61.7942 90.4097 61.6911 90.083 61.5291C89.7719 61.3671 89.453 61.124 89.1263 60.8C88.7997 60.4612 88.5119 60.0341 88.263 59.5186C88.0141 58.9884 87.8897 58.3477 87.8897 57.5965C87.8897 57.3314 87.9519 57.0221 88.0763 56.6686C88.2163 56.3004 88.4186 55.9616 88.683 55.6523C88.9474 55.3283 89.2741 55.0558 89.663 54.8349C90.0674 54.614 90.5341 54.5035 91.063 54.5035C92.1208 54.5035 93.0774 54.8275 93.933 55.4756C94.6797 56.4477 95.053 57.5229 95.053 58.7012C95.053 59.5702 94.7419 60.4391 94.1197 61.3081ZM92.9763 58.1709C92.8986 57.5965 92.7041 57.1473 92.393 56.8233C92.0974 56.4845 91.7163 56.3151 91.2497 56.3151C90.9386 56.3151 90.643 56.4624 90.363 56.757C90.0986 57.0368 89.9663 57.4492 89.9663 57.9942C89.9663 58.2151 89.9974 58.4508 90.0597 58.7012C90.1219 58.9368 90.223 59.1578 90.363 59.364C90.503 59.5554 90.6819 59.7174 90.8997 59.85C91.1174 59.9678 91.3819 60.0267 91.693 60.0267C92.1908 60.0267 92.533 59.8868 92.7197 59.607C92.9063 59.3124 92.9997 58.9516 92.9997 58.5244C92.9997 58.4655 92.9919 58.414 92.9763 58.3698C92.9763 58.3109 92.9763 58.2446 92.9763 58.1709ZM104.313 54.3488C104.562 54.4961 104.687 54.776 104.687 55.1884C104.687 55.4977 104.601 55.7628 104.43 55.9837C104.259 56.2047 104.025 56.3151 103.73 56.3151C103.543 56.3151 103.349 56.2709 103.147 56.1826C102.96 56.0795 102.758 56.0279 102.54 56.0279C102.353 56.0279 102.167 56.0647 101.98 56.1384C101.809 56.1973 101.607 56.3372 101.373 56.5581L100.673 57.2209C100.673 57.324 100.673 57.4271 100.673 57.5302C100.689 57.6333 100.697 57.7438 100.697 57.8616C100.697 58.0384 100.689 58.2225 100.673 58.414C100.673 58.6054 100.665 58.8116 100.65 59.0326L100.86 61.043C100.813 61.7205 100.448 62.0593 99.7632 62.0593C99.4054 62.0593 99.141 61.9562 98.9699 61.75C98.7988 61.5291 98.6821 61.2271 98.6199 60.8442C98.5577 60.4612 98.5266 60.012 98.5266 59.4965C98.5421 58.981 98.5421 58.414 98.5266 57.7954C98.4954 56.8674 98.4721 56.4035 98.4566 56.4035V56.4256C98.3943 56.2047 98.3477 56.0132 98.3166 55.8512C98.2854 55.6744 98.2699 55.5198 98.2699 55.3872C98.2699 55.1221 98.371 54.9085 98.5732 54.7465C98.7754 54.5698 99.071 54.4814 99.4599 54.4814C99.7088 54.4814 100.004 54.6655 100.347 55.0337C100.704 54.7686 100.977 54.5698 101.163 54.4372C101.365 54.3047 101.529 54.2089 101.653 54.15C101.793 54.0911 101.925 54.0616 102.05 54.0616C102.174 54.0469 102.338 54.0395 102.54 54.0395C102.711 54.0248 102.867 54.0322 103.007 54.0616C103.162 54.0911 103.325 54.1205 103.497 54.15L104.313 54.3488ZM36.173 87.238C36.453 87.4147 36.593 87.6283 36.593 87.8787C36.593 88.0112 36.5542 88.1512 36.4764 88.2985C36.3986 88.431 36.2975 88.5562 36.173 88.674C36.0486 88.7771 35.9164 88.8655 35.7764 88.9391C35.6364 89.0128 35.4964 89.0496 35.3564 89.0496C35.2319 89.0054 35.0842 88.9318 34.913 88.8287C34.7419 88.7109 34.5708 88.5857 34.3997 88.4531C34.2286 88.3058 34.0653 88.1438 33.9097 87.9671C33.7697 87.7903 33.6608 87.6136 33.583 87.4368L33.4197 87.8124C33.1242 88.3426 32.6575 88.8434 32.0197 89.3147C31.2419 89.4473 30.7908 89.5136 30.6664 89.5136C30.3708 89.5136 30.013 89.4694 29.593 89.381L28.3097 88.5194C27.7497 88.0186 27.4697 87.3337 27.4697 86.4647C27.4697 86.1554 27.5164 85.8167 27.6097 85.4485C27.7186 85.0655 27.8664 84.6826 28.053 84.2996C28.2553 83.9167 28.4964 83.5411 28.7764 83.1729C29.0564 82.8047 29.383 82.4733 29.7564 82.1787C30.2075 82.0167 30.643 81.8841 31.063 81.781C31.483 81.6632 31.8019 81.5895 32.0197 81.5601C32.3153 81.2508 32.6653 81.0961 33.0697 81.0961C33.303 81.0961 33.5053 81.2066 33.6764 81.4275C33.863 81.6337 34.0186 81.8988 34.143 82.2229C34.283 82.5469 34.3919 82.9078 34.4697 83.3054C34.5475 83.6884 34.6019 84.0566 34.633 84.4101L34.9364 85.581C35.0297 85.9492 35.1775 86.2659 35.3797 86.531C35.5975 86.7961 35.8619 87.0318 36.173 87.238ZM32.6264 84.7857C32.5953 84.7709 32.4786 84.307 32.2764 83.3938C32.1986 83.3938 32.0819 83.3938 31.9264 83.3938C31.7708 83.3938 31.5842 83.438 31.3664 83.5264C31.1642 83.6 30.9386 83.7399 30.6897 83.9461C30.4564 84.1376 30.2308 84.4322 30.013 84.8298C29.6864 85.4043 29.523 85.9787 29.523 86.5531C29.7875 87.0391 30.1997 87.4221 30.7597 87.7019C30.9308 87.6578 31.0708 87.6062 31.1797 87.5473C31.3042 87.4884 31.413 87.4074 31.5064 87.3043C31.5997 87.2012 31.6853 87.076 31.763 86.9287C31.8564 86.7667 31.9575 86.5678 32.0664 86.3322C32.2686 85.9934 32.4086 85.6988 32.4864 85.4485C32.5797 85.1833 32.6264 84.9624 32.6264 84.7857ZM51.1471 79.5054L51.2171 80.3008V80.4775C51.2171 80.8752 51.0615 81.1771 50.7504 81.3833C50.4548 81.5748 50.0815 81.7074 49.6304 81.781C49.5682 81.7663 49.4671 81.7295 49.3271 81.6705C49.2026 81.5969 49.0704 81.5085 48.9304 81.4054C48.7904 81.3023 48.6659 81.1845 48.5571 81.0519C48.4637 80.9194 48.4171 80.7721 48.4171 80.6101C48.4171 80.1093 48.5259 79.7264 48.7437 79.4612C48.9615 79.1961 49.2337 79.0636 49.5604 79.0636C49.7626 79.0636 50.0037 79.1151 50.2837 79.2182L51.1471 79.5054ZM51.5437 87.238V87.5915C51.5437 87.9302 51.5282 88.3426 51.4971 88.8287C51.4815 89.3 51.4348 89.8597 51.3571 90.5078C51.0459 91.907 50.5637 92.8938 49.9104 93.4682C49.2571 94.0574 48.4171 94.3519 47.3904 94.3519C47.2037 94.3519 47.0093 94.3372 46.8071 94.3078C46.5893 94.293 46.3871 94.2488 46.2004 94.1752C46.0137 94.1163 45.8659 94.0205 45.7571 93.888C45.6326 93.7554 45.5704 93.5861 45.5704 93.3798C45.5704 93.1 45.6715 92.8422 45.8737 92.6066C46.0604 92.3857 46.2859 92.2752 46.5504 92.2752C46.6437 92.2752 46.7526 92.2899 46.8771 92.3194C47.0015 92.3636 47.1259 92.3857 47.2504 92.3857C47.9504 92.3857 48.4871 92.069 48.8604 91.4357C49.2493 90.8023 49.4437 89.9039 49.4437 88.7403V88.4531C49.4593 88.3647 49.4671 88.2616 49.4671 88.1438C49.4671 88.026 49.4671 87.886 49.4671 87.724C49.4671 87.238 49.4437 86.8698 49.3971 86.6194C49.3659 86.3543 49.3659 86.2217 49.3971 86.2217C49.3504 86.0008 49.2959 85.7357 49.2337 85.4264C49.1871 85.1023 49.1326 84.7341 49.0704 84.3217C49.2259 83.7031 49.5448 83.3938 50.0271 83.3938C50.3848 83.3938 50.6493 83.4748 50.8204 83.6368C51.0071 83.7988 51.1393 84.0419 51.2171 84.3659C51.3104 84.6752 51.3726 85.0729 51.4037 85.5589C51.4348 86.045 51.4815 86.6047 51.5437 87.238ZM61.5692 89.2926C61.367 89.4252 61.0403 89.5578 60.5892 89.6903C60.1381 89.8081 59.6714 89.9112 59.1892 89.9996L58.2325 89.8229C58.0925 89.7787 57.8592 89.6756 57.5325 89.5136C57.2214 89.3516 56.9025 89.1085 56.5759 88.7845C56.2492 88.4457 55.9614 88.0186 55.7125 87.5031C55.4636 86.9729 55.3392 86.3322 55.3392 85.581C55.3392 85.3159 55.4014 85.0066 55.5259 84.6531C55.6659 84.2849 55.8681 83.9461 56.1325 83.6368C56.397 83.3128 56.7236 83.0403 57.1125 82.8194C57.517 82.5985 57.9836 82.488 58.5125 82.488C59.5703 82.488 60.527 82.812 61.3825 83.4601C62.1292 84.4322 62.5025 85.5074 62.5025 86.6857C62.5025 87.5547 62.1914 88.4236 61.5692 89.2926ZM60.4259 86.1554C60.3481 85.581 60.1536 85.1318 59.8425 84.8078C59.547 84.469 59.1659 84.2996 58.6992 84.2996C58.3881 84.2996 58.0925 84.4469 57.8125 84.7415C57.5481 85.0213 57.4159 85.4337 57.4159 85.9787C57.4159 86.1996 57.447 86.4353 57.5092 86.6857C57.5714 86.9213 57.6725 87.1422 57.8125 87.3485C57.9525 87.5399 58.1314 87.7019 58.3492 87.8345C58.567 87.9523 58.8314 88.0112 59.1425 88.0112C59.6403 88.0112 59.9825 87.8713 60.1692 87.5915C60.3559 87.2969 60.4492 86.936 60.4492 86.5089C60.4492 86.45 60.4414 86.3985 60.4259 86.3543C60.4259 86.2954 60.4259 86.2291 60.4259 86.1554ZM72.813 83.4822C73.1863 84.1744 73.373 84.8078 73.373 85.3822C73.373 85.8093 73.2719 86.2438 73.0697 86.6857L72.5797 87.7461L71.8563 88.4752C71.3585 88.9907 70.8685 89.3295 70.3863 89.4915C69.9041 89.6388 69.5152 89.7124 69.2197 89.7124C68.8463 89.7124 68.4652 89.6019 68.0763 89.381C67.8741 89.543 67.6485 89.624 67.3997 89.624C67.1197 89.624 66.7852 89.5209 66.3963 89.3147C66.4119 89.1674 66.4197 89.0054 66.4197 88.8287C66.4197 88.6519 66.4197 88.4605 66.4197 88.2543C66.4197 88.1364 66.4119 88.026 66.3963 87.9229C66.3808 87.8198 66.3652 87.6872 66.3497 87.5252C66.3341 87.3484 66.3185 87.1202 66.303 86.8403C66.2874 86.5605 66.2719 86.1922 66.2563 85.7357C66.2408 85.2643 66.2097 84.8961 66.163 84.631C66.1163 84.3512 66.0697 84.1744 66.023 84.1008C65.9452 83.6 65.8752 83.0919 65.813 82.5764C65.7508 82.0609 65.6885 81.5822 65.6263 81.1403C65.5641 80.6837 65.5019 80.2787 65.4397 79.9252C65.3774 79.5717 65.3152 79.3066 65.253 79.1298C65.253 78.7911 65.3385 78.5039 65.5097 78.2682C65.6808 78.0326 65.9141 77.9147 66.2097 77.9147C66.3652 77.9147 66.513 77.9368 66.653 77.981C66.793 78.0252 66.9174 78.1136 67.0263 78.2461C67.1508 78.3787 67.2597 78.5628 67.353 78.7985C67.4463 79.0341 67.5163 79.3434 67.563 79.7264C67.6097 80.0946 67.6408 80.3523 67.6563 80.4996C67.6874 80.6469 67.7108 80.7942 67.7263 80.9415C67.7574 81.0888 67.7885 81.295 67.8197 81.5601C67.8508 81.8252 67.9052 82.2597 67.983 82.8636C68.263 82.7163 68.5041 82.5985 68.7063 82.5101C68.9241 82.407 69.1263 82.326 69.313 82.2671C69.4997 82.2081 69.6863 82.1713 69.873 82.1566C70.0752 82.1419 70.3085 82.1345 70.573 82.1345C70.8685 82.1345 71.133 82.1787 71.3663 82.2671C71.6152 82.3554 71.8252 82.4659 71.9963 82.5985C72.183 82.731 72.3385 82.8783 72.463 83.0403C72.603 83.1876 72.7197 83.3349 72.813 83.4822ZM71.1797 86.0891C71.2574 85.6767 71.2963 85.4043 71.2963 85.2717C71.2963 85.1981 71.273 85.095 71.2263 84.9624C71.1797 84.8151 71.1097 84.6752 71.0163 84.5426C70.9385 84.4101 70.8374 84.2922 70.713 84.1891C70.5885 84.086 70.4408 84.0345 70.2697 84.0345C70.0052 84.0345 69.7019 84.1302 69.3597 84.3217C69.0174 84.5132 68.6752 84.7047 68.333 84.8961L68.473 87.238C68.5819 87.6062 68.7841 87.7903 69.0797 87.7903C69.2352 87.7903 69.4219 87.7461 69.6397 87.6578C69.8574 87.5694 70.0674 87.4516 70.2697 87.3043C70.4874 87.1423 70.6819 86.9581 70.853 86.7519C71.0241 86.5457 71.133 86.3248 71.1797 86.0891ZM85.0134 79.9252C84.9046 80.3229 84.7957 80.6837 84.6868 81.0078C84.5934 81.3171 84.469 81.6043 84.3134 81.8694C84.1579 82.1198 83.9634 82.3628 83.7301 82.5985C83.5123 82.8194 83.2323 83.0403 82.8901 83.2612C82.4234 83.5558 82.0734 83.8062 81.8401 84.0124C81.6223 84.2186 81.4668 84.4027 81.3734 84.5647C81.2957 84.7267 81.2568 84.8814 81.2568 85.0287C81.2723 85.1612 81.2723 85.3012 81.2568 85.4485C81.1168 85.9345 80.7512 86.1775 80.1601 86.1775C79.7557 86.1775 79.4912 86.0523 79.3668 85.8019C79.2579 85.5368 79.2034 85.2643 79.2034 84.9845C79.2034 84.7783 79.2346 84.55 79.2968 84.2996C79.359 84.0492 79.4601 83.8062 79.6001 83.5705C79.7401 83.3202 79.9268 83.0771 80.1601 82.8415C80.3934 82.6058 80.6812 82.3996 81.0234 82.2229C81.5679 81.9283 81.9646 81.6337 82.2134 81.3391C82.2757 81.2802 82.509 80.8016 82.9134 79.9031C82.8823 79.5938 82.7968 79.3434 82.6568 79.1519C82.5168 78.9457 82.3534 78.7911 82.1668 78.688C81.9801 78.5702 81.7857 78.4891 81.5834 78.445C81.3968 78.4008 81.249 78.3787 81.1401 78.3787C80.9223 78.3787 80.7201 78.4008 80.5334 78.445C80.3468 78.4744 80.1601 78.5554 79.9734 78.688C79.8023 78.8058 79.6234 78.9899 79.4368 79.2403C79.2657 79.476 79.079 79.7926 78.8768 80.1903C78.7057 80.4112 78.4568 80.5217 78.1301 80.5217C77.8346 80.5217 77.5704 80.426 77.3371 80.2345C77.1038 80.043 76.9871 79.7779 76.9871 79.4392C77.2515 78.7322 77.5704 78.1798 77.9434 77.7822C78.3323 77.3845 78.7212 77.0826 79.1101 76.8764C79.5146 76.6702 79.9034 76.545 80.2768 76.5008C80.6501 76.4419 80.9534 76.4124 81.1868 76.4124C81.8868 76.4124 82.4546 76.5081 82.8901 76.6996C83.3257 76.8911 83.6834 77.1488 83.9634 77.4729C84.2434 77.7822 84.4534 78.1504 84.5934 78.5775C84.749 79.0047 84.889 79.4539 85.0134 79.9252ZM81.4901 89.4031C81.4901 89.5357 81.4434 89.6682 81.3501 89.8008C81.2723 89.9333 81.1634 90.0438 81.0234 90.1322C80.899 90.2353 80.7512 90.3163 80.5801 90.3752C80.4246 90.4488 80.2768 90.4857 80.1368 90.4857C79.7634 90.4857 79.4601 90.4341 79.2268 90.331C78.9934 90.2426 78.8146 90.1248 78.6901 89.9775C78.5812 89.8302 78.5034 89.6756 78.4568 89.5136C78.4257 89.3368 78.4101 89.1748 78.4101 89.0275C78.4101 88.6593 78.5423 88.3132 78.8068 87.9892C79.0712 87.6504 79.4134 87.481 79.8334 87.481C79.9734 87.481 80.1368 87.4957 80.3234 87.5252C80.5257 87.5547 80.7123 87.6357 80.8834 87.7682C81.0546 87.9008 81.1946 88.0996 81.3034 88.3647C81.4279 88.6151 81.4901 88.9612 81.4901 89.4031Z" fill="white"/>
<path d="M76.2967 8.20844L72.4845 16.156C72.3581 16.4177 72.34 16.7146 72.4335 16.9883C72.527 17.262 72.7254 17.4927 72.9895 17.6347C73.2538 17.7768 73.5646 17.82 73.8607 17.7559C74.1568 17.6918 74.4169 17.525 74.5897 17.2883L74.6979 17.1097L79.7634 6.53392L79.8171 6.34266L79.8311 6.20017L79.8249 6.03506L79.8194 5.98792C79.8062 5.90684 79.7844 5.82729 79.7541 5.75065L79.8054 5.91413L79.786 5.84491L79.7137 5.66177L79.6056 5.48861L79.5068 5.36905L79.3504 5.23765L79.1653 5.1313L68.0536 0.349251C67.7773 0.229711 67.4637 0.212511 67.1746 0.30104C66.8855 0.389568 66.642 0.577405 66.4919 0.827532C66.3419 1.07765 66.2962 1.37193 66.364 1.65236C66.4316 1.93279 66.6079 2.17902 66.8578 2.34255L67.0496 2.44646L75.4416 6.05171L65.6736 9.52578C57.6592 12.3741 53.9698 18.5426 56.1234 24.7018L56.291 25.151C56.4044 25.4367 56.6329 25.6681 56.9263 25.7943C57.2198 25.9205 57.5542 25.9312 57.8559 25.8239C58.1576 25.7167 58.4021 25.5004 58.5353 25.2225C58.6686 24.9446 58.6799 24.628 58.5666 24.3423C56.6252 19.445 59.344 14.4695 65.9349 11.9009L66.5278 11.6803L76.2967 8.20844Z" fill="white"/>
</g>
<defs>
<clipPath id="clip0_1_3">
<rect width="105" height="95" fill="white"/>
</clipPath>
</defs>
</svg>
