<svg width="21" height="21" viewBox="0 0 21 21" fill="none" xmlns="http://www.w3.org/2000/svg">
<path d="M14.0123 8.31005C14.2792 8.04314 14.6356 7.8847 15.0126 7.86535C15.3896 7.846 15.7604 7.96713 16.0533 8.20531L16.1692 8.31005L18.3272 10.467C19.4613 11.5944 20.1075 13.1219 20.1268 14.7209C20.146 16.3199 19.5368 17.8626 18.4301 19.017C17.3235 20.1713 15.8079 20.8451 14.2095 20.8933C12.6111 20.9415 11.0577 20.3603 9.88344 19.2748L9.69734 19.0968L7.54039 16.9389C7.26495 16.6622 7.10609 16.2904 7.09654 15.9C7.08698 15.5097 7.22746 15.1306 7.48904 14.8407C7.75061 14.5509 8.11337 14.3724 8.50262 14.3419C8.89187 14.3115 9.27797 14.4315 9.58141 14.6772L9.69734 14.7819L11.8553 16.9389C12.4158 17.4953 13.1703 17.8126 13.96 17.8241C14.7497 17.8356 15.5131 17.5405 16.0897 17.0007C16.6662 16.4609 17.011 15.7185 17.0514 14.9298C17.0918 14.141 16.8248 13.3673 16.3065 12.7714L16.1692 12.625L14.0123 10.467C13.7263 10.1809 13.5656 9.79301 13.5656 9.38853C13.5656 8.98404 13.7263 8.59611 14.0123 8.31005ZM6.82141 7.59107C7.08836 7.32416 7.44479 7.16572 7.82178 7.14637C8.19878 7.12702 8.56956 7.24815 8.86243 7.48632L8.97836 7.59107L13.2933 11.906C13.5707 12.1824 13.7311 12.5549 13.7415 12.9463C13.7518 13.3377 13.6112 13.7182 13.3488 14.0088C13.0864 14.2995 12.7222 14.4781 12.3318 14.5076C11.9413 14.5372 11.5544 14.4155 11.2512 14.1677L11.1353 14.0629L6.82141 9.74802C6.53544 9.46196 6.37479 9.07403 6.37479 8.66954C6.37479 8.26505 6.53544 7.87713 6.82141 7.59107ZM1.78751 2.55717C2.90029 1.44458 4.39988 0.804905 5.97311 0.771742C7.54633 0.73858 9.07155 1.31449 10.2302 2.3792L10.4173 2.55717L12.5733 4.71514C12.8487 4.99185 13.0076 5.36365 13.0171 5.75396C13.0267 6.14428 12.8862 6.52341 12.6246 6.81326C12.3631 7.10312 12.0003 7.28165 11.611 7.31208C11.2218 7.3425 10.8357 7.22252 10.5323 6.97683L10.4163 6.87208L8.26039 4.71514C7.70056 4.15543 6.94509 3.83525 6.15356 3.82222C5.36203 3.80919 4.59643 4.10435 4.01849 4.64533C3.44054 5.18631 3.0955 5.93076 3.05626 6.72142C3.01702 7.51209 3.28665 8.28704 3.80819 8.88259L3.94548 9.02903L6.10141 11.187C6.37685 11.4637 6.53571 11.8355 6.54526 12.2258C6.55482 12.6161 6.41434 12.9953 6.15277 13.2851C5.89119 13.575 5.52843 13.7535 5.13918 13.7839C4.74993 13.8144 4.36383 13.6944 4.06039 13.4487L3.94548 13.3439L1.78751 11.187C1.22081 10.6204 0.771267 9.9477 0.464563 9.20734C0.157859 8.46698 0 7.67346 0 6.87208C0 6.07071 0.157859 5.27719 0.464563 4.53683C0.771267 3.79647 1.22081 3.12378 1.78751 2.55717Z" fill="#CCF5C6"/>
</svg>
