<svg width="18" height="23" viewBox="0 0 18 23" fill="none" xmlns="http://www.w3.org/2000/svg">
<path d="M8.95617 0C6.58171 0.002801 4.30531 0.947293 2.62631 2.62629C0.947305 4.30529 0.00281073 6.5817 9.5291e-06 8.95617C-0.00283447 10.8966 0.630997 12.7844 1.80428 14.3299C1.80428 14.3299 2.04853 14.6515 2.08843 14.6979L8.95617 22.7976L15.8272 14.6939C15.8631 14.6507 16.1081 14.3299 16.1081 14.3299L16.1089 14.3275C17.2816 12.7826 17.9152 10.8957 17.9124 8.95617C17.9096 6.5817 16.9651 4.30529 15.2861 2.62629C13.6071 0.947293 11.3307 0.002801 8.95617 0ZM8.95617 12.213C8.31204 12.213 7.68239 12.022 7.14681 11.6641C6.61123 11.3063 6.1938 10.7976 5.9473 10.2025C5.7008 9.60736 5.63631 8.95255 5.76197 8.3208C5.88764 7.68904 6.19782 7.10874 6.65329 6.65327C7.10876 6.1978 7.68906 5.88762 8.32082 5.76196C8.95257 5.63629 9.6074 5.70079 10.2025 5.94729C10.7976 6.19378 11.3063 6.61122 11.6641 7.14679C12.022 7.68237 12.213 8.31203 12.213 8.95617C12.2119 9.81956 11.8685 10.6474 11.2579 11.2579C10.6474 11.8684 9.8196 12.2119 8.95617 12.213Z" fill="#CCF5C6"/>
</svg>
