<svg width="24" height="25" viewBox="0 0 24 25" fill="none" xmlns="http://www.w3.org/2000/svg">
<mask id="mask0_1_5" style="mask-type:alpha" maskUnits="userSpaceOnUse" x="0" y="0" width="24" height="25">
<rect y="0.537109" width="24" height="24" fill="#D9D9D9"/>
</mask>
<g mask="url(#mask0_1_5)">
<path d="M6 22.5371C5.45 22.5371 4.97917 22.3413 4.5875 21.9496C4.19583 21.5579 4 21.0871 4 20.5371V10.5371C4 9.98711 4.19583 9.51628 4.5875 9.12461C4.97917 8.73294 5.45 8.53711 6 8.53711H7V6.53711C7 5.15378 7.4875 3.97461 8.4625 2.99961C9.4375 2.02461 10.6167 1.53711 12 1.53711C13.3833 1.53711 14.5625 2.02461 15.5375 2.99961C16.5125 3.97461 17 5.15378 17 6.53711V8.53711H18C18.55 8.53711 19.0208 8.73294 19.4125 9.12461C19.8042 9.51628 20 9.98711 20 10.5371V20.5371C20 21.0871 19.8042 21.5579 19.4125 21.9496C19.0208 22.3413 18.55 22.5371 18 22.5371H6ZM12 17.5371C12.55 17.5371 13.0208 17.3413 13.4125 16.9496C13.8042 16.5579 14 16.0871 14 15.5371C14 14.9871 13.8042 14.5163 13.4125 14.1246C13.0208 13.7329 12.55 13.5371 12 13.5371C11.45 13.5371 10.9792 13.7329 10.5875 14.1246C10.1958 14.5163 10 14.9871 10 15.5371C10 16.0871 10.1958 16.5579 10.5875 16.9496C10.9792 17.3413 11.45 17.5371 12 17.5371ZM9 8.53711H15V6.53711C15 5.70378 14.7083 4.99544 14.125 4.41211C13.5417 3.82878 12.8333 3.53711 12 3.53711C11.1667 3.53711 10.4583 3.82878 9.875 4.41211C9.29167 4.99544 9 5.70378 9 6.53711V8.53711Z" fill="black"/>
</g>
</svg>
