<svg width="30" height="30" viewBox="0 0 30 30" fill="none" xmlns="http://www.w3.org/2000/svg">
<g clip-path="url(#clip0_29_1160)">
<path fill-rule="evenodd" clip-rule="evenodd" d="M15 2.5C16.3637 2.5 17.6462 2.865 18.75 3.505C18.8994 3.58314 19.0314 3.6907 19.1381 3.82119C19.2449 3.95168 19.3241 4.10242 19.3711 4.26433C19.4181 4.42624 19.4318 4.59598 19.4115 4.76333C19.3911 4.93069 19.3372 5.0922 19.2528 5.23816C19.1684 5.38412 19.0554 5.5115 18.9205 5.61264C18.7857 5.71379 18.6317 5.78661 18.468 5.82671C18.3042 5.86682 18.1341 5.87339 17.9677 5.84603C17.8014 5.81867 17.6423 5.75794 17.5 5.6675C16.7397 5.22856 15.8773 4.99752 14.9994 4.99763C14.1215 4.99773 13.2591 5.22897 12.499 5.66809C11.7388 6.10722 11.1077 6.73874 10.669 7.49917C10.2303 8.25959 9.99958 9.12212 10 10L23.75 10.0013C24.413 10.0013 25.0489 10.2646 25.5178 10.7335C25.9866 11.2023 26.25 11.8382 26.25 12.5013V25.0012C26.25 25.6643 25.9866 26.3002 25.5178 26.769C25.0489 27.2379 24.413 27.5012 23.75 27.5012H6.25C5.58696 27.5012 4.95107 27.2379 4.48223 26.769C4.01339 26.3002 3.75 25.6643 3.75 25.0012V12.5C3.75 11.837 4.01339 11.2011 4.48223 10.7322C4.95107 10.2634 5.58696 10 6.25 10H7.5C7.5 8.01088 8.29018 6.10322 9.6967 4.6967C11.1032 3.29018 13.0109 2.5 15 2.5ZM15 15C14.4497 15 13.9148 15.1816 13.4782 15.5166C13.0416 15.8517 12.7277 16.3214 12.5853 16.8529C12.4429 17.3845 12.4798 17.9482 12.6904 18.4566C12.901 18.9651 13.2734 19.3898 13.75 19.665V21.25C13.75 21.5815 13.8817 21.8995 14.1161 22.1339C14.3505 22.3683 14.6685 22.5 15 22.5C15.3315 22.5 15.6495 22.3683 15.8839 22.1339C16.1183 21.8995 16.25 21.5815 16.25 21.25V19.665C16.7266 19.3898 17.099 18.9651 17.3096 18.4566C17.5202 17.9482 17.5571 17.3845 17.4147 16.8529C17.2723 16.3214 16.9584 15.8517 16.5218 15.5166C16.0852 15.1816 15.5503 15 15 15ZM24.8975 6.27625L26.105 6.60125C26.4129 6.69763 26.6716 6.90932 26.827 7.19203C26.9824 7.47475 27.0225 7.8066 26.9388 8.11819C26.8552 8.42977 26.6543 8.69696 26.3783 8.86387C26.1022 9.03078 25.7723 9.08448 25.4575 9.01375L24.2512 8.69125C23.9324 8.60432 23.6609 8.39465 23.4962 8.10809C23.3315 7.82152 23.2871 7.48141 23.3725 7.16213C23.4579 6.84285 23.6663 6.57041 23.9521 6.40439C24.2379 6.23837 24.5778 6.1923 24.8975 6.27625ZM23.2912 2.6125C23.4498 2.655 23.5985 2.72832 23.7287 2.82828C23.859 2.92823 23.9682 3.05287 24.0503 3.19506C24.1324 3.33726 24.1856 3.49423 24.207 3.657C24.2284 3.81978 24.2175 3.98518 24.175 4.14375L24.0138 4.74625C23.9719 4.90549 23.8991 5.05491 23.7993 5.18591C23.6996 5.31691 23.575 5.42692 23.4326 5.50962C23.2903 5.59232 23.133 5.64608 22.9698 5.66782C22.8065 5.68955 22.6407 5.67883 22.4816 5.63627C22.3226 5.59371 22.1735 5.52015 22.043 5.41981C21.9124 5.31947 21.803 5.19433 21.721 5.05159C21.6389 4.90884 21.5859 4.75129 21.5649 4.58798C21.544 4.42468 21.5554 4.25885 21.5987 4.1L21.7612 3.49625C21.8471 3.17626 22.0565 2.90343 22.3433 2.73772C22.6302 2.57201 22.9712 2.52697 23.2912 2.6125Z" fill="#EBFFFE"/>
</g>
<defs>
<clipPath id="clip0_29_1160">
<rect width="30" height="30" fill="white"/>
</clipPath>
</defs>
</svg>
