<svg width="139" height="121" viewBox="0 0 139 121" fill="none" xmlns="http://www.w3.org/2000/svg">
<path d="M11.3408 23.31C11.9208 23.43 12.2108 23.88 12.2108 24.66C12.2108 25.08 12.1108 25.41 11.9108 25.65C11.7108 25.89 11.4508 26.01 11.1308 26.01C11.0308 26.01 10.8408 26 10.5608 25.98C10.2808 25.94 9.98078 25.91 9.66078 25.89C9.34078 25.85 9.03078 25.82 8.73078 25.8C8.43078 25.76 8.22078 25.74 8.10078 25.74C7.98078 25.74 7.87078 25.74 7.77078 25.74C7.67078 25.74 7.57078 25.75 7.47078 25.77C7.13078 25.75 6.73078 25.71 6.27078 25.65C5.83078 25.57 5.39078 25.49 4.95078 25.41C4.53078 25.31 4.15078 25.21 3.81078 25.11C3.49078 25.01 3.30078 24.92 3.24078 24.84C3.04078 24.24 2.94078 23.44 2.94078 22.44C2.94078 22.28 2.94078 22.12 2.94078 21.96C2.94078 21.78 2.95078 21.6 2.97078 21.42L3.15078 19.29C3.17078 19.13 3.18078 18.98 3.18078 18.84C3.18078 18.68 3.18078 18.54 3.18078 18.42C3.18078 18.26 3.18078 18.13 3.18078 18.03C3.18078 17.91 3.16078 17.8 3.12078 17.7C3.26078 16.94 3.36078 16.31 3.42078 15.81C3.48078 15.29 3.51078 14.89 3.51078 14.61V14.37C3.51078 14.09 3.63078 13.2 3.87078 11.7C4.17078 11.06 4.63078 10.74 5.25078 10.74C5.63078 10.74 5.95078 10.89 6.21078 11.19C6.47078 11.47 6.60078 11.86 6.60078 12.36C6.52078 12.64 6.44078 12.99 6.36078 13.41C6.30078 13.83 6.24078 14.33 6.18078 14.91V15.15C6.18078 15.33 6.16078 15.61 6.12078 15.99C6.10078 16.35 6.07078 16.73 6.03078 17.13C5.99078 17.51 5.95078 17.86 5.91078 18.18C5.89078 18.48 5.88078 18.65 5.88078 18.69C5.88078 18.91 5.89078 19.05 5.91078 19.11C5.83078 19.95 5.77078 20.65 5.73078 21.21C5.69078 21.77 5.67078 22.2 5.67078 22.5C5.67078 22.7 5.68078 22.83 5.70078 22.89C6.74078 23.01 7.43078 23.07 7.77078 23.07C7.93078 23.07 8.09078 23.07 8.25078 23.07C8.43078 23.05 8.61078 23.04 8.79078 23.04C9.55078 23.04 10.4008 23.13 11.3408 23.31ZM23.4388 26.25C23.1788 26.43 22.7588 26.61 22.1788 26.79C21.5988 26.95 20.9988 27.09 20.3788 27.21L19.1488 26.97C18.9688 26.91 18.6688 26.77 18.2488 26.55C17.8488 26.33 17.4388 26 17.0188 25.56C16.5988 25.1 16.2288 24.52 15.9088 23.82C15.5888 23.1 15.4288 22.23 15.4288 21.21C15.4288 20.85 15.5088 20.43 15.6688 19.95C15.8488 19.45 16.1088 18.99 16.4488 18.57C16.7888 18.13 17.2088 17.76 17.7088 17.46C18.2288 17.16 18.8288 17.01 19.5088 17.01C20.8688 17.01 22.0988 17.45 23.1988 18.33C24.1588 19.65 24.6388 21.11 24.6388 22.71C24.6388 23.89 24.2388 25.07 23.4388 26.25ZM21.9688 21.99C21.8688 21.21 21.6188 20.6 21.2188 20.16C20.8388 19.7 20.3488 19.47 19.7488 19.47C19.3488 19.47 18.9688 19.67 18.6088 20.07C18.2688 20.45 18.0988 21.01 18.0988 21.75C18.0988 22.05 18.1388 22.37 18.2188 22.71C18.2988 23.03 18.4288 23.33 18.6088 23.61C18.7888 23.87 19.0188 24.09 19.2988 24.27C19.5788 24.43 19.9188 24.51 20.3188 24.51C20.9588 24.51 21.3988 24.32 21.6387 23.94C21.8788 23.54 21.9988 23.05 21.9988 22.47C21.9988 22.39 21.9888 22.32 21.9688 22.26C21.9688 22.18 21.9688 22.09 21.9688 21.99ZM36.095 26.25C35.835 26.43 35.415 26.61 34.835 26.79C34.255 26.95 33.655 27.09 33.035 27.21L31.805 26.97C31.625 26.91 31.325 26.77 30.905 26.55C30.505 26.33 30.095 26 29.675 25.56C29.255 25.1 28.885 24.52 28.565 23.82C28.245 23.1 28.085 22.23 28.085 21.21C28.085 20.85 28.165 20.43 28.325 19.95C28.505 19.45 28.765 18.99 29.105 18.57C29.445 18.13 29.865 17.76 30.365 17.46C30.885 17.16 31.485 17.01 32.165 17.01C33.525 17.01 34.755 17.45 35.855 18.33C36.815 19.65 37.295 21.11 37.295 22.71C37.295 23.89 36.895 25.07 36.095 26.25ZM34.625 21.99C34.525 21.21 34.275 20.6 33.875 20.16C33.495 19.7 33.005 19.47 32.405 19.47C32.005 19.47 31.625 19.67 31.265 20.07C30.925 20.45 30.755 21.01 30.755 21.75C30.755 22.05 30.795 22.37 30.875 22.71C30.955 23.03 31.085 23.33 31.265 23.61C31.445 23.87 31.675 24.09 31.955 24.27C32.235 24.43 32.575 24.51 32.975 24.51C33.615 24.51 34.055 24.32 34.295 23.94C34.535 23.54 34.655 23.05 34.655 22.47C34.655 22.39 34.645 22.32 34.625 22.26C34.625 22.18 34.625 22.09 34.625 21.99ZM50.5813 24.39C50.6013 24.47 50.6113 24.54 50.6113 24.6C50.6313 24.66 50.6413 24.73 50.6413 24.81C50.6413 25.23 50.5113 25.57 50.2513 25.83C49.9913 26.09 49.6913 26.22 49.3513 26.22C49.0513 26.22 48.7813 26.09 48.5413 25.83C48.3013 25.57 48.0413 25.24 47.7613 24.84C47.5013 24.44 47.2013 24 46.8613 23.52C46.5213 23.04 46.1013 22.58 45.6013 22.14C45.5213 22.06 45.3713 21.95 45.1513 21.81C44.9313 21.65 44.6513 21.45 44.3113 21.21L44.1313 21.3C44.0913 21.44 44.0613 21.61 44.0413 21.81C43.9813 22.15 43.9513 22.6 43.9513 23.16C43.9513 23.32 43.9713 23.5 44.0113 23.7C44.0113 23.74 44.0013 23.78 43.9813 23.82C43.9813 23.86 43.9813 23.91 43.9813 23.97C43.9813 24.15 43.9813 24.39 43.9813 24.69C44.0013 24.97 44.0213 25.25 44.0413 25.53C44.0613 25.79 44.0713 26.02 44.0713 26.22C44.0913 26.42 44.1013 26.51 44.1013 26.49C44.1013 26.83 43.9513 27.09 43.6513 27.27C43.3513 27.45 43.0213 27.54 42.6613 27.54C42.1413 27.54 41.7913 27.29 41.6113 26.79C41.4513 26.29 41.3713 25.44 41.3713 24.24C41.3713 23.44 41.4013 22.72 41.4613 22.08C41.5213 21.42 41.5513 20.84 41.5513 20.34V19.83C41.5513 19.73 41.5613 19.56 41.5813 19.32C41.6213 19.08 41.6513 18.81 41.6713 18.51C41.7113 18.21 41.7413 17.91 41.7613 17.61C41.8013 17.29 41.8213 17.02 41.8213 16.8V16.47C41.8413 16.41 41.8713 16.14 41.9113 15.66C41.9513 15.18 42.0213 14.63 42.1213 14.01C42.2213 13.37 42.3413 12.72 42.4813 12.06C42.6413 11.38 42.8313 10.81 43.0513 10.35C43.1913 10.05 43.5013 9.9 43.9813 9.9C44.8813 9.9 45.3313 10.25 45.3313 10.95C45.3313 11.11 45.2913 11.41 45.2113 11.85C45.1313 12.29 45.0413 12.77 44.9413 13.29C44.8613 13.79 44.7813 14.28 44.7013 14.76C44.6413 15.24 44.6113 15.6 44.6113 15.84C44.5713 15.9 44.4813 16.65 44.3413 18.09C44.6413 17.89 44.9113 17.69 45.1513 17.49C45.4113 17.27 45.6813 17.05 45.9613 16.83C46.2413 16.61 46.5713 16.38 46.9512 16.14C47.3313 15.88 47.8013 15.59 48.3613 15.27C48.4013 15.27 48.4313 15.27 48.4513 15.27C48.4713 15.25 48.5013 15.24 48.5413 15.24C48.8413 15.24 49.1413 15.38 49.4413 15.66C49.7413 15.94 49.8913 16.26 49.8913 16.62C49.8913 16.84 49.8813 17 49.8613 17.1C49.8413 17.18 49.7513 17.28 49.5913 17.4C49.4513 17.52 49.2113 17.68 48.8713 17.88C48.5313 18.08 48.0513 18.39 47.4313 18.81C47.3913 18.91 47.0613 19.14 46.4413 19.5C46.6813 19.7 46.8313 19.83 46.8913 19.89C46.9713 19.95 47.0713 20.05 47.1913 20.19C47.3113 20.31 47.5113 20.53 47.7913 20.85C48.0913 21.15 48.5913 21.65 49.2913 22.35C49.6713 22.87 50.1013 23.55 50.5813 24.39ZM58.7333 12.87C58.7733 13.03 58.7933 13.18 58.7933 13.32C58.7933 13.96 58.6033 14.5 58.2233 14.94C57.6233 15.18 57.0233 15.3 56.4233 15.3C56.0433 15.06 55.7233 14.79 55.4633 14.49C55.2233 14.17 55.1033 13.86 55.1033 13.56C55.1033 13.3 55.4033 12.66 56.0033 11.64C56.2633 11.68 56.5333 11.71 56.8133 11.73C57.1133 11.75 57.3833 11.8 57.6233 11.88C57.8833 11.96 58.1033 12.08 58.2833 12.24C58.4833 12.38 58.6333 12.59 58.7333 12.87ZM57.7733 17.88V18.27C57.7733 18.37 57.7733 18.48 57.7733 18.6C57.7733 18.72 57.7533 18.83 57.7133 18.93L57.4733 20.28V20.55C57.4733 20.67 57.4633 20.83 57.4433 21.03C57.4233 21.23 57.3933 21.43 57.3533 21.63C57.3333 21.83 57.3133 22.02 57.2933 22.2C57.2733 22.38 57.2633 22.53 57.2633 22.65C57.2633 22.75 57.2633 22.83 57.2633 22.89C57.2833 22.95 57.2933 23.03 57.2933 23.13C57.2933 23.31 57.2733 23.51 57.2333 23.73C57.1933 23.93 57.1733 24.16 57.1733 24.42C57.1733 24.66 57.2033 24.91 57.2633 25.17C57.0433 26.07 56.5833 26.52 55.8833 26.52C54.9033 26.52 54.4133 25.6 54.4133 23.76C54.4133 23.14 54.4433 22.53 54.5033 21.93C54.5633 21.31 54.6333 20.74 54.7133 20.22C54.7933 19.7 54.8733 19.25 54.9533 18.87C55.0533 18.47 55.1333 18.16 55.1933 17.94C55.4933 17.5 55.9133 17.28 56.4533 17.28C56.9733 17.28 57.4133 17.48 57.7733 17.88ZM72.9411 23.67V23.91C72.9411 24.03 72.9411 24.25 72.9411 24.57C72.9611 24.87 72.9311 25.18 72.8511 25.5C72.7911 25.82 72.6611 26.11 72.4611 26.37C72.2611 26.61 71.9611 26.73 71.5611 26.73C70.7811 26.73 70.3211 26.42 70.1811 25.8C70.2011 25.68 70.2111 25.55 70.2111 25.41C70.2111 25.25 70.2111 25.08 70.2111 24.9C70.2111 24.82 70.2111 24.53 70.2111 24.03C70.2111 23.51 70.1911 22.95 70.1511 22.35C70.1311 21.75 70.0711 21.19 69.9711 20.67C69.8711 20.13 69.7211 19.79 69.5211 19.65C69.0611 19.33 68.6511 19.17 68.2911 19.17C67.8111 19.17 67.4011 19.32 67.0611 19.62C66.7411 19.9 66.4711 20.46 66.2511 21.3C66.2311 21.58 66.2111 21.9 66.1911 22.26C66.1711 22.6 66.1411 22.99 66.1011 23.43C66.1011 23.77 66.1111 24.15 66.1311 24.57C66.1511 24.97 66.1811 25.43 66.2211 25.95C66.2211 26.33 66.0711 26.65 65.7711 26.91C65.4711 27.15 65.1311 27.27 64.7511 27.27C64.4511 27.27 64.2111 27.19 64.0311 27.03C63.8511 26.87 63.7111 26.66 63.6111 26.4C63.5311 26.14 63.4711 25.86 63.4311 25.56C63.4111 25.26 63.4011 24.96 63.4011 24.66C63.4011 24.44 63.4111 24.22 63.4311 24C63.4511 23.76 63.4811 23.52 63.5211 23.28L63.7611 20.4L64.0011 18.96C63.9611 18.72 63.8811 18.46 63.7611 18.18C63.6411 17.9 63.5811 17.68 63.5811 17.52C63.5811 17.18 63.7111 16.87 63.9711 16.59C64.2511 16.31 64.5911 16.17 64.9911 16.17C65.2711 16.17 65.4811 16.23 65.6211 16.35C65.7611 16.45 65.9911 16.71 66.3111 17.13C66.7111 16.95 67.0311 16.84 67.2711 16.8C67.5111 16.74 67.7911 16.71 68.1111 16.71C69.1511 16.71 70.0611 16.96 70.8411 17.46C71.6411 17.94 72.1411 18.75 72.3411 19.89C72.4011 20.31 72.4511 20.66 72.4911 20.94C72.5511 21.22 72.6011 21.49 72.6411 21.75C72.6811 22.01 72.7211 22.29 72.7611 22.59C72.8011 22.87 72.8611 23.23 72.9411 23.67ZM88.0501 17.04C88.1101 17.32 88.1401 17.67 88.1401 18.09C88.1401 18.43 88.1201 18.83 88.0801 19.29C88.0401 19.73 87.9801 20.22 87.9001 20.76C87.9201 20.82 87.9301 20.89 87.9301 20.97C87.9301 21.05 87.9301 21.14 87.9301 21.24C87.9301 21.46 87.9101 21.72 87.8701 22.02C87.8501 22.3 87.8201 22.63 87.7801 23.01C87.8001 23.11 87.8101 23.21 87.8101 23.31C87.8101 23.41 87.8101 23.53 87.8101 23.67C87.8101 24.13 87.7801 24.7 87.7201 25.38C87.6601 26.06 87.5801 26.87 87.4801 27.81C87.2001 30.13 86.2501 31.82 84.6301 32.88C84.0501 33.1 83.4701 33.26 82.8901 33.36C82.3301 33.48 81.7601 33.54 81.1801 33.54C80.4201 33.54 79.2301 33.21 77.6101 32.55L76.1101 31.29C75.8101 31.05 75.6001 30.86 75.4801 30.72C75.3801 30.58 75.3301 30.41 75.3301 30.21C75.3301 29.79 75.4501 29.42 75.6901 29.1C75.9301 28.8 76.2501 28.65 76.6501 28.65C76.9101 28.65 77.2001 28.73 77.5201 28.89L79.0201 30.15C79.7401 30.63 80.5501 30.88 81.4501 30.9C81.5501 30.92 81.6801 30.9 81.8401 30.84C82.0001 30.8 82.1901 30.75 82.4101 30.69L83.4001 30.42C84.1201 29.96 84.5901 29.11 84.8101 27.87C84.8301 27.69 84.8501 27.47 84.8701 27.21C84.9101 26.73 84.9701 26.05 85.0501 25.17C84.9701 25.21 84.7901 25.29 84.5101 25.41C84.2301 25.51 83.8801 25.63 83.4601 25.77C83.0601 25.89 82.5901 26 82.0501 26.1C81.5301 26.2 80.9801 26.25 80.4001 26.25C80.3001 26.25 80.1901 26.23 80.0701 26.19C79.9701 26.13 79.8301 26.04 79.6501 25.92C79.4701 25.8 79.2501 25.64 78.9901 25.44C78.7501 25.24 78.4501 24.98 78.0901 24.66L77.3701 23.31C77.1901 22.97 77.0601 22.63 76.9801 22.29C76.9201 21.93 76.8901 21.58 76.8901 21.24C76.8901 20.68 77.1001 20.12 77.5201 19.56C77.9601 18.98 78.5001 18.46 79.1401 18C79.8001 17.54 80.5101 17.17 81.2701 16.89C82.0301 16.59 82.7301 16.44 83.3701 16.44C83.6701 16.44 83.9601 16.46 84.2401 16.5C84.5401 16.54 84.9901 16.65 85.5901 16.83L85.7401 16.47C86.0001 16.29 86.3201 16.2 86.7001 16.2C87.4601 16.2 87.9101 16.48 88.0501 17.04ZM85.2001 19.56C85.0001 19.42 84.7701 19.32 84.5101 19.26C84.2701 19.2 84.0301 19.14 83.7901 19.08C83.5301 19.12 83.2301 19.18 82.8901 19.26C82.5501 19.32 82.1701 19.4 81.7501 19.5C80.4301 20.26 79.7701 20.95 79.7701 21.57C79.7701 21.91 79.8901 22.25 80.1301 22.59C80.3701 22.91 80.7101 23.24 81.1501 23.58C81.4501 23.56 81.7701 23.53 82.1101 23.49C82.4501 23.43 82.7901 23.34 83.1301 23.22C83.4701 23.1 83.8001 22.93 84.1201 22.71C84.4401 22.47 84.7501 22.15 85.0501 21.75C85.0901 21.41 85.1201 21.09 85.1401 20.79C85.1801 20.49 85.2001 20.2 85.2001 19.92V19.56ZM112.495 15.69C112.715 15.87 112.825 16.2 112.825 16.68C112.825 17.56 112.495 18 111.835 18H111.715C111.415 18.02 111.065 18.05 110.665 18.09C110.265 18.11 109.815 18.15 109.315 18.21C109.275 18.53 109.235 18.96 109.195 19.5C109.155 20.02 109.135 20.65 109.135 21.39C109.135 21.45 109.135 21.51 109.135 21.57C109.155 21.63 109.165 21.7 109.165 21.78V23.16C109.165 23.48 109.215 23.74 109.315 23.94C109.435 24.12 109.575 24.25 109.735 24.33L110.575 24.6C111.235 24.82 111.565 25.22 111.565 25.8C111.565 26.14 111.425 26.44 111.145 26.7C110.885 26.96 110.545 27.09 110.125 27.09C110.005 27.09 109.795 27.06 109.495 27C109.215 26.92 108.915 26.82 108.595 26.7C108.295 26.58 108.005 26.43 107.725 26.25C107.465 26.07 107.285 25.87 107.185 25.65C106.965 25.19 106.785 24.71 106.645 24.21C106.505 23.69 106.435 23.15 106.435 22.59C106.435 21.97 106.445 21.53 106.465 21.27C106.485 21.01 106.505 20.78 106.525 20.58C106.545 20.38 106.565 20.14 106.585 19.86C106.605 19.58 106.615 19.12 106.615 18.48C106.235 18.52 105.675 18.64 104.935 18.84C104.495 18.84 104.115 18.73 103.795 18.51C103.495 18.27 103.345 17.96 103.345 17.58C103.345 17.3 103.425 17.04 103.585 16.8C103.765 16.56 104.125 16.35 104.665 16.17C104.845 16.11 105.005 16.07 105.145 16.05C105.305 16.03 105.455 16.01 105.595 15.99C105.755 15.97 105.925 15.96 106.105 15.96C106.285 15.94 106.505 15.91 106.765 15.87C106.785 15.37 106.815 14.81 106.855 14.19C106.915 13.55 107.005 12.96 107.125 12.42C107.265 11.88 107.455 11.43 107.695 11.07C107.955 10.69 108.295 10.5 108.715 10.5C109.435 10.5 109.875 10.83 110.035 11.49C110.035 11.51 110.005 11.65 109.945 11.91C109.905 12.15 109.855 12.42 109.795 12.72C109.735 13.02 109.675 13.31 109.615 13.59C109.575 13.87 109.555 14.05 109.555 14.13L109.465 15.6C109.605 15.58 109.735 15.57 109.855 15.57C109.975 15.55 110.105 15.54 110.245 15.54H110.515C110.655 15.54 110.785 15.54 110.905 15.54C111.025 15.52 111.135 15.51 111.235 15.51C111.835 15.51 112.255 15.57 112.495 15.69ZM123.165 26.25C122.905 26.43 122.485 26.61 121.905 26.79C121.325 26.95 120.725 27.09 120.105 27.21L118.875 26.97C118.695 26.91 118.395 26.77 117.975 26.55C117.575 26.33 117.165 26 116.745 25.56C116.325 25.1 115.955 24.52 115.635 23.82C115.315 23.1 115.155 22.23 115.155 21.21C115.155 20.85 115.235 20.43 115.395 19.95C115.575 19.45 115.835 18.99 116.175 18.57C116.515 18.13 116.935 17.76 117.435 17.46C117.955 17.16 118.555 17.01 119.235 17.01C120.595 17.01 121.825 17.45 122.925 18.33C123.885 19.65 124.365 21.11 124.365 22.71C124.365 23.89 123.965 25.07 123.165 26.25ZM121.695 21.99C121.595 21.21 121.345 20.6 120.945 20.16C120.565 19.7 120.075 19.47 119.475 19.47C119.075 19.47 118.695 19.67 118.335 20.07C117.995 20.45 117.825 21.01 117.825 21.75C117.825 22.05 117.865 22.37 117.945 22.71C118.025 23.03 118.155 23.33 118.335 23.61C118.515 23.87 118.745 24.09 119.025 24.27C119.305 24.43 119.645 24.51 120.045 24.51C120.685 24.51 121.125 24.32 121.365 23.94C121.605 23.54 121.725 23.05 121.725 22.47C121.725 22.39 121.715 22.32 121.695 22.26C121.695 22.18 121.695 22.09 121.695 21.99ZM48.7217 63.71C48.6217 63.99 48.4217 64.27 48.1217 64.55C47.8217 64.83 47.5317 64.97 47.2517 64.97C46.6717 64.97 46.2917 64.56 46.1117 63.74C45.9317 62.92 45.8417 61.76 45.8417 60.26V59.99C45.8417 59.23 45.7817 58.68 45.6617 58.34C45.5617 57.98 45.4917 57.75 45.4517 57.65C45.2317 57.17 44.8917 56.93 44.4317 56.93C44.1517 56.93 43.8617 56.99 43.5617 57.11C43.2617 57.21 42.9917 57.34 42.7517 57.5C42.5117 57.64 42.3017 57.78 42.1217 57.92C41.9617 58.06 41.8617 58.16 41.8217 58.22C41.7817 58.36 41.7417 58.6 41.7017 58.94C41.6817 59.28 41.6617 59.67 41.6417 60.11C41.6217 60.55 41.6017 61 41.5817 61.46C41.5617 61.92 41.5417 62.34 41.5217 62.72C41.5217 63.1 41.5217 63.4 41.5217 63.62C41.5217 63.84 41.5317 63.93 41.5517 63.89C41.4917 64.43 41.0617 64.7 40.2617 64.7C39.6617 64.7 39.2717 64.51 39.0917 64.13C38.9317 63.75 38.8517 63.1 38.8517 62.18C38.8517 61.94 38.8517 61.8 38.8517 61.76C38.8717 61.72 38.8917 61.63 38.9117 61.49C38.9317 61.33 38.9617 61.05 39.0017 60.65C39.0417 60.25 39.0917 59.57 39.1517 58.61C39.1717 58.21 39.1917 57.85 39.2117 57.53C39.2317 57.19 39.2317 56.9 39.2117 56.66C39.2117 56.44 39.2117 56.26 39.2117 56.12C39.2117 55.96 39.2017 55.83 39.1817 55.73C39.2017 55.67 39.2217 55.48 39.2417 55.16C39.2817 54.84 39.3117 54.49 39.3317 54.11C39.3717 53.73 39.4117 53.37 39.4517 53.03C39.4917 52.69 39.5317 52.46 39.5717 52.34C39.5717 51.92 39.5817 51.44 39.6017 50.9C39.6217 50.34 39.6917 49.82 39.8117 49.34C39.9317 48.86 40.1117 48.46 40.3517 48.14C40.6117 47.8 40.9717 47.63 41.4317 47.63C42.2117 47.63 42.6017 48.13 42.6017 49.13C42.6017 49.69 42.4917 50.49 42.2717 51.53C42.2317 52.07 42.1817 52.49 42.1217 52.79C42.0817 53.09 42.0417 53.35 42.0017 53.57C41.9617 53.79 41.9317 54 41.9117 54.2C41.8917 54.4 41.8817 54.68 41.8817 55.04C42.3817 54.62 42.8617 54.38 43.3217 54.32C43.7817 54.24 44.2117 54.2 44.6117 54.2C45.6117 54.2 46.4117 54.49 47.0117 55.07C47.6117 55.65 48.0617 56.61 48.3617 57.95C48.3817 58.43 48.3917 58.81 48.3917 59.09C48.4117 59.35 48.4317 59.65 48.4517 59.99C48.4917 60.31 48.5317 60.75 48.5717 61.31C48.6117 61.87 48.6617 62.67 48.7217 63.71ZM58.0009 50.87C58.0409 51.03 58.0609 51.18 58.0609 51.32C58.0609 51.96 57.8709 52.5 57.4909 52.94C56.8909 53.18 56.2909 53.3 55.6909 53.3C55.3109 53.06 54.9909 52.79 54.7309 52.49C54.4909 52.17 54.3709 51.86 54.3709 51.56C54.3709 51.3 54.6709 50.66 55.2709 49.64C55.5309 49.68 55.8009 49.71 56.0809 49.73C56.3809 49.75 56.6509 49.8 56.8909 49.88C57.1509 49.96 57.3709 50.08 57.5509 50.24C57.7509 50.38 57.9009 50.59 58.0009 50.87ZM57.0409 55.88V56.27C57.0409 56.37 57.0409 56.48 57.0409 56.6C57.0409 56.72 57.0209 56.83 56.9809 56.93L56.7409 58.28V58.55C56.7409 58.67 56.7309 58.83 56.7109 59.03C56.6909 59.23 56.6609 59.43 56.6209 59.63C56.6009 59.83 56.5809 60.02 56.5609 60.2C56.5409 60.38 56.5309 60.53 56.5309 60.65C56.5309 60.75 56.5309 60.83 56.5309 60.89C56.5509 60.95 56.5609 61.03 56.5609 61.13C56.5609 61.31 56.5409 61.51 56.5009 61.73C56.4609 61.93 56.4409 62.16 56.4409 62.42C56.4409 62.66 56.4709 62.91 56.5309 63.17C56.3109 64.07 55.8509 64.52 55.1509 64.52C54.1709 64.52 53.6809 63.6 53.6809 61.76C53.6809 61.14 53.7109 60.53 53.7709 59.93C53.8309 59.31 53.9009 58.74 53.9809 58.22C54.0609 57.7 54.1409 57.25 54.2209 56.87C54.3209 56.47 54.4009 56.16 54.4609 55.94C54.7609 55.5 55.1809 55.28 55.7209 55.28C56.2409 55.28 56.6809 55.48 57.0409 55.88ZM70.5587 54.8C70.8787 55 71.0387 55.38 71.0387 55.94C71.0387 56.36 70.9287 56.72 70.7087 57.02C70.4887 57.32 70.1887 57.47 69.8087 57.47C69.5687 57.47 69.3187 57.41 69.0587 57.29C68.8187 57.15 68.5587 57.08 68.2787 57.08C68.0387 57.08 67.7987 57.13 67.5587 57.23C67.3387 57.31 67.0787 57.5 66.7787 57.8L65.8787 58.7C65.8787 58.84 65.8787 58.98 65.8787 59.12C65.8987 59.26 65.9087 59.41 65.9087 59.57C65.9087 59.81 65.8987 60.06 65.8787 60.32C65.8787 60.58 65.8687 60.86 65.8487 61.16L66.1187 63.89C66.0587 64.81 65.5887 65.27 64.7087 65.27C64.2487 65.27 63.9087 65.13 63.6887 64.85C63.4687 64.55 63.3187 64.14 63.2387 63.62C63.1587 63.1 63.1187 62.49 63.1187 61.79C63.1387 61.09 63.1387 60.32 63.1187 59.48C63.0787 58.22 63.0487 57.59 63.0287 57.59V57.62C62.9487 57.32 62.8887 57.06 62.8487 56.84C62.8087 56.6 62.7887 56.39 62.7887 56.21C62.7887 55.85 62.9187 55.56 63.1787 55.34C63.4387 55.1 63.8187 54.98 64.3187 54.98C64.6387 54.98 65.0187 55.23 65.4587 55.73C65.9187 55.37 66.2687 55.1 66.5087 54.92C66.7687 54.74 66.9787 54.61 67.1387 54.53C67.3187 54.45 67.4887 54.41 67.6487 54.41C67.8087 54.39 68.0187 54.38 68.2787 54.38C68.4987 54.36 68.6987 54.37 68.8787 54.41C69.0787 54.45 69.2887 54.49 69.5087 54.53L70.5587 54.8ZM84.2938 63.8C83.6538 64.44 82.9338 64.98 82.1338 65.42C81.3338 65.88 80.5238 66.11 79.7038 66.11C78.9638 66.11 78.0138 65.99 76.8538 65.75C76.4538 65.49 76.0538 65.18 75.6538 64.82C75.2538 64.44 74.8938 64.03 74.5738 63.59C74.2538 63.13 73.9938 62.64 73.7938 62.12C73.5938 61.58 73.4938 61.03 73.4938 60.47C73.4938 60.31 73.5038 60.1 73.5238 59.84C73.5438 59.56 73.5638 59.29 73.5838 59.03C73.6238 58.75 73.6538 58.51 73.6738 58.31C73.6938 58.11 73.7038 58.01 73.7038 58.01C74.1038 57.37 74.5238 56.74 74.9638 56.12C75.4238 55.48 76.0638 54.92 76.8838 54.44C78.1838 54.16 79.1238 54.02 79.7038 54.02C80.0038 54.02 80.2638 54.04 80.4838 54.08C80.7038 54.1 80.9138 54.16 81.1138 54.26C81.3338 54.34 81.5438 54.47 81.7438 54.65C81.9638 54.83 82.2138 55.06 82.4938 55.34C82.8138 55.68 83.0638 55.91 83.2438 56.03C83.4438 56.15 83.5438 56.26 83.5438 56.36C83.5438 58.2 82.9738 59.45 81.8338 60.11C81.3338 60.29 80.6838 60.49 79.8838 60.71C79.0838 60.91 77.9938 61.1 76.6138 61.28C76.8938 62.04 77.2638 62.61 77.7238 62.99C78.1838 63.37 78.7038 63.56 79.2838 63.56C80.1438 63.56 81.2238 63.05 82.5238 62.03C82.7238 61.85 82.9738 61.76 83.2738 61.76C83.5938 61.76 83.8738 61.88 84.1138 62.12C84.3738 62.36 84.5038 62.66 84.5038 63.02C84.5038 63.28 84.4338 63.54 84.2938 63.8ZM80.9038 57.38C80.5238 56.76 80.0738 56.45 79.5537 56.45C79.3338 56.45 79.0938 56.48 78.8338 56.54C78.5738 56.6 78.3038 56.69 78.0238 56.81C77.7638 56.91 77.5138 57.04 77.2738 57.2C77.0538 57.36 76.8738 57.55 76.7338 57.77L76.4338 58.67C77.1138 58.61 77.7138 58.56 78.2338 58.52C78.7538 58.48 79.2038 58.42 79.5838 58.34C79.9638 58.26 80.2638 58.15 80.4838 58.01C80.7038 57.87 80.8438 57.66 80.9038 57.38ZM99.4899 51.53C99.3499 52.07 99.2099 52.56 99.0699 53C98.9499 53.42 98.7899 53.81 98.5899 54.17C98.3899 54.51 98.1399 54.84 97.8399 55.16C97.5599 55.46 97.1999 55.76 96.7599 56.06C96.1599 56.46 95.7099 56.8 95.4099 57.08C95.1299 57.36 94.9299 57.61 94.8099 57.83C94.7099 58.05 94.6599 58.26 94.6599 58.46C94.6799 58.64 94.6799 58.83 94.6599 59.03C94.4799 59.69 94.0099 60.02 93.2499 60.02C92.7299 60.02 92.3899 59.85 92.2299 59.51C92.0899 59.15 92.0199 58.78 92.0199 58.4C92.0199 58.12 92.0599 57.81 92.1399 57.47C92.2199 57.13 92.3499 56.8 92.5299 56.48C92.7099 56.14 92.9499 55.81 93.2499 55.49C93.5499 55.17 93.9199 54.89 94.3599 54.65C95.0599 54.25 95.5699 53.85 95.8899 53.45C95.9699 53.37 96.2699 52.72 96.7899 51.5C96.7499 51.08 96.6399 50.74 96.4599 50.48C96.2799 50.2 96.0699 49.99 95.8299 49.85C95.5899 49.69 95.3399 49.58 95.0799 49.52C94.8399 49.46 94.6499 49.43 94.5099 49.43C94.2299 49.43 93.9699 49.46 93.7299 49.52C93.4899 49.56 93.2499 49.67 93.0099 49.85C92.7899 50.01 92.5599 50.26 92.3199 50.6C92.0999 50.92 91.8599 51.35 91.5999 51.89C91.3799 52.19 91.0599 52.34 90.6399 52.34C90.2599 52.34 89.9199 52.21 89.6199 51.95C89.3199 51.69 89.1699 51.33 89.1699 50.87C89.5099 49.91 89.9199 49.16 90.3999 48.62C90.8999 48.08 91.3999 47.67 91.8999 47.39C92.4199 47.11 92.9199 46.94 93.3999 46.88C93.8799 46.8 94.2699 46.76 94.5699 46.76C95.4699 46.76 96.1999 46.89 96.7599 47.15C97.3199 47.41 97.7799 47.76 98.1399 48.2C98.4999 48.62 98.7699 49.12 98.9499 49.7C99.1499 50.28 99.3299 50.89 99.4899 51.53ZM94.9599 64.4C94.9599 64.58 94.8999 64.76 94.7799 64.94C94.6799 65.12 94.5399 65.27 94.3599 65.39C94.1999 65.53 94.0099 65.64 93.7899 65.72C93.5899 65.82 93.3999 65.87 93.2199 65.87C92.7399 65.87 92.3499 65.8 92.0499 65.66C91.7499 65.54 91.5199 65.38 91.3599 65.18C91.2199 64.98 91.1199 64.77 91.0599 64.55C91.0199 64.31 90.9999 64.09 90.9999 63.89C90.9999 63.39 91.1699 62.92 91.5099 62.48C91.8499 62.02 92.2899 61.79 92.8299 61.79C93.0099 61.79 93.2199 61.81 93.4599 61.85C93.7199 61.89 93.9599 62 94.1799 62.18C94.3999 62.36 94.5799 62.63 94.7199 62.99C94.8799 63.33 94.9599 63.8 94.9599 64.4Z" fill="white"/>
<path d="M84.1508 105.828L79.8557 94.7807C79.7133 94.4169 79.7124 94.013 79.853 93.6486C79.9937 93.2842 80.2657 92.9857 80.6156 92.8119C80.9654 92.6381 81.3676 92.6016 81.743 92.7097C82.1184 92.8178 82.4396 93.0625 82.6435 93.3957L82.7691 93.6456L88.4749 108.346L88.5298 108.609L88.5365 108.803L88.5167 109.026L88.5058 109.09C88.4833 109.199 88.4491 109.305 88.4038 109.407L88.4827 109.189L88.4522 109.281L88.3452 109.524L88.1941 109.752L88.0576 109.907L87.8475 110.074L87.6021 110.205L72.9769 115.895C72.6132 116.038 72.2093 116.039 71.8449 115.898C71.4804 115.758 71.1819 115.485 71.0081 115.136C70.8343 114.786 70.7979 114.384 70.9059 114.008C71.014 113.633 71.2587 113.312 71.5919 113.108L71.8459 112.98L82.8907 108.691L70.6129 103.284C60.5391 98.8507 56.2677 90.2243 59.4963 82.0272L59.7454 81.4301C59.9123 81.0508 60.2231 80.7534 60.6093 80.6032C60.9956 80.4531 61.4257 80.4625 61.8049 80.6294C62.1842 80.7963 62.4817 81.1071 62.6319 81.4933C62.782 81.8796 62.7726 82.3096 62.6057 82.6889C59.7444 89.1903 62.8598 96.13 71.1274 100.083L71.8717 100.424L84.1508 105.828Z" fill="white"/>
</svg>
