<svg width="159" height="88" viewBox="0 0 159 88" fill="none" xmlns="http://www.w3.org/2000/svg">
<path d="M15.4831 70.534L23.4789 66.4071C23.7421 66.2705 24.0469 66.2375 24.3332 66.3145C24.6196 66.3915 24.8667 66.5729 25.026 66.8231C25.1852 67.0733 25.2449 67.374 25.1934 67.666C25.1418 67.958 24.9828 68.2202 24.7476 68.4008L24.569 68.5156L13.9288 73.9999L13.7345 74.0624L13.5885 74.083L13.4182 74.086L13.3694 74.0828C13.2853 74.0745 13.2023 74.0573 13.1219 74.0313L13.2928 74.0733L13.2206 74.0577L13.0285 73.9964L12.8449 73.9005L12.717 73.8099L12.574 73.6647L12.4555 73.4899L6.98843 62.9049C6.85184 62.6417 6.81878 62.3369 6.89578 62.0506C6.97277 61.7642 7.15424 61.5171 7.40441 61.3579C7.65458 61.1986 7.95531 61.1389 8.24733 61.1904C8.53935 61.242 8.80149 61.401 8.98208 61.6362L9.09844 61.8178L13.2209 69.8121L16.3195 60.1106C18.8597 52.1508 25.0298 48.2356 31.4763 50.0166L31.947 50.1568C32.2467 50.2525 32.4962 50.4632 32.6405 50.7428C32.7847 51.0223 32.8121 51.3478 32.7164 51.6474C32.6208 51.9471 32.41 52.1966 32.1304 52.3409C31.8509 52.4851 31.5255 52.5125 31.2258 52.4168C26.0888 50.7774 21.0994 53.6849 18.7775 60.2426L18.5795 60.8318L15.4831 70.534Z" fill="white"/>
<path d="M28.393 28.0112C28.8628 28.1084 29.0977 28.4729 29.0977 29.1047C29.0977 29.4449 29.0167 29.7122 28.8547 29.9065C28.6927 30.1009 28.4821 30.1981 28.2229 30.1981C28.142 30.1981 27.9881 30.19 27.7613 30.1738C27.5345 30.1414 27.2915 30.1171 27.0323 30.1009C26.7731 30.0685 26.522 30.0442 26.279 30.028C26.036 29.9956 25.8659 29.9794 25.7688 29.9794C25.6716 29.9794 25.5825 29.9794 25.5015 29.9794C25.4205 29.9794 25.3395 29.9875 25.2585 30.0037C24.9831 29.9875 24.6591 29.9551 24.2865 29.9065C23.9301 29.8417 23.5737 29.777 23.2174 29.7122C22.8772 29.6312 22.5694 29.5502 22.294 29.4692C22.0348 29.3882 21.8809 29.3153 21.8323 29.2505C21.6703 28.7645 21.5893 28.1165 21.5893 27.3066C21.5893 27.177 21.5893 27.0474 21.5893 26.9178C21.5893 26.772 21.5974 26.6262 21.6136 26.4804L21.7594 24.7552C21.7756 24.6256 21.7837 24.5041 21.7837 24.3907C21.7837 24.2611 21.7837 24.1477 21.7837 24.0505C21.7837 23.9209 21.7837 23.8156 21.7837 23.7346C21.7837 23.6374 21.7675 23.5483 21.7351 23.4673C21.8485 22.8517 21.9295 22.3415 21.9781 21.9365C22.0267 21.5153 22.051 21.1913 22.051 20.9645V20.7701C22.051 20.5433 22.1482 19.8225 22.3426 18.6075C22.5856 18.0891 22.9582 17.83 23.4604 17.83C23.7681 17.83 24.0273 17.9515 24.2379 18.1944C24.4485 18.4212 24.5538 18.7371 24.5538 19.1421C24.489 19.3689 24.4242 19.6524 24.3594 19.9926C24.3108 20.3328 24.2622 20.7377 24.2136 21.2075V21.4019C24.2136 21.5477 24.1974 21.7745 24.165 22.0823C24.1488 22.3739 24.1245 22.6817 24.0921 23.0056C24.0597 23.3134 24.0273 23.5969 23.9949 23.8561C23.9787 24.0991 23.9706 24.2368 23.9706 24.2692C23.9706 24.4474 23.9787 24.5608 23.9949 24.6094C23.9301 25.2897 23.8815 25.8567 23.8491 26.3103C23.8167 26.7639 23.8005 27.1122 23.8005 27.3552C23.8005 27.5171 23.8086 27.6224 23.8248 27.671C24.6672 27.7682 25.2261 27.8168 25.5015 27.8168C25.6311 27.8168 25.7607 27.8168 25.8902 27.8168C26.036 27.8006 26.1818 27.7925 26.3276 27.7925C26.9432 27.7925 27.6317 27.8654 28.393 28.0112ZM38.192 30.3925C37.9814 30.5383 37.6412 30.6841 37.1714 30.8299C36.7016 30.9595 36.2157 31.0729 35.7135 31.1701L34.7172 30.9757C34.5714 30.9271 34.3284 30.8137 33.9883 30.6355C33.6643 30.4573 33.3322 30.19 32.992 29.8336C32.6518 29.4611 32.3521 28.9913 32.0929 28.4243C31.8338 27.8411 31.7042 27.1365 31.7042 26.3103C31.7042 26.0187 31.769 25.6785 31.8985 25.2897C32.0443 24.8848 32.2549 24.5122 32.5303 24.172C32.8057 23.8156 33.1459 23.5159 33.5509 23.2729C33.9721 23.0299 34.458 22.9084 35.0088 22.9084C36.1104 22.9084 37.1066 23.2648 37.9976 23.9776C38.7752 25.0468 39.1639 26.2293 39.1639 27.5252C39.1639 28.481 38.84 29.4368 38.192 30.3925ZM37.0013 26.9421C36.9203 26.3103 36.7178 25.8162 36.3939 25.4598C36.0861 25.0873 35.6892 24.901 35.2032 24.901C34.8792 24.901 34.5714 25.063 34.2798 25.3869C34.0045 25.6947 33.8668 26.1483 33.8668 26.7477C33.8668 26.9907 33.8992 27.2499 33.964 27.5252C34.0288 27.7844 34.1341 28.0274 34.2798 28.2542C34.4256 28.4648 34.6119 28.643 34.8387 28.7888C35.0655 28.9184 35.3409 28.9832 35.6649 28.9832C36.1833 28.9832 36.5396 28.8293 36.734 28.5215C36.9284 28.1975 37.0256 27.8006 37.0256 27.3309C37.0256 27.2661 37.0175 27.2094 37.0013 27.1608C37.0013 27.096 37.0013 27.0231 37.0013 26.9421ZM48.4431 30.3925C48.2325 30.5383 47.8923 30.6841 47.4225 30.8299C46.9528 30.9595 46.4668 31.0729 45.9646 31.1701L44.9684 30.9757C44.8226 30.9271 44.5796 30.8137 44.2394 30.6355C43.9154 30.4573 43.5833 30.19 43.2431 29.8336C42.9029 29.4611 42.6033 28.9913 42.3441 28.4243C42.0849 27.8411 41.9553 27.1365 41.9553 26.3103C41.9553 26.0187 42.0201 25.6785 42.1497 25.2897C42.2955 24.8848 42.5061 24.5122 42.7814 24.172C43.0568 23.8156 43.397 23.5159 43.802 23.2729C44.2232 23.0299 44.7092 22.9084 45.2599 22.9084C46.3615 22.9084 47.3578 23.2648 48.2487 23.9776C49.0263 25.0468 49.4151 26.2293 49.4151 27.5252C49.4151 28.481 49.0911 29.4368 48.4431 30.3925ZM47.2525 26.9421C47.1715 26.3103 46.969 25.8162 46.645 25.4598C46.3372 25.0873 45.9403 24.901 45.4543 24.901C45.1303 24.901 44.8226 25.063 44.531 25.3869C44.2556 25.6947 44.1179 26.1483 44.1179 26.7477C44.1179 26.9907 44.1503 27.2499 44.2151 27.5252C44.2799 27.7844 44.3852 28.0274 44.531 28.2542C44.6768 28.4648 44.8631 28.643 45.0898 28.7888C45.3166 28.9184 45.592 28.9832 45.916 28.9832C46.4344 28.9832 46.7908 28.8293 46.9852 28.5215C47.1796 28.1975 47.2768 27.8006 47.2768 27.3309C47.2768 27.2661 47.2687 27.2094 47.2525 27.1608C47.2525 27.096 47.2525 27.0231 47.2525 26.9421ZM60.1765 28.886C60.1927 28.9508 60.2008 29.0075 60.2008 29.0561C60.217 29.1047 60.2251 29.1614 60.2251 29.2262C60.2251 29.5664 60.1198 29.8417 59.9092 30.0523C59.6986 30.2629 59.4556 30.3682 59.1802 30.3682C58.9372 30.3682 58.7185 30.2629 58.5241 30.0523C58.3297 29.8417 58.1192 29.5745 57.8924 29.2505C57.6818 28.9265 57.4388 28.5701 57.1634 28.1813C56.888 27.7925 56.5478 27.42 56.1428 27.0636C56.078 26.9988 55.9565 26.9097 55.7784 26.7963C55.6002 26.6667 55.3734 26.5047 55.098 26.3103L54.9522 26.3832C54.9198 26.4966 54.8955 26.6343 54.8793 26.7963C54.8307 27.0717 54.8064 27.4362 54.8064 27.8897C54.8064 28.0193 54.8226 28.1651 54.855 28.3271C54.855 28.3595 54.8469 28.3919 54.8307 28.4243C54.8307 28.4567 54.8307 28.4972 54.8307 28.5458C54.8307 28.6916 54.8307 28.886 54.8307 29.129C54.8469 29.3558 54.8631 29.5826 54.8793 29.8094C54.8955 30.0199 54.9036 30.2062 54.9036 30.3682C54.9198 30.5302 54.9279 30.6031 54.9279 30.5869C54.9279 30.8623 54.8064 31.0729 54.5634 31.2187C54.3204 31.3645 54.0531 31.4374 53.7615 31.4374C53.3404 31.4374 53.0569 31.2349 52.9111 30.8299C52.7815 30.4249 52.7167 29.7365 52.7167 28.7645C52.7167 28.1165 52.741 27.5333 52.7896 27.015C52.8382 26.4804 52.8625 26.0106 52.8625 25.6056V25.1925C52.8625 25.1116 52.8706 24.9739 52.8868 24.7795C52.9192 24.5851 52.9435 24.3664 52.9597 24.1234C52.9921 23.8804 53.0164 23.6374 53.0326 23.3944C53.065 23.1352 53.0812 22.9165 53.0812 22.7384V22.4711C53.0974 22.4225 53.1217 22.2038 53.1541 21.815C53.1865 21.4262 53.2432 20.9807 53.3242 20.4785C53.4052 19.9602 53.5024 19.4337 53.6157 18.8991C53.7453 18.3483 53.8992 17.8867 54.0774 17.5141C54.1908 17.2711 54.4419 17.1496 54.8307 17.1496C55.5597 17.1496 55.9241 17.4331 55.9241 18.0001C55.9241 18.1296 55.8917 18.3726 55.827 18.729C55.7622 19.0854 55.6893 19.4742 55.6083 19.8954C55.5435 20.3004 55.4787 20.6972 55.4139 21.086C55.3653 21.4748 55.341 21.7664 55.341 21.9608C55.3086 22.0094 55.2357 22.6169 55.1223 23.7832C55.3653 23.6212 55.584 23.4592 55.7784 23.2972C55.9889 23.119 56.2076 22.9408 56.4344 22.7627C56.6612 22.5845 56.9285 22.3982 57.2363 22.2038C57.5441 21.9932 57.9248 21.7583 58.3783 21.4991C58.4107 21.4991 58.435 21.4991 58.4512 21.4991C58.4674 21.4829 58.4917 21.4748 58.5241 21.4748C58.7671 21.4748 59.0101 21.5882 59.2531 21.815C59.4961 22.0418 59.6176 22.301 59.6176 22.5926C59.6176 22.7708 59.6095 22.9003 59.5933 22.9813C59.5771 23.0461 59.5042 23.1271 59.3746 23.2243C59.2612 23.3215 59.0668 23.4511 58.7914 23.6131C58.516 23.7751 58.1273 24.0262 57.6251 24.3664C57.5927 24.4474 57.3254 24.6337 56.8232 24.9253C57.0176 25.0873 57.1391 25.1925 57.1877 25.2411C57.2525 25.2897 57.3335 25.3707 57.4307 25.4841C57.5279 25.5813 57.6899 25.7595 57.9167 26.0187C58.1597 26.2617 58.5646 26.6667 59.1316 27.2337C59.4394 27.6548 59.7877 28.2056 60.1765 28.886ZM66.7793 19.5552C66.8117 19.6848 66.8279 19.8063 66.8279 19.9197C66.8279 20.438 66.674 20.8754 66.3662 21.2318C65.8803 21.4262 65.3943 21.5234 64.9083 21.5234C64.6005 21.329 64.3413 21.1103 64.1307 20.8673C63.9364 20.6081 63.8392 20.3571 63.8392 20.1141C63.8392 19.9035 64.0821 19.3851 64.5681 18.5589C64.7787 18.5913 64.9974 18.6156 65.2242 18.6318C65.4672 18.648 65.6859 18.6885 65.8803 18.7533C66.0909 18.8181 66.2691 18.9153 66.4148 19.0449C66.5768 19.1583 66.6983 19.3284 66.7793 19.5552ZM66.0018 23.6131V23.929C66.0018 24.01 66.0018 24.0991 66.0018 24.1963C66.0018 24.2935 65.9856 24.3826 65.9532 24.4636L65.7588 25.557V25.7757C65.7588 25.8729 65.7507 26.0025 65.7345 26.1645C65.7183 26.3265 65.694 26.4885 65.6616 26.6505C65.6454 26.8125 65.6292 26.9664 65.613 27.1122C65.5968 27.258 65.5887 27.3795 65.5887 27.4767C65.5887 27.5576 65.5887 27.6224 65.5887 27.671C65.6049 27.7196 65.613 27.7844 65.613 27.8654C65.613 28.0112 65.5968 28.1732 65.5644 28.3514C65.532 28.5134 65.5158 28.6997 65.5158 28.9103C65.5158 29.1047 65.5401 29.3072 65.5887 29.5178C65.4105 30.2467 65.0379 30.6112 64.4709 30.6112C63.6772 30.6112 63.2803 29.866 63.2803 28.3757C63.2803 27.8735 63.3046 27.3795 63.3532 26.8935C63.4018 26.3913 63.4585 25.9296 63.5233 25.5084C63.5881 25.0873 63.6529 24.7228 63.7177 24.415C63.7987 24.091 63.8635 23.8399 63.9121 23.6617C64.155 23.3053 64.4952 23.1271 64.9326 23.1271C65.3538 23.1271 65.7102 23.2891 66.0018 23.6131ZM78.2872 28.3028V28.4972C78.2872 28.5944 78.2872 28.7726 78.2872 29.0318C78.3034 29.2748 78.2791 29.5259 78.2143 29.7851C78.1657 30.0442 78.0604 30.2791 77.8984 30.4897C77.7364 30.6841 77.4934 30.7813 77.1694 30.7813C76.5376 30.7813 76.1651 30.5302 76.0517 30.028C76.0679 29.9308 76.076 29.8256 76.076 29.7122C76.076 29.5826 76.076 29.4449 76.076 29.2991C76.076 29.2343 76.076 28.9994 76.076 28.5944C76.076 28.1732 76.0598 27.7196 76.0274 27.2337C76.0112 26.7477 75.9626 26.2941 75.8816 25.8729C75.8006 25.4355 75.6791 25.1601 75.5171 25.0468C75.1445 24.7876 74.8124 24.658 74.5208 24.658C74.132 24.658 73.8 24.7795 73.5246 25.0225C73.2654 25.2492 73.0467 25.7028 72.8685 26.3832C72.8523 26.61 72.8361 26.8692 72.8199 27.1608C72.8037 27.4362 72.7794 27.752 72.747 28.1084C72.747 28.3838 72.7551 28.6916 72.7713 29.0318C72.7875 29.3558 72.8118 29.7284 72.8442 30.1495C72.8442 30.4573 72.7227 30.7165 72.4797 30.9271C72.2367 31.1215 71.9613 31.2187 71.6535 31.2187C71.4106 31.2187 71.2162 31.1539 71.0704 31.0243C70.9246 30.8947 70.8112 30.7246 70.7302 30.514C70.6654 30.3034 70.6168 30.0766 70.5844 29.8336C70.5682 29.5907 70.5601 29.3477 70.5601 29.1047C70.5601 28.9265 70.5682 28.7483 70.5844 28.5701C70.6006 28.3757 70.6249 28.1813 70.6573 27.9869L70.8517 25.6542L71.0461 24.4879C71.0137 24.2935 70.9489 24.0829 70.8517 23.8561C70.7545 23.6293 70.7059 23.4511 70.7059 23.3215C70.7059 23.0461 70.8112 22.795 71.0218 22.5683C71.2486 22.3415 71.524 22.2281 71.8479 22.2281C72.0747 22.2281 72.2448 22.2767 72.3582 22.3739C72.4716 22.4549 72.6579 22.6655 72.9171 23.0056C73.2411 22.8598 73.5003 22.7708 73.6947 22.7384C73.8891 22.6898 74.1158 22.6655 74.375 22.6655C75.2174 22.6655 75.9545 22.8679 76.5862 23.2729C77.2342 23.6617 77.6392 24.3178 77.8012 25.2411C77.8498 25.5813 77.8903 25.8648 77.9227 26.0916C77.9713 26.3184 78.0118 26.5371 78.0442 26.7477C78.0766 26.9583 78.109 27.1851 78.1414 27.4281C78.1738 27.6548 78.2224 27.9464 78.2872 28.3028ZM90.5249 22.9327C90.5735 23.1595 90.5978 23.443 90.5978 23.7832C90.5978 24.0586 90.5816 24.3826 90.5492 24.7552C90.5168 25.1116 90.4682 25.5084 90.4034 25.9458C90.4196 25.9944 90.4277 26.0511 90.4277 26.1159C90.4277 26.1807 90.4277 26.2536 90.4277 26.3346C90.4277 26.5128 90.4115 26.7234 90.3791 26.9664C90.3629 27.1932 90.3386 27.4605 90.3062 27.7682C90.3224 27.8492 90.3305 27.9302 90.3305 28.0112C90.3305 28.0922 90.3305 28.1894 90.3305 28.3028C90.3305 28.6754 90.3062 29.1371 90.2576 29.6879C90.209 30.2386 90.1442 30.8947 90.0632 31.6561C89.8365 33.5352 89.067 34.904 87.7548 35.7626C87.2851 35.9408 86.8153 36.0704 86.3455 36.1514C85.8919 36.2486 85.4302 36.2972 84.9605 36.2972C84.3449 36.2972 83.381 36.0299 82.0689 35.4953L80.8539 34.4748C80.6109 34.2804 80.4409 34.1265 80.3437 34.0131C80.2627 33.8997 80.2222 33.762 80.2222 33.6C80.2222 33.2598 80.3194 32.9601 80.5138 32.7009C80.7081 32.4579 80.9673 32.3364 81.2913 32.3364C81.5019 32.3364 81.7368 32.4012 81.996 32.5308L83.2109 33.5514C83.7941 33.9402 84.4502 34.1427 85.1792 34.1589C85.2601 34.1751 85.3654 34.1589 85.495 34.1103C85.6246 34.0779 85.7785 34.0374 85.9567 33.9888L86.7586 33.7701C87.3418 33.3975 87.7224 32.709 87.9006 31.7047C87.9168 31.5589 87.933 31.3807 87.9492 31.1701C87.9816 30.7813 88.0302 30.2305 88.095 29.5178C88.0302 29.5502 87.8844 29.615 87.6576 29.7122C87.4309 29.7932 87.1474 29.8903 86.8072 30.0037C86.4832 30.1009 86.1025 30.19 85.6651 30.271C85.244 30.352 84.7985 30.3925 84.3287 30.3925C84.2477 30.3925 84.1586 30.3763 84.0614 30.3439C83.9804 30.2953 83.867 30.2224 83.7212 30.1252C83.5754 30.028 83.3972 29.8984 83.1866 29.7365C82.9922 29.5745 82.7493 29.3639 82.4577 29.1047L81.8745 28.0112C81.7287 27.7358 81.6234 27.4605 81.5586 27.1851C81.51 26.8935 81.4857 26.61 81.4857 26.3346C81.4857 25.881 81.6558 25.4274 81.996 24.9739C82.3524 24.5041 82.7898 24.0829 83.3081 23.7103C83.8427 23.3377 84.4178 23.038 85.0334 22.8112C85.6489 22.5683 86.2159 22.4468 86.7343 22.4468C86.9773 22.4468 87.2122 22.463 87.439 22.4954C87.6819 22.5278 88.0464 22.6169 88.5324 22.7627L88.6539 22.4711C88.8645 22.3253 89.1237 22.2524 89.4315 22.2524C90.047 22.2524 90.4115 22.4792 90.5249 22.9327ZM88.2165 24.9739C88.0545 24.8605 87.8682 24.7795 87.6576 24.7309C87.4633 24.6823 87.2689 24.6337 87.0745 24.5851C86.8639 24.6175 86.6209 24.6661 86.3455 24.7309C86.0701 24.7795 85.7623 24.8443 85.4221 24.9253C84.353 25.5408 83.8184 26.0997 83.8184 26.6019C83.8184 26.8773 83.9156 27.1527 84.11 27.4281C84.3044 27.6872 84.5798 27.9545 84.9362 28.2299C85.1792 28.2137 85.4383 28.1894 85.7137 28.157C85.9891 28.1084 86.2645 28.0355 86.5399 27.9383C86.8153 27.8411 87.0826 27.7034 87.3418 27.5252C87.6009 27.3309 87.852 27.0717 88.095 26.7477C88.1274 26.4723 88.1517 26.2131 88.1679 25.9701C88.2003 25.7271 88.2165 25.4922 88.2165 25.2654V24.9739ZM110.324 21.8393C110.503 21.9851 110.592 22.2524 110.592 22.6412C110.592 23.3539 110.324 23.7103 109.79 23.7103H109.693C109.45 23.7265 109.166 23.7508 108.842 23.7832C108.518 23.7994 108.154 23.8318 107.749 23.8804C107.716 24.1396 107.684 24.4879 107.652 24.9253C107.619 25.3464 107.603 25.8567 107.603 26.4561C107.603 26.5047 107.603 26.5533 107.603 26.6019C107.619 26.6505 107.627 26.7072 107.627 26.772V27.8897C107.627 28.1489 107.668 28.3595 107.749 28.5215C107.846 28.6673 107.959 28.7726 108.089 28.8374L108.769 29.0561C109.304 29.2343 109.571 29.5583 109.571 30.028C109.571 30.3034 109.458 30.5464 109.231 30.757C109.02 30.9676 108.745 31.0729 108.405 31.0729C108.308 31.0729 108.137 31.0486 107.895 31C107.668 30.9352 107.425 30.8542 107.166 30.757C106.923 30.6598 106.688 30.5383 106.461 30.3925C106.25 30.2467 106.104 30.0847 106.023 29.9065C105.845 29.534 105.699 29.1452 105.586 28.7402C105.473 28.319 105.416 27.8816 105.416 27.4281C105.416 26.9259 105.424 26.5695 105.44 26.3589C105.457 26.1483 105.473 25.962 105.489 25.8C105.505 25.638 105.521 25.4436 105.538 25.2168C105.554 24.9901 105.562 24.6175 105.562 24.0991C105.254 24.1315 104.8 24.2287 104.201 24.3907C103.845 24.3907 103.537 24.3016 103.278 24.1234C103.035 23.929 102.913 23.6779 102.913 23.3701C102.913 23.1433 102.978 22.9327 103.108 22.7384C103.253 22.544 103.545 22.3739 103.982 22.2281C104.128 22.1795 104.258 22.1471 104.371 22.1309C104.501 22.1147 104.622 22.0985 104.736 22.0823C104.865 22.0661 105.003 22.058 105.149 22.058C105.295 22.0418 105.473 22.0175 105.683 21.9851C105.699 21.5801 105.724 21.1265 105.756 20.6243C105.805 20.106 105.878 19.6281 105.975 19.1907C106.088 18.7533 106.242 18.3888 106.437 18.0972C106.647 17.7895 106.923 17.6356 107.263 17.6356C107.846 17.6356 108.202 17.9029 108.332 18.4374C108.332 18.4536 108.308 18.567 108.259 18.7776C108.227 18.972 108.186 19.1907 108.137 19.4337C108.089 19.6767 108.04 19.9116 107.992 20.1384C107.959 20.3652 107.943 20.5109 107.943 20.5757L107.87 21.7664C107.984 21.7502 108.089 21.7421 108.186 21.7421C108.283 21.7259 108.389 21.7178 108.502 21.7178H108.721C108.834 21.7178 108.939 21.7178 109.037 21.7178C109.134 21.7016 109.223 21.6935 109.304 21.6935C109.79 21.6935 110.13 21.7421 110.324 21.8393ZM118.967 30.3925C118.756 30.5383 118.416 30.6841 117.947 30.8299C117.477 30.9595 116.991 31.0729 116.489 31.1701L115.492 30.9757C115.347 30.9271 115.104 30.8137 114.763 30.6355C114.439 30.4573 114.107 30.19 113.767 29.8336C113.427 29.4611 113.127 28.9913 112.868 28.4243C112.609 27.8411 112.479 27.1365 112.479 26.3103C112.479 26.0187 112.544 25.6785 112.674 25.2897C112.819 24.8848 113.03 24.5122 113.305 24.172C113.581 23.8156 113.921 23.5159 114.326 23.2729C114.747 23.0299 115.233 22.9084 115.784 22.9084C116.885 22.9084 117.882 23.2648 118.773 23.9776C119.55 25.0468 119.939 26.2293 119.939 27.5252C119.939 28.481 119.615 29.4368 118.967 30.3925ZM117.776 26.9421C117.695 26.3103 117.493 25.8162 117.169 25.4598C116.861 25.0873 116.464 24.901 115.978 24.901C115.654 24.901 115.347 25.063 115.055 25.3869C114.78 25.6947 114.642 26.1483 114.642 26.7477C114.642 26.9907 114.674 27.2499 114.739 27.5252C114.804 27.7844 114.909 28.0274 115.055 28.2542C115.201 28.4648 115.387 28.643 115.614 28.7888C115.841 28.9184 116.116 28.9832 116.44 28.9832C116.958 28.9832 117.315 28.8293 117.509 28.5215C117.704 28.1975 117.801 27.8006 117.801 27.3309C117.801 27.2661 117.793 27.2094 117.776 27.1608C117.776 27.096 117.776 27.0231 117.776 26.9421ZM58.6703 59.9551C58.5893 60.1819 58.4273 60.4087 58.1843 60.6355C57.9413 60.8623 57.7065 60.9757 57.4797 60.9757C57.0099 60.9757 56.7021 60.6436 56.5563 59.9794C56.4105 59.3153 56.3376 58.3757 56.3376 57.1608V56.9421C56.3376 56.3265 56.289 55.881 56.1918 55.6056C56.1108 55.314 56.0541 55.1278 56.0217 55.0468C55.8435 54.658 55.5681 54.4636 55.1956 54.4636C54.9688 54.4636 54.7339 54.5122 54.4909 54.6094C54.2479 54.6904 54.0292 54.7957 53.8348 54.9253C53.6404 55.0387 53.4703 55.152 53.3245 55.2654C53.1949 55.3788 53.1139 55.4598 53.0815 55.5084C53.0492 55.6218 53.0168 55.8162 52.9844 56.0916C52.9682 56.367 52.952 56.6829 52.9358 57.0393C52.9196 57.3957 52.9034 57.7601 52.8872 58.1327C52.871 58.5053 52.8548 58.8455 52.8386 59.1533C52.8386 59.4611 52.8386 59.7041 52.8386 59.8822C52.8386 60.0604 52.8467 60.1333 52.8629 60.1009C52.8143 60.5383 52.466 60.757 51.818 60.757C51.332 60.757 51.0161 60.6031 50.8703 60.2953C50.7407 59.9875 50.676 59.4611 50.676 58.7159C50.676 58.5215 50.676 58.4081 50.676 58.3757C50.6922 58.3433 50.7083 58.2704 50.7245 58.157C50.7407 58.0274 50.765 57.8006 50.7974 57.4767C50.8298 57.1527 50.8703 56.6019 50.9189 55.8243C50.9351 55.5003 50.9513 55.2087 50.9675 54.9496C50.9837 54.6742 50.9837 54.4393 50.9675 54.2449C50.9675 54.0667 50.9675 53.9209 50.9675 53.8075C50.9675 53.6779 50.9594 53.5726 50.9432 53.4916C50.9594 53.443 50.9756 53.2891 50.9918 53.0299C51.0242 52.7708 51.0485 52.4873 51.0647 52.1795C51.0971 51.8717 51.1295 51.5801 51.1619 51.3047C51.1943 51.0293 51.2267 50.843 51.2591 50.7458C51.2591 50.4057 51.2672 50.0169 51.2834 49.5795C51.2996 49.1259 51.3563 48.7047 51.4535 48.3159C51.5507 47.9272 51.6965 47.6032 51.8909 47.344C52.1015 47.0686 52.3931 46.9309 52.7657 46.9309C53.3974 46.9309 53.7133 47.3359 53.7133 48.1458C53.7133 48.5994 53.6242 49.2474 53.446 50.0898C53.4136 50.5271 53.3731 50.8673 53.3245 51.1103C53.2921 51.3533 53.2597 51.5639 53.2273 51.7421C53.1949 51.9203 53.1706 52.0904 53.1544 52.2524C53.1382 52.4144 53.1301 52.6412 53.1301 52.9327C53.5351 52.5926 53.9239 52.3982 54.2965 52.3496C54.6691 52.2848 55.0174 52.2524 55.3414 52.2524C56.1513 52.2524 56.7993 52.4873 57.2853 52.957C57.7712 53.4268 58.1357 54.2044 58.3787 55.2897C58.3949 55.6785 58.403 55.9863 58.403 56.2131C58.4192 56.4237 58.4354 56.6667 58.4516 56.9421C58.484 57.2013 58.5164 57.5576 58.5488 58.0112C58.5812 58.4648 58.6217 59.1128 58.6703 59.9551ZM66.1861 49.5552C66.2185 49.6848 66.2347 49.8063 66.2347 49.9197C66.2347 50.438 66.0808 50.8754 65.773 51.2318C65.287 51.4262 64.8011 51.5234 64.3151 51.5234C64.0073 51.329 63.7481 51.1103 63.5375 50.8673C63.3431 50.6081 63.2459 50.3571 63.2459 50.1141C63.2459 49.9035 63.4889 49.3851 63.9749 48.5589C64.1855 48.5913 64.4042 48.6156 64.631 48.6318C64.874 48.648 65.0926 48.6885 65.287 48.7533C65.4976 48.8181 65.6758 48.9153 65.8216 49.0449C65.9836 49.1583 66.1051 49.3284 66.1861 49.5552ZM65.4085 53.6131V53.929C65.4085 54.01 65.4085 54.0991 65.4085 54.1963C65.4085 54.2935 65.3923 54.3826 65.3599 54.4636L65.1655 55.557V55.7757C65.1655 55.8729 65.1574 56.0025 65.1412 56.1645C65.125 56.3265 65.1007 56.4885 65.0683 56.6505C65.0521 56.8125 65.0359 56.9664 65.0197 57.1122C65.0035 57.258 64.9954 57.3795 64.9954 57.4767C64.9954 57.5576 64.9954 57.6224 64.9954 57.671C65.0116 57.7196 65.0197 57.7844 65.0197 57.8654C65.0197 58.0112 65.0035 58.1732 64.9711 58.3514C64.9387 58.5134 64.9225 58.6997 64.9225 58.9103C64.9225 59.1047 64.9468 59.3072 64.9954 59.5178C64.8173 60.2467 64.4447 60.6112 63.8777 60.6112C63.0839 60.6112 62.687 59.866 62.687 58.3757C62.687 57.8735 62.7113 57.3795 62.7599 56.8935C62.8085 56.3913 62.8652 55.9296 62.93 55.5084C62.9948 55.0873 63.0596 54.7228 63.1244 54.415C63.2054 54.091 63.2702 53.8399 63.3188 53.6617C63.5618 53.3053 63.902 53.1271 64.3394 53.1271C64.7606 53.1271 65.1169 53.2891 65.4085 53.6131ZM76.3575 52.7384C76.6167 52.9003 76.7463 53.2081 76.7463 53.6617C76.7463 54.0019 76.6572 54.2935 76.479 54.5365C76.3008 54.7795 76.0578 54.901 75.75 54.901C75.5556 54.901 75.3531 54.8524 75.1425 54.7552C74.9481 54.6418 74.7376 54.5851 74.5108 54.5851C74.3164 54.5851 74.122 54.6256 73.9276 54.7066C73.7494 54.7714 73.5388 54.9253 73.2958 55.1682L72.5669 55.8972C72.5669 56.0106 72.5669 56.124 72.5669 56.2374C72.5831 56.3508 72.5911 56.4723 72.5911 56.6019C72.5911 56.7963 72.5831 56.9988 72.5669 57.2094C72.5669 57.42 72.5588 57.6467 72.5426 57.8897L72.7612 60.1009C72.7126 60.8461 72.332 61.2187 71.6192 61.2187C71.2466 61.2187 70.9712 61.1053 70.793 60.8785C70.6148 60.6355 70.4933 60.3034 70.4285 59.8822C70.3637 59.4611 70.3313 58.967 70.3313 58.4C70.3475 57.833 70.3475 57.2094 70.3313 56.529C70.2989 55.5084 70.2746 54.9982 70.2584 54.9982V55.0225C70.1937 54.7795 70.1451 54.5689 70.1127 54.3907C70.0803 54.1963 70.0641 54.0262 70.0641 53.8804C70.0641 53.5888 70.1694 53.3539 70.3799 53.1757C70.5905 52.9813 70.8983 52.8841 71.3033 52.8841C71.5625 52.8841 71.8703 53.0866 72.2267 53.4916C72.5992 53.2 72.8827 52.9813 73.0771 52.8355C73.2877 52.6898 73.4578 52.5845 73.5874 52.5197C73.7332 52.4549 73.8709 52.4225 74.0005 52.4225C74.1301 52.4063 74.3002 52.3982 74.5108 52.3982C74.689 52.382 74.851 52.3901 74.9967 52.4225C75.1587 52.4549 75.3288 52.4873 75.507 52.5197L76.3575 52.7384ZM87.4824 60.028C86.964 60.5464 86.3809 60.9838 85.7329 61.3402C85.0849 61.7128 84.4289 61.8991 83.7647 61.8991C83.1653 61.8991 82.3958 61.8019 81.4563 61.6075C81.1323 61.3969 80.8083 61.1458 80.4843 60.8542C80.1603 60.5464 79.8688 60.2143 79.6096 59.8579C79.3504 59.4854 79.1398 59.0885 78.9778 58.6673C78.8158 58.2299 78.7348 57.7844 78.7348 57.3309C78.7348 57.2013 78.7429 57.0312 78.7591 56.8206C78.7753 56.5938 78.7915 56.3751 78.8077 56.1645C78.8401 55.9377 78.8644 55.7433 78.8806 55.5813C78.8968 55.4193 78.9049 55.3383 78.9049 55.3383C79.2289 54.82 79.5691 54.3097 79.9254 53.8075C80.298 53.2891 80.8164 52.8355 81.4806 52.4468C82.5335 52.22 83.2949 52.1066 83.7647 52.1066C84.0077 52.1066 84.2183 52.1228 84.3965 52.1552C84.5747 52.1714 84.7447 52.22 84.9067 52.301C85.0849 52.3658 85.255 52.4711 85.417 52.6169C85.5952 52.7627 85.7977 52.9489 86.0245 53.1757C86.2837 53.4511 86.4862 53.6374 86.632 53.7346C86.794 53.8318 86.875 53.9209 86.875 54.0019C86.875 55.4922 86.4133 56.5047 85.4899 57.0393C85.0849 57.1851 84.5585 57.3471 83.9105 57.5252C83.2625 57.6872 82.3796 57.8411 81.2619 57.9869C81.4887 58.6025 81.7884 59.0642 82.161 59.372C82.5335 59.6798 82.9547 59.8336 83.4245 59.8336C84.1211 59.8336 84.9958 59.4206 86.0488 58.5944C86.2108 58.4486 86.4133 58.3757 86.6563 58.3757C86.9155 58.3757 87.1422 58.4729 87.3366 58.6673C87.5472 58.8617 87.6525 59.1047 87.6525 59.3963C87.6525 59.6069 87.5958 59.8175 87.4824 60.028ZM84.7366 54.8281C84.4289 54.3259 84.0644 54.0748 83.6432 54.0748C83.465 54.0748 83.2706 54.0991 83.06 54.1477C82.8494 54.1963 82.6307 54.2692 82.4039 54.3664C82.1934 54.4474 81.9909 54.5527 81.7965 54.6823C81.6183 54.8119 81.4725 54.9658 81.3591 55.1439L81.1161 55.8729C81.6669 55.8243 82.1529 55.7838 82.574 55.7514C82.9952 55.719 83.3597 55.6704 83.6675 55.6056C83.9753 55.5408 84.2183 55.4517 84.3965 55.3383C84.5747 55.2249 84.688 55.0549 84.7366 54.8281ZM99.7908 50.0898C99.6774 50.5271 99.564 50.924 99.4506 51.2804C99.3534 51.6206 99.2238 51.9365 99.0618 52.2281C98.8998 52.5035 98.6973 52.7708 98.4544 53.0299C98.2276 53.2729 97.936 53.5159 97.5796 53.7589C97.0936 54.0829 96.7291 54.3583 96.4861 54.5851C96.2594 54.8119 96.0974 55.0144 96.0002 55.1925C95.9192 55.3707 95.8787 55.5408 95.8787 55.7028C95.8949 55.8486 95.8949 56.0025 95.8787 56.1645C95.7329 56.6991 95.3522 56.9664 94.7366 56.9664C94.3154 56.9664 94.04 56.8287 93.9105 56.5533C93.7971 56.2617 93.7404 55.962 93.7404 55.6542C93.7404 55.4274 93.7728 55.1763 93.8376 54.901C93.9024 54.6256 94.0076 54.3583 94.1534 54.0991C94.2992 53.8237 94.4936 53.5564 94.7366 53.2972C94.9796 53.038 95.2793 52.8112 95.6357 52.6169C96.2027 52.2929 96.6157 51.9689 96.8749 51.6449C96.9397 51.5801 97.1827 51.0536 97.6039 50.0655C97.5715 49.7253 97.4824 49.4499 97.3366 49.2393C97.1908 49.0125 97.0207 48.8424 96.8263 48.729C96.6319 48.5994 96.4294 48.5103 96.2189 48.4617C96.0245 48.4131 95.8706 48.3888 95.7572 48.3888C95.5304 48.3888 95.3198 48.4131 95.1254 48.4617C94.931 48.4941 94.7366 48.5832 94.5422 48.729C94.364 48.8586 94.1777 49.0611 93.9833 49.3365C93.8052 49.5957 93.6108 49.944 93.4002 50.3814C93.222 50.6243 92.9628 50.7458 92.6226 50.7458C92.3148 50.7458 92.0394 50.6405 91.7964 50.43C91.5535 50.2194 91.432 49.9278 91.432 49.5552C91.7073 48.7776 92.0394 48.1701 92.4282 47.7328C92.8332 47.2954 93.2382 46.9633 93.6432 46.7365C94.0643 46.5097 94.4693 46.372 94.8581 46.3234C95.2469 46.2586 95.5628 46.2262 95.8058 46.2262C96.5347 46.2262 97.126 46.3315 97.5796 46.5421C98.0332 46.7527 98.4058 47.0362 98.6973 47.3926C98.9889 47.7328 99.2076 48.1377 99.3534 48.6075C99.5154 49.0773 99.6612 49.5714 99.7908 50.0898ZM96.1217 60.514C96.1217 60.6598 96.0731 60.8056 95.9759 60.9514C95.8949 61.0972 95.7815 61.2187 95.6357 61.3159C95.5061 61.4293 95.3522 61.5184 95.174 61.5832C95.012 61.6642 94.8581 61.7047 94.7123 61.7047C94.3235 61.7047 94.0076 61.648 93.7647 61.5346C93.5217 61.4374 93.3354 61.3078 93.2058 61.1458C93.0924 60.9838 93.0114 60.8137 92.9628 60.6355C92.9304 60.4411 92.9142 60.2629 92.9142 60.1009C92.9142 59.696 93.0519 59.3153 93.3273 58.9589C93.6027 58.5863 93.959 58.4 94.3964 58.4C94.5422 58.4 94.7123 58.4162 94.9067 58.4486C95.1173 58.481 95.3117 58.5701 95.4899 58.7159C95.6681 58.8617 95.8139 59.0804 95.9273 59.372C96.0569 59.6474 96.1217 60.028 96.1217 60.514Z" fill="white"/>
</svg>
