<svg width="99" height="78" viewBox="0 0 99 78" fill="none" xmlns="http://www.w3.org/2000/svg">
<g clip-path="url(#clip0_1_2)">
<path d="M6.26266 10.4416C6.688 10.5248 6.90066 10.8368 6.90066 11.3776C6.90066 11.6688 6.82733 11.8976 6.68067 12.064C6.534 12.2304 6.34333 12.3136 6.10867 12.3136C6.03533 12.3136 5.896 12.3067 5.69067 12.2928C5.48533 12.2651 5.26533 12.2443 5.03066 12.2304C4.796 12.2027 4.56867 12.1819 4.34867 12.168C4.12867 12.1403 3.97466 12.1264 3.88666 12.1264C3.79866 12.1264 3.718 12.1264 3.64467 12.1264C3.57133 12.1264 3.498 12.1333 3.42467 12.1472C3.17533 12.1333 2.882 12.1056 2.54467 12.064C2.222 12.0085 1.89933 11.9531 1.57667 11.8976C1.26867 11.8283 0.989998 11.7589 0.740665 11.6896C0.505998 11.6203 0.366665 11.5579 0.322665 11.5024C0.175998 11.0864 0.102665 10.5317 0.102665 9.8384C0.102665 9.72747 0.102665 9.61653 0.102665 9.5056C0.102665 9.3808 0.109998 9.256 0.124665 9.1312L0.256665 7.6544C0.271332 7.54347 0.278665 7.43947 0.278665 7.3424C0.278665 7.23147 0.278665 7.1344 0.278665 7.0512C0.278665 6.94027 0.278665 6.85013 0.278665 6.7808C0.278665 6.6976 0.263998 6.62133 0.234665 6.552C0.337332 6.02507 0.410665 5.58827 0.454665 5.2416C0.498665 4.88107 0.520665 4.60373 0.520665 4.4096V4.2432C0.520665 4.04907 0.608665 3.432 0.784665 2.392C1.00466 1.94827 1.342 1.7264 1.79667 1.7264C2.07533 1.7264 2.31 1.8304 2.50066 2.0384C2.69133 2.23253 2.78666 2.50293 2.78666 2.8496C2.728 3.04373 2.66933 3.2864 2.61067 3.5776C2.56667 3.8688 2.52267 4.21547 2.47867 4.6176V4.784C2.47867 4.9088 2.464 5.10293 2.43466 5.3664C2.42 5.616 2.398 5.87947 2.36867 6.1568C2.33933 6.42027 2.31 6.66293 2.28066 6.8848C2.266 7.0928 2.25866 7.21067 2.25866 7.2384C2.25866 7.39093 2.266 7.488 2.28066 7.5296C2.222 8.112 2.178 8.59733 2.14867 8.9856C2.11933 9.37387 2.10467 9.672 2.10467 9.88C2.10467 10.0187 2.112 10.1088 2.12666 10.1504C2.88933 10.2336 3.39533 10.2752 3.64467 10.2752C3.762 10.2752 3.87933 10.2752 3.99667 10.2752C4.12867 10.2613 4.26066 10.2544 4.39266 10.2544C4.95 10.2544 5.57333 10.3168 6.26266 10.4416ZM15.1345 12.48C14.9439 12.6048 14.6359 12.7296 14.2105 12.8544C13.7852 12.9653 13.3452 13.0624 12.8905 13.1456L11.9885 12.9792C11.8565 12.9376 11.6365 12.8405 11.3285 12.688C11.0352 12.5355 10.7345 12.3067 10.4265 12.0016C10.1185 11.6827 9.8472 11.2805 9.61253 10.7952C9.37786 10.296 9.26053 9.6928 9.26053 8.9856C9.26053 8.736 9.3192 8.4448 9.43653 8.112C9.56853 7.76533 9.7592 7.4464 10.0085 7.1552C10.2579 6.85013 10.5659 6.5936 10.9325 6.3856C11.3139 6.1776 11.7539 6.0736 12.2525 6.0736C13.2499 6.0736 14.1519 6.37867 14.9585 6.9888C15.6625 7.904 16.0145 8.91627 16.0145 10.0256C16.0145 10.8437 15.7212 11.6619 15.1345 12.48ZM14.0565 9.5264C13.9832 8.9856 13.7999 8.56267 13.5065 8.2576C13.2279 7.93867 12.8685 7.7792 12.4285 7.7792C12.1352 7.7792 11.8565 7.91787 11.5925 8.1952C11.3432 8.45867 11.2185 8.84693 11.2185 9.36C11.2185 9.568 11.2479 9.78987 11.3065 10.0256C11.3652 10.2475 11.4605 10.4555 11.5925 10.6496C11.7245 10.8299 11.8932 10.9824 12.0985 11.1072C12.3039 11.2181 12.5532 11.2736 12.8465 11.2736C13.3159 11.2736 13.6385 11.1419 13.8145 10.8784C13.9905 10.6011 14.0785 10.2613 14.0785 9.8592C14.0785 9.80373 14.0712 9.7552 14.0565 9.7136C14.0565 9.65813 14.0565 9.59573 14.0565 9.5264ZM24.4158 12.48C24.2251 12.6048 23.9171 12.7296 23.4918 12.8544C23.0664 12.9653 22.6264 13.0624 22.1718 13.1456L21.2698 12.9792C21.1378 12.9376 20.9178 12.8405 20.6098 12.688C20.3164 12.5355 20.0158 12.3067 19.7078 12.0016C19.3998 11.6827 19.1284 11.2805 18.8938 10.7952C18.6591 10.296 18.5418 9.6928 18.5418 8.9856C18.5418 8.736 18.6004 8.4448 18.7178 8.112C18.8498 7.76533 19.0404 7.4464 19.2898 7.1552C19.5391 6.85013 19.8471 6.5936 20.2138 6.3856C20.5951 6.1776 21.0351 6.0736 21.5338 6.0736C22.5311 6.0736 23.4331 6.37867 24.2398 6.9888C24.9438 7.904 25.2958 8.91627 25.2958 10.0256C25.2958 10.8437 25.0024 11.6619 24.4158 12.48ZM23.3378 9.5264C23.2644 8.9856 23.0811 8.56267 22.7878 8.2576C22.5091 7.93867 22.1498 7.7792 21.7098 7.7792C21.4164 7.7792 21.1378 7.91787 20.8738 8.1952C20.6244 8.45867 20.4998 8.84693 20.4998 9.36C20.4998 9.568 20.5291 9.78987 20.5878 10.0256C20.6464 10.2475 20.7418 10.4555 20.8738 10.6496C21.0058 10.8299 21.1744 10.9824 21.3798 11.1072C21.5851 11.2181 21.8344 11.2736 22.1278 11.2736C22.5971 11.2736 22.9198 11.1419 23.0958 10.8784C23.2718 10.6011 23.3598 10.2613 23.3598 9.8592C23.3598 9.80373 23.3524 9.7552 23.3378 9.7136C23.3378 9.65813 23.3378 9.59573 23.3378 9.5264ZM35.039 11.1904C35.0537 11.2459 35.061 11.2944 35.061 11.336C35.0757 11.3776 35.083 11.4261 35.083 11.4816C35.083 11.7728 34.9877 12.0085 34.797 12.1888C34.6064 12.3691 34.3864 12.4592 34.137 12.4592C33.917 12.4592 33.719 12.3691 33.543 12.1888C33.367 12.0085 33.1764 11.7797 32.971 11.5024C32.7804 11.2251 32.5604 10.92 32.311 10.5872C32.0617 10.2544 31.7537 9.93547 31.387 9.6304C31.3284 9.57493 31.2184 9.49867 31.057 9.4016C30.8957 9.29067 30.6904 9.152 30.441 8.9856L30.309 9.048C30.2797 9.14507 30.2577 9.26293 30.243 9.4016C30.199 9.63733 30.177 9.94933 30.177 10.3376C30.177 10.4485 30.1917 10.5733 30.221 10.712C30.221 10.7397 30.2137 10.7675 30.199 10.7952C30.199 10.8229 30.199 10.8576 30.199 10.8992C30.199 11.024 30.199 11.1904 30.199 11.3984C30.2137 11.5925 30.2284 11.7867 30.243 11.9808C30.2577 12.1611 30.265 12.3205 30.265 12.4592C30.2797 12.5979 30.287 12.6603 30.287 12.6464C30.287 12.8821 30.177 13.0624 29.957 13.1872C29.737 13.312 29.495 13.3744 29.231 13.3744C28.8497 13.3744 28.593 13.2011 28.461 12.8544C28.3437 12.5077 28.285 11.9184 28.285 11.0864C28.285 10.5317 28.307 10.0325 28.351 9.5888C28.395 9.1312 28.417 8.72907 28.417 8.3824V8.0288C28.417 7.95947 28.4244 7.8416 28.439 7.6752C28.4684 7.5088 28.4904 7.3216 28.505 7.1136C28.5344 6.9056 28.5564 6.6976 28.571 6.4896C28.6004 6.26773 28.615 6.08053 28.615 5.928V5.6992C28.6297 5.6576 28.6517 5.4704 28.681 5.1376C28.7104 4.8048 28.7617 4.42347 28.835 3.9936C28.9084 3.54987 28.9964 3.0992 29.099 2.6416C29.2164 2.17013 29.3557 1.77493 29.517 1.456C29.6197 1.248 29.847 1.144 30.199 1.144C30.859 1.144 31.189 1.38667 31.189 1.872C31.189 1.98293 31.1597 2.19093 31.101 2.496C31.0424 2.80107 30.9764 3.13387 30.903 3.4944C30.8444 3.84107 30.7857 4.1808 30.727 4.5136C30.683 4.8464 30.661 5.096 30.661 5.2624C30.6317 5.304 30.5657 5.824 30.463 6.8224C30.683 6.68373 30.881 6.54507 31.057 6.4064C31.2477 6.25387 31.4457 6.10133 31.651 5.9488C31.8564 5.79627 32.0984 5.6368 32.377 5.4704C32.6557 5.29013 33.0004 5.08907 33.411 4.8672C33.4404 4.8672 33.4624 4.8672 33.477 4.8672C33.4917 4.85333 33.5137 4.8464 33.543 4.8464C33.763 4.8464 33.983 4.94347 34.203 5.1376C34.423 5.33173 34.533 5.5536 34.533 5.8032C34.533 5.95573 34.5257 6.06667 34.511 6.136C34.4964 6.19147 34.4304 6.2608 34.313 6.344C34.2104 6.4272 34.0344 6.53813 33.785 6.6768C33.5357 6.81547 33.1837 7.0304 32.729 7.3216C32.6997 7.39093 32.4577 7.5504 32.003 7.8C32.179 7.93867 32.289 8.0288 32.333 8.0704C32.3917 8.112 32.465 8.18133 32.553 8.2784C32.641 8.3616 32.7877 8.51413 32.993 8.736C33.213 8.944 33.5797 9.29067 34.093 9.776C34.3717 10.1365 34.687 10.608 35.039 11.1904ZM41.0172 3.2032C41.0465 3.31413 41.0612 3.41813 41.0612 3.5152C41.0612 3.95893 40.9218 4.33333 40.6432 4.6384C40.2032 4.8048 39.7632 4.888 39.3232 4.888C39.0445 4.7216 38.8098 4.5344 38.6192 4.3264C38.4432 4.10453 38.3552 3.8896 38.3552 3.6816C38.3552 3.50133 38.5752 3.0576 39.0152 2.3504C39.2058 2.37813 39.4038 2.39893 39.6092 2.4128C39.8292 2.42667 40.0272 2.46133 40.2032 2.5168C40.3938 2.57227 40.5552 2.65547 40.6872 2.7664C40.8338 2.86347 40.9438 3.00907 41.0172 3.2032ZM40.3132 6.6768V6.9472C40.3132 7.01653 40.3132 7.0928 40.3132 7.176C40.3132 7.2592 40.2985 7.33547 40.2692 7.4048L40.0932 8.3408V8.528C40.0932 8.6112 40.0858 8.72213 40.0712 8.8608C40.0565 8.99947 40.0345 9.13813 40.0052 9.2768C39.9905 9.41547 39.9758 9.5472 39.9612 9.672C39.9465 9.7968 39.9392 9.9008 39.9392 9.984C39.9392 10.0533 39.9392 10.1088 39.9392 10.1504C39.9538 10.192 39.9612 10.2475 39.9612 10.3168C39.9612 10.4416 39.9465 10.5803 39.9172 10.7328C39.8878 10.8715 39.8732 11.0309 39.8732 11.2112C39.8732 11.3776 39.8952 11.5509 39.9392 11.7312C39.7778 12.3552 39.4405 12.6672 38.9272 12.6672C38.2085 12.6672 37.8492 12.0293 37.8492 10.7536C37.8492 10.3237 37.8712 9.9008 37.9152 9.4848C37.9592 9.05493 38.0105 8.65973 38.0692 8.2992C38.1278 7.93867 38.1865 7.62667 38.2452 7.3632C38.3185 7.08587 38.3772 6.87093 38.4212 6.7184C38.6412 6.41333 38.9492 6.2608 39.3452 6.2608C39.7265 6.2608 40.0492 6.39947 40.3132 6.6768ZM51.4363 10.6912V10.8576C51.4363 10.9408 51.4363 11.0933 51.4363 11.3152C51.4509 11.5232 51.4289 11.7381 51.3703 11.96C51.3263 12.1819 51.2309 12.3829 51.0843 12.5632C50.9376 12.7296 50.7176 12.8128 50.4243 12.8128C49.8523 12.8128 49.5149 12.5979 49.4123 12.168C49.4269 12.0848 49.4343 11.9947 49.4343 11.8976C49.4343 11.7867 49.4343 11.6688 49.4343 11.544C49.4343 11.4885 49.4343 11.2875 49.4343 10.9408C49.4343 10.5803 49.4196 10.192 49.3903 9.776C49.3756 9.36 49.3316 8.97173 49.2583 8.6112C49.1849 8.2368 49.0749 8.00107 48.9283 7.904C48.5909 7.68213 48.2903 7.5712 48.0263 7.5712C47.6743 7.5712 47.3736 7.6752 47.1243 7.8832C46.8896 8.07733 46.6916 8.4656 46.5303 9.048C46.5156 9.24213 46.5009 9.464 46.4863 9.7136C46.4716 9.94933 46.4496 10.2197 46.4203 10.5248C46.4203 10.7605 46.4276 11.024 46.4423 11.3152C46.4569 11.5925 46.4789 11.9115 46.5083 12.272C46.5083 12.5355 46.3983 12.7573 46.1783 12.9376C45.9583 13.104 45.7089 13.1872 45.4303 13.1872C45.2103 13.1872 45.0343 13.1317 44.9023 13.0208C44.7703 12.9099 44.6676 12.7643 44.5943 12.584C44.5356 12.4037 44.4916 12.2096 44.4623 12.0016C44.4476 11.7936 44.4403 11.5856 44.4403 11.3776C44.4403 11.2251 44.4476 11.0725 44.4623 10.92C44.4769 10.7536 44.4989 10.5872 44.5283 10.4208L44.7043 8.424L44.8803 7.4256C44.8509 7.2592 44.7923 7.07893 44.7043 6.8848C44.6163 6.69067 44.5723 6.53813 44.5723 6.4272C44.5723 6.19147 44.6676 5.97653 44.8583 5.7824C45.0636 5.58827 45.3129 5.4912 45.6063 5.4912C45.8116 5.4912 45.9656 5.5328 46.0683 5.616C46.1709 5.68533 46.3396 5.8656 46.5743 6.1568C46.8676 6.032 47.1023 5.95573 47.2783 5.928C47.4543 5.8864 47.6596 5.8656 47.8943 5.8656C48.6569 5.8656 49.3243 6.03893 49.8963 6.3856C50.4829 6.7184 50.8496 7.28 50.9963 8.0704C51.0403 8.3616 51.0769 8.60427 51.1063 8.7984C51.1503 8.99253 51.1869 9.17973 51.2163 9.36C51.2456 9.54027 51.2749 9.7344 51.3043 9.9424C51.3336 10.1365 51.3776 10.3861 51.4363 10.6912ZM62.5161 6.0944C62.5601 6.28853 62.5821 6.5312 62.5821 6.8224C62.5821 7.05813 62.5674 7.33547 62.5381 7.6544C62.5088 7.95947 62.4648 8.2992 62.4061 8.6736C62.4208 8.7152 62.4281 8.76373 62.4281 8.8192C62.4281 8.87467 62.4281 8.93707 62.4281 9.0064C62.4281 9.15893 62.4134 9.3392 62.3841 9.5472C62.3694 9.74133 62.3474 9.97013 62.3181 10.2336C62.3328 10.3029 62.3401 10.3723 62.3401 10.4416C62.3401 10.5109 62.3401 10.5941 62.3401 10.6912C62.3401 11.0101 62.3181 11.4053 62.2741 11.8768C62.2301 12.3483 62.1715 12.9099 62.0981 13.5616C61.8928 15.1701 61.1961 16.3419 60.0081 17.0768C59.5828 17.2293 59.1575 17.3403 58.7321 17.4096C58.3215 17.4928 57.9034 17.5344 57.4781 17.5344C56.9208 17.5344 56.0481 17.3056 54.8601 16.848L53.7601 15.9744C53.5401 15.808 53.3861 15.6763 53.2981 15.5792C53.2248 15.4821 53.1881 15.3643 53.1881 15.2256C53.1881 14.9344 53.2761 14.6779 53.4521 14.456C53.6281 14.248 53.8628 14.144 54.1561 14.144C54.3468 14.144 54.5594 14.1995 54.7941 14.3104L55.8941 15.184C56.4221 15.5168 57.0161 15.6901 57.6761 15.704C57.7494 15.7179 57.8448 15.704 57.9621 15.6624C58.0794 15.6347 58.2188 15.6 58.3801 15.5584L59.1061 15.3712C59.6341 15.0523 59.9788 14.4629 60.1401 13.6032C60.1548 13.4784 60.1695 13.3259 60.1841 13.1456C60.2135 12.8128 60.2575 12.3413 60.3161 11.7312C60.2575 11.7589 60.1255 11.8144 59.9201 11.8976C59.7148 11.9669 59.4581 12.0501 59.1501 12.1472C58.8568 12.2304 58.5121 12.3067 58.1161 12.376C57.7348 12.4453 57.3314 12.48 56.9061 12.48C56.8328 12.48 56.7521 12.4661 56.6641 12.4384C56.5908 12.3968 56.4881 12.3344 56.3561 12.2512C56.2241 12.168 56.0628 12.0571 55.8721 11.9184C55.6961 11.7797 55.4761 11.5995 55.2121 11.3776L54.6841 10.4416C54.5521 10.2059 54.4568 9.97013 54.3981 9.7344C54.3541 9.4848 54.3321 9.24213 54.3321 9.0064C54.3321 8.61813 54.4861 8.22987 54.7941 7.8416C55.1168 7.43947 55.5128 7.07893 55.9821 6.76C56.4661 6.44107 56.9868 6.18453 57.5441 5.9904C58.1014 5.7824 58.6148 5.6784 59.0841 5.6784C59.3041 5.6784 59.5168 5.69227 59.7221 5.72C59.9421 5.74773 60.2721 5.824 60.7121 5.9488L60.8221 5.6992C61.0128 5.5744 61.2475 5.512 61.5261 5.512C62.0835 5.512 62.4135 5.70613 62.5161 6.0944ZM60.4261 7.8416C60.2795 7.74453 60.1108 7.6752 59.9201 7.6336C59.7441 7.592 59.5681 7.5504 59.3921 7.5088C59.2014 7.53653 58.9815 7.57813 58.7321 7.6336C58.4828 7.6752 58.2041 7.73067 57.8961 7.8C56.9281 8.32693 56.4441 8.80533 56.4441 9.2352C56.4441 9.47093 56.5321 9.70667 56.7081 9.9424C56.8841 10.1643 57.1335 10.3931 57.4561 10.6288C57.6761 10.6149 57.9108 10.5941 58.1601 10.5664C58.4094 10.5248 58.6588 10.4624 58.9081 10.3792C59.1574 10.296 59.3994 10.1781 59.6341 10.0256C59.8688 9.8592 60.0961 9.63733 60.3161 9.36C60.3455 9.12427 60.3674 8.9024 60.3821 8.6944C60.4114 8.4864 60.4261 8.28533 60.4261 8.0912V7.8416ZM80.0464 6.5312L78.8584 6.6352C78.7997 6.6352 78.7337 6.64213 78.6604 6.656C78.587 6.66987 78.499 6.68373 78.3964 6.6976C78.3084 6.71147 78.2057 6.72533 78.0884 6.7392L78.2644 8.632C78.279 8.81227 78.2937 9.03413 78.3084 9.2976C78.3377 9.56107 78.3817 9.87307 78.4404 10.2336C78.4257 10.3445 78.411 10.4555 78.3964 10.5664C78.3964 10.6773 78.3964 10.8021 78.3964 10.9408C78.3964 11.1488 78.4037 11.3776 78.4184 11.6272C78.433 11.8768 78.455 12.1472 78.4844 12.4384C78.2204 12.8544 77.8464 13.0624 77.3624 13.0624C76.9224 13.0624 76.6144 12.8613 76.4384 12.4592C76.4384 12.3483 76.4384 12.2165 76.4384 12.064C76.453 11.8976 76.4604 11.7173 76.4604 11.5232C76.4604 11.3291 76.453 11.1211 76.4384 10.8992C76.4384 10.6635 76.4384 10.4069 76.4384 10.1296V10.0256C76.4384 9.80373 76.4237 9.63733 76.3944 9.5264C76.3797 9.41547 76.3577 9.2768 76.3284 9.1104C76.299 8.93013 76.2624 8.68053 76.2184 8.3616C76.1744 8.04267 76.1304 7.55733 76.0864 6.9056L75.2724 7.0512C75.2284 7.0512 75.1844 7.0512 75.1404 7.0512C75.111 7.03733 75.0817 7.0304 75.0524 7.0304C74.979 7.0304 74.913 7.03733 74.8544 7.0512C74.7957 7.0512 74.7444 7.0512 74.7004 7.0512C74.6417 7.06507 74.5904 7.072 74.5464 7.072C74.077 6.96107 73.8424 6.64213 73.8424 6.1152C73.8424 5.9072 73.8644 5.74773 73.9084 5.6368C73.9524 5.52587 74.0477 5.44267 74.1944 5.3872C74.341 5.33173 74.5537 5.29013 74.8324 5.2624C75.1257 5.2208 75.507 5.16533 75.9764 5.096C75.9617 4.86027 75.9324 4.58987 75.8884 4.2848C75.859 3.96587 75.8444 3.62613 75.8444 3.2656C75.8444 2.71093 76.1084 1.98293 76.6364 1.0816C76.783 1.01227 76.9224 0.942934 77.0544 0.8736C77.201 0.804267 77.3697 0.741867 77.5604 0.6864C77.7657 0.617067 78.0004 0.554667 78.2644 0.4992C78.543 0.429867 78.8877 0.367467 79.2984 0.312H79.3864C79.6357 0.312 79.8264 0.402134 79.9584 0.5824C80.105 0.762666 80.1784 0.970667 80.1784 1.2064C80.1784 1.46987 80.1124 1.67093 79.9804 1.8096C79.863 1.9344 79.709 2.0384 79.5184 2.1216C79.3277 2.19093 79.115 2.25333 78.8804 2.3088C78.6604 2.3504 78.455 2.4128 78.2644 2.496C78.0884 2.55147 77.9784 2.65547 77.9344 2.808C77.905 2.96053 77.883 3.11307 77.8684 3.2656C77.8684 3.29333 77.8757 3.4112 77.8904 3.6192C77.905 3.81333 77.9124 3.98667 77.9124 4.1392C77.9124 4.1808 77.905 4.2224 77.8904 4.264C77.8904 4.29173 77.8904 4.31947 77.8904 4.3472C77.8904 4.40267 77.8904 4.47893 77.8904 4.576C77.905 4.6592 77.9197 4.77707 77.9344 4.9296L78.9464 4.8048C79.049 4.79093 79.1444 4.784 79.2324 4.784C79.335 4.784 79.423 4.784 79.4964 4.784C79.863 4.784 80.127 4.8464 80.2884 4.9712C80.4644 5.096 80.5524 5.31093 80.5524 5.616C80.5524 6.10133 80.3837 6.4064 80.0464 6.5312ZM88.3747 12.48C88.1841 12.6048 87.8761 12.7296 87.4507 12.8544C87.0254 12.9653 86.5854 13.0624 86.1307 13.1456L85.2287 12.9792C85.0967 12.9376 84.8767 12.8405 84.5687 12.688C84.2754 12.5355 83.9747 12.3067 83.6667 12.0016C83.3587 11.6827 83.0874 11.2805 82.8527 10.7952C82.6181 10.296 82.5007 9.6928 82.5007 8.9856C82.5007 8.736 82.5594 8.4448 82.6767 8.112C82.8087 7.76533 82.9994 7.4464 83.2487 7.1552C83.4981 6.85013 83.8061 6.5936 84.1727 6.3856C84.5541 6.1776 84.9941 6.0736 85.4927 6.0736C86.4901 6.0736 87.3921 6.37867 88.1987 6.9888C88.9027 7.904 89.2547 8.91627 89.2547 10.0256C89.2547 10.8437 88.9614 11.6619 88.3747 12.48ZM87.2967 9.5264C87.2234 8.9856 87.0401 8.56267 86.7467 8.2576C86.4681 7.93867 86.1087 7.7792 85.6687 7.7792C85.3754 7.7792 85.0967 7.91787 84.8327 8.1952C84.5834 8.45867 84.4587 8.84693 84.4587 9.36C84.4587 9.568 84.4881 9.78987 84.5467 10.0256C84.6054 10.2475 84.7007 10.4555 84.8327 10.6496C84.9647 10.8299 85.1334 10.9824 85.3387 11.1072C85.5441 11.2181 85.7934 11.2736 86.0867 11.2736C86.5561 11.2736 86.8787 11.1419 87.0547 10.8784C87.2307 10.6011 87.3187 10.2613 87.3187 9.8592C87.3187 9.80373 87.3114 9.7552 87.2967 9.7136C87.2967 9.65813 87.2967 9.59573 87.2967 9.5264ZM97.9862 5.928C98.2208 6.06667 98.3382 6.33013 98.3382 6.7184C98.3382 7.0096 98.2575 7.2592 98.0962 7.4672C97.9348 7.6752 97.7148 7.7792 97.4362 7.7792C97.2602 7.7792 97.0768 7.7376 96.8862 7.6544C96.7102 7.55733 96.5195 7.5088 96.3142 7.5088C96.1382 7.5088 95.9622 7.54347 95.7862 7.6128C95.6248 7.66827 95.4342 7.8 95.2142 8.008L94.5542 8.632C94.5542 8.72907 94.5542 8.82613 94.5542 8.9232C94.5688 9.02027 94.5762 9.12427 94.5762 9.2352C94.5762 9.4016 94.5688 9.57493 94.5542 9.7552C94.5542 9.93547 94.5468 10.1296 94.5322 10.3376L94.7302 12.2304C94.6862 12.8683 94.3415 13.1872 93.6962 13.1872C93.3588 13.1872 93.1095 13.0901 92.9482 12.896C92.7868 12.688 92.6768 12.4037 92.6182 12.0432C92.5595 11.6827 92.5302 11.2597 92.5302 10.7744C92.5448 10.2891 92.5448 9.7552 92.5302 9.1728C92.5008 8.2992 92.4788 7.8624 92.4642 7.8624V7.8832C92.4055 7.6752 92.3615 7.49493 92.3322 7.3424C92.3028 7.176 92.2882 7.0304 92.2882 6.9056C92.2882 6.656 92.3835 6.45493 92.5742 6.3024C92.7648 6.136 93.0435 6.0528 93.4102 6.0528C93.6448 6.0528 93.9235 6.22613 94.2462 6.5728C94.5835 6.3232 94.8402 6.136 95.0162 6.0112C95.2068 5.8864 95.3608 5.79627 95.4782 5.7408C95.6102 5.68533 95.7348 5.6576 95.8522 5.6576C95.9695 5.64373 96.1235 5.6368 96.3142 5.6368C96.4755 5.62293 96.6222 5.62987 96.7542 5.6576C96.9008 5.68533 97.0548 5.71307 97.2162 5.7408L97.9862 5.928ZM33.7394 36.5456C34.0034 36.712 34.1354 36.9131 34.1354 37.1488C34.1354 37.2736 34.0987 37.4053 34.0254 37.544C33.952 37.6688 33.8567 37.7867 33.7394 37.8976C33.622 37.9947 33.4974 38.0779 33.3654 38.1472C33.2334 38.2165 33.1014 38.2512 32.9694 38.2512C32.852 38.2096 32.7127 38.1403 32.5514 38.0432C32.3901 37.9323 32.2287 37.8144 32.0674 37.6896C31.9061 37.5509 31.752 37.3984 31.6054 37.232C31.4734 37.0656 31.3707 36.8992 31.2974 36.7328L31.1434 37.0864C30.8647 37.5856 30.4247 38.0571 29.8234 38.5008C29.09 38.6256 28.6647 38.688 28.5474 38.688C28.2687 38.688 27.9314 38.6464 27.5354 38.5632L26.3254 37.752C25.7974 37.2805 25.5334 36.6357 25.5334 35.8176C25.5334 35.5264 25.5774 35.2075 25.6654 34.8608C25.768 34.5003 25.9074 34.1397 26.0834 33.7792C26.274 33.4187 26.5014 33.0651 26.7654 32.7184C27.0294 32.3717 27.3374 32.0597 27.6894 31.7824C28.1147 31.6299 28.5254 31.5051 28.9214 31.408C29.3174 31.2971 29.618 31.2277 29.8234 31.2C30.102 30.9088 30.4321 30.7632 30.8134 30.7632C31.0334 30.7632 31.2241 30.8672 31.3854 31.0752C31.5614 31.2693 31.7081 31.5189 31.8254 31.824C31.9574 32.1291 32.06 32.4688 32.1334 32.8432C32.2067 33.2037 32.258 33.5504 32.2874 33.8832L32.5734 34.9856C32.6614 35.3323 32.8007 35.6304 32.9914 35.88C33.1967 36.1296 33.446 36.3515 33.7394 36.5456ZM30.3954 34.2368C30.366 34.2229 30.256 33.7861 30.0654 32.9264C29.992 32.9264 29.882 32.9264 29.7354 32.9264C29.5887 32.9264 29.4127 32.968 29.2074 33.0512C29.0167 33.1205 28.804 33.2523 28.5694 33.4464C28.3494 33.6267 28.1367 33.904 27.9314 34.2784C27.6234 34.8192 27.4694 35.36 27.4694 35.9008C27.7187 36.3584 28.1074 36.7189 28.6354 36.9824C28.7967 36.9408 28.9287 36.8923 29.0314 36.8368C29.1487 36.7813 29.2514 36.7051 29.3394 36.608C29.4274 36.5109 29.508 36.3931 29.5814 36.2544C29.6694 36.1019 29.7647 35.9147 29.8674 35.6928C30.058 35.3739 30.19 35.0965 30.2634 34.8608C30.3514 34.6112 30.3954 34.4032 30.3954 34.2368ZM47.8577 29.2656L47.9237 30.0144V30.1808C47.9237 30.5552 47.777 30.8395 47.4837 31.0336C47.205 31.2139 46.853 31.3387 46.4277 31.408C46.369 31.3941 46.2737 31.3595 46.1417 31.304C46.0244 31.2347 45.8997 31.1515 45.7677 31.0544C45.6357 30.9573 45.5184 30.8464 45.4157 30.7216C45.3277 30.5968 45.2837 30.4581 45.2837 30.3056C45.2837 29.8341 45.3864 29.4736 45.5917 29.224C45.797 28.9744 46.0537 28.8496 46.3617 28.8496C46.5524 28.8496 46.7797 28.8981 47.0437 28.9952L47.8577 29.2656ZM48.2317 36.5456V36.8784C48.2317 37.1973 48.217 37.5856 48.1877 38.0432C48.173 38.4869 48.129 39.0139 48.0557 39.624C47.7624 40.9413 47.3077 41.8704 46.6917 42.4112C46.0757 42.9659 45.2837 43.2432 44.3157 43.2432C44.1397 43.2432 43.9564 43.2293 43.7657 43.2016C43.5604 43.1877 43.3697 43.1461 43.1937 43.0768C43.0177 43.0213 42.8784 42.9312 42.7757 42.8064C42.6584 42.6816 42.5997 42.5221 42.5997 42.328C42.5997 42.0645 42.695 41.8219 42.8857 41.6C43.0617 41.392 43.2744 41.288 43.5237 41.288C43.6117 41.288 43.7144 41.3019 43.8317 41.3296C43.949 41.3712 44.0664 41.392 44.1837 41.392C44.8437 41.392 45.3497 41.0939 45.7017 40.4976C46.0684 39.9013 46.2517 39.0555 46.2517 37.96V37.6896C46.2664 37.6064 46.2737 37.5093 46.2737 37.3984C46.2737 37.2875 46.2737 37.1557 46.2737 37.0032C46.2737 36.5456 46.2517 36.1989 46.2077 35.9632C46.1784 35.7136 46.1784 35.5888 46.2077 35.5888C46.1637 35.3808 46.1124 35.1312 46.0537 34.84C46.0097 34.5349 45.9584 34.1883 45.8997 33.8C46.0464 33.2176 46.347 32.9264 46.8017 32.9264C47.139 32.9264 47.3884 33.0027 47.5497 33.1552C47.7257 33.3077 47.8504 33.5365 47.9237 33.8416C48.0117 34.1328 48.0704 34.5072 48.0997 34.9648C48.129 35.4224 48.173 35.9493 48.2317 36.5456ZM57.6843 38.48C57.4936 38.6048 57.1856 38.7296 56.7603 38.8544C56.3349 38.9653 55.8949 39.0624 55.4403 39.1456L54.5383 38.9792C54.4063 38.9376 54.1863 38.8405 53.8783 38.688C53.5849 38.5355 53.2843 38.3067 52.9763 38.0016C52.6683 37.6827 52.3969 37.2805 52.1623 36.7952C51.9276 36.296 51.8103 35.6928 51.8103 34.9856C51.8103 34.736 51.8689 34.4448 51.9863 34.112C52.1183 33.7653 52.3089 33.4464 52.5583 33.1552C52.8076 32.8501 53.1156 32.5936 53.4823 32.3856C53.8636 32.1776 54.3036 32.0736 54.8023 32.0736C55.7996 32.0736 56.7016 32.3787 57.5083 32.9888C58.2123 33.904 58.5643 34.9163 58.5643 36.0256C58.5643 36.8437 58.2709 37.6619 57.6843 38.48ZM56.6063 35.5264C56.5329 34.9856 56.3496 34.5627 56.0563 34.2576C55.7776 33.9387 55.4183 33.7792 54.9783 33.7792C54.6849 33.7792 54.4063 33.9179 54.1423 34.1952C53.8929 34.4587 53.7683 34.8469 53.7683 35.36C53.7683 35.568 53.7976 35.7899 53.8563 36.0256C53.9149 36.2475 54.0103 36.4555 54.1423 36.6496C54.2743 36.8299 54.4429 36.9824 54.6483 37.1072C54.8536 37.2181 55.1029 37.2736 55.3963 37.2736C55.8656 37.2736 56.1883 37.1419 56.3643 36.8784C56.5403 36.6011 56.6283 36.2613 56.6283 35.8592C56.6283 35.8037 56.6209 35.7552 56.6063 35.7136C56.6063 35.6581 56.6063 35.5957 56.6063 35.5264ZM68.2855 33.0096C68.6375 33.6613 68.8135 34.2576 68.8135 34.7984C68.8135 35.2005 68.7182 35.6096 68.5275 36.0256L68.0655 37.024L67.3835 37.7104C66.9142 38.1957 66.4522 38.5147 65.9975 38.6672C65.5429 38.8059 65.1762 38.8752 64.8975 38.8752C64.5455 38.8752 64.1862 38.7712 63.8195 38.5632C63.6289 38.7157 63.4162 38.792 63.1815 38.792C62.9175 38.792 62.6022 38.6949 62.2355 38.5008C62.2502 38.3621 62.2575 38.2096 62.2575 38.0432C62.2575 37.8768 62.2575 37.6965 62.2575 37.5024C62.2575 37.3915 62.2502 37.2875 62.2355 37.1904C62.2209 37.0933 62.2062 36.9685 62.1915 36.816C62.1769 36.6496 62.1622 36.4347 62.1475 36.1712C62.1329 35.9077 62.1182 35.5611 62.1035 35.1312C62.0889 34.6875 62.0595 34.3408 62.0155 34.0912C61.9715 33.8277 61.9275 33.6613 61.8835 33.592C61.8102 33.1205 61.7442 32.6421 61.6855 32.1568C61.6269 31.6715 61.5682 31.2208 61.5095 30.8048C61.4509 30.3749 61.3922 29.9936 61.3335 29.6608C61.2749 29.328 61.2162 29.0784 61.1575 28.912C61.1575 28.5931 61.2382 28.3227 61.3995 28.1008C61.5609 27.8789 61.7809 27.768 62.0595 27.768C62.2062 27.768 62.3455 27.7888 62.4775 27.8304C62.6095 27.872 62.7269 27.9552 62.8295 28.08C62.9469 28.2048 63.0495 28.3781 63.1375 28.6C63.2255 28.8219 63.2915 29.1131 63.3355 29.4736C63.3795 29.8203 63.4089 30.0629 63.4235 30.2016C63.4529 30.3403 63.4749 30.4789 63.4895 30.6176C63.5189 30.7563 63.5482 30.9504 63.5775 31.2C63.6069 31.4496 63.6582 31.8587 63.7315 32.4272C63.9955 32.2885 64.2229 32.1776 64.4135 32.0944C64.6189 31.9973 64.8095 31.9211 64.9855 31.8656C65.1615 31.8101 65.3375 31.7755 65.5135 31.7616C65.7042 31.7477 65.9242 31.7408 66.1735 31.7408C66.4522 31.7408 66.7015 31.7824 66.9215 31.8656C67.1562 31.9488 67.3542 32.0528 67.5155 32.1776C67.6915 32.3024 67.8382 32.4411 67.9555 32.5936C68.0875 32.7323 68.1975 32.8709 68.2855 33.0096ZM66.7455 35.464C66.8189 35.0757 66.8555 34.8192 66.8555 34.6944C66.8555 34.6251 66.8335 34.528 66.7895 34.4032C66.7455 34.2645 66.6795 34.1328 66.5915 34.008C66.5182 33.8832 66.4229 33.7723 66.3055 33.6752C66.1882 33.5781 66.0489 33.5296 65.8875 33.5296C65.6382 33.5296 65.3522 33.6197 65.0295 33.8C64.7069 33.9803 64.3842 34.1605 64.0615 34.3408L64.1935 36.5456C64.2962 36.8923 64.4869 37.0656 64.7655 37.0656C64.9122 37.0656 65.0882 37.024 65.2935 36.9408C65.4989 36.8576 65.6969 36.7467 65.8875 36.608C66.0929 36.4555 66.2762 36.2821 66.4375 36.088C66.5989 35.8939 66.7015 35.6859 66.7455 35.464ZM79.7891 29.6608C79.6865 30.0352 79.5838 30.3749 79.4811 30.68C79.3931 30.9712 79.2758 31.2416 79.1291 31.4912C78.9825 31.7269 78.7991 31.9557 78.5791 32.1776C78.3738 32.3856 78.1098 32.5936 77.7871 32.8016C77.3471 33.0789 77.0171 33.3147 76.7971 33.5088C76.5918 33.7029 76.4451 33.8763 76.3571 34.0288C76.2838 34.1813 76.2471 34.3269 76.2471 34.4656C76.2618 34.5904 76.2618 34.7221 76.2471 34.8608C76.1151 35.3184 75.7705 35.5472 75.2131 35.5472C74.8318 35.5472 74.5825 35.4293 74.4651 35.1936C74.3625 34.944 74.3111 34.6875 74.3111 34.424C74.3111 34.2299 74.3405 34.0149 74.3991 33.7792C74.4578 33.5435 74.5531 33.3147 74.6851 33.0928C74.8171 32.8571 74.9931 32.6283 75.2131 32.4064C75.4331 32.1845 75.7045 31.9904 76.0271 31.824C76.5405 31.5467 76.9145 31.2693 77.1491 30.992C77.2078 30.9365 77.4278 30.4859 77.8091 29.64C77.7798 29.3488 77.6991 29.1131 77.5671 28.9328C77.4351 28.7387 77.2811 28.5931 77.1051 28.496C76.9291 28.3851 76.7458 28.3088 76.5551 28.2672C76.3791 28.2256 76.2398 28.2048 76.1371 28.2048C75.9318 28.2048 75.7411 28.2256 75.5651 28.2672C75.3891 28.2949 75.2131 28.3712 75.0371 28.496C74.8758 28.6069 74.7071 28.7803 74.5311 29.016C74.3698 29.2379 74.1938 29.536 74.0031 29.9104C73.8418 30.1184 73.6071 30.2224 73.2991 30.2224C73.0205 30.2224 72.7711 30.1323 72.5511 29.952C72.3311 29.7717 72.2211 29.5221 72.2211 29.2032C72.4705 28.5376 72.7711 28.0176 73.1231 27.6432C73.4898 27.2688 73.8565 26.9845 74.2231 26.7904C74.6045 26.5963 74.9711 26.4784 75.3231 26.4368C75.6751 26.3813 75.9611 26.3536 76.1811 26.3536C76.8411 26.3536 77.3765 26.4437 77.7871 26.624C78.1978 26.8043 78.5351 27.0469 78.7991 27.352C79.0631 27.6432 79.2611 27.9899 79.3931 28.392C79.5398 28.7941 79.6718 29.2171 79.7891 29.6608ZM76.4671 38.584C76.4671 38.7088 76.4231 38.8336 76.3351 38.9584C76.2618 39.0832 76.1591 39.1872 76.0271 39.2704C75.9098 39.3675 75.7705 39.4437 75.6091 39.4992C75.4625 39.5685 75.3231 39.6032 75.1911 39.6032C74.8391 39.6032 74.5531 39.5547 74.3331 39.4576C74.1131 39.3744 73.9445 39.2635 73.8271 39.1248C73.7245 38.9861 73.6511 38.8405 73.6071 38.688C73.5778 38.5216 73.5631 38.3691 73.5631 38.2304C73.5631 37.8837 73.6878 37.5579 73.9371 37.2528C74.1865 36.9339 74.5091 36.7744 74.9051 36.7744C75.0371 36.7744 75.1911 36.7883 75.3671 36.816C75.5578 36.8437 75.7338 36.92 75.8951 37.0448C76.0565 37.1696 76.1885 37.3568 76.2911 37.6064C76.4085 37.8421 76.4671 38.168 76.4671 38.584Z" fill="white"/>
<path d="M55.141 52.3286C55.3329 51.7143 54.962 51.0693 54.3122 50.8879C53.6626 50.7064 52.9803 51.0571 52.7884 51.6714L55.141 52.3286ZM79.7491 71.8342C80.3271 71.5003 80.5094 70.7865 80.1561 70.2399L74.3997 61.3342C74.0465 60.7877 73.2915 60.6154 72.7135 60.9494C72.1355 61.2834 71.9533 61.9972 72.3065 62.5436L77.4233 70.4598L69.0504 75.2976C68.4723 75.6315 68.2901 76.3453 68.6434 76.8918C68.9966 77.4383 69.7515 77.6105 70.3296 77.2766L79.7491 71.8342ZM52.7884 51.6714C51.7477 55.002 51.6574 57.7902 52.557 60.1487C53.4616 62.5205 55.2996 64.2814 57.7378 65.6761C60.1582 67.0607 63.2431 68.127 66.7752 69.0955C70.3122 70.0653 74.3946 70.9616 78.8217 71.972L79.3973 69.7174C74.9317 68.6982 70.9264 67.8188 67.4585 66.8679C63.9856 65.9157 61.1485 64.9164 59.0077 63.6917C56.8846 62.4772 55.5219 61.0853 54.8646 59.3619C54.2023 57.6254 54.1887 55.3763 55.141 52.3286L52.7884 51.6714Z" fill="white"/>
</g>
<defs>
<clipPath id="clip0_1_2">
<rect width="99" height="78" fill="white"/>
</clipPath>
</defs>
</svg>
