<svg width="99" height="79" viewBox="0 0 99 79" fill="none" xmlns="http://www.w3.org/2000/svg">
<g clip-path="url(#clip0_1_5)">
<path d="M7.04378 48.8628C7.51251 48.948 7.74688 49.2676 7.74688 49.8215C7.74688 50.1197 7.66607 50.3541 7.50443 50.5245C7.3428 50.6949 7.13268 50.7801 6.87407 50.7801C6.79325 50.7801 6.6397 50.773 6.41341 50.7588C6.18713 50.7304 5.94468 50.7091 5.68607 50.6949C5.42745 50.6665 5.17692 50.6452 4.93447 50.631C4.69202 50.6026 4.52231 50.5884 4.42533 50.5884C4.32835 50.5884 4.23945 50.5884 4.15864 50.5884C4.07782 50.5884 3.997 50.5955 3.91619 50.6097C3.64141 50.5955 3.31815 50.5671 2.94639 50.5245C2.5908 50.4677 2.23521 50.4109 1.87962 50.3541C1.54019 50.2831 1.23309 50.212 0.958305 50.141C0.699693 50.07 0.546142 50.0061 0.497652 49.9493C0.33602 49.5232 0.255203 48.9551 0.255203 48.245C0.255203 48.1314 0.255203 48.0178 0.255203 47.9042C0.255203 47.7764 0.263285 47.6485 0.279448 47.5207L0.424918 46.0082C0.441081 45.8946 0.449162 45.788 0.449162 45.6886C0.449162 45.575 0.449162 45.4756 0.449162 45.3904C0.449162 45.2768 0.449162 45.1845 0.449162 45.1134C0.449162 45.0282 0.432999 44.9501 0.400673 44.8791C0.513816 44.3394 0.594632 43.892 0.643122 43.537C0.691611 43.1677 0.715856 42.8837 0.715856 42.6849V42.5144C0.715856 42.3156 0.812836 41.6836 1.0068 40.6184C1.24925 40.164 1.621 39.9367 2.12207 39.9367C2.42917 39.9367 2.68778 40.0432 2.8979 40.2563C3.10802 40.4551 3.21309 40.732 3.21309 41.0871C3.14843 41.2859 3.08378 41.5345 3.01913 41.8327C2.97064 42.131 2.92215 42.486 2.87366 42.8979V43.0683C2.87366 43.1961 2.85749 43.395 2.82517 43.6648C2.809 43.9205 2.78476 44.1903 2.75243 44.4743C2.72011 44.7442 2.68778 44.9927 2.65545 45.22C2.63929 45.433 2.63121 45.5537 2.63121 45.5821C2.63121 45.7383 2.63929 45.8378 2.65545 45.8804C2.5908 46.4769 2.54231 46.9739 2.50998 47.3716C2.47766 47.7693 2.46149 48.0746 2.46149 48.2876C2.46149 48.4297 2.46958 48.522 2.48574 48.5646C3.32623 48.6498 3.88386 48.6924 4.15864 48.6924C4.28794 48.6924 4.41725 48.6924 4.54656 48.6924C4.69202 48.6782 4.83749 48.6711 4.98296 48.6711C5.59717 48.6711 6.28411 48.735 7.04378 48.8628ZM16.8209 50.9506C16.6108 51.0784 16.2714 51.2062 15.8026 51.334C15.3339 51.4476 14.849 51.5471 14.3479 51.6323L13.3539 51.4618C13.2084 51.4192 12.966 51.3198 12.6265 51.1636C12.3033 51.0074 11.9719 50.773 11.6325 50.4606C11.2931 50.1339 10.9941 49.7221 10.7354 49.225C10.4768 48.7137 10.3475 48.0959 10.3475 47.3716C10.3475 47.116 10.4122 46.8177 10.5415 46.4769C10.6869 46.1218 10.8971 45.7951 11.1718 45.4969C11.4466 45.1845 11.7861 44.9217 12.1901 44.7087C12.6104 44.4956 13.0953 44.3891 13.6448 44.3891C14.7439 44.3891 15.738 44.7016 16.6269 45.3265C17.4028 46.2638 17.7907 47.3006 17.7907 48.4368C17.7907 49.2747 17.4674 50.1126 16.8209 50.9506ZM15.6329 47.9255C15.5521 47.3716 15.3501 46.9384 15.0268 46.626C14.7197 46.2993 14.3237 46.136 13.8388 46.136C13.5155 46.136 13.2084 46.278 12.9175 46.5621C12.6427 46.8319 12.5053 47.2296 12.5053 47.7551C12.5053 47.9681 12.5376 48.1953 12.6023 48.4368C12.667 48.664 12.772 48.877 12.9175 49.0759C13.0629 49.2605 13.2488 49.4167 13.4751 49.5445C13.7014 49.6582 13.9762 49.715 14.2994 49.715C14.8167 49.715 15.1723 49.58 15.3662 49.3102C15.5602 49.0262 15.6572 48.6782 15.6572 48.2663C15.6572 48.2095 15.6491 48.1598 15.6329 48.1172C15.6329 48.0604 15.6329 47.9965 15.6329 47.9255ZM27.0492 50.9506C26.8391 51.0784 26.4997 51.2062 26.0309 51.334C25.5622 51.4476 25.0773 51.5471 24.5762 51.6323L23.5822 51.4618C23.4367 51.4192 23.1943 51.3198 22.8549 51.1636C22.5316 51.0074 22.2002 50.773 21.8608 50.4606C21.5214 50.1339 21.2224 49.7221 20.9638 49.225C20.7051 48.7137 20.5758 48.0959 20.5758 47.3716C20.5758 47.116 20.6405 46.8177 20.7698 46.4769C20.9153 46.1218 21.1254 45.7951 21.4002 45.4969C21.6749 45.1845 22.0144 44.9217 22.4184 44.7087C22.8387 44.4956 23.3236 44.3891 23.8731 44.3891C24.9722 44.3891 25.9663 44.7016 26.8553 45.3265C27.6311 46.2638 28.019 47.3006 28.019 48.4368C28.019 49.2747 27.6958 50.1126 27.0492 50.9506ZM25.8612 47.9255C25.7804 47.3716 25.5784 46.9384 25.2551 46.626C24.948 46.2993 24.552 46.136 24.0671 46.136C23.7438 46.136 23.4367 46.278 23.1458 46.5621C22.871 46.8319 22.7336 47.2296 22.7336 47.7551C22.7336 47.9681 22.766 48.1953 22.8306 48.4368C22.8953 48.664 23.0003 48.877 23.1458 49.0759C23.2913 49.2605 23.4771 49.4167 23.7034 49.5445C23.9297 49.6582 24.2045 49.715 24.5278 49.715C25.045 49.715 25.4006 49.58 25.5945 49.3102C25.7885 49.0262 25.8855 48.6782 25.8855 48.2663C25.8855 48.2095 25.8774 48.1598 25.8612 48.1172C25.8612 48.0604 25.8612 47.9965 25.8612 47.9255ZM38.7565 49.6298C38.7726 49.6866 38.7807 49.7363 38.7807 49.7789C38.7969 49.8215 38.805 49.8712 38.805 49.928C38.805 50.2262 38.6999 50.4677 38.4898 50.6523C38.2797 50.8369 38.0372 50.9293 37.7624 50.9293C37.52 50.9293 37.3018 50.8369 37.1078 50.6523C36.9139 50.4677 36.7037 50.2333 36.4775 49.9493C36.2673 49.6653 36.0249 49.3528 35.7501 49.012C35.4753 48.6711 35.1359 48.3444 34.7318 48.032C34.6672 47.9752 34.5459 47.8971 34.3682 47.7977C34.1904 47.684 33.9641 47.542 33.6893 47.3716L33.5438 47.4355C33.5115 47.5349 33.4873 47.6556 33.4711 47.7977C33.4226 48.0391 33.3984 48.3587 33.3984 48.7563C33.3984 48.8699 33.4145 48.9978 33.4468 49.1398C33.4468 49.1682 33.4388 49.1966 33.4226 49.225C33.4226 49.2534 33.4226 49.2889 33.4226 49.3315C33.4226 49.4593 33.4226 49.6298 33.4226 49.8428C33.4388 50.0416 33.4549 50.2405 33.4711 50.4393C33.4873 50.6239 33.4953 50.7872 33.4953 50.9293C33.5115 51.0713 33.5196 51.1352 33.5196 51.121C33.5196 51.3624 33.3984 51.5471 33.1559 51.6749C32.9135 51.8027 32.6468 51.8666 32.3558 51.8666C31.9356 51.8666 31.6527 51.6891 31.5073 51.334C31.3779 50.979 31.3133 50.3754 31.3133 49.5232C31.3133 48.9551 31.3375 48.4439 31.386 47.9894C31.4345 47.5207 31.4588 47.1089 31.4588 46.7538V46.3916C31.4588 46.3206 31.4668 46.1999 31.483 46.0295C31.5153 45.8591 31.5396 45.6673 31.5557 45.4543C31.5881 45.2413 31.6123 45.0282 31.6285 44.8152C31.6608 44.588 31.677 44.3962 31.677 44.24V44.0057C31.6931 43.9631 31.7174 43.7713 31.7497 43.4305C31.782 43.0896 31.8386 42.6991 31.9194 42.2588C32.0002 41.8043 32.0972 41.3427 32.2104 40.8741C32.3397 40.3912 32.4932 39.9864 32.671 39.6598C32.7842 39.4467 33.0347 39.3402 33.4226 39.3402C34.1499 39.3402 34.5136 39.5888 34.5136 40.0858C34.5136 40.1995 34.4813 40.4125 34.4166 40.7249C34.352 41.0374 34.2793 41.3782 34.1984 41.7475C34.1338 42.1026 34.0691 42.4505 34.0045 42.7914C33.956 43.1322 33.9317 43.3879 33.9317 43.5583C33.8994 43.6009 33.8267 44.1335 33.7135 45.156C33.956 45.014 34.1742 44.872 34.3682 44.73C34.5783 44.5738 34.7965 44.4175 35.0228 44.2613C35.2491 44.1051 35.5157 43.9418 35.8228 43.7713C36.1299 43.5867 36.5098 43.3808 36.9624 43.1535C36.9947 43.1535 37.0189 43.1535 37.0351 43.1535C37.0513 43.1393 37.0755 43.1322 37.1078 43.1322C37.3503 43.1322 37.5927 43.2316 37.8352 43.4305C38.0776 43.6293 38.1988 43.8565 38.1988 44.1122C38.1988 44.2684 38.1908 44.382 38.1746 44.453C38.1584 44.5098 38.0857 44.5809 37.9564 44.6661C37.8433 44.7513 37.6493 44.8649 37.3745 45.0069C37.0997 45.1489 36.7118 45.3691 36.2108 45.6673C36.1784 45.7383 35.9117 45.9017 35.4107 46.1573C35.6046 46.2993 35.7259 46.3916 35.7744 46.4342C35.839 46.4769 35.9198 46.5479 36.0168 46.6473C36.1138 46.7325 36.2754 46.8887 36.5017 47.116C36.7442 47.329 37.1482 47.684 37.7139 48.1811C38.0211 48.5504 38.3686 49.0333 38.7565 49.6298ZM45.3446 41.4493C45.377 41.5629 45.3931 41.6694 45.3931 41.7688C45.3931 42.2233 45.2396 42.6067 44.9325 42.9192C44.4476 43.0896 43.9627 43.1748 43.4778 43.1748C43.1707 43.0044 42.9121 42.8127 42.7019 42.5996C42.508 42.3724 42.411 42.1523 42.411 41.9392C42.411 41.7546 42.6534 41.3001 43.1383 40.5758C43.3485 40.6042 43.5667 40.6255 43.793 40.6397C44.0354 40.6539 44.2536 40.6894 44.4476 40.7462C44.6577 40.8031 44.8355 40.8883 44.981 41.0019C45.1426 41.1013 45.2638 41.2504 45.3446 41.4493ZM44.5688 45.0069V45.2839C44.5688 45.3549 44.5688 45.433 44.5688 45.5182C44.5688 45.6034 44.5526 45.6815 44.5203 45.7525L44.3263 46.7112V46.9029C44.3263 46.9881 44.3183 47.1018 44.3021 47.2438C44.2859 47.3858 44.2617 47.5278 44.2294 47.6698C44.2132 47.8119 44.197 47.9468 44.1809 48.0746C44.1647 48.2024 44.1566 48.3089 44.1566 48.3942C44.1566 48.4652 44.1566 48.522 44.1566 48.5646C44.1728 48.6072 44.1809 48.664 44.1809 48.735C44.1809 48.8628 44.1647 49.0049 44.1324 49.1611C44.1001 49.3031 44.0839 49.4664 44.0839 49.6511C44.0839 49.8215 44.1081 49.999 44.1566 50.1836C43.9788 50.8227 43.6071 51.1423 43.0414 51.1423C42.2494 51.1423 41.8534 50.489 41.8534 49.1824C41.8534 48.7421 41.8776 48.3089 41.9261 47.8829C41.9746 47.4426 42.0312 47.0378 42.0958 46.6686C42.1605 46.2993 42.2251 45.9798 42.2898 45.7099C42.3706 45.4259 42.4352 45.2058 42.4837 45.0495C42.7262 44.7371 43.0656 44.5809 43.502 44.5809C43.9223 44.5809 44.2779 44.7229 44.5688 45.0069ZM56.8269 49.1185V49.2889C56.8269 49.3741 56.8269 49.5303 56.8269 49.7576C56.8431 49.9706 56.8188 50.1907 56.7542 50.418C56.7057 50.6452 56.6006 50.8511 56.439 51.0358C56.2774 51.2062 56.0349 51.2914 55.7116 51.2914C55.0813 51.2914 54.7095 51.0713 54.5964 50.631C54.6125 50.5458 54.6206 50.4535 54.6206 50.3541C54.6206 50.2405 54.6206 50.1197 54.6206 49.9919C54.6206 49.9351 54.6206 49.7292 54.6206 49.3741C54.6206 49.0049 54.6045 48.6072 54.5721 48.1811C54.556 47.7551 54.5075 47.3574 54.4267 46.9881C54.3458 46.6047 54.2246 46.3632 54.063 46.2638C53.6912 46.0366 53.3599 45.923 53.069 45.923C52.681 45.923 52.3497 46.0295 52.0749 46.2425C51.8163 46.4413 51.5981 46.839 51.4203 47.4355C51.4041 47.6343 51.388 47.8616 51.3718 48.1172C51.3556 48.3587 51.3314 48.6356 51.2991 48.948C51.2991 49.1895 51.3072 49.4593 51.3233 49.7576C51.3395 50.0416 51.3637 50.3683 51.3961 50.7375C51.3961 51.0074 51.2748 51.2346 51.0324 51.4192C50.7899 51.5897 50.5152 51.6749 50.2081 51.6749C49.9656 51.6749 49.7716 51.6181 49.6262 51.5044C49.4807 51.3908 49.3676 51.2417 49.2867 51.0571C49.2221 50.8725 49.1736 50.6736 49.1413 50.4606C49.1251 50.2476 49.117 50.0345 49.117 49.8215C49.117 49.6653 49.1251 49.509 49.1413 49.3528C49.1574 49.1824 49.1817 49.012 49.214 48.8415L49.408 46.7964L49.6019 45.7738C49.5696 45.6034 49.505 45.4188 49.408 45.22C49.311 45.0211 49.2625 44.8649 49.2625 44.7513C49.2625 44.5098 49.3676 44.2897 49.5777 44.0909C49.804 43.892 50.0787 43.7926 50.402 43.7926C50.6283 43.7926 50.798 43.8352 50.9112 43.9204C51.0243 43.9915 51.2102 44.1761 51.4688 44.4743C51.7921 44.3465 52.0507 44.2684 52.2446 44.24C52.4386 44.1974 52.6649 44.1761 52.9235 44.1761C53.764 44.1761 54.4994 44.3536 55.1298 44.7087C55.7763 45.0495 56.1804 45.6247 56.342 46.4342C56.3905 46.7325 56.4309 46.981 56.4632 47.1799C56.5117 47.3787 56.5521 47.5704 56.5845 47.7551C56.6168 47.9397 56.6491 48.1385 56.6814 48.3516C56.7138 48.5504 56.7623 48.806 56.8269 49.1185ZM69.0375 44.4104C69.0859 44.6093 69.1102 44.8578 69.1102 45.156C69.1102 45.3975 69.094 45.6815 69.0617 46.0082C69.0294 46.3206 68.9809 46.6686 68.9162 47.052C68.9324 47.0947 68.9405 47.1444 68.9405 47.2012C68.9405 47.258 68.9405 47.3219 68.9405 47.3929C68.9405 47.5491 68.9243 47.7338 68.892 47.9468C68.8758 48.1456 68.8516 48.38 68.8192 48.6498C68.8354 48.7208 68.8435 48.7918 68.8435 48.8628C68.8435 48.9338 68.8435 49.0191 68.8435 49.1185C68.8435 49.4451 68.8192 49.8499 68.7708 50.3328C68.7223 50.8156 68.6576 51.3908 68.5768 52.0583C68.3505 53.7058 67.5828 54.9059 66.2735 55.6586C65.8048 55.8148 65.3361 55.9285 64.8673 55.9995C64.4148 56.0847 63.9541 56.1273 63.4854 56.1273C62.8712 56.1273 61.9094 55.8929 60.6002 55.4243L59.388 54.5295C59.1455 54.3591 58.9758 54.2242 58.8788 54.1248C58.798 54.0254 58.7576 53.9046 58.7576 53.7626C58.7576 53.4644 58.8546 53.2016 59.0485 52.9744C59.2425 52.7613 59.5011 52.6548 59.8244 52.6548C60.0345 52.6548 60.2689 52.7116 60.5275 52.8253L61.7397 53.72C62.3216 54.0609 62.9762 54.2384 63.7036 54.2526C63.7844 54.2668 63.8894 54.2526 64.0188 54.21C64.1481 54.1816 64.3016 54.1461 64.4794 54.1035L65.2795 53.9117C65.8614 53.5851 66.2412 52.9815 66.419 52.1009C66.4352 51.9731 66.4513 51.8169 66.4675 51.6323C66.4998 51.2914 66.5483 50.8085 66.613 50.1836C66.5483 50.212 66.4028 50.2689 66.1766 50.3541C65.9503 50.4251 65.6674 50.5103 65.328 50.6097C65.0047 50.6949 64.6249 50.773 64.1885 50.844C63.7682 50.9151 63.3237 50.9506 62.855 50.9506C62.7742 50.9506 62.6853 50.9364 62.5883 50.908C62.5075 50.8653 62.3943 50.8014 62.2489 50.7162C62.1034 50.631 61.9256 50.5174 61.7155 50.3754C61.5215 50.2333 61.2791 50.0487 60.9881 49.8215L60.4063 48.8628C60.2608 48.6214 60.1557 48.38 60.0911 48.1385C60.0426 47.8829 60.0183 47.6343 60.0183 47.3929C60.0183 46.9952 60.1881 46.5976 60.5275 46.1999C60.8831 45.788 61.3195 45.4188 61.8367 45.0921C62.3701 44.7655 62.9439 44.5027 63.5581 44.3039C64.1723 44.0909 64.738 43.9844 65.2552 43.9844C65.4977 43.9844 65.7321 43.9986 65.9583 44.027C66.2008 44.0554 66.5645 44.1335 67.0494 44.2613L67.1706 44.0057C67.3807 43.8778 67.6393 43.8139 67.9464 43.8139C68.5606 43.8139 68.9243 44.0128 69.0375 44.4104ZM66.7342 46.1999C66.5725 46.1005 66.3867 46.0295 66.1766 45.9869C65.9826 45.9443 65.7886 45.9017 65.5947 45.8591C65.3845 45.8875 65.1421 45.9301 64.8673 45.9869C64.5925 46.0295 64.2854 46.0863 63.946 46.1573C62.8792 46.697 62.3459 47.187 62.3459 47.6272C62.3459 47.8687 62.4428 48.1101 62.6368 48.3516C62.8308 48.5788 63.1055 48.8131 63.4611 49.0546C63.7036 49.0404 63.9622 49.0191 64.237 48.9907C64.5117 48.948 64.7865 48.8841 65.0613 48.7989C65.3361 48.7137 65.6028 48.593 65.8614 48.4368C66.12 48.2663 66.3705 48.0391 66.613 47.7551C66.6453 47.5136 66.6695 47.2864 66.6857 47.0734C66.718 46.8603 66.7342 46.6544 66.7342 46.4555V46.1999ZM88.7928 43.4518C88.9706 43.5796 89.0595 43.8139 89.0595 44.1548C89.0595 44.7797 88.7928 45.0921 88.2594 45.0921H88.1624C87.92 45.1063 87.6371 45.1276 87.3139 45.156C86.9906 45.1702 86.6269 45.1987 86.2228 45.2413C86.1905 45.4685 86.1582 45.7738 86.1259 46.1573C86.0935 46.5266 86.0774 46.9739 86.0774 47.4994C86.0774 47.542 86.0774 47.5846 86.0774 47.6272C86.0935 47.6698 86.1016 47.7196 86.1016 47.7764V48.7563C86.1016 48.9836 86.142 49.1682 86.2228 49.3102C86.3198 49.438 86.433 49.5303 86.5623 49.5871L87.2411 49.7789C87.7745 49.9351 88.0412 50.2191 88.0412 50.631C88.0412 50.8725 87.9281 51.0855 87.7018 51.2701C87.4917 51.4547 87.2169 51.5471 86.8775 51.5471C86.7805 51.5471 86.6108 51.5258 86.3683 51.4831C86.142 51.4263 85.8996 51.3553 85.641 51.2701C85.3985 51.1849 85.1641 51.0784 84.9379 50.9506C84.7277 50.8227 84.5823 50.6807 84.5015 50.5245C84.3237 50.1978 84.1782 49.857 84.065 49.5019C83.9519 49.1327 83.8953 48.7492 83.8953 48.3516C83.8953 47.9113 83.9034 47.5988 83.9196 47.4142C83.9357 47.2296 83.9519 47.0662 83.9681 46.9242C83.9842 46.7822 84.0004 46.6118 84.0166 46.4129C84.0327 46.2141 84.0408 45.8875 84.0408 45.433C83.7337 45.4614 83.2811 45.5466 82.6831 45.6886C82.3275 45.6886 82.0204 45.6105 81.7618 45.4543C81.5193 45.2839 81.3981 45.0637 81.3981 44.7939C81.3981 44.5951 81.4628 44.4104 81.5921 44.24C81.7375 44.0696 82.0285 43.9204 82.4649 43.7926C82.6103 43.75 82.7397 43.7216 82.8528 43.7074C82.9821 43.6932 83.1033 43.679 83.2165 43.6648C83.3458 43.6506 83.4832 43.6435 83.6286 43.6435C83.7741 43.6293 83.9519 43.608 84.162 43.5796C84.1782 43.2245 84.2024 42.8269 84.2348 42.3866C84.2832 41.9321 84.356 41.5132 84.453 41.1297C84.5661 40.7462 84.7197 40.4267 84.9136 40.1711C85.1237 39.9012 85.3985 39.7663 85.7379 39.7663C86.3198 39.7663 86.6754 40.0006 86.8047 40.4693C86.8047 40.4835 86.7805 40.5829 86.732 40.7676C86.6997 40.938 86.6592 41.1297 86.6108 41.3427C86.5623 41.5558 86.5138 41.7617 86.4653 41.9605C86.433 42.1594 86.4168 42.2872 86.4168 42.344L86.3441 43.3879C86.4572 43.3737 86.5623 43.3666 86.6592 43.3666C86.7562 43.3524 86.8613 43.3453 86.9744 43.3453H87.1926C87.3058 43.3453 87.4108 43.3453 87.5078 43.3453C87.6048 43.3311 87.6937 43.324 87.7745 43.324C88.2594 43.324 88.5988 43.3666 88.7928 43.4518ZM97.4163 50.9506C97.2062 51.0784 96.8668 51.2062 96.398 51.334C95.9293 51.4476 95.4444 51.5471 94.9433 51.6323L93.9493 51.4618C93.8038 51.4192 93.5614 51.3198 93.2219 51.1636C92.8987 51.0074 92.5673 50.773 92.2279 50.4606C91.8885 50.1339 91.5894 49.7221 91.3308 49.225C91.0722 48.7137 90.9429 48.0959 90.9429 47.3716C90.9429 47.116 91.0076 46.8177 91.1369 46.4769C91.2823 46.1218 91.4925 45.7951 91.7672 45.4969C92.042 45.1845 92.3814 44.9217 92.7855 44.7087C93.2058 44.4956 93.6907 44.3891 94.2402 44.3891C95.3393 44.3891 96.3334 44.7016 97.2223 45.3265C97.9982 46.2638 98.3861 47.3006 98.3861 48.4368C98.3861 49.2747 98.0628 50.1126 97.4163 50.9506ZM96.2283 47.9255C96.1475 47.3716 95.9454 46.9384 95.6221 46.626C95.3151 46.2993 94.9191 46.136 94.4342 46.136C94.1109 46.136 93.8038 46.278 93.5129 46.5621C93.2381 46.8319 93.1007 47.2296 93.1007 47.7551C93.1007 47.9681 93.133 48.1953 93.1977 48.4368C93.2623 48.664 93.3674 48.877 93.5129 49.0759C93.6583 49.2605 93.8442 49.4167 94.0705 49.5445C94.2968 49.6582 94.5716 49.715 94.8948 49.715C95.4121 49.715 95.7677 49.58 95.9615 49.3102C96.1556 49.0262 96.2525 48.6782 96.2525 48.2663C96.2525 48.2095 96.2445 48.1598 96.2283 48.1172C96.2283 48.0604 96.2283 47.9965 96.2283 47.9255ZM37.2537 77.1963C37.1729 77.3951 37.0113 77.594 36.7688 77.7928C36.5264 77.9916 36.292 78.0911 36.0657 78.0911C35.597 78.0911 35.2899 77.7999 35.1444 77.2176C34.9989 76.6353 34.9262 75.8116 34.9262 74.7464V74.5547C34.9262 74.015 34.8777 73.6244 34.7807 73.383C34.6999 73.1274 34.6433 72.964 34.611 72.893C34.4332 72.5522 34.1584 72.3818 33.7867 72.3818C33.5604 72.3818 33.326 72.4244 33.0836 72.5096C32.8411 72.5806 32.6229 72.6729 32.429 72.7865C32.235 72.8859 32.0653 72.9853 31.9198 73.0848C31.7905 73.1842 31.7097 73.2552 31.6774 73.2978C31.645 73.3972 31.6127 73.5676 31.5804 73.8091C31.5642 74.0505 31.5481 74.3275 31.5319 74.6399C31.5157 74.9524 31.4996 75.2719 31.4834 75.5986C31.4673 75.9252 31.4511 76.2235 31.4349 76.4933C31.4349 76.7631 31.4349 76.9762 31.4349 77.1324C31.4349 77.2886 31.443 77.3525 31.4592 77.3241C31.4107 77.7076 31.0632 77.8993 30.4166 77.8993C29.9317 77.8993 29.6166 77.7644 29.4711 77.4946C29.3418 77.2247 29.2771 76.7631 29.2771 76.1098C29.2771 75.9394 29.2771 75.84 29.2771 75.8116C29.2933 75.7832 29.3095 75.7193 29.3256 75.6199C29.3418 75.5062 29.366 75.3074 29.3984 75.0234C29.4307 74.7393 29.4711 74.2564 29.5196 73.5747C29.5357 73.2907 29.5519 73.0351 29.5681 72.8078C29.5842 72.5664 29.5842 72.3605 29.5681 72.19C29.5681 72.0338 29.5681 71.906 29.5681 71.8066C29.5681 71.6929 29.56 71.6006 29.5438 71.5296C29.56 71.487 29.5761 71.3521 29.5923 71.1249C29.6246 70.8976 29.6489 70.6491 29.665 70.3792C29.6974 70.1094 29.7297 69.8538 29.762 69.6123C29.7944 69.3709 29.8267 69.2076 29.859 69.1223C29.859 68.8241 29.8671 68.4832 29.8833 68.0998C29.8994 67.7021 29.956 67.3329 30.053 66.992C30.1499 66.6511 30.2954 66.3671 30.4894 66.1399C30.6995 65.8984 30.9904 65.7777 31.3622 65.7777C31.9926 65.7777 32.3077 66.1328 32.3077 66.8429C32.3077 67.2405 32.2188 67.8086 32.041 68.5471C32.0087 68.9306 31.9683 69.2289 31.9198 69.4419C31.8875 69.6549 31.8552 69.8396 31.8228 69.9958C31.7905 70.152 31.7663 70.3011 31.7501 70.4431C31.7339 70.5852 31.7259 70.784 31.7259 71.0396C32.1299 70.7414 32.5179 70.571 32.8896 70.5284C33.2614 70.4716 33.6089 70.4431 33.9322 70.4431C34.7403 70.4431 35.3868 70.6491 35.8717 71.0609C36.3566 71.4728 36.7203 72.1545 36.9628 73.1061C36.9789 73.4469 36.987 73.7168 36.987 73.9156C37.0032 74.1002 37.0193 74.3133 37.0355 74.5547C37.0678 74.7819 37.1002 75.0944 37.1325 75.492C37.1648 75.8897 37.2052 76.4578 37.2537 77.1963ZM44.7527 68.0785C44.7851 68.1921 44.8012 68.2986 44.8012 68.398C44.8012 68.8525 44.6477 69.236 44.3406 69.5484C43.8557 69.7188 43.3708 69.804 42.8859 69.804C42.5788 69.6336 42.3202 69.4419 42.1101 69.2289C41.9161 69.0016 41.8191 68.7815 41.8191 68.5685C41.8191 68.3838 42.0616 67.9293 42.5465 67.205C42.7566 67.2334 42.9748 67.2547 43.2011 67.2689C43.4435 67.2831 43.6617 67.3187 43.8557 67.3755C44.0658 67.4323 44.2436 67.5175 44.3891 67.6311C44.5507 67.7305 44.6719 67.8796 44.7527 68.0785ZM43.9769 71.6361V71.9131C43.9769 71.9841 43.9769 72.0622 43.9769 72.1474C43.9769 72.2326 43.9607 72.3107 43.9284 72.3818L43.7345 73.3404V73.5321C43.7345 73.6173 43.7264 73.731 43.7102 73.873C43.6941 74.015 43.6698 74.157 43.6375 74.2991C43.6213 74.4411 43.6052 74.576 43.589 74.7038C43.5728 74.8316 43.5647 74.9382 43.5647 75.0234C43.5647 75.0944 43.5647 75.1512 43.5647 75.1938C43.5809 75.2364 43.589 75.2932 43.589 75.3642C43.589 75.492 43.5728 75.6341 43.5405 75.7903C43.5082 75.9323 43.492 76.0956 43.492 76.2803C43.492 76.4507 43.5163 76.6282 43.5647 76.8129C43.387 77.452 43.0152 77.7715 42.4495 77.7715C41.6575 77.7715 41.2615 77.1182 41.2615 75.8116C41.2615 75.3713 41.2857 74.9382 41.3342 74.5121C41.3827 74.0718 41.4393 73.6671 41.5039 73.2978C41.5686 72.9285 41.6332 72.609 41.6979 72.3391C41.7787 72.0551 41.8434 71.835 41.8919 71.6787C42.1343 71.3663 42.4737 71.2101 42.9101 71.2101C43.3304 71.2101 43.686 71.3521 43.9769 71.6361ZM54.9015 70.8692C55.1601 71.0112 55.2894 71.2811 55.2894 71.6787C55.2894 71.977 55.2005 72.2326 55.0227 72.4457C54.8449 72.6587 54.6024 72.7652 54.2953 72.7652C54.1014 72.7652 53.8993 72.7226 53.6892 72.6374C53.4953 72.538 53.2851 72.4883 53.0588 72.4883C52.8649 72.4883 52.6709 72.5238 52.477 72.5948C52.2992 72.6516 52.0891 72.7865 51.8466 72.9995L51.1193 73.6387C51.1193 73.7381 51.1193 73.8375 51.1193 73.9369C51.1354 74.0363 51.1435 74.1428 51.1435 74.2564C51.1435 74.4269 51.1354 74.6044 51.1193 74.789C51.1193 74.9737 51.1112 75.1725 51.095 75.3855L51.3132 77.3241C51.2647 77.9774 50.8849 78.3041 50.1737 78.3041C49.802 78.3041 49.5272 78.2047 49.3494 78.0058C49.1716 77.7928 49.0504 77.5017 48.9857 77.1324C48.9211 76.7631 48.8887 76.33 48.8887 75.8329C48.9049 75.3358 48.9049 74.789 48.8887 74.1925C48.8564 73.2978 48.8322 72.8504 48.816 72.8504V72.8717C48.7513 72.6587 48.7029 72.4741 48.6705 72.3178C48.6382 72.1474 48.622 71.9983 48.622 71.8705C48.622 71.6148 48.7271 71.4089 48.9372 71.2527C49.1473 71.0822 49.4544 70.997 49.8585 70.997C50.1171 70.997 50.4242 71.1746 50.7798 71.5296C51.1516 71.274 51.4344 71.0822 51.6284 70.9544C51.8385 70.8266 52.0082 70.7343 52.1375 70.6775C52.283 70.6207 52.4204 70.5923 52.5497 70.5923C52.679 70.5781 52.8487 70.571 53.0588 70.571C53.2366 70.5568 53.3983 70.5639 53.5437 70.5923C53.7054 70.6207 53.8751 70.6491 54.0529 70.6775L54.9015 70.8692ZM66.0017 77.2602C65.4845 77.7147 64.9026 78.0982 64.2561 78.4106C63.6095 78.7373 62.9549 78.9006 62.2922 78.9006C61.6942 78.9006 60.9264 78.8154 59.9889 78.6449C59.6657 78.4603 59.3424 78.2402 59.0192 77.9845C58.6959 77.7147 58.4049 77.4236 58.1463 77.1111C57.8877 76.7845 57.6776 76.4365 57.516 76.0672C57.3543 75.6838 57.2735 75.2932 57.2735 74.8955C57.2735 74.7819 57.2816 74.6328 57.2978 74.4482C57.3139 74.2493 57.3301 74.0576 57.3463 73.873C57.3786 73.6742 57.4028 73.5037 57.419 73.3617C57.4352 73.2197 57.4432 73.1487 57.4432 73.1487C57.7665 72.6942 58.1059 72.2468 58.4615 71.8066C58.8333 71.3521 59.3505 70.9544 60.0132 70.6136C61.0638 70.4147 61.8235 70.3153 62.2922 70.3153C62.5347 70.3153 62.7448 70.3295 62.9226 70.3579C63.1004 70.3721 63.2701 70.4147 63.4317 70.4857C63.6095 70.5426 63.7792 70.6349 63.9409 70.7627C64.1187 70.8905 64.3207 71.0538 64.547 71.2527C64.8056 71.4941 65.0076 71.6574 65.1531 71.7426C65.3147 71.8279 65.3956 71.906 65.3956 71.977C65.3956 73.2836 64.9349 74.1712 64.0136 74.6399C63.6095 74.7677 63.0842 74.9098 62.4377 75.066C61.7912 75.208 60.9103 75.3429 59.795 75.4707C60.0213 76.0104 60.3203 76.4152 60.6921 76.685C61.0638 76.9549 61.4841 77.0898 61.9528 77.0898C62.6478 77.0898 63.5206 76.7276 64.5712 76.0033C64.7329 75.8755 64.9349 75.8116 65.1774 75.8116C65.436 75.8116 65.6623 75.8968 65.8562 76.0672C66.0663 76.2377 66.1714 76.4507 66.1714 76.7063C66.1714 76.891 66.1148 77.0756 66.0017 77.2602ZM63.262 72.7013C62.9549 72.261 62.5912 72.0409 62.171 72.0409C61.9932 72.0409 61.7992 72.0622 61.5891 72.1048C61.379 72.1474 61.1608 72.2113 60.9345 72.2965C60.7244 72.3675 60.5223 72.4599 60.3284 72.5735C60.1506 72.6871 60.0051 72.822 59.892 72.9782L59.6495 73.6173C60.1991 73.5747 60.684 73.5392 61.1042 73.5108C61.5245 73.4824 61.8881 73.4398 62.1952 73.383C62.5023 73.3262 62.7448 73.2481 62.9226 73.1487C63.1004 73.0493 63.2135 72.9001 63.262 72.7013ZM78.2826 68.5471C78.1695 68.9306 78.0563 69.2786 77.9432 69.591C77.8462 69.8893 77.7169 70.1662 77.5553 70.4218C77.3937 70.6633 77.1916 70.8976 76.9492 71.1249C76.7229 71.3379 76.4319 71.5509 76.0763 71.764C75.5915 72.048 75.2278 72.2894 74.9853 72.4883C74.759 72.6871 74.5974 72.8646 74.5004 73.0209C74.4196 73.1771 74.3792 73.3262 74.3792 73.4682C74.3954 73.596 74.3954 73.731 74.3792 73.873C74.2337 74.3417 73.8539 74.576 73.2397 74.576C72.8195 74.576 72.5447 74.4553 72.4154 74.2138C72.3022 73.9582 72.2457 73.6955 72.2457 73.4256C72.2457 73.2268 72.278 73.0066 72.3426 72.7652C72.4073 72.5238 72.5123 72.2894 72.6578 72.0622C72.8033 71.8208 72.9972 71.5864 73.2397 71.3592C73.4821 71.132 73.7812 70.9331 74.1368 70.7627C74.7025 70.4787 75.1146 70.1946 75.3732 69.9106C75.4379 69.8538 75.6804 69.3922 76.1006 68.5258C76.0683 68.2276 75.9794 67.9862 75.8339 67.8015C75.6884 67.6027 75.5187 67.4536 75.3248 67.3542C75.1308 67.2405 74.9288 67.1624 74.7186 67.1198C74.5247 67.0772 74.3711 67.0559 74.258 67.0559C74.0317 67.0559 73.8216 67.0772 73.6276 67.1198C73.4337 67.1482 73.2397 67.2263 73.0457 67.3542C72.8679 67.4678 72.6821 67.6453 72.4881 67.8867C72.3103 68.114 72.1163 68.4193 71.9062 68.8028C71.7284 69.0158 71.4698 69.1223 71.1304 69.1223C70.8233 69.1223 70.5485 69.03 70.3061 68.8454C70.0636 68.6608 69.9424 68.4051 69.9424 68.0785C70.2172 67.3968 70.5485 66.8642 70.9364 66.4807C71.3405 66.0973 71.7446 65.8061 72.1487 65.6073C72.5689 65.4085 72.973 65.2877 73.3609 65.2451C73.7488 65.1883 74.064 65.1599 74.3065 65.1599C75.0338 65.1599 75.6238 65.2522 76.0763 65.4369C76.5289 65.6215 76.9007 65.87 77.1916 66.1825C77.4826 66.4807 77.7008 66.8358 77.8462 67.2476C78.0079 67.6595 78.1533 68.0927 78.2826 68.5471ZM74.6217 77.6863C74.6217 77.8141 74.5732 77.9419 74.4762 78.0698C74.3954 78.1976 74.2822 78.3041 74.1368 78.3893C74.0075 78.4887 73.8539 78.5668 73.6761 78.6236C73.5145 78.6946 73.3609 78.7302 73.2154 78.7302C72.8275 78.7302 72.5124 78.6804 72.2699 78.581C72.0275 78.4958 71.8416 78.3822 71.7123 78.2402C71.5991 78.0982 71.5183 77.949 71.4698 77.7928C71.4375 77.6224 71.4213 77.4662 71.4213 77.3241C71.4213 76.9691 71.5587 76.6353 71.8335 76.3229C72.1083 75.9962 72.4639 75.8329 72.9003 75.8329C73.0457 75.8329 73.2155 75.8471 73.4094 75.8755C73.6195 75.9039 73.8135 75.982 73.9913 76.1098C74.1691 76.2377 74.3146 76.4294 74.4277 76.685C74.557 76.9265 74.6217 77.2602 74.6217 77.6863Z" fill="white"/>
<path d="M35.3161 29.6993C34.8917 30.2389 35.0455 30.9787 35.6597 31.3516C36.2738 31.7245 37.1158 31.5894 37.5402 31.0498L35.3161 29.6993ZM16.6485 3.28205C15.9218 3.43231 15.4714 4.07175 15.6423 4.71027L18.4291 15.1157C18.6001 15.7542 19.3278 16.15 20.0545 15.9998C20.7812 15.8495 21.2317 15.2101 21.0606 14.5715L18.5836 5.32229L29.1099 3.14574C29.8367 2.99548 30.2871 2.35605 30.1161 1.71752C29.9451 1.07899 29.2173 0.683172 28.4907 0.833431L16.6485 3.28205ZM37.5402 31.0498C39.8416 28.1236 40.9505 25.4379 40.8668 22.871C40.7825 20.2899 39.4989 18.021 37.4535 15.9268C35.4231 13.8481 32.5812 11.878 29.2355 9.86816C25.8852 7.85545 21.9372 5.74945 17.6696 3.4283L16.2467 5.44811C20.5513 7.78942 24.4248 9.85574 27.7097 11.8291C30.9993 13.8053 33.6061 15.6352 35.402 17.4739C37.183 19.2974 38.1032 21.0636 38.1644 22.9392C38.2261 24.8291 37.4221 27.0216 35.3161 29.6993L37.5402 31.0498Z" fill="white"/>
</g>
<defs>
<clipPath id="clip0_1_5">
<rect width="99" height="79" fill="white"/>
</clipPath>
</defs>
</svg>
