<svg width="19" height="21" viewBox="0 0 19 21" fill="none" xmlns="http://www.w3.org/2000/svg">
    <path fill-rule="evenodd" clip-rule="evenodd"
        d="M9.31705 0.478271C6.86523 0.478271 4.63162 1.28813 3.30991 1.9498C3.19049 2.00951 3.07922 2.06813 2.97554 2.12458C2.77037 2.23639 2.59558 2.34061 2.45663 2.43235L3.96018 4.64588L4.66799 4.92759C7.43409 6.32312 11.1436 6.32312 13.9102 4.92759L14.7136 4.51072L16.1351 2.43235C15.8407 2.24022 15.5345 2.06673 15.2184 1.91289C13.9032 1.25827 11.7227 0.478271 9.3176 0.478271H9.31705ZM5.82035 2.98383C5.28793 2.8842 4.76207 2.75224 4.24569 2.58867C5.48381 2.03882 7.32878 1.45531 9.31705 1.45531C10.6941 1.45531 11.9963 1.73539 13.0732 2.09038C11.8112 2.26788 10.4645 2.56913 9.18135 2.93986C8.17175 3.23189 6.99171 3.2004 5.82035 2.98383ZM14.4834 5.73256L14.3499 5.79986C11.307 7.3349 7.27071 7.3349 4.22778 5.79986L4.10131 5.73581C-0.470139 10.7518 -3.96033 20.0174 9.31705 20.0174C22.5944 20.0174 19.019 10.5787 14.4834 5.73256ZM8.75309 10.2486C8.46517 10.2486 8.18904 10.363 7.98546 10.5666C7.78187 10.7702 7.66749 11.0463 7.66749 11.3342C7.66749 11.6222 7.78187 11.8983 7.98546 12.1019C8.18904 12.3055 8.46517 12.4198 8.75309 12.4198V10.2486ZM9.83868 9.16304V8.62024H8.75309V9.16304C8.17725 9.16304 7.625 9.39179 7.21782 9.79897C6.81065 10.2061 6.58189 10.7584 6.58189 11.3342C6.58189 11.9101 6.81065 12.4623 7.21782 12.8695C7.625 13.2767 8.17725 13.5054 8.75309 13.5054V15.6766C8.28085 15.6766 7.87864 15.3754 7.72883 14.9531C7.7066 14.884 7.67074 14.82 7.62338 14.7651C7.57601 14.7101 7.5181 14.6651 7.45306 14.6329C7.38803 14.6007 7.31719 14.5819 7.24475 14.5775C7.1723 14.5731 7.09972 14.5833 7.03129 14.6075C6.96285 14.6317 6.89997 14.6693 6.84634 14.7183C6.79272 14.7672 6.74945 14.8263 6.71909 14.8922C6.68873 14.9582 6.67189 15.0295 6.66959 15.102C6.66728 15.1746 6.67954 15.2469 6.70565 15.3146C6.85538 15.7379 7.13266 16.1045 7.49933 16.3637C7.866 16.623 8.30402 16.7622 8.75309 16.7622V17.305H9.83868V16.7622C10.4145 16.7622 10.9668 16.5335 11.3739 16.1263C11.7811 15.7191 12.0099 15.1669 12.0099 14.591C12.0099 14.0152 11.7811 13.4629 11.3739 13.0558C10.9668 12.6486 10.4145 12.4198 9.83868 12.4198V10.2486C10.3109 10.2486 10.7131 10.5499 10.8629 10.9722C10.8852 11.0413 10.921 11.1052 10.9684 11.1602C11.0158 11.2152 11.0737 11.2601 11.1387 11.2923C11.2037 11.3246 11.2746 11.3434 11.347 11.3478C11.4195 11.3521 11.4921 11.3419 11.5605 11.3177C11.6289 11.2936 11.6918 11.2559 11.7454 11.207C11.7991 11.1581 11.8423 11.0989 11.8727 11.033C11.903 10.9671 11.9199 10.8958 11.9222 10.8232C11.9245 10.7507 11.9122 10.6784 11.8861 10.6107C11.7364 10.1873 11.4591 9.82077 11.0924 9.56152C10.7258 9.30226 10.2877 9.16305 9.83868 9.16304ZM9.83868 13.5054V15.6766C10.1266 15.6766 10.4027 15.5622 10.6063 15.3587C10.8099 15.1551 10.9243 14.8789 10.9243 14.591C10.9243 14.3031 10.8099 14.027 10.6063 13.8234C10.4027 13.6198 10.1266 13.5054 9.83868 13.5054Z"
        fill="#CCF5C6" />
</svg>