<svg width="19" height="21" viewBox="0 0 19 21" fill="none" xmlns="http://www.w3.org/2000/svg">
<path fill-rule="evenodd" clip-rule="evenodd" d="M9.46378 0.592255C7.01196 0.592255 4.77835 1.40211 3.45664 2.06378C3.33722 2.12349 3.22595 2.18211 3.12227 2.23856C2.91709 2.35038 2.74231 2.4546 2.60336 2.54633L4.10691 4.75986L4.81472 5.04157C7.58082 6.43711 11.2903 6.43711 14.0569 5.04157L14.8603 4.6247L16.2819 2.54633C15.9874 2.35421 15.6812 2.18072 15.3651 2.02687C14.0499 1.37226 11.8695 0.592255 9.46433 0.592255H9.46378ZM5.96708 3.09781C5.43466 2.99819 4.9088 2.86622 4.39242 2.70265C5.63054 2.1528 7.47551 1.56929 9.46378 1.56929C10.8409 1.56929 12.143 1.84938 13.2199 2.20437C11.9579 2.38186 10.6113 2.68311 9.32808 3.05384C8.31848 3.34587 7.13844 3.31439 5.96708 3.09781ZM14.6301 5.84654L14.4966 5.91385C11.4537 7.44888 7.41743 7.44888 4.37451 5.91385L4.24804 5.8498C-0.323411 10.8658 -3.8136 20.1314 9.46378 20.1314C22.7412 20.1314 19.1658 10.6926 14.6301 5.84654ZM8.89982 10.3626C8.6119 10.3626 8.33577 10.477 8.13218 10.6806C7.9286 10.8842 7.81422 11.1603 7.81422 11.4482C7.81422 11.7361 7.9286 12.0123 8.13218 12.2158C8.33577 12.4194 8.6119 12.5338 8.89982 12.5338V10.3626ZM9.98541 9.27703V8.73423H8.89982V9.27703C8.32398 9.27703 7.77173 9.50578 7.36455 9.91295C6.95737 10.3201 6.72862 10.8724 6.72862 11.4482C6.72862 12.0241 6.95737 12.5763 7.36455 12.9835C7.77173 13.3907 8.32398 13.6194 8.89982 13.6194V15.7906C8.42758 15.7906 8.02537 15.4894 7.87556 15.0671C7.85333 14.998 7.81747 14.934 7.77011 14.879C7.72274 14.8241 7.66483 14.7791 7.59979 14.7469C7.53476 14.7147 7.46392 14.6958 7.39148 14.6915C7.31903 14.6871 7.24645 14.6973 7.17801 14.7215C7.10958 14.7457 7.04669 14.7833 6.99307 14.8322C6.93945 14.8811 6.89617 14.9403 6.86581 15.0062C6.83545 15.0721 6.81862 15.1435 6.81631 15.216C6.81401 15.2886 6.82627 15.3608 6.85238 15.4286C7.00211 15.8519 7.27939 16.2185 7.64606 16.4777C8.01273 16.737 8.45075 16.8762 8.89982 16.8762V17.419H9.98541V16.8762C10.5612 16.8762 11.1135 16.6474 11.5207 16.2403C11.9279 15.8331 12.1566 15.2808 12.1566 14.705C12.1566 14.1292 11.9279 13.5769 11.5207 13.1697C11.1135 12.7626 10.5612 12.5338 9.98541 12.5338V10.3626C10.4576 10.3626 10.8599 10.6639 11.0097 11.0862C11.0319 11.1553 11.0678 11.2192 11.1151 11.2742C11.1625 11.3292 11.2204 11.3741 11.2854 11.4063C11.3505 11.4385 11.4213 11.4574 11.4938 11.4618C11.5662 11.4661 11.6388 11.4559 11.7072 11.4317C11.7756 11.4076 11.8385 11.3699 11.8922 11.321C11.9458 11.2721 11.9891 11.2129 12.0194 11.147C12.0498 11.0811 12.0666 11.0097 12.0689 10.9372C12.0712 10.8647 12.059 10.7924 12.0328 10.7247C11.8831 10.3013 11.6058 9.93476 11.2392 9.6755C10.8725 9.41625 10.4345 9.27703 9.98541 9.27703ZM9.98541 13.6194V15.7906C10.2733 15.7906 10.5495 15.6762 10.753 15.4726C10.9566 15.2691 11.071 14.9929 11.071 14.705C11.071 14.4171 10.9566 14.141 10.753 13.9374C10.5495 13.7338 10.2733 13.6194 9.98541 13.6194Z" fill="#40A3FF"/>
</svg>
