<svg width="48" height="48" viewBox="0 0 48 48" fill="none" xmlns="http://www.w3.org/2000/svg">
<circle cx="24" cy="24" r="24" fill="#40A3FF" fill-opacity="0.15"/>
<path d="M13.4692 13.4692V17.6436C22.403 17.6436 29.346 24.5919 29.346 33.531H33.531C33.531 22.471 24.5451 13.4692 13.4692 13.4692Z" fill="#40A3FF"/>
<path d="M16.301 27.7373C15.719 27.7394 15.1506 27.9139 14.6676 28.2387C14.1846 28.5635 13.8086 29.0241 13.5871 29.5624C13.3656 30.1007 13.3085 30.6925 13.423 31.2632C13.5375 31.8338 13.8185 32.3578 14.2305 32.769C14.6425 33.1801 15.167 33.4601 15.7379 33.5734C16.3088 33.6868 16.9005 33.6285 17.4383 33.406C17.9762 33.1834 18.436 32.8065 18.7599 32.3229C19.0837 31.8393 19.2571 31.2705 19.2581 30.6885C19.2556 29.9055 18.9431 29.1554 18.3889 28.6023C17.8347 28.0492 17.084 27.7382 16.301 27.7373Z" fill="#40A3FF"/>
<path d="M13.344 20.1147V24.3408C15.8831 24.3408 18.3215 25.0923 20.115 26.8853C21.9084 28.6782 22.6541 31.1118 22.6541 33.6563H26.8855C26.8855 26.2559 20.7498 20.1147 13.344 20.1147Z" fill="#40A3FF"/>
<rect x="0.5" y="0.5" width="47" height="47" />
</svg>
