<svg width="41" height="41" viewBox="0 0 41 41" fill="none" xmlns="http://www.w3.org/2000/svg">
    <path
        d="M20.6909 0.480103C9.66303 0.480103 0.690918 9.45222 0.690918 20.4801C0.690918 31.508 9.66303 40.4801 20.6909 40.4801C31.7188 40.4801 40.6909 31.508 40.6909 20.4801C40.6909 9.45222 31.7188 0.480103 20.6909 0.480103ZM15.8621 11.7128C17.0803 10.4214 18.7948 9.71087 20.6909 9.71087C22.5871 9.71087 24.2861 10.4263 25.5092 11.7243C26.7486 13.0397 27.3515 14.807 27.2092 16.707C26.9246 20.4801 24.0015 23.557 20.6909 23.557C17.3803 23.557 14.4515 20.4801 14.1726 16.7061C14.0313 14.7907 14.6332 13.0176 15.8621 11.7128ZM20.6909 37.4032C18.4318 37.4047 16.1953 36.9525 14.1141 36.0735C12.033 35.1944 10.1496 33.9064 8.57553 32.2859C9.47703 31.0003 10.6257 29.9072 11.9544 29.0705C14.4053 27.4993 17.5073 26.6339 20.6909 26.6339C23.8746 26.6339 26.9765 27.4993 29.4246 29.0705C30.7544 29.9068 31.904 30.9999 32.8063 32.2859C31.2324 33.9066 29.349 35.1947 27.2678 36.0738C25.1866 36.9528 22.9501 37.4049 20.6909 37.4032Z"
        fill="#CCF5C6" />
</svg>