<svg width="19" height="19" viewBox="0 0 19 19" fill="none" xmlns="http://www.w3.org/2000/svg">
    <g clip-path="url(#clip0_3833_112)">
        <path d="M18.208 3.16675V7.91675H13.458" stroke="#CCF5C6" stroke-width="2" stroke-linecap="round"
            stroke-linejoin="round" />
        <path d="M0.791992 15.8333V11.0833H5.54199" stroke="#CCF5C6" stroke-width="2" stroke-linecap="round"
            stroke-linejoin="round" />
        <path
            d="M2.77908 7.12508C3.18058 5.99045 3.86297 4.97602 4.76257 4.17645C5.66217 3.37688 6.74965 2.81823 7.92355 2.55262C9.09745 2.28701 10.3195 2.3231 11.4757 2.65753C12.6319 2.99195 13.6845 3.61381 14.5353 4.46508L18.2087 7.91675M0.791992 11.0834L4.46533 14.5351C5.31617 15.3863 6.36879 16.0082 7.52497 16.3426C8.68114 16.6771 9.9032 16.7132 11.0771 16.4475C12.251 16.1819 13.3385 15.6233 14.2381 14.8237C15.1377 14.0241 15.8201 13.0097 16.2216 11.8751"
            stroke="#CCF5C6" stroke-width="2" stroke-linecap="round" stroke-linejoin="round" />
    </g>
    <defs>
        <clipPath id="clip0_3833_112">
            <rect width="19" height="19" fill="white" />
        </clipPath>
    </defs>
</svg>