<svg width="20" height="21" viewBox="0 0 20 21" fill="none" xmlns="http://www.w3.org/2000/svg">
<path d="M10 20.0273C15.523 20.0273 20 15.5503 20 10.0273C20 4.50434 15.523 0.0273438 10 0.0273438C4.477 0.0273438 0 4.50434 0 10.0273C0 15.5503 4.477 20.0273 10 20.0273ZM11.5 6.02734C11.828 6.46334 12.063 6.97334 12.175 7.52734H14V9.02734H12.175C12.0019 9.87428 11.5416 10.6354 10.872 11.1821C10.2023 11.7288 9.36444 12.0273 8.5 12.0273H8.31L12.03 15.7473L10.97 16.8073L6 11.8373V10.5273H8.5C8.9654 10.5275 9.4194 10.3833 9.79944 10.1147C10.1795 9.84601 10.4669 9.46613 10.622 9.02734H6V7.52734H10.622C10.4667 7.08864 10.1793 6.70884 9.79931 6.44021C9.4193 6.17159 8.96537 6.02735 8.5 6.02734H6V4.52734H14V6.02734H11.5Z" fill="#40A3FF"/>
</svg>
