<svg width="118" height="117" viewBox="0 0 118 117" fill="none" xmlns="http://www.w3.org/2000/svg">
<path d="M13.3084 61.94C13.2884 62.54 13.2684 63.02 13.2484 63.38C13.2284 63.72 13.1984 64.01 13.1584 64.25C13.1384 64.47 13.0884 64.67 13.0084 64.85C12.9484 65.03 12.8584 65.25 12.7384 65.51C12.3184 66.47 11.6684 67.21 10.7884 67.73C9.90836 68.25 8.78836 68.51 7.42836 68.51C6.94836 68.51 6.56836 68.51 6.28836 68.51C6.00836 68.51 5.69836 68.46 5.35836 68.36C5.03836 68.26 4.62836 68.09 4.12836 67.85C3.62836 67.59 2.91836 67.22 1.99836 66.74C1.27836 66.36 0.918359 65.88 0.918359 65.3C0.918359 64.94 1.03836 64.62 1.27836 64.34C1.51836 64.04 1.82836 63.87 2.20836 63.83C3.64836 64.29 4.63836 64.77 5.17836 65.27C5.89836 65.59 6.76836 65.75 7.78836 65.75C8.64836 65.75 9.33836 65.5 9.85836 65C9.93836 64.78 10.0184 64.47 10.0984 64.07C10.1984 63.67 10.2484 63.19 10.2484 62.63C10.2484 62.19 10.1184 61.83 9.85836 61.55C9.59836 61.25 9.26836 60.99 8.86836 60.77C8.46836 60.55 8.01836 60.35 7.51836 60.17C7.03836 59.99 6.57836 59.8 6.13836 59.6C5.79836 59.46 5.45836 59.3 5.11836 59.12C4.77836 58.94 4.43836 58.71 4.09836 58.43C3.23836 56.97 2.80836 55.94 2.80836 55.34C2.80836 53.84 3.69836 52.41 5.47836 51.05C7.13836 50.43 8.26836 50.12 8.86836 50.12C9.08836 50.12 9.37836 50.2 9.73836 50.36C10.0984 50.52 10.4484 50.72 10.7884 50.96C11.1484 51.2 11.4484 51.47 11.6884 51.77C11.9484 52.05 12.0784 52.33 12.0784 52.61C12.0784 52.95 11.9384 53.25 11.6584 53.51C11.3984 53.75 11.0584 53.87 10.6384 53.87C10.5984 53.87 10.4884 53.81 10.3084 53.69C10.1284 53.57 9.90836 53.44 9.64836 53.3C9.40836 53.16 9.15836 53.03 8.89836 52.91C8.65836 52.79 8.45836 52.73 8.29836 52.73C7.95836 52.73 7.62836 52.81 7.30836 52.97C7.00836 53.13 6.73836 53.33 6.49836 53.57C6.25836 53.81 6.06836 54.08 5.92836 54.38C5.78836 54.66 5.71836 54.92 5.71836 55.16C5.71836 55.62 5.85836 56.03 6.13836 56.39C6.41836 56.75 6.75836 57.04 7.15836 57.26L9.04836 57.92C9.52836 58.1 9.99836 58.33 10.4584 58.61C10.9184 58.89 11.3384 59.21 11.7184 59.57C12.0984 59.91 12.4284 60.29 12.7084 60.71C12.9884 61.11 13.1884 61.52 13.3084 61.94ZM28.5092 64.46C28.8692 64.7 29.0492 64.99 29.0492 65.33C29.0492 65.51 28.9992 65.7 28.8992 65.9C28.7992 66.08 28.6692 66.25 28.5092 66.41C28.3492 66.55 28.1792 66.67 27.9992 66.77C27.8192 66.87 27.6392 66.92 27.4592 66.92C27.2992 66.86 27.1092 66.76 26.8892 66.62C26.6692 66.46 26.4492 66.29 26.2292 66.11C26.0092 65.91 25.7992 65.69 25.5992 65.45C25.4192 65.21 25.2792 64.97 25.1792 64.73L24.9692 65.24C24.5892 65.96 23.9892 66.64 23.1692 67.28C22.1692 67.46 21.5892 67.55 21.4292 67.55C21.0492 67.55 20.5892 67.49 20.0492 67.37L18.3992 66.2C17.6792 65.52 17.3192 64.59 17.3192 63.41C17.3192 62.99 17.3792 62.53 17.4992 62.03C17.6392 61.51 17.8292 60.99 18.0692 60.47C18.3292 59.95 18.6392 59.44 18.9992 58.94C19.3592 58.44 19.7792 57.99 20.2592 57.59C20.8392 57.37 21.3992 57.19 21.9392 57.05C22.4792 56.89 22.8892 56.79 23.1692 56.75C23.5492 56.33 23.9992 56.12 24.5192 56.12C24.8192 56.12 25.0792 56.27 25.2992 56.57C25.5392 56.85 25.7392 57.21 25.8992 57.65C26.0792 58.09 26.2192 58.58 26.3192 59.12C26.4192 59.64 26.4892 60.14 26.5292 60.62L26.9192 62.21C27.0392 62.71 27.2292 63.14 27.4892 63.5C27.7692 63.86 28.1092 64.18 28.5092 64.46ZM23.9492 61.13C23.9092 61.11 23.7592 60.48 23.4992 59.24C23.3992 59.24 23.2492 59.24 23.0492 59.24C22.8492 59.24 22.6092 59.3 22.3292 59.42C22.0692 59.52 21.7792 59.71 21.4592 59.99C21.1592 60.25 20.8692 60.65 20.5892 61.19C20.1692 61.97 19.9592 62.75 19.9592 63.53C20.2992 64.19 20.8292 64.71 21.5492 65.09C21.7692 65.03 21.9492 64.96 22.0892 64.88C22.2492 64.8 22.3892 64.69 22.5092 64.55C22.6292 64.41 22.7392 64.24 22.8392 64.04C22.9592 63.82 23.0892 63.55 23.2292 63.23C23.4892 62.77 23.6692 62.37 23.7692 62.03C23.8892 61.67 23.9492 61.37 23.9492 61.13ZM42.0338 57.89C41.9738 58.33 41.5438 59.28 40.7438 60.74L39.8438 62.75C39.6638 63.21 39.5038 63.6 39.3638 63.92C39.2238 64.24 39.0938 64.52 38.9738 64.76C38.8738 64.98 38.7638 65.18 38.6438 65.36C38.5438 65.52 38.4338 65.68 38.3138 65.84C38.2138 66.08 38.0738 66.33 37.8938 66.59C37.7138 66.83 37.5038 67.06 37.2638 67.28C37.0238 67.5 36.7638 67.68 36.4838 67.82C36.2038 67.96 35.9138 68.03 35.6138 68.03C34.7738 68.03 34.1738 67.5 33.8138 66.44C33.5938 66.2 33.3838 65.89 33.1838 65.51C32.9838 65.13 32.8038 64.76 32.6438 64.4C32.5038 64.04 32.3838 63.73 32.2838 63.47C32.1838 63.19 32.1238 63.03 32.1038 62.99C31.8638 62.49 31.7438 61.9 31.7438 61.22V60.98C31.3638 60.02 31.1738 59.14 31.1738 58.34C31.1738 57.96 31.3238 57.68 31.6238 57.5C31.9438 57.32 32.3038 57.23 32.7038 57.23C32.9438 57.23 33.1338 57.29 33.2738 57.41C33.4338 57.51 33.5538 57.67 33.6338 57.89C33.7338 58.09 33.8138 58.34 33.8738 58.64C33.9338 58.94 34.0038 59.28 34.0838 59.66C34.2238 60.32 34.3438 60.87 34.4438 61.31C34.5638 61.75 34.6838 62.14 34.8038 62.48C34.9438 62.82 35.1038 63.16 35.2838 63.5C35.4638 63.82 35.6938 64.2 35.9738 64.64C36.4738 64.08 36.8138 63.42 36.9938 62.66C37.1338 62.4 37.2438 62.15 37.3238 61.91C37.4238 61.65 37.5538 61.32 37.7138 60.92C37.8738 60.52 38.1038 60.01 38.4038 59.39C38.7038 58.75 39.1438 57.93 39.7238 56.93C39.9438 56.65 40.2138 56.51 40.5338 56.51C40.8938 56.51 41.2338 56.65 41.5538 56.93C41.8738 57.21 42.0338 57.5 42.0338 57.8V57.89ZM55.6883 66.8C55.0483 67.44 54.3283 67.98 53.5283 68.42C52.7283 68.88 51.9183 69.11 51.0983 69.11C50.3583 69.11 49.4083 68.99 48.2483 68.75C47.8483 68.49 47.4483 68.18 47.0483 67.82C46.6483 67.44 46.2883 67.03 45.9683 66.59C45.6483 66.13 45.3883 65.64 45.1883 65.12C44.9883 64.58 44.8883 64.03 44.8883 63.47C44.8883 63.31 44.8983 63.1 44.9183 62.84C44.9383 62.56 44.9583 62.29 44.9783 62.03C45.0183 61.75 45.0483 61.51 45.0683 61.31C45.0883 61.11 45.0983 61.01 45.0983 61.01C45.4983 60.37 45.9183 59.74 46.3583 59.12C46.8183 58.48 47.4583 57.92 48.2783 57.44C49.5783 57.16 50.5183 57.02 51.0983 57.02C51.3983 57.02 51.6583 57.04 51.8783 57.08C52.0983 57.1 52.3083 57.16 52.5083 57.26C52.7283 57.34 52.9383 57.47 53.1383 57.65C53.3583 57.83 53.6083 58.06 53.8883 58.34C54.2083 58.68 54.4583 58.91 54.6383 59.03C54.8383 59.15 54.9383 59.26 54.9383 59.36C54.9383 61.2 54.3683 62.45 53.2283 63.11C52.7283 63.29 52.0783 63.49 51.2783 63.71C50.4783 63.91 49.3883 64.1 48.0083 64.28C48.2883 65.04 48.6583 65.61 49.1183 65.99C49.5783 66.37 50.0983 66.56 50.6783 66.56C51.5383 66.56 52.6183 66.05 53.9183 65.03C54.1183 64.85 54.3683 64.76 54.6683 64.76C54.9883 64.76 55.2683 64.88 55.5083 65.12C55.7683 65.36 55.8983 65.66 55.8983 66.02C55.8983 66.28 55.8283 66.54 55.6883 66.8ZM52.2983 60.38C51.9183 59.76 51.4683 59.45 50.9483 59.45C50.7283 59.45 50.4883 59.48 50.2283 59.54C49.9683 59.6 49.6983 59.69 49.4183 59.81C49.1583 59.91 48.9083 60.04 48.6683 60.2C48.4483 60.36 48.2683 60.55 48.1283 60.77L47.8283 61.67C48.5083 61.61 49.1083 61.56 49.6283 61.52C50.1483 61.48 50.5983 61.42 50.9783 61.34C51.3583 61.26 51.6583 61.15 51.8783 61.01C52.0983 60.87 52.2383 60.66 52.2983 60.38ZM75.6521 53.96L75.7421 55.04V55.28C75.7421 55.82 75.5421 56.23 75.1421 56.51C74.7621 56.77 74.2821 56.95 73.7021 57.05C73.6221 57.03 73.4921 56.98 73.3121 56.9C73.1521 56.8 72.9821 56.68 72.8021 56.54C72.6221 56.4 72.4621 56.24 72.3221 56.06C72.2021 55.88 72.1421 55.68 72.1421 55.46C72.1421 54.78 72.2821 54.26 72.5621 53.9C72.8421 53.54 73.1921 53.36 73.6121 53.36C73.8721 53.36 74.1821 53.43 74.5421 53.57L75.6521 53.96ZM76.1621 64.46V64.94C76.1621 65.4 76.1421 65.96 76.1021 66.62C76.0821 67.26 76.0221 68.02 75.9221 68.9C75.5221 70.8 74.9021 72.14 74.0621 72.92C73.2221 73.72 72.1421 74.12 70.8221 74.12C70.5821 74.12 70.3321 74.1 70.0721 74.06C69.7921 74.04 69.5321 73.98 69.2921 73.88C69.0521 73.8 68.8621 73.67 68.7221 73.49C68.5621 73.31 68.4821 73.08 68.4821 72.8C68.4821 72.42 68.6121 72.07 68.8721 71.75C69.1121 71.45 69.4021 71.3 69.7421 71.3C69.8621 71.3 70.0021 71.32 70.1621 71.36C70.3221 71.42 70.4821 71.45 70.6421 71.45C71.5421 71.45 72.2321 71.02 72.7121 70.16C73.2121 69.3 73.4621 68.08 73.4621 66.5V66.11C73.4821 65.99 73.4921 65.85 73.4921 65.69C73.4921 65.53 73.4921 65.34 73.4921 65.12C73.4921 64.46 73.4621 63.96 73.4021 63.62C73.3621 63.26 73.3621 63.08 73.4021 63.08C73.3421 62.78 73.2721 62.42 73.1921 62C73.1321 61.56 73.0621 61.06 72.9821 60.5C73.1821 59.66 73.5921 59.24 74.2121 59.24C74.6721 59.24 75.0121 59.35 75.2321 59.57C75.4721 59.79 75.6421 60.12 75.7421 60.56C75.8621 60.98 75.9421 61.52 75.9821 62.18C76.0221 62.84 76.0821 63.6 76.1621 64.46ZM89.052 67.25C88.792 67.43 88.372 67.61 87.792 67.79C87.212 67.95 86.612 68.09 85.992 68.21L84.762 67.97C84.582 67.91 84.282 67.77 83.862 67.55C83.462 67.33 83.052 67 82.632 66.56C82.212 66.1 81.842 65.52 81.522 64.82C81.202 64.1 81.042 63.23 81.042 62.21C81.042 61.85 81.122 61.43 81.282 60.95C81.462 60.45 81.722 59.99 82.062 59.57C82.402 59.13 82.822 58.76 83.322 58.46C83.842 58.16 84.442 58.01 85.122 58.01C86.482 58.01 87.712 58.45 88.812 59.33C89.772 60.65 90.252 62.11 90.252 63.71C90.252 64.89 89.852 66.07 89.052 67.25ZM87.582 62.99C87.482 62.21 87.232 61.6 86.832 61.16C86.452 60.7 85.962 60.47 85.362 60.47C84.962 60.47 84.582 60.67 84.222 61.07C83.882 61.45 83.712 62.01 83.712 62.75C83.712 63.05 83.752 63.37 83.832 63.71C83.912 64.03 84.042 64.33 84.222 64.61C84.402 64.87 84.632 65.09 84.912 65.27C85.192 65.43 85.532 65.51 85.932 65.51C86.572 65.51 87.012 65.32 87.252 64.94C87.492 64.54 87.612 64.05 87.612 63.47C87.612 63.39 87.602 63.32 87.582 63.26C87.582 63.18 87.582 63.09 87.582 62.99ZM103.508 59.36C103.988 60.3 104.228 61.16 104.228 61.94C104.228 62.52 104.098 63.11 103.838 63.71L103.208 65.15L102.278 66.14C101.638 66.84 101.008 67.3 100.388 67.52C99.7683 67.72 99.2683 67.82 98.8883 67.82C98.4083 67.82 97.9183 67.67 97.4183 67.37C97.1583 67.59 96.8683 67.7 96.5483 67.7C96.1883 67.7 95.7583 67.56 95.2583 67.28C95.2783 67.08 95.2883 66.86 95.2883 66.62C95.2883 66.38 95.2883 66.12 95.2883 65.84C95.2883 65.68 95.2783 65.53 95.2583 65.39C95.2383 65.25 95.2183 65.07 95.1983 64.85C95.1783 64.61 95.1583 64.3 95.1383 63.92C95.1183 63.54 95.0983 63.04 95.0783 62.42C95.0583 61.78 95.0183 61.28 94.9583 60.92C94.8983 60.54 94.8383 60.3 94.7783 60.2C94.6783 59.52 94.5883 58.83 94.5083 58.13C94.4283 57.43 94.3483 56.78 94.2683 56.18C94.1883 55.56 94.1083 55.01 94.0283 54.53C93.9483 54.05 93.8683 53.69 93.7883 53.45C93.7883 52.99 93.8983 52.6 94.1183 52.28C94.3383 51.96 94.6383 51.8 95.0183 51.8C95.2183 51.8 95.4083 51.83 95.5883 51.89C95.7683 51.95 95.9283 52.07 96.0683 52.25C96.2283 52.43 96.3683 52.68 96.4883 53C96.6083 53.32 96.6983 53.74 96.7583 54.26C96.8183 54.76 96.8583 55.11 96.8783 55.31C96.9183 55.51 96.9483 55.71 96.9683 55.91C97.0083 56.11 97.0483 56.39 97.0883 56.75C97.1283 57.11 97.1983 57.7 97.2983 58.52C97.6583 58.32 97.9683 58.16 98.2283 58.04C98.5083 57.9 98.7683 57.79 99.0083 57.71C99.2483 57.63 99.4883 57.58 99.7283 57.56C99.9883 57.54 100.288 57.53 100.628 57.53C101.008 57.53 101.348 57.59 101.648 57.71C101.968 57.83 102.238 57.98 102.458 58.16C102.698 58.34 102.898 58.54 103.058 58.76C103.238 58.96 103.388 59.16 103.508 59.36ZM101.408 62.9C101.508 62.34 101.558 61.97 101.558 61.79C101.558 61.69 101.528 61.55 101.468 61.37C101.408 61.17 101.318 60.98 101.198 60.8C101.098 60.62 100.968 60.46 100.808 60.32C100.648 60.18 100.458 60.11 100.238 60.11C99.8983 60.11 99.5083 60.24 99.0683 60.5C98.6283 60.76 98.1883 61.02 97.7483 61.28L97.9283 64.46C98.0683 64.96 98.3283 65.21 98.7083 65.21C98.9083 65.21 99.1483 65.15 99.4283 65.03C99.7083 64.91 99.9783 64.75 100.238 64.55C100.518 64.33 100.768 64.08 100.988 63.8C101.208 63.52 101.348 63.22 101.408 62.9ZM115.895 64.55C115.835 65.17 115.625 65.74 115.265 66.26C114.925 66.76 114.575 67.27 114.215 67.79C113.995 67.97 113.675 68.12 113.255 68.24C112.855 68.38 112.455 68.49 112.055 68.57C111.655 68.65 111.305 68.71 111.005 68.75C110.725 68.79 110.605 68.81 110.645 68.81C110.445 68.81 110.185 68.77 109.865 68.69C109.565 68.63 109.265 68.56 108.965 68.48C108.685 68.42 108.445 68.35 108.245 68.27C108.065 68.21 107.985 68.18 108.005 68.18C107.825 68.16 107.595 68.1 107.315 68C107.035 67.88 106.765 67.75 106.505 67.61C106.265 67.45 106.055 67.29 105.875 67.13C105.675 66.95 105.575 66.78 105.575 66.62C105.575 66.46 105.615 66.3 105.695 66.14C105.775 65.96 105.885 65.8 106.025 65.66C106.165 65.5 106.305 65.38 106.445 65.3C106.605 65.2 106.765 65.15 106.925 65.15L108.995 65.93C109.375 66.05 109.745 66.14 110.105 66.2C110.485 66.24 110.855 66.26 111.215 66.26C111.555 66.26 111.855 66.2 112.115 66.08C112.395 65.94 112.605 65.78 112.745 65.6L113.195 64.7C113.155 64.34 113.005 64.06 112.745 63.86C112.505 63.66 112.195 63.49 111.815 63.35C111.455 63.21 111.065 63.08 110.645 62.96C110.225 62.84 109.835 62.68 109.475 62.48L108.185 61.67C107.765 61.13 107.545 60.3 107.525 59.18C107.645 58.48 107.945 57.92 108.425 57.5C108.445 57.48 108.575 57.39 108.815 57.23C109.055 57.05 109.425 56.8 109.925 56.48C110.005 56.48 110.255 56.46 110.675 56.42C111.115 56.38 111.715 56.32 112.475 56.24C112.815 56.24 113.645 56.48 114.965 56.96C115.225 57.22 115.355 57.58 115.355 58.04C115.355 58.4 115.265 58.71 115.085 58.97C114.925 59.21 114.685 59.33 114.365 59.33C114.025 59.33 113.645 59.25 113.225 59.09C112.825 58.91 112.445 58.82 112.085 58.82C111.585 58.82 111.125 58.87 110.705 58.97C110.305 59.05 110.105 59.25 110.105 59.57C110.105 60.03 110.305 60.31 110.705 60.41C113.765 61.09 115.495 62.47 115.895 64.55ZM14.6776 96.67L13.0576 96.82C12.9776 96.82 12.8876 96.83 12.7876 96.85C12.6876 96.87 12.5676 96.89 12.4276 96.91C12.3076 96.93 12.1676 96.95 12.0076 96.97L12.2476 99.7C12.2676 99.96 12.2876 100.28 12.3076 100.66C12.3476 101.04 12.4076 101.49 12.4876 102.01C12.4676 102.17 12.4476 102.33 12.4276 102.49C12.4276 102.65 12.4276 102.83 12.4276 103.03C12.4276 103.33 12.4376 103.66 12.4576 104.02C12.4776 104.38 12.5076 104.77 12.5476 105.19C12.1876 105.79 11.6776 106.09 11.0176 106.09C10.4176 106.09 9.99758 105.8 9.75758 105.22C9.75758 105.06 9.75758 104.87 9.75758 104.65C9.77758 104.41 9.78758 104.15 9.78758 103.87C9.78758 103.59 9.77758 103.29 9.75758 102.97C9.75758 102.63 9.75758 102.26 9.75758 101.86V101.71C9.75758 101.39 9.73758 101.15 9.69758 100.99C9.67758 100.83 9.64758 100.63 9.60758 100.39C9.56758 100.13 9.51758 99.77 9.45758 99.31C9.39758 98.85 9.33758 98.15 9.27758 97.21L8.16758 97.42C8.10758 97.42 8.04758 97.42 7.98758 97.42C7.94758 97.4 7.90758 97.39 7.86758 97.39C7.76758 97.39 7.67758 97.4 7.59758 97.42C7.51758 97.42 7.44758 97.42 7.38758 97.42C7.30758 97.44 7.23758 97.45 7.17758 97.45C6.53758 97.29 6.21758 96.83 6.21758 96.07C6.21758 95.77 6.24758 95.54 6.30758 95.38C6.36758 95.22 6.49758 95.1 6.69758 95.02C6.89758 94.94 7.18758 94.88 7.56758 94.84C7.96758 94.78 8.48758 94.7 9.12758 94.6C9.10758 94.26 9.06758 93.87 9.00758 93.43C8.96758 92.97 8.94758 92.48 8.94758 91.96C8.94758 91.16 9.30758 90.11 10.0276 88.81C10.2276 88.71 10.4176 88.61 10.5976 88.51C10.7976 88.41 11.0276 88.32 11.2876 88.24C11.5676 88.14 11.8876 88.05 12.2476 87.97C12.6276 87.87 13.0976 87.78 13.6576 87.7H13.7776C14.1176 87.7 14.3776 87.83 14.5576 88.09C14.7576 88.35 14.8576 88.65 14.8576 88.99C14.8576 89.37 14.7676 89.66 14.5876 89.86C14.4276 90.04 14.2176 90.19 13.9576 90.31C13.6976 90.41 13.4076 90.5 13.0876 90.58C12.7876 90.64 12.5076 90.73 12.2476 90.85C12.0076 90.93 11.8576 91.08 11.7976 91.3C11.7576 91.52 11.7276 91.74 11.7076 91.96C11.7076 92 11.7176 92.17 11.7376 92.47C11.7576 92.75 11.7676 93 11.7676 93.22C11.7676 93.28 11.7576 93.34 11.7376 93.4C11.7376 93.44 11.7376 93.48 11.7376 93.52C11.7376 93.6 11.7376 93.71 11.7376 93.85C11.7576 93.97 11.7776 94.14 11.7976 94.36L13.1776 94.18C13.3176 94.16 13.4476 94.15 13.5676 94.15C13.7076 94.15 13.8276 94.15 13.9276 94.15C14.4276 94.15 14.7876 94.24 15.0076 94.42C15.2476 94.6 15.3676 94.91 15.3676 95.35C15.3676 96.05 15.1376 96.49 14.6776 96.67ZM26.0345 105.25C25.7745 105.43 25.3545 105.61 24.7745 105.79C24.1945 105.95 23.5945 106.09 22.9745 106.21L21.7445 105.97C21.5645 105.91 21.2645 105.77 20.8445 105.55C20.4445 105.33 20.0345 105 19.6145 104.56C19.1945 104.1 18.8245 103.52 18.5045 102.82C18.1845 102.1 18.0245 101.23 18.0245 100.21C18.0245 99.85 18.1045 99.43 18.2645 98.95C18.4445 98.45 18.7045 97.99 19.0445 97.57C19.3845 97.13 19.8045 96.76 20.3045 96.46C20.8245 96.16 21.4245 96.01 22.1045 96.01C23.4645 96.01 24.6945 96.45 25.7945 97.33C26.7545 98.65 27.2345 100.11 27.2345 101.71C27.2345 102.89 26.8345 104.07 26.0345 105.25ZM24.5645 100.99C24.4645 100.21 24.2145 99.6 23.8145 99.16C23.4345 98.7 22.9445 98.47 22.3445 98.47C21.9445 98.47 21.5645 98.67 21.2045 99.07C20.8645 99.45 20.6945 100.01 20.6945 100.75C20.6945 101.05 20.7345 101.37 20.8145 101.71C20.8945 102.03 21.0245 102.33 21.2045 102.61C21.3845 102.87 21.6145 103.09 21.8945 103.27C22.1745 103.43 22.5145 103.51 22.9145 103.51C23.5545 103.51 23.9945 103.32 24.2345 102.94C24.4745 102.54 24.5945 102.05 24.5945 101.47C24.5945 101.39 24.5845 101.32 24.5645 101.26C24.5645 101.18 24.5645 101.09 24.5645 100.99ZM39.1407 95.8C39.4607 96 39.6207 96.38 39.6207 96.94C39.6207 97.36 39.5107 97.72 39.2907 98.02C39.0707 98.32 38.7707 98.47 38.3907 98.47C38.1507 98.47 37.9007 98.41 37.6407 98.29C37.4007 98.15 37.1407 98.08 36.8607 98.08C36.6207 98.08 36.3807 98.13 36.1407 98.23C35.9207 98.31 35.6607 98.5 35.3607 98.8L34.4607 99.7C34.4607 99.84 34.4607 99.98 34.4607 100.12C34.4807 100.26 34.4907 100.41 34.4907 100.57C34.4907 100.81 34.4807 101.06 34.4607 101.32C34.4607 101.58 34.4507 101.86 34.4307 102.16L34.7007 104.89C34.6407 105.81 34.1707 106.27 33.2907 106.27C32.8307 106.27 32.4907 106.13 32.2707 105.85C32.0507 105.55 31.9007 105.14 31.8207 104.62C31.7407 104.1 31.7007 103.49 31.7007 102.79C31.7207 102.09 31.7207 101.32 31.7007 100.48C31.6607 99.22 31.6307 98.59 31.6107 98.59V98.62C31.5307 98.32 31.4707 98.06 31.4307 97.84C31.3907 97.6 31.3707 97.39 31.3707 97.21C31.3707 96.85 31.5007 96.56 31.7607 96.34C32.0207 96.1 32.4007 95.98 32.9007 95.98C33.2207 95.98 33.6007 96.23 34.0407 96.73C34.5007 96.37 34.8507 96.1 35.0907 95.92C35.3507 95.74 35.5607 95.61 35.7207 95.53C35.9007 95.45 36.0707 95.41 36.2307 95.41C36.3907 95.39 36.6007 95.38 36.8607 95.38C37.0807 95.36 37.2807 95.37 37.4607 95.41C37.6607 95.45 37.8707 95.49 38.0907 95.53L39.1407 95.8ZM59.7134 90.22C59.6734 90.72 59.5534 91.29 59.3534 91.93C59.1734 92.55 59.0434 93.06 58.9634 93.46V93.82C58.9634 94.1 58.9434 94.4 58.9034 94.72C58.8634 95.04 58.8234 95.35 58.7834 95.65C58.7434 95.93 58.6934 96.18 58.6334 96.4C58.5934 96.62 58.5734 96.77 58.5734 96.85C58.5534 96.95 58.5434 97.19 58.5434 97.57C58.5434 97.95 58.5434 98.46 58.5434 99.1V99.46C58.5434 99.86 58.5234 100.21 58.4834 100.51C58.4434 100.81 58.3934 101.08 58.3334 101.32L58.6034 103.57C58.6834 103.79 58.9534 104.12 59.4134 104.56C59.3134 104.92 59.0534 105.25 58.6334 105.55C58.2134 105.83 57.7834 105.97 57.3434 105.97C56.7434 105.97 56.2834 105.69 55.9634 105.13C55.6634 104.55 55.5134 103.59 55.5134 102.25C55.5134 102.03 55.5234 101.84 55.5434 101.68C55.5834 101.52 55.6034 101.32 55.6034 101.08C55.6034 100.6 55.5434 100 55.4234 99.28C55.5234 99.06 55.5934 98.78 55.6334 98.44C55.6934 98.1 55.7334 97.78 55.7534 97.48C55.7734 97.16 55.7834 96.89 55.7834 96.67C55.7834 96.45 55.7834 96.36 55.7834 96.4C55.7834 96.42 55.8034 96.28 55.8434 95.98C55.9034 95.68 55.9634 95.33 56.0234 94.93C56.0834 94.51 56.1334 94.08 56.1734 93.64C56.2334 93.2 56.2634 92.85 56.2634 92.59V92.35L56.7734 89.83C57.0334 89.39 57.4834 89.17 58.1234 89.17C58.8234 89.17 59.3534 89.52 59.7134 90.22ZM74.8862 102.46C75.2462 102.7 75.4262 102.99 75.4262 103.33C75.4262 103.51 75.3762 103.7 75.2762 103.9C75.1762 104.08 75.0462 104.25 74.8862 104.41C74.7262 104.55 74.5562 104.67 74.3762 104.77C74.1962 104.87 74.0162 104.92 73.8362 104.92C73.6762 104.86 73.4862 104.76 73.2662 104.62C73.0462 104.46 72.8262 104.29 72.6062 104.11C72.3862 103.91 72.1762 103.69 71.9762 103.45C71.7962 103.21 71.6562 102.97 71.5562 102.73L71.3462 103.24C70.9662 103.96 70.3662 104.64 69.5462 105.28C68.5462 105.46 67.9662 105.55 67.8062 105.55C67.4262 105.55 66.9662 105.49 66.4262 105.37L64.7762 104.2C64.0562 103.52 63.6962 102.59 63.6962 101.41C63.6962 100.99 63.7562 100.53 63.8762 100.03C64.0162 99.51 64.2062 98.99 64.4462 98.47C64.7062 97.95 65.0162 97.44 65.3762 96.94C65.7362 96.44 66.1562 95.99 66.6362 95.59C67.2162 95.37 67.7762 95.19 68.3162 95.05C68.8562 94.89 69.2662 94.79 69.5462 94.75C69.9262 94.33 70.3762 94.12 70.8962 94.12C71.1962 94.12 71.4562 94.27 71.6762 94.57C71.9162 94.85 72.1162 95.21 72.2762 95.65C72.4562 96.09 72.5962 96.58 72.6962 97.12C72.7962 97.64 72.8662 98.14 72.9062 98.62L73.2962 100.21C73.4162 100.71 73.6062 101.14 73.8662 101.5C74.1462 101.86 74.4862 102.18 74.8862 102.46ZM70.3262 99.13C70.2862 99.11 70.1362 98.48 69.8762 97.24C69.7762 97.24 69.6262 97.24 69.4262 97.24C69.2262 97.24 68.9862 97.3 68.7062 97.42C68.4462 97.52 68.1562 97.71 67.8362 97.99C67.5362 98.25 67.2462 98.65 66.9662 99.19C66.5462 99.97 66.3362 100.75 66.3362 101.53C66.6762 102.19 67.2062 102.71 67.9262 103.09C68.1462 103.03 68.3262 102.96 68.4662 102.88C68.6262 102.8 68.7662 102.69 68.8862 102.55C69.0062 102.41 69.1162 102.24 69.2162 102.04C69.3362 101.82 69.4662 101.55 69.6062 101.23C69.8662 100.77 70.0462 100.37 70.1462 100.03C70.2662 99.67 70.3262 99.37 70.3262 99.13ZM85.5008 94.69C85.7208 94.87 85.8308 95.2 85.8308 95.68C85.8308 96.56 85.5008 97 84.8408 97H84.7208C84.4208 97.02 84.0708 97.05 83.6708 97.09C83.2708 97.11 82.8208 97.15 82.3208 97.21C82.2808 97.53 82.2408 97.96 82.2008 98.5C82.1608 99.02 82.1408 99.65 82.1408 100.39C82.1408 100.45 82.1408 100.51 82.1408 100.57C82.1608 100.63 82.1708 100.7 82.1708 100.78V102.16C82.1708 102.48 82.2208 102.74 82.3208 102.94C82.4408 103.12 82.5808 103.25 82.7408 103.33L83.5808 103.6C84.2408 103.82 84.5708 104.22 84.5708 104.8C84.5708 105.14 84.4308 105.44 84.1508 105.7C83.8908 105.96 83.5508 106.09 83.1308 106.09C83.0108 106.09 82.8008 106.06 82.5008 106C82.2208 105.92 81.9208 105.82 81.6008 105.7C81.3008 105.58 81.0108 105.43 80.7308 105.25C80.4708 105.07 80.2908 104.87 80.1908 104.65C79.9708 104.19 79.7908 103.71 79.6508 103.21C79.5108 102.69 79.4408 102.15 79.4408 101.59C79.4408 100.97 79.4508 100.53 79.4708 100.27C79.4908 100.01 79.5108 99.78 79.5308 99.58C79.5508 99.38 79.5708 99.14 79.5908 98.86C79.6108 98.58 79.6208 98.12 79.6208 97.48C79.2408 97.52 78.6808 97.64 77.9408 97.84C77.5008 97.84 77.1208 97.73 76.8008 97.51C76.5008 97.27 76.3508 96.96 76.3508 96.58C76.3508 96.3 76.4308 96.04 76.5908 95.8C76.7708 95.56 77.1308 95.35 77.6708 95.17C77.8508 95.11 78.0108 95.07 78.1508 95.05C78.3108 95.03 78.4608 95.01 78.6008 94.99C78.7608 94.97 78.9308 94.96 79.1108 94.96C79.2908 94.94 79.5108 94.91 79.7708 94.87C79.7908 94.37 79.8208 93.81 79.8608 93.19C79.9208 92.55 80.0108 91.96 80.1308 91.42C80.2708 90.88 80.4608 90.43 80.7008 90.07C80.9608 89.69 81.3008 89.5 81.7208 89.5C82.4408 89.5 82.8808 89.83 83.0408 90.49C83.0408 90.51 83.0108 90.65 82.9508 90.91C82.9108 91.15 82.8608 91.42 82.8008 91.72C82.7408 92.02 82.6808 92.31 82.6208 92.59C82.5808 92.87 82.5608 93.05 82.5608 93.13L82.4708 94.6C82.6108 94.58 82.7408 94.57 82.8608 94.57C82.9808 94.55 83.1108 94.54 83.2508 94.54H83.5208C83.6608 94.54 83.7908 94.54 83.9108 94.54C84.0308 94.52 84.1408 94.51 84.2408 94.51C84.8408 94.51 85.2608 94.57 85.5008 94.69ZM98.9012 104.8C98.2612 105.44 97.5412 105.98 96.7412 106.42C95.9412 106.88 95.1312 107.11 94.3112 107.11C93.5712 107.11 92.6212 106.99 91.4612 106.75C91.0612 106.49 90.6612 106.18 90.2612 105.82C89.8612 105.44 89.5012 105.03 89.1812 104.59C88.8612 104.13 88.6012 103.64 88.4012 103.12C88.2012 102.58 88.1012 102.03 88.1012 101.47C88.1012 101.31 88.1112 101.1 88.1312 100.84C88.1512 100.56 88.1712 100.29 88.1912 100.03C88.2312 99.75 88.2612 99.51 88.2812 99.31C88.3012 99.11 88.3112 99.01 88.3112 99.01C88.7112 98.37 89.1312 97.74 89.5712 97.12C90.0312 96.48 90.6712 95.92 91.4912 95.44C92.7912 95.16 93.7312 95.02 94.3112 95.02C94.6112 95.02 94.8712 95.04 95.0912 95.08C95.3112 95.1 95.5212 95.16 95.7212 95.26C95.9412 95.34 96.1512 95.47 96.3512 95.65C96.5712 95.83 96.8212 96.06 97.1012 96.34C97.4212 96.68 97.6712 96.91 97.8512 97.03C98.0512 97.15 98.1512 97.26 98.1512 97.36C98.1512 99.2 97.5812 100.45 96.4412 101.11C95.9412 101.29 95.2912 101.49 94.4912 101.71C93.6912 101.91 92.6012 102.1 91.2212 102.28C91.5012 103.04 91.8712 103.61 92.3312 103.99C92.7912 104.37 93.3112 104.56 93.8912 104.56C94.7512 104.56 95.8312 104.05 97.1312 103.03C97.3312 102.85 97.5812 102.76 97.8812 102.76C98.2012 102.76 98.4812 102.88 98.7212 103.12C98.9812 103.36 99.1112 103.66 99.1112 104.02C99.1112 104.28 99.0412 104.54 98.9012 104.8ZM95.5112 98.38C95.1312 97.76 94.6812 97.45 94.1612 97.45C93.9412 97.45 93.7012 97.48 93.4412 97.54C93.1812 97.6 92.9112 97.69 92.6312 97.81C92.3712 97.91 92.1212 98.04 91.8812 98.2C91.6612 98.36 91.4812 98.55 91.3412 98.77L91.0412 99.67C91.7212 99.61 92.3212 99.56 92.8412 99.52C93.3612 99.48 93.8112 99.42 94.1912 99.34C94.5712 99.26 94.8712 99.15 95.0912 99.01C95.3112 98.87 95.4512 98.66 95.5112 98.38ZM110.947 95.8C111.267 96 111.427 96.38 111.427 96.94C111.427 97.36 111.317 97.72 111.097 98.02C110.877 98.32 110.577 98.47 110.197 98.47C109.957 98.47 109.707 98.41 109.447 98.29C109.207 98.15 108.947 98.08 108.667 98.08C108.427 98.08 108.187 98.13 107.947 98.23C107.727 98.31 107.467 98.5 107.167 98.8L106.267 99.7C106.267 99.84 106.267 99.98 106.267 100.12C106.287 100.26 106.297 100.41 106.297 100.57C106.297 100.81 106.287 101.06 106.267 101.32C106.267 101.58 106.257 101.86 106.237 102.16L106.507 104.89C106.447 105.81 105.977 106.27 105.097 106.27C104.637 106.27 104.297 106.13 104.077 105.85C103.857 105.55 103.707 105.14 103.627 104.62C103.547 104.1 103.507 103.49 103.507 102.79C103.527 102.09 103.527 101.32 103.507 100.48C103.467 99.22 103.437 98.59 103.417 98.59V98.62C103.337 98.32 103.277 98.06 103.237 97.84C103.197 97.6 103.177 97.39 103.177 97.21C103.177 96.85 103.307 96.56 103.567 96.34C103.827 96.1 104.207 95.98 104.707 95.98C105.027 95.98 105.407 96.23 105.847 96.73C106.307 96.37 106.657 96.1 106.897 95.92C107.157 95.74 107.367 95.61 107.527 95.53C107.707 95.45 107.877 95.41 108.037 95.41C108.197 95.39 108.407 95.38 108.667 95.38C108.887 95.36 109.087 95.37 109.267 95.41C109.467 95.45 109.677 95.49 109.897 95.53L110.947 95.8Z" fill="white"/>
<path d="M90.9277 7.03046L81.5755 14.3123C81.2678 14.553 80.8811 14.6697 80.4917 14.6394C80.1023 14.6091 79.7383 14.4341 79.4715 14.1488C79.2047 13.8635 79.0545 13.4886 79.0504 13.098C79.0463 12.7074 79.1886 12.3294 79.4494 12.0386L79.6528 11.8466L92.1 2.16613L92.3364 2.03809L92.5205 1.97598L92.7402 1.9309L92.8042 1.92311C92.9151 1.91347 93.0267 1.91575 93.1371 1.92992L92.9057 1.91686L93.003 1.91952L93.2666 1.95233L93.5275 2.03204L93.7152 2.11838L93.9354 2.27176L94.1313 2.46933L103.776 14.8491C104.017 15.1568 104.133 15.5435 104.103 15.9329C104.073 16.3224 103.898 16.6863 103.612 16.9531C103.327 17.2199 102.952 17.3701 102.562 17.3742C102.171 17.3783 101.793 17.236 101.502 16.9752L101.308 16.7683L94.0319 7.41682L92.3718 20.7293C91.0124 31.6513 83.9726 38.2164 75.194 37.4734L74.5506 37.4059C74.1393 37.3547 73.7653 37.1422 73.5107 36.8153C73.2561 36.4883 73.1418 36.0736 73.193 35.6623C73.2442 35.2511 73.4566 34.8771 73.7836 34.6225C74.1106 34.3679 74.5253 34.2536 74.9365 34.3048C81.9853 35.1821 87.7406 30.208 89.1572 21.1543L89.2707 20.3434L90.9277 7.03046Z" fill="white"/>
</svg>
