<svg width="505" height="505" viewBox="0 0 505 505" fill="none" xmlns="http://www.w3.org/2000/svg">
<g clip-path="url(#clip0_51_760)">
<path d="M505 0H0V505H505V0Z" fill="#3D707A"/>
<path d="M391.88 265.361C361.496 233.478 357.322 210.467 359.459 195.065C362.102 176.077 374.138 170.32 374.189 145.204C374.222 130.425 370.064 118.978 377.101 106.185C378.936 102.835 381.999 98.5592 384.289 91.1357C386.527 83.8468 386.83 77.4165 386.729 73.124C406.155 96.1688 414.403 120.762 408.495 138.656C399.321 166.515 403.984 169.68 413.242 194.98C414.218 197.657 418.847 225.718 405.633 240.515C403.58 242.821 399.051 247.063 395.449 254.638C393.429 258.981 392.402 262.819 391.88 265.361Z" fill="#7ADA6B" stroke="#7ADA6B" stroke-width="0.8128" stroke-miterlimit="10"/>
<path d="M415.262 319.614C389.355 282.581 384.204 228.479 383.699 195.923C383.464 181.093 384.743 166.296 387.403 151.702L391.998 126.603" stroke="#CCF5C6" stroke-width="0.8128" stroke-miterlimit="10"/>
<path d="M410.195 281.756C440.798 259.772 447.952 241.07 448.592 227.789C449.383 211.41 440.175 204.66 444.114 183.534C446.437 171.094 451.74 162.139 447.851 150.271C446.841 147.174 444.939 143.083 444.198 136.485C443.458 129.987 444.232 124.55 444.989 120.964C424.991 137.259 414.168 156.634 416.289 172.609C419.588 197.489 415.161 199.408 403.361 219.22C402.115 221.308 393.766 244.167 402.553 258.711C403.916 260.967 407.047 265.26 408.882 272.212C409.909 276.151 410.161 279.534 410.195 281.756Z" fill="#7ADA6B" stroke="#7ADA6B" stroke-width="0.6955" stroke-miterlimit="10"/>
<path d="M381.932 323.671C409.589 296.637 422.5 251.961 428.089 224.658C430.63 212.235 431.91 199.576 431.977 186.884L432.095 165.051" stroke="#CCF5C6" stroke-width="0.6955" stroke-miterlimit="10"/>
<path d="M374.609 281.807C374.609 281.807 392.318 248.628 370.687 217.975C349.056 187.305 356.362 188.348 353.568 175.824C350.773 163.283 347.541 152.628 325.978 128.085C325.978 128.085 312.881 171.195 324.513 190.688C336.145 210.181 341.397 223.294 339.916 237.906C338.687 249.958 348.029 260.664 358.315 267.953C364.139 272.094 369.559 276.757 374.609 281.807Z" fill="#7ADA6B" stroke="#7ADA6B" stroke-width="0.6996" stroke-miterlimit="10"/>
<path d="M336.448 170.926L368.869 265.142C372.674 276.218 377.858 286.756 384.289 296.553L400.364 321.045" stroke="#CCF5C6" stroke-width="0.6996" stroke-miterlimit="10"/>
<path d="M423.628 389.927H359.005L337.778 299.263H441.522L423.628 389.927Z" fill="#7AE2D6" stroke="#7AE2D6" stroke-width="0.6845" stroke-miterlimit="10"/>
<path d="M211.982 456.065C211.982 451.958 189.796 448.608 162.442 448.608C135.071 448.608 112.901 451.941 112.901 456.065C112.901 458.792 122.682 461.183 137.276 462.479C137.259 462.546 137.226 462.614 137.226 462.681C137.226 465.66 149.564 468.085 164.799 468.085C180.033 468.085 192.372 465.66 192.372 462.681C192.372 462.462 192.287 462.243 192.153 462.025C204.189 460.678 211.982 458.506 211.982 456.065Z" fill="#1C0902" stroke="#1C0902" stroke-width="0.0528" stroke-miterlimit="10"/>
<path d="M165.102 378.127C193.345 378.127 216.241 374.133 216.241 369.206C216.241 364.278 193.345 360.284 165.102 360.284C136.858 360.284 113.962 364.278 113.962 369.206C113.962 374.133 136.858 378.127 165.102 378.127Z" fill="#1C0902" stroke="#D9D9D9" stroke-width="0.8663" stroke-miterlimit="10"/>
<path d="M215.736 371.024L190.991 455.14H134.482L114.719 370.72C118.827 374.929 139.835 378.127 165.101 378.127C189.341 378.127 210.467 374.979 215.736 371.024Z" fill="#D9D9D9" stroke="#D9D9D9" stroke-width="0.8663" stroke-miterlimit="10"/>
<path d="M165.287 36.9155C159.193 46.9482 151.769 62.3002 149.951 81.7258C147.511 107.801 157.56 115.544 154.261 141.972C149.514 179.999 122.782 212.588 118.928 251.204C114.652 294.011 140.34 335 162.341 369.542C162.341 369.542 147.797 328.822 145.693 314.093C143.588 299.364 135.963 259.621 148.655 222.806C161.348 185.992 174.915 163.873 176.885 132.108C178.888 100.344 164.31 78.578 165.287 36.9155Z" fill="#7ADA6B" stroke="#7ADA6B" stroke-width="0.9314" stroke-miterlimit="10"/>
<path d="M163.62 368.296C138.858 279.248 154.581 228.933 166.667 211.746C166.667 211.746 192.658 177.676 199.543 151.029C199.728 150.305 200.822 146.181 202.623 140.643C203.818 136.956 205.62 132.192 209.205 124.213C224.321 90.5802 250.161 83.1903 258.796 41.7467C254.251 63.4785 245.515 98.4918 228.277 139.329C205.434 193.465 177.912 240.919 172.273 251.221C161.365 271.151 158.099 348.433 163.62 368.296Z" fill="#CCF5C6" stroke="#CCF5C6" stroke-width="0.9314" stroke-miterlimit="10"/>
<path d="M175.404 370.704C162.896 285.342 183.349 240.582 196.546 226.072C196.546 226.072 224.591 197.556 234.101 173.703C234.354 173.063 235.869 169.36 238.175 164.445C239.707 161.179 241.946 156.954 246.188 150.002C264.115 120.628 288.911 116.806 301.755 79.4365C295.004 99.0305 282.817 130.425 262.062 166.229C234.573 213.699 203.532 254.419 197.102 263.307C184.679 280.477 172.626 351.665 175.404 370.704Z" fill="#7ADA6B" stroke="#7ADA6B" stroke-width="0.8694" stroke-miterlimit="10"/>
<path d="M93.1558 81.2208C93.1558 81.2208 80.4803 126.789 91.3884 156.331C102.296 185.874 87.3988 225.988 86.8938 247.265C86.271 273.744 94.5362 309.986 128.876 347.861L156.971 369.845C156.971 369.845 123.338 338.99 118.81 310.053C114.282 281.117 104.872 258.106 111.184 230.465C117.48 202.825 121.167 175.1 108.861 144.413C96.5562 113.726 93.1558 81.2208 93.1558 81.2208Z" fill="#CCF5C6" stroke="#CCF5C6" stroke-width="0.9314" stroke-miterlimit="10"/>
<path d="M181.312 370.418C181.312 370.418 181.918 321.264 197.927 292.951C217.319 258.661 228.075 255.261 254.066 238.798C256.523 239.589 230.432 281.706 213.464 293.321C181.161 315.406 181.312 370.418 181.312 370.418Z" fill="#CCF5C6" stroke="#CCF5C6" stroke-width="0.9314" stroke-miterlimit="10"/>
<path d="M55.769 268.273C55.769 268.273 69.5387 267.482 76.7602 307.932C83.9817 348.4 122.867 360.368 150.659 370.552C150.659 370.552 105.932 352.456 99.3337 332.155C92.7182 311.854 87.0622 262.785 55.769 268.273Z" fill="#7ADA6B" stroke="#7ADA6B" stroke-width="0.9314" stroke-miterlimit="10"/>
<path d="M260.193 284.904C260.193 284.904 261.876 296.014 229.607 304.885C197.354 313.757 190.553 346.178 184.375 369.475C184.375 369.475 195.704 331.869 211.662 325.001C227.62 318.116 266.977 309.868 260.193 284.904Z" fill="#7ADA6B" stroke="#7ADA6B" stroke-width="0.7582" stroke-miterlimit="10"/>
<path d="M175.488 370.367C175.69 369.744 175.437 368.7 175.403 368.061C175.285 366.091 175.168 364.122 175.05 362.152C174.713 356.395 174.41 350.638 174.276 344.864C173.888 329.782 175.589 314.447 178.669 299.701C182.255 282.547 188.601 265.529 196.411 249.874C200.317 242.047 204.626 234.387 210.4 227.789C215.719 221.712 221.325 216.022 226.072 209.457C237.316 193.903 245.497 176.447 255.665 160.22C255.799 160.001 255.463 159.816 255.328 160.018C246.187 174.578 238.663 190.116 229.085 204.424C224.287 211.595 218.8 218.008 212.959 224.355C207.319 230.482 202.808 237.03 198.835 244.353C190.621 259.486 184.106 276.1 179.847 292.799C177.709 301.182 176.312 309.733 175.319 318.335C174.511 325.338 173.771 332.391 173.771 339.427C173.771 346.043 174.107 352.658 174.461 359.257C174.595 361.782 174.747 364.307 174.898 366.815C174.949 367.741 175.37 369.391 175.067 370.283C175.033 370.502 175.403 370.603 175.488 370.367Z" fill="#353B43"/>
<path d="M181.464 370.131C182.491 353.062 184.679 335.758 190.234 319.497C195.2 304.936 203.785 292.496 213.801 280.915C221.258 272.313 229.22 264.149 236.526 255.429C236.694 255.244 236.408 254.958 236.256 255.16C223.143 270.815 207.623 284.786 197.371 302.647C191.244 313.302 187.591 325.17 185.15 337.155C182.945 348.029 181.75 359.072 181.093 370.131C181.06 370.384 181.447 370.384 181.464 370.131Z" fill="#353B43"/>
<path d="M230.92 105.781C228.698 118.153 223.698 129.802 218.514 141.181C213.396 152.426 208.313 163.687 202.808 174.747C199.963 180.437 197.135 186.177 193.954 191.698C191.058 196.731 187.608 201.411 184.123 206.04C178.13 213.969 171.717 221.88 167.778 231.088C162.105 244.353 160.169 259.284 158.839 273.542C157.223 290.897 157.005 308.387 157.762 325.792C158.452 341.464 159.546 357.607 163.502 372.858C163.57 373.094 163.94 372.993 163.873 372.757C160.405 359.409 159.243 345.386 158.435 331.667C157.425 314.312 157.425 296.856 158.705 279.518C159.816 264.401 161.583 248.746 166.852 234.421C170.034 225.735 175.387 218.194 180.925 210.871C184.426 206.242 188.012 201.663 191.21 196.815C194.459 191.917 197.152 186.665 199.845 181.43C206.259 168.973 212.033 156.213 217.874 143.487C223.412 131.401 228.917 119.062 231.273 105.882C231.341 105.646 230.97 105.528 230.92 105.781Z" fill="#353B43"/>
<path d="M159.564 76.6253C162.594 99.2493 163.839 122.261 160.725 144.935C159.21 155.978 156.651 166.869 152.999 177.407C149.312 188.028 144.026 197.741 139.212 207.858C136.973 212.555 134.97 217.386 133.623 222.419C132.092 228.142 131.216 234.101 130.442 239.959C129.179 249.453 128.136 259.368 128.994 268.946C130.408 284.988 135.677 300.812 140.895 315.945C147.713 335.657 155.641 354.981 164.142 374.02C164.243 374.256 164.58 374.054 164.479 373.818C156.87 356.783 149.75 339.511 143.437 321.954C137.731 306.064 132.125 289.634 129.836 272.852C128.607 263.812 129.23 254.621 130.173 245.582C131.385 234 133.203 222.385 137.899 211.662C142.091 202.101 147.41 193.095 151.214 183.349C155.305 172.895 158.284 162.021 160.186 150.961C164.428 126.368 163.25 101.236 159.951 76.6085C159.934 76.3897 159.53 76.3897 159.564 76.6253Z" fill="#353B43"/>
<path d="M95.681 129.061C99.8725 147.696 107.464 166.381 106.555 185.79C106.084 195.738 103.155 205.367 100.378 214.878C97.6337 224.287 95.277 233.764 94.1155 243.528C92.1965 259.755 93.8125 275.983 99.2497 291.385C103.727 304.094 110.09 316.13 117.581 327.324C128.27 343.282 141.4 357.523 156.247 369.71C156.433 369.862 156.719 369.593 156.517 369.441C132.277 349.561 111.875 323.705 100.697 294.23C95.075 279.4 92.7689 263.795 94.065 247.955C94.9067 237.771 97.0782 227.805 99.8725 218.008C102.431 209.053 105.327 200.115 106.488 190.84C109.148 169.731 100.58 149.211 96.0345 128.977C96.0009 128.708 95.6305 128.809 95.681 129.061Z" fill="#353B43"/>
<path d="M66.0205 273.02C73.0063 279.669 80.6318 287.311 83.6113 296.755C85.2105 301.838 84.5708 307.006 85.2947 312.191C86.6413 321.887 90.715 331.162 96.674 338.889C102.162 346.009 109.316 351.547 117.093 355.975C127.664 362.001 139.145 366.31 150.423 370.788C150.659 370.889 150.76 370.502 150.524 370.418C131.99 363.061 111.218 355.991 98.1217 340.084C91.6745 332.273 87.4157 322.83 85.7828 312.831C84.9412 307.646 85.665 302.411 84.1837 297.294C81.3557 287.497 73.4777 279.551 66.3067 272.75C66.1047 272.565 65.8353 272.835 66.0205 273.02Z" fill="#353B43"/>
<path d="M184.359 369.34C187.641 358.398 190.537 347.642 196.731 337.929C200.687 331.718 205.451 325.59 211.191 320.927C216.207 316.854 222.335 314.362 228.361 312.157C234.758 309.817 241.34 307.831 247.45 304.751C247.669 304.633 247.484 304.296 247.248 304.414C235.869 310.154 222.469 312.006 212.1 319.715C206.629 323.789 202.084 329.395 198.213 334.966C195.098 339.478 192.355 344.258 190.318 349.359C187.725 355.806 185.975 362.59 183.988 369.239C183.904 369.475 184.291 369.593 184.359 369.34Z" fill="#353B43"/>
<path d="M185.032 363.465C181.396 363.465 178.114 364.206 175.807 365.384C173.518 364.324 170.404 363.65 166.97 363.65C163.233 363.65 159.866 364.442 157.543 365.67C155.22 364.206 151.567 363.263 147.46 363.263C140.441 363.263 134.751 365.99 134.751 369.374C134.751 372.74 140.441 375.484 147.46 375.484C151.197 375.484 154.564 374.693 156.887 373.464C159.21 374.929 162.863 375.871 166.97 375.871C170.606 375.871 173.888 375.131 176.195 373.952C178.484 375.013 181.598 375.686 185.032 375.686C192.052 375.686 197.741 372.959 197.741 369.576C197.724 366.192 192.052 363.465 185.032 363.465Z" fill="#1C0902" stroke="#1C0902" stroke-width="0.0544" stroke-miterlimit="10"/>
<mask id="mask0_51_760" style="mask-type:luminance" maskUnits="userSpaceOnUse" x="114" y="370" width="102" height="86">
<path d="M215.736 371.024L190.991 455.14H134.482L114.719 370.72C118.827 374.929 139.835 378.127 165.101 378.127C189.341 378.127 210.467 374.979 215.736 371.024Z" fill="white"/>
</mask>
<g mask="url(#mask0_51_760)">
<path d="M146.568 448.793C146.568 448.793 127.63 423.072 135.576 395.061C135.576 395.061 157.56 421.439 146.568 448.793Z" fill="#1C0902" stroke="#1C0902" stroke-width="0.0528" stroke-miterlimit="10"/>
</g>
<mask id="mask1_51_760" style="mask-type:luminance" maskUnits="userSpaceOnUse" x="114" y="370" width="102" height="86">
<path d="M215.736 371.024L190.991 455.14H134.482L114.719 370.72C118.827 374.929 139.835 378.127 165.101 378.127C189.341 378.127 210.467 374.979 215.736 371.024Z" fill="white"/>
</mask>
<g mask="url(#mask1_51_760)">
<path d="M163.149 448.373C163.149 448.373 149.952 419.285 163.519 393.53C163.519 393.53 179.561 423.88 163.149 448.373Z" fill="#1C0902" stroke="#1C0902" stroke-width="0.0528" stroke-miterlimit="10"/>
</g>
<mask id="mask2_51_760" style="mask-type:luminance" maskUnits="userSpaceOnUse" x="114" y="370" width="102" height="86">
<path d="M215.736 371.024L190.991 455.14H134.482L114.719 370.72C118.827 374.929 139.835 378.127 165.101 378.127C189.341 378.127 210.467 374.979 215.736 371.024Z" fill="white"/>
</mask>
<g mask="url(#mask2_51_760)">
<path d="M179.578 447.632C179.578 447.632 174.444 416.103 194.274 394.792C194.257 394.792 201.815 428.291 179.578 447.632Z" fill="#1C0902" stroke="#1C0902" stroke-width="0.0528" stroke-miterlimit="10"/>
</g>
<mask id="mask3_51_760" style="mask-type:luminance" maskUnits="userSpaceOnUse" x="114" y="370" width="102" height="86">
<path d="M215.736 371.024L190.991 455.14H134.482L114.719 370.72C118.827 374.929 139.835 378.127 165.101 378.127C189.341 378.127 210.467 374.979 215.736 371.024Z" fill="white"/>
</mask>
<g mask="url(#mask3_51_760)">
<path d="M133.219 453.288H192.22" stroke="#1C0902" stroke-width="0.4657" stroke-miterlimit="10"/>
</g>
<mask id="mask4_51_760" style="mask-type:luminance" maskUnits="userSpaceOnUse" x="114" y="370" width="102" height="86">
<path d="M215.736 371.024L190.991 455.14H134.482L114.719 370.72C118.827 374.929 139.835 378.127 165.101 378.127C189.341 378.127 210.467 374.979 215.736 371.024Z" fill="white"/>
</mask>
<g mask="url(#mask4_51_760)">
<path d="M116.369 382.319C129.179 385.315 145.659 388.008 164.916 388.261C184.039 388.513 200.502 386.308 213.329 383.682" stroke="#1C0902" stroke-width="0.4657" stroke-miterlimit="10"/>
</g>
<mask id="mask5_51_760" style="mask-type:luminance" maskUnits="userSpaceOnUse" x="114" y="370" width="102" height="86">
<path d="M215.736 371.024L190.991 455.14H134.482L114.719 370.72C118.827 374.929 139.835 378.127 165.101 378.127C189.341 378.127 210.467 374.979 215.736 371.024Z" fill="white"/>
</mask>
<g mask="url(#mask5_51_760)">
<path d="M115.796 378.464C128.607 381.46 145.086 384.153 164.344 384.406C183.466 384.658 201.192 382.1 214.019 379.474" stroke="#1C0902" stroke-width="0.4657" stroke-miterlimit="10"/>
</g>
<path d="M303.405 185.487L288.793 173.316L269.974 202.791L284.063 214.255L303.405 185.487Z" fill="#966562" stroke="#966562" stroke-width="0.8663" stroke-miterlimit="10"/>
<path d="M295.493 165.219C301.721 159.277 304.027 149.615 300.576 140.895C296.907 131.603 287.884 126.385 278.912 127.563C275.663 117.345 267.23 110.427 258.156 111.437C253.224 111.975 248.999 114.786 246.02 118.927C241.862 115.207 236.441 113.221 230.785 113.844C219.473 115.106 211.427 126.317 212.824 138.892C212.925 139.834 213.094 140.743 213.296 141.652C213.245 141.652 213.178 141.653 213.127 141.669C205.418 142.528 199.913 149.766 200.805 157.829C201.546 164.462 206.377 169.596 212.353 170.74C210.552 173.08 209.609 176.161 209.963 179.41C210.686 185.874 216.275 190.553 222.453 189.863C228.631 189.173 233.058 183.382 232.334 176.918C231.812 172.138 228.614 168.35 224.473 166.97C226.628 164.815 228.109 161.937 228.597 158.755C230.903 159.412 233.344 159.664 235.819 159.395C240.7 158.856 244.959 156.449 248.124 152.897C252.214 157.459 257.702 160.018 263.459 159.378C263.543 159.361 263.61 159.344 263.678 159.344C267.112 165.96 273.424 170.067 280.208 170.656C279.77 172.138 279.602 173.737 279.787 175.403C280.461 181.531 285.511 185.992 291.032 185.369C296.57 184.763 300.509 179.292 299.819 173.181C299.482 169.848 297.816 167.003 295.493 165.219Z" fill="#1C0902" stroke="#1C0902" stroke-width="0.2462" stroke-miterlimit="10"/>
<mask id="mask6_51_760" style="mask-type:luminance" maskUnits="userSpaceOnUse" x="223" y="143" width="71" height="72">
<path d="M231.19 150.052C242.3 139.683 261.675 142.393 274.468 156.112C275.68 157.425 277.919 160.338 277.986 160.422C279.417 158.334 281.488 157.005 283.844 156.937C288.558 156.803 292.665 161.752 293.002 167.98C293.338 174.208 289.803 179.359 285.09 179.494C285.039 179.494 285.006 179.494 284.955 179.494C285.073 181.362 285.023 183.197 284.804 184.982C283.575 201.933 271.775 215.079 257.854 214.625C247.703 214.288 240.633 206.141 235.516 198.01C231.392 191.445 226.83 184.83 224.793 177.238C223.042 170.757 223.143 163.67 225.887 157.543C227.133 154.715 228.951 152.157 231.19 150.052Z" fill="white"/>
</mask>
<g mask="url(#mask6_51_760)">
<path d="M235.499 197.994C231.375 191.429 226.813 184.813 224.776 177.221C222.318 168.098 223.278 153.167 233.226 148.605C240.38 145.322 248.528 149.312 254.79 152.813C261.321 156.466 267.129 161.499 272.027 167.155C272.498 167.694 273.407 168.064 274.047 167.525C275.259 166.482 276.067 164.984 276.74 163.57C277.01 162.997 277.262 162.425 277.481 161.836C277.582 161.566 277.7 161.28 277.784 161.011C277.868 160.742 277.936 160.506 278.087 160.287C279.08 158.89 280.477 157.745 282.127 157.24C282.178 157.223 282.228 157.207 282.279 157.19C282.784 157.055 283.305 156.971 283.844 156.954C288.557 156.819 292.665 161.768 293.001 167.997C293.338 174.225 289.803 179.376 285.09 179.511C285.039 179.511 285.006 179.511 284.955 179.511C285.073 181.379 285.022 183.214 284.804 184.998C283.575 201.95 271.775 215.096 257.853 214.642C247.686 214.288 240.616 206.141 235.499 197.994Z" fill="#C68277"/>
</g>
<mask id="mask7_51_760" style="mask-type:luminance" maskUnits="userSpaceOnUse" x="223" y="143" width="71" height="72">
<path d="M231.19 150.052C242.3 139.683 261.675 142.393 274.468 156.112C275.68 157.425 277.919 160.338 277.986 160.422C279.417 158.334 281.488 157.005 283.844 156.937C288.558 156.803 292.665 161.752 293.002 167.98C293.338 174.208 289.803 179.359 285.09 179.494C285.039 179.494 285.006 179.494 284.955 179.494C285.073 181.362 285.023 183.197 284.804 184.982C283.575 201.933 271.775 215.079 257.854 214.625C247.703 214.288 240.633 206.141 235.516 198.01C231.392 191.445 226.83 184.83 224.793 177.238C223.042 170.757 223.143 163.67 225.887 157.543C227.133 154.715 228.951 152.157 231.19 150.052Z" fill="white"/>
</mask>
<g mask="url(#mask7_51_760)">
<path d="M243.697 193.769C245.835 199.61 252.299 202.606 258.123 200.468C263.964 198.33 266.961 191.866 264.823 186.042C262.685 180.201 256.221 177.205 250.397 179.342C244.572 181.48 241.576 187.927 243.697 193.769Z" fill="#B57771"/>
</g>
<mask id="mask8_51_760" style="mask-type:luminance" maskUnits="userSpaceOnUse" x="223" y="143" width="71" height="72">
<path d="M231.19 150.052C242.3 139.683 261.675 142.393 274.468 156.112C275.68 157.425 277.919 160.338 277.986 160.422C279.417 158.334 281.488 157.005 283.844 156.937C288.558 156.803 292.665 161.752 293.002 167.98C293.338 174.208 289.803 179.359 285.09 179.494C285.039 179.494 285.006 179.494 284.955 179.494C285.073 181.362 285.023 183.197 284.804 184.982C283.575 201.933 271.775 215.079 257.854 214.625C247.703 214.288 240.633 206.141 235.516 198.01C231.392 191.445 226.83 184.83 224.793 177.238C223.042 170.757 223.143 163.67 225.887 157.543C227.133 154.715 228.951 152.157 231.19 150.052Z" fill="white"/>
</mask>
<g mask="url(#mask8_51_760)">
<path d="M245.498 195.755C250.178 201.798 244.555 210.619 237.098 207.353C235.398 206.612 233.159 204.306 233.125 202.741C236.273 208.313 244.841 208.346 246.154 201.461C246.491 199.559 246.154 197.573 245.38 195.805L245.498 195.755Z" fill="#1C0902"/>
</g>
<mask id="mask9_51_760" style="mask-type:luminance" maskUnits="userSpaceOnUse" x="223" y="143" width="71" height="72">
<path d="M231.19 150.052C242.3 139.683 261.675 142.393 274.468 156.112C275.68 157.425 277.919 160.338 277.986 160.422C279.417 158.334 281.488 157.005 283.844 156.937C288.558 156.803 292.665 161.752 293.002 167.98C293.338 174.208 289.803 179.359 285.09 179.494C285.039 179.494 285.006 179.494 284.955 179.494C285.073 181.362 285.023 183.197 284.804 184.982C283.575 201.933 271.775 215.079 257.854 214.625C247.703 214.288 240.633 206.141 235.516 198.01C231.392 191.445 226.83 184.83 224.793 177.238C223.042 170.757 223.143 163.67 225.887 157.543C227.133 154.715 228.951 152.157 231.19 150.052Z" fill="white"/>
</mask>
<g mask="url(#mask9_51_760)">
<path d="M238.596 184.931C239.707 186.85 239.623 188.971 238.394 189.678C237.182 190.385 235.297 189.392 234.186 187.456C233.075 185.537 233.159 183.416 234.388 182.709C235.617 182.019 237.485 183.012 238.596 184.931Z" fill="#1C0902"/>
</g>
<mask id="mask10_51_760" style="mask-type:luminance" maskUnits="userSpaceOnUse" x="223" y="143" width="71" height="72">
<path d="M231.19 150.052C242.3 139.683 261.675 142.393 274.468 156.112C275.68 157.425 277.919 160.338 277.986 160.422C279.417 158.334 281.488 157.005 283.844 156.937C288.558 156.803 292.665 161.752 293.002 167.98C293.338 174.208 289.803 179.359 285.09 179.494C285.039 179.494 285.006 179.494 284.955 179.494C285.073 181.362 285.023 183.197 284.804 184.982C283.575 201.933 271.775 215.079 257.854 214.625C247.703 214.288 240.633 206.141 235.516 198.01C231.392 191.445 226.83 184.83 224.793 177.238C223.042 170.757 223.143 163.67 225.887 157.543C227.133 154.715 228.951 152.157 231.19 150.052Z" fill="white"/>
</mask>
<g mask="url(#mask10_51_760)">
<path d="M241.794 170.875C241.794 170.875 235.819 166.717 227.604 172.962L241.794 170.875Z" fill="#0F0203"/>
<path d="M241.794 170.875C237.35 169.865 233.495 170.791 229.455 172.323C228.866 172.542 228.277 172.794 227.621 172.963C228.008 172.407 228.445 171.919 228.917 171.448C230.415 170.084 232.233 169.108 234.253 168.704C236.879 168.232 240.01 168.754 241.794 170.875Z" fill="#0F0203"/>
</g>
<mask id="mask11_51_760" style="mask-type:luminance" maskUnits="userSpaceOnUse" x="223" y="143" width="71" height="72">
<path d="M231.19 150.052C242.3 139.683 261.675 142.393 274.468 156.112C275.68 157.425 277.919 160.338 277.986 160.422C279.417 158.334 281.488 157.005 283.844 156.937C288.558 156.803 292.665 161.752 293.002 167.98C293.338 174.208 289.803 179.359 285.09 179.494C285.039 179.494 285.006 179.494 284.955 179.494C285.073 181.362 285.023 183.197 284.804 184.982C283.575 201.933 271.775 215.079 257.854 214.625C247.703 214.288 240.633 206.141 235.516 198.01C231.392 191.445 226.83 184.83 224.793 177.238C223.042 170.757 223.143 163.67 225.887 157.543C227.133 154.715 228.951 152.157 231.19 150.052Z" fill="white"/>
</mask>
<g mask="url(#mask11_51_760)">
<path d="M285.612 162.408L281.808 173.047" stroke="#B57771" stroke-width="0.764" stroke-miterlimit="10"/>
</g>
<path d="M231.055 190.772L232.418 201.966L237.233 200.485" fill="#B57771"/>
<path d="M257.82 141.939C253.982 142.359 250.75 144.464 248.831 147.376C246.306 142.881 241.104 140.104 235.482 140.727C228.042 141.551 222.655 147.999 223.446 155.136C223.514 155.759 223.648 156.348 223.8 156.937C222.621 156.449 221.292 156.23 219.911 156.382C215.686 156.853 212.622 160.523 213.077 164.579C213.531 168.636 217.319 171.548 221.544 171.077C225.433 170.639 228.328 167.492 228.412 163.839C231.105 165.909 234.64 166.987 238.361 166.566C242.939 166.061 246.727 163.418 248.797 159.799C251.188 163.468 255.615 165.69 260.412 165.152C267.095 164.411 271.943 158.604 271.236 152.19C270.512 145.793 264.503 141.198 257.82 141.939Z" fill="#1C0902" stroke="#1C0902" stroke-width="0.134" stroke-miterlimit="10"/>
<path d="M281.605 467.024L379.272 463.506L376.646 409.656L330.068 414.47L329.95 438.407C329.95 438.391 287.749 428.678 281.605 467.024Z" fill="#1C0902" stroke="#1C0902" stroke-width="0.8663" stroke-miterlimit="10"/>
<path d="M362.691 460.543L413.646 377.151L367.304 349.628L345.605 391.139L365.502 404.438C365.502 404.438 334.108 434.266 362.691 460.543Z" fill="#1C0902" stroke="#1C0902" stroke-width="0.8663" stroke-miterlimit="10"/>
<path d="M327.83 412.114C325.288 414.016 322.746 415.817 320.204 417.551C281.925 443.727 243.444 452.598 231.863 437.077C219.507 420.513 242.468 382.521 283.103 352.187C290.796 346.43 298.59 341.38 306.232 337.071C323.554 327.307 340.152 321.348 353.416 319.917L377.774 325.725C378.245 326.196 378.683 326.701 379.07 327.223C391.409 343.753 368.482 381.763 327.83 412.114Z" fill="#061B2E" stroke="#061B2E" stroke-width="0.7315" stroke-miterlimit="10"/>
<path d="M371.445 379.541L380.602 425.328L322.241 429.334L320.204 417.568L306.216 337.071L300.189 303.522C303.691 297.058 318.033 277.952 342.475 272.633C374.273 265.697 414.084 291.099 428.628 337.811C426.742 343.4 422.046 354.779 410.869 364.526C394.995 378.346 376.848 379.423 371.445 379.541Z" fill="#1B264F" stroke="#1B264F" stroke-width="0.7315" stroke-miterlimit="10"/>
<path d="M284.702 214.793L277.582 210.147L302.377 182.726L308.892 188.584C308.892 188.584 304.65 173.417 326.163 173.821C347.693 174.225 393.429 184.897 419.571 217.032C445.713 249.167 414.639 271.471 407.855 272.279C401.071 273.07 406.256 271.875 407.855 272.279C409.454 272.683 442.532 314.531 426.995 342.037C378.414 284.399 320.12 269.586 295.509 289.028C276.606 303.96 279.08 337.929 280.578 350.554C278.609 345.269 229.977 265.731 256.204 223.193C269.956 202.673 284.702 214.793 284.702 214.793Z" fill="#FFF2DE"/>
<path d="M407.855 272.279C414.639 271.471 445.713 249.167 419.571 217.032C393.429 184.897 347.693 174.225 326.163 173.821C304.65 173.417 308.892 188.584 308.892 188.584L302.377 182.726L277.582 210.147L284.702 214.793C284.702 214.793 269.956 202.673 256.204 223.193C229.977 265.731 278.609 345.269 280.578 350.554C279.08 337.929 276.606 303.959 295.509 289.028C320.12 269.586 378.414 284.399 426.995 342.037C442.532 314.531 409.454 272.683 407.855 272.279ZM407.855 272.279C401.071 273.07 406.256 271.875 407.855 272.279Z" stroke="#FFF2DE" stroke-width="0.8663" stroke-miterlimit="10"/>
<path d="M273.862 241.289L290.661 295.257" stroke="#1C0902" stroke-width="0.8663" stroke-miterlimit="10"/>
<path d="M321.45 343.047L254.857 289.533L248.511 296.637C247.282 295.29 245.918 294.011 244.454 292.799C231.004 281.824 212.824 281.891 203.852 292.9C194.863 303.926 198.499 321.736 211.949 332.677C212.79 333.367 213.666 334.024 214.575 334.613L208.515 341.414L237.721 365.57L191.126 361.715L193.752 367.859L252.113 377.471L272.313 394.186L321.45 343.047ZM215.349 327.998C205.03 319.598 202.253 305.946 209.121 297.496C216.022 289.062 229.944 289.028 240.246 297.428C241.761 298.657 243.09 300.004 244.269 301.401L245.195 300.357L216.915 332.038L218.497 330.253C217.42 329.58 216.376 328.822 215.349 327.998Z" fill="#08559C" stroke="#08559C" stroke-width="0.5609" stroke-miterlimit="10"/>
<path d="M267.414 295.29C273.828 287.749 286.015 287.598 294.668 294.954C303.303 302.31 305.121 314.379 298.708 321.904C298.304 322.392 297.866 322.847 297.395 323.251L302.748 327.56C303.673 326.819 304.566 325.978 305.374 325.035C313.353 315.659 310.508 300.138 299.011 290.358C287.53 280.578 271.741 280.258 263.778 289.634C262.634 290.981 261.708 292.446 261.001 294.011L265.697 297.782C266.169 296.906 266.741 296.065 267.414 295.29Z" fill="#08559C" stroke="#08559C" stroke-width="0.5609" stroke-miterlimit="10"/>
<path d="M218.867 350.521L265.681 297.782" stroke="#FAD0B7" stroke-width="0.9314" stroke-miterlimit="10"/>
<path d="M221.207 352.86L268.021 300.122" stroke="#FAD0B7" stroke-width="0.9314" stroke-miterlimit="10"/>
<path d="M264.991 370.384C269.906 373.582 274.114 377.555 277.565 382.302C272.633 379.137 268.425 375.131 264.991 370.384Z" fill="#FAD0B7"/>
<path d="M278.356 353.837C283.271 357.035 287.48 361.008 290.93 365.755C285.998 362.573 281.79 358.584 278.356 353.837Z" fill="#FAD0B7"/>
<path d="M292.9 336.212C297.816 339.411 302.024 343.383 305.475 348.13C300.543 344.949 296.351 340.959 292.9 336.212Z" fill="#FAD0B7"/>
<path d="M339.478 249.302L286.739 264.519C286.739 264.519 256.54 280.713 260.934 287.581C263.846 292.126 270.95 284.298 270.95 284.298C270.95 284.298 266.405 295.408 276.101 294.886C276.101 294.886 276.101 302.478 285.41 299.027C285.41 299.027 286.79 305.929 294.365 302.815C294.365 302.815 302.327 313.807 318.504 286.268C318.504 286.268 342.525 286.958 368.162 283.002C368.112 283.12 339.478 249.302 339.478 249.302Z" fill="#C68277"/>
<path d="M275.898 294.903L286.571 284.635" stroke="#B57771" stroke-width="0.9314" stroke-miterlimit="10"/>
<path d="M285.106 299.229L293.994 290.712" stroke="#B57771" stroke-width="0.9314" stroke-miterlimit="10"/>
<path d="M293.759 303.084L302.647 294.567" stroke="#B57771" stroke-width="0.9314" stroke-miterlimit="10"/>
<path d="M270.646 284.601L279.955 277.144" stroke="#B57771" stroke-width="0.9314" stroke-miterlimit="10"/>
<path d="M331.415 212.167L368.802 239.118L332.913 249.739C332.913 249.739 347.255 281.958 350.42 289.045C350.42 289.045 395.5 279.652 409.909 272.296" fill="#FFF2DE"/>
<path d="M331.415 212.167L368.802 239.118L332.913 249.739C332.913 249.739 347.255 281.958 350.42 289.045C350.42 289.045 395.5 279.652 409.909 272.296" stroke="#1C0902" stroke-width="0.9314" stroke-miterlimit="10"/>
<path d="M279.484 211.747L304.987 184.291" stroke="#1C0902" stroke-width="0.8663" stroke-miterlimit="10"/>
</g>
<path d="M-1 37.22C-1 16.1117 16.1117 -1 37.22 -1H505V1H37.22C17.2162 1 1 17.2162 1 37.22H-1ZM505 505H0H505ZM37.22 505C16.1117 505 -1 487.888 -1 466.78V37.22C-1 16.1117 16.1117 -1 37.22 -1V1C17.2162 1 1 17.2162 1 37.22V467.78C1 488.336 17.2162 505 37.22 505ZM505 0V505V0Z" fill="#CCF5C6" mask="url(#path-1-inside-1_51_760)"/>
<defs>
<clipPath id="clip0_51_760">
<path d="M0 37.22C0 16.664 16.664 0 37.22 0H505V505H37.22C16.664 505 0 488.336 0 467.78V37.22Z" fill="white"/>
</clipPath>
</defs>
</svg>
