<svg width="25" height="26" viewBox="0 0 25 26" fill="none" xmlns="http://www.w3.org/2000/svg">
<path d="M2.46924 2.80237V6.97675C11.403 6.97675 18.346 13.9251 18.346 22.8641H22.531C22.531 11.8041 13.5451 2.80237 2.46924 2.80237Z" fill="#CCF5C6"/>
<path d="M5.30078 17.0706C4.71873 17.0727 4.15035 17.2472 3.66735 17.572C3.18436 17.8968 2.8084 18.3574 2.5869 18.8956C2.36541 19.4339 2.30831 20.0257 2.4228 20.5964C2.5373 21.1671 2.81827 21.6911 3.23025 22.1022C3.64223 22.5134 4.16677 22.7933 4.73768 22.9067C5.30859 23.0201 5.90028 22.9618 6.43811 22.7392C6.97593 22.5167 7.43578 22.1398 7.75964 21.6561C8.08349 21.1725 8.25684 20.6038 8.25781 20.0217C8.25536 19.2388 7.94284 18.4887 7.38865 17.9356C6.83446 17.3825 6.08374 17.0715 5.30078 17.0706Z" fill="#CCF5C6"/>
<path d="M2.34375 9.44812V13.6742C4.88281 13.6742 7.32129 14.4257 9.11475 16.2186C10.9082 18.0116 11.6538 20.4452 11.6538 22.9896H15.8853C15.8853 15.5892 9.74951 9.44812 2.34375 9.44812Z" fill="#CCF5C6"/>
</svg>
