<svg width="26" height="23" viewBox="0 0 26 23" fill="none" xmlns="http://www.w3.org/2000/svg">
<path d="M21.75 8C20.7083 8 19.8229 7.63542 19.0938 6.90625C18.3646 6.17708 18 5.29167 18 4.25C18 3.20833 18.3646 2.32292 19.0938 1.59375C19.8229 0.864583 20.7083 0.5 21.75 0.5C22.7917 0.5 23.6771 0.864583 24.4063 1.59375C25.1354 2.32292 25.5 3.20833 25.5 4.25C25.5 5.29167 25.1354 6.17708 24.4063 6.90625C23.6771 7.63542 22.7917 8 21.75 8ZM3 23C2.3125 23 1.72375 22.755 1.23375 22.265C0.743752 21.775 0.499169 21.1867 0.500002 20.5V5.5C0.500002 4.8125 0.745002 4.22375 1.235 3.73375C1.725 3.24375 2.31334 2.99917 3 3H15.625C15.5417 3.41667 15.5 3.83333 15.5 4.25C15.5 4.66667 15.5417 5.08333 15.625 5.5C15.7708 6.16667 16.0104 6.78667 16.3438 7.36C16.6771 7.93333 17.0833 8.43833 17.5625 8.875L13 11.75L4.625 6.5C4.27084 6.27083 3.91125 6.26042 3.54625 6.46875C3.18125 6.67708 2.99917 6.98958 3 7.40625C3 7.59375 3.04167 7.76583 3.125 7.9225C3.20834 8.07917 3.33334 8.20917 3.5 8.3125L12.3438 13.8438C12.5521 13.9688 12.7708 14.0312 13 14.0312C13.2292 14.0312 13.4479 13.9688 13.6563 13.8438L19.5938 10.125C19.9479 10.25 20.3021 10.3438 20.6563 10.4062C21.0104 10.4688 21.375 10.5 21.75 10.5C22.4167 10.5 23.0729 10.3958 23.7188 10.1875C24.3646 9.97917 24.9583 9.66667 25.5 9.25V20.5C25.5 21.1875 25.255 21.7763 24.765 22.2663C24.275 22.7563 23.6867 23.0008 23 23H3Z" fill="#FF735B"/>
</svg>
