<svg width="682" height="887" viewBox="0 0 682 887" fill="none" xmlns="http://www.w3.org/2000/svg">
    <g filter="url(#filter0_d_2004_186)">
        <path fill-rule="evenodd" clip-rule="evenodd"
            d="M57.6303 58.1864C54 65.3113 54 74.6384 54 93.2925V819.404H70.6539C70.6539 811.126 77.3645 804.415 85.6424 804.415C93.9204 804.415 100.631 811.126 100.631 819.404H113.954C113.954 811.126 120.665 804.415 128.943 804.415C137.221 804.415 143.931 811.126 143.931 819.404H157.254C157.254 811.126 163.965 804.415 172.243 804.415C180.521 804.415 187.231 811.126 187.231 819.404H200.554C200.554 811.126 207.265 804.415 215.543 804.415C223.821 804.415 230.532 811.126 230.532 819.404H243.855C243.855 811.126 250.565 804.415 258.843 804.415C267.121 804.415 273.832 811.126 273.832 819.404H287.155C287.155 811.126 293.865 804.415 302.143 804.415C310.421 804.415 317.132 811.126 317.132 819.404H330.455C330.455 811.126 337.166 804.415 345.444 804.415C353.722 804.415 360.432 811.126 360.432 819.404H373.755C373.755 811.126 380.466 804.415 388.744 804.415C397.022 804.415 403.732 811.126 403.732 819.404H417.055C417.055 811.126 423.766 804.415 432.044 804.415C440.322 804.415 447.033 811.126 447.033 819.404H460.356C460.356 811.126 467.066 804.415 475.344 804.415C483.622 804.415 490.333 811.126 490.333 819.404H503.656C503.656 811.126 510.366 804.415 518.644 804.415C526.922 804.415 533.633 811.126 533.633 819.404H546.956C546.956 811.126 553.667 804.415 561.945 804.415C570.223 804.415 576.933 811.126 576.933 819.404H590.256C590.256 811.126 596.967 804.415 605.245 804.415C613.523 804.415 620.233 811.126 620.233 819.404H628.56V93.2925C628.56 74.6384 628.56 65.3113 624.93 58.1864C621.737 51.9191 616.641 46.8237 610.374 43.6303C603.249 40 593.922 40 575.268 40H107.293C88.6384 40 79.3113 40 72.1864 43.6303C65.9191 46.8237 60.8237 51.9191 57.6303 58.1864Z"
            fill="black" />
    </g>
    <defs>
        <filter id="filter0_d_2004_186" x="0.707447" y="0.0305853" width="681.146" height="885.989"
            filterUnits="userSpaceOnUse" color-interpolation-filters="sRGB">
            <feFlood flood-opacity="0" result="BackgroundImageFix" />
            <feColorMatrix in="SourceAlpha" type="matrix" values="0 0 0 0 0 0 0 0 0 0 0 0 0 0 0 0 0 0 127 0"
                result="hardAlpha" />
            <feOffset dy="13.3231" />
            <feGaussianBlur stdDeviation="26.6463" />
            <feComposite in2="hardAlpha" operator="out" />
            <feColorMatrix type="matrix" values="0 0 0 0 0 0 0 0 0 0 0 0 0 0 0 0 0 0 0.16 0" />
            <feBlend mode="normal" in2="BackgroundImageFix" result="effect1_dropShadow_2004_186" />
            <feBlend mode="normal" in="SourceGraphic" in2="effect1_dropShadow_2004_186" result="shape" />
        </filter>
    </defs>
</svg>