<svg width="16" height="20" viewBox="0 0 16 20" fill="none" xmlns="http://www.w3.org/2000/svg">
<path d="M15.6435 0.527344H1.32528C1.23487 0.527344 1.14816 0.560707 1.08422 0.620093C1.02029 0.67948 0.984375 0.760025 0.984375 0.84401V1.60401C0.991123 2.26721 1.17081 2.91901 1.50804 3.5036C1.84527 4.08819 2.33001 4.58815 2.92074 4.96068L5.7571 6.83534C6.32983 7.18748 6.8071 7.65868 7.14801 8.21474C7.49834 8.76336 7.68321 9.38947 7.68321 10.0273C7.68321 10.6652 7.49834 11.2913 7.14801 11.8399C6.8071 12.3947 6.32983 12.8672 5.7571 13.2193L2.92074 15.094C2.33001 15.4665 1.84527 15.9665 1.50804 16.5511C1.17081 17.1357 0.991123 17.7875 0.984375 18.4507V19.2107C0.984375 19.2947 1.02029 19.3752 1.08422 19.4346C1.14816 19.494 1.23487 19.5273 1.32528 19.5273H15.6435C15.7339 19.5273 15.8206 19.494 15.8845 19.4346C15.9485 19.3752 15.9844 19.2947 15.9844 19.2107V18.4507C15.9776 17.7875 15.7979 17.1357 15.4607 16.5511C15.1235 15.9665 14.6387 15.4665 14.048 15.094L11.2116 13.2193C10.6381 12.867 10.1617 12.3946 9.82074 11.8399C9.47041 11.2913 9.28554 10.6652 9.28554 10.0273C9.28554 9.38947 9.47041 8.76336 9.82074 8.21474C10.1616 7.65994 10.6389 7.18748 11.2116 6.83534L14.048 4.96068C14.6387 4.58815 15.1235 4.08819 15.4607 3.5036C15.7979 2.91901 15.9776 2.26721 15.9844 1.60401V0.84401C15.9844 0.760025 15.9485 0.67948 15.8845 0.620093C15.8206 0.560707 15.7339 0.527344 15.6435 0.527344Z" fill="#7AE2D6"/>
</svg>
