<svg width="18" height="22" viewBox="0 0 18 22" fill="none" xmlns="http://www.w3.org/2000/svg">
<path fill-rule="evenodd" clip-rule="evenodd" d="M9 0V7.15C9 7.58761 9.17779 8.00729 9.49426 8.31673C9.81072 8.62616 10.2399 8.8 10.6875 8.8H18V19.8C18 20.3835 17.7629 20.9431 17.341 21.3556C16.919 21.7682 16.3467 22 15.75 22H2.25C1.65326 22 1.08097 21.7682 0.65901 21.3556C0.237053 20.9431 0 20.3835 0 19.8V2.2C0 1.61652 0.237053 1.05694 0.65901 0.644365C1.08097 0.231785 1.65326 0 2.25 0H9ZM11.25 0.0473C11.6762 0.135691 12.0671 0.343191 12.375 0.6446L17.3407 5.5C17.649 5.8011 17.8612 6.18323 17.9516 6.6H11.25V0.0473Z" fill="#22D1DC"/>
<path d="M11.925 13.5907C12.625 13.9948 12.625 15.0052 11.925 15.4093L7.575 17.9208C6.875 18.3249 6 17.8198 6 17.0115V11.9885C6 11.1802 6.875 10.6751 7.575 11.0792L11.925 13.5907Z" fill="#22D1DC" stroke="#27425D" stroke-width="1.5"/>
<rect x="1" y="3" width="3" height="1.5" rx="0.75" fill="#27425D"/>
<rect x="1" y="6" width="6" height="1.5" rx="0.75" fill="#27425D"/>
</svg>
